version 1.00
216
[0.204056,-0.604034,1.9579][-0.519685,0.0393701,0.858268][0.596729,0.226953,0][0.596916,-0.741148,1.88515][-0.543307,-0.606299,0.582677][0.584677,0.193702,0][0.37261,0.114778,1.81924][0.574803,0.362205,-0.732283][0.658999,0.211741,0][-1.24015,-0.604034,1.52873][-0.984252,0.15748,-0.0944882][0.924899,0.038917,0][-0.91092,-0.741148,1.75509][-0.811024,-0.590551,0.015748][0.912847,0.005,0][-1.02292,0.114778,1.54988][0.937008,0.322835,-0.15748][0.987169,0.022095,0][0.905006,-0.604768,1.63729][-0.393701,0.606299,0.692913][0.022302,0.798292,0][1.27289,-0.741148,1.51323][-0.19685,-0.496063,0.850394][0.01025,0.764375,0][1.04044,0.114778,1.53817][0.80315,0.598425,0][0.084572,0.78147,0][-0.517808,-0.604768,1.79767][0.267717,0.692913,-0.669291][0.15375,0.261816,0][-0.169938,-0.741148,1.97008][-0.748031,-0.456693,0.480315][0.18703,0.249764,0][-0.351948,0.114778,1.82335][-0.165354,0.393701,-0.905512][0.171507,0.324086,0][1.52873,-0.604034,1.24015][-0.0944882,0.15748,0.984252][0.596729,0.178686,0][1.75509,-0.741148,0.91092][0.015748,-0.590551,0.811024][0.584677,0.144768,0][1.54988,0.114778,1.02292][-0.15748,0.322835,-0.937008][0.658999,0.161864,0][-1.9579,-0.604034,0.204056][-0.858268,0.0393701,-0.519685][0.50214,0.275887,0][-1.88515,-0.741148,0.596916][-0.582677,-0.606299,-0.543307][0.490089,0.242636,0][-1.81925,0.114778,0.37261][0.732283,0.362205,0.574803][0.56441,0.260675,0][1.79767,-0.604768,0.517808][-0.669291,0.692913,-0.267717][0.11689,0.748721,0][1.97008,-0.741148,0.169938][0.480315,-0.456693,0.748031][0.104839,0.715441,0][1.82335,0.114778,0.351948][-0.905512,0.393701,0.165354][0.17916,0.730963,0][-1.63729,-0.604768,0.905004][0.653543,0.692913,-0.307087][0.50214,0.178686,0][-1.51323,-0.741148,1.27289][-0.850394,-0.496063,-0.19685][0.490089,0.144768,0][-1.53817,0.114778,1.04044][0.80315,0.519685,-0.299213][0.56441,0.161864,0][-0.517808,-0.604768,1.79767][0.267717,0.692913,-0.669291][0.15375,0.261816,0][-0.560732,-0.800884,1.88695][-0.244094,-0.0708661,0.968504][0.15375,0.244514,0][-0.169938,-0.741148,1.97008][-0.748031,-0.456693,0.480315][0.18703,0.249764,0][0.204056,-0.604034,1.9579][-0.519685,0.0393701,0.858268][0.596729,0.226953,0][0.192792,-0.803838,1.82108][-0.519685,-0.496063,-0.692913][0.579427,0.226953,0][0.596916,-0.741148,1.88515][-0.543307,-0.606299,0.582677][0.584677,0.193702,0][-1.51323,-0.741148,1.27289][-0.850394,-0.496063,-0.19685][0.762025,0.259938,0][-1.13406,-0.605334,1.37902][-0.220472,0.952756,-0.204724][0.762025,0.242636,0][-1.53817,0.114778,1.04044][0.80315,0.519685,-0.299213][0.825456,0.250797,0][0.081314,0.803838,-1.98976][0.488189,0.771654,0.401575][0.328753,0.964277,0][0.417118,0.392982,-2.0243][0.850394,0.511811,0.11811][0.34195,0.964284,0][-0.0073,0.58443,-2.21592][-0.133858,0.606299,-0.787402][0.340157,0.977335,0][0.905006,-0.604768,1.63729][-0.393701,0.606299,0.692913][0.022302,0.798292,0][0.93778,-0.800884,1.73078][-0.0629921,-0.992126,-0.0708661][0.005,0.798292,0][1.27289,-0.741148,1.51323][-0.19685,-0.496063,0.850394][0.01025,0.764375,0][1.9579,-0.604034,-0.204056][0.858268,0.0393701,0.519685][0.691317,0.178019,0][1.88515,-0.741148,-0.596916][0.582677,-0.606299,0.543307][0.679265,0.144768,0][1.81924,0.114778,-0.37261][-0.732283,0.362205,-0.574803][0.753587,0.162807,0][-0.424314,0.502026,-1.99482][-0.897638,0.125984,0.417323][0.328753,0.953008,0][0.081314,0.803838,-1.98976][0.488189,0.771654,0.401575][0.337867,0.943193,0][-0.0073,0.58443,-2.21592][-0.133858,0.606299,-0.787402][0.34634,0.953015,0][1.52873,-0.604034,1.24015][-0.0944882,0.15748,0.984252][0.596729,0.178686,0][1.42402,-0.803838,1.15137][0.472441,-0.519685,-0.708661][0.579427,0.178686,0][1.75509,-0.741148,0.91092][0.015748,-0.590551,0.811024][0.584677,0.144768,0][-1.24015,-0.604034,1.52873][-0.984252,0.15748,-0.0944882][0.924899,0.038917,0][-1.15137,-0.803838,1.42402][0.0551181,-0.480315,-0.874016][0.907597,0.038917,0][-0.91092,-0.741148,1.75509][-0.811024,-0.590551,0.015748][0.912847,0.005,0][-0.424314,0.502026,-1.99482][-0.897638,0.125984,0.417323][0.172943,0.121649,0][-0.0073,0.58443,-2.21592][-0.133858,0.606299,-0.787402][0.186698,0.110564,0][-0.212148,-0.022108,-2.1712][-0.748031,-0.322835,-0.574803][0.187085,0.138451,0][-0.212148,-0.022108,-2.1712][-0.748031,-0.322835,-0.574803][0.186727,0.795671,0][-0.0073,0.58443,-2.21592][-0.133858,0.606299,-0.787402][0.222113,0.796229,0][0.203442,-0.286186,-2.09888][0.952756,-0.283465,-0.102362][0.208576,0.809874,0][-1.52873,-0.604034,-1.24015][0.0944882,0.15748,-0.984252][0.50214,0.22762,0][-1.75509,-0.741148,-0.91092][-0.015748,-0.590551,-0.811024][0.490089,0.193702,0][-1.54988,0.114778,-1.02292][0.15748,0.322835,0.937008][0.56441,0.210798,0][-1.63729,-0.604768,0.905004][0.653543,0.692913,-0.307087][0.50214,0.178686,0][-1.73078,-0.800884,0.937778][-0.858268,-0.0708661,0.511811][0.484839,0.178686,0][-1.51323,-0.741148,1.27289][-0.850394,-0.496063,-0.19685][0.490089,0.144768,0][-0.905398,-0.370252,-1.98827][-0.748031,-0.0944882,-0.661417][0.771815,0.67445,0][-0.875016,-0.040502,-1.80306][0.023622,0.968504,-0.244094][0.776687,0.668602,0][-0.58981,-0.140772,-1.97763][0.19685,0.629921,-0.748031][0.781557,0.674449,0][0.890128,-0.370252,-1.99454][0.677165,0.0787402,-0.732283][0.473269,0.892778,0][0.54829,-0.160216,-1.98418][-0.606299,0.110236,-0.787402][0.463527,0.892777,0][0.80754,-0.033618,-1.83064][-0.00787402,0.913386,0.409449][0.468397,0.88693,0][1.63729,-0.604768,-0.905004][-0.653543,0.692913,0.307087][0.350472,0.60959,0][1.51323,-0.741148,-1.27289][0.850394,-0.496063,0.19685][0.33842,0.575673,0][1.53817,0.114778,-1.04044][-0.80315,0.519685,0.299213][0.412742,0.592768,0][0.203442,-0.286186,-2.09888][0.952756,-0.283465,-0.102362][0.346849,0.925369,0][-0.0073,0.58443,-2.21592][-0.133858,0.606299,-0.787402][0.328783,0.931931,0][0.417118,0.392982,-2.0243][0.850394,0.511811,0.11811][0.328753,0.918515,0][-1.79767,-0.604768,-0.517808][0.669291,0.692913,0.267717][0.603601,0.129114,0][-1.97008,-0.741148,-0.169938][-0.480315,-0.456693,-0.748031][0.591549,0.095834,0][-1.82335,0.114778,-0.351948][0.905512,0.393701,-0.165354][0.665871,0.111357,0][1.27289,-0.741148,1.51323][-0.19685,-0.496063,0.850394][0.377641,0.732743,0][1.37902,-0.605334,1.13406][-0.204724,0.952756,0.220472][0.377641,0.715441,0][1.04044,0.114778,1.53817][0.80315,0.598425,0][0.441072,0.723602,0][1.79767,-0.604768,0.517808][-0.669291,0.692913,-0.267717][0.11689,0.748721,0][1.88695,-0.800884,0.560732][0.968504,-0.0708661,0.244094][0.099588,0.748721,0][1.97008,-0.741148,0.169938][0.480315,-0.456693,0.748031][0.104839,0.715441,0][1.24015,-0.604034,-1.52873][0.984252,0.15748,0.0944882][0.830311,0.038917,0][0.91092,-0.741148,-1.75509][0.811024,-0.590551,-0.015748][0.818259,0.005,0][1.02293,0.114778,-1.54988][-0.937008,0.322835,0.15748][0.892581,0.022095,0][1.04395,-0.262738,-1.72372][0.968504,-0.23622,0.0708661][0.168145,0.473903,0][0.890128,-0.370252,-1.99454][0.677165,0.0787402,-0.732283][0.168904,0.462693,0][0.80754,-0.033618,-1.83064][-0.00787402,0.913386,0.409449][0.177765,0.473256,0][1.9579,-0.604034,-0.204056][0.858268,0.0393701,0.519685][0.691317,0.178019,0][1.82108,-0.803838,-0.192792][-0.692913,-0.496063,0.519685][0.674015,0.178019,0][1.88515,-0.741148,-0.596916][0.582677,-0.606299,0.543307][0.679265,0.144768,0][-0.204056,-0.604034,-1.9579][0.519685,0.0393701,-0.858268][0.022302,0.84656,0][-0.596916,-0.741148,-1.88515][0.543307,-0.606299,-0.582677][0.01025,0.813309,0][-0.37261,0.114778,-1.81925][-0.574803,0.362205,0.732283][0.084572,0.831348,0][-1.9579,-0.604034,0.204056][-0.858268,0.0393701,-0.519685][0.50214,0.275887,0][-1.82108,-0.803838,0.192792][0.692913,-0.496063,-0.519685][0.484839,0.275887,0][-1.88515,-0.741148,0.596916][-0.582677,-0.606299,-0.543307][0.490089,0.242636,0][-0.059254,-0.55831,-1.99651][-0.527559,-0.614173,0.590551][0.322072,0.15375,0][-0.212148,-0.022108,-2.1712][-0.748031,-0.322835,-0.574803][0.33385,0.182196,0][0.203442,-0.286186,-2.09888][0.952756,-0.283465,-0.102362][0.310118,0.182173,0][0.517808,-0.604768,-1.79767][-0.267717,0.692913,0.669291][0.123763,0.699787,0][0.169938,-0.74115,-1.97008][0.748031,-0.456693,-0.480315][0.111711,0.666507,0][0.351948,0.114778,-1.82335][0.165354,0.393701,0.905512][0.186033,0.682029,0][-0.875016,-0.040502,-1.80306][0.023622,0.968504,-0.244094][0.581422,0.760146,0][-0.905398,-0.370252,-1.98827][-0.748031,-0.0944882,-0.661417][0.592654,0.760442,0][-1.05732,-0.377282,-1.71638][-0.732283,-0.645669,0.212598][0.582466,0.769732,0][-0.905004,-0.604768,-1.63729][0.307087,0.692913,0.653543][0.022302,0.749358,0][-1.27289,-0.741148,-1.51323][0.19685,-0.496063,-0.850394][0.01025,0.715441,0][-1.04044,0.114778,-1.53817][0.299213,0.519685,0.80315][0.084572,0.732536,0][-1.79767,-0.604768,-0.517808][0.669291,0.692913,0.267717][0.603601,0.129114,0][-1.88695,-0.800884,-0.560732][-0.968504,-0.0708661,-0.244094][0.586299,0.129114,0][-1.97008,-0.741148,-0.169938][-0.480315,-0.456693,-0.748031][0.591549,0.095834,0][-0.58981,-0.140772,-1.97763][0.19685,0.629921,-0.748031][0.492503,0.825026,0][-0.527162,-0.433014,-1.93814][0.755906,0.0551181,-0.653543][0.484839,0.813566,0][-0.905398,-0.370252,-1.98827][-0.748031,-0.0944882,-0.661417][0.498626,0.813572,0][-1.27289,-0.741148,-1.51323][0.19685,-0.496063,-0.850394][0.384513,0.683809,0][-1.37902,-0.605334,-1.13406][0.204724,0.952756,-0.220472][0.384513,0.666507,0][-1.04044,0.114778,-1.53817][0.299213,0.519685,0.80315][0.447944,0.674668,0][1.63729,-0.604768,-0.905004][-0.653543,0.692913,0.307087][0.350472,0.60959,0][1.73078,-0.800884,-0.937778][0.858268,-0.0708661,-0.511811][0.33317,0.60959,0][1.51323,-0.741148,-1.27289][0.850394,-0.496063,0.19685][0.33842,0.575673,0][1.24015,-0.604034,-1.52873][0.984252,0.15748,0.0944882][0.830311,0.038917,0][1.15137,-0.803838,-1.42402][-0.0551181,-0.480315,0.874016][0.813009,0.038917,0][0.91092,-0.741148,-1.75509][0.811024,-0.590551,-0.015748][0.818259,0.005,0][0.54829,-0.160216,-1.98418][-0.606299,0.110236,-0.787402][0.484839,0.748343,0][0.890128,-0.370252,-1.99454][0.677165,0.0787402,-0.732283][0.491139,0.736986,0][0.604648,-0.57395,-1.90388][-0.897638,-0.362205,-0.259843][0.498624,0.748565,0][-1.52873,-0.604034,-1.24015][0.0944882,0.15748,-0.984252][0.50214,0.22762,0][-1.42402,-0.803838,-1.15137][0.874016,-0.480315,0.0551181][0.484839,0.22762,0][-1.75509,-0.741148,-0.91092][-0.015748,-0.590551,-0.811024][0.490089,0.193702,0][-0.905004,-0.604768,-1.63729][0.307087,0.692913,0.653543][0.022302,0.749358,0][-0.937778,-0.800884,-1.73078][-0.511811,-0.0708661,-0.858268][0.005,0.749358,0][-1.27289,-0.741148,-1.51323][0.19685,-0.496063,-0.850394][0.01025,0.715441,0][-0.204056,-0.604034,-1.9579][0.519685,0.0393701,-0.858268][0.022302,0.84656,0][-0.192792,-0.803838,-1.82108][0.519685,-0.496063,0.692913][0.005,0.84656,0][-0.596916,-0.741148,-1.88515][0.543307,-0.606299,-0.582677][0.01025,0.813309,0][0.517808,-0.604768,-1.79767][-0.267717,0.692913,0.669291][0.123763,0.699787,0][0.560732,-0.800884,-1.88695][0.244094,-0.0708661,-0.968504][0.106461,0.699787,0][0.169938,-0.74115,-1.97008][0.748031,-0.456693,-0.480315][0.111711,0.666507,0][1.51323,-0.741148,-1.27289][0.850394,-0.496063,0.19685][0.563286,0.403116,0][1.13406,-0.605334,-1.37902][0.220472,0.952756,0.204724][0.563286,0.385814,0][1.53817,0.114778,-1.04044][-0.80315,0.519685,0.299213][0.626718,0.393975,0][0.912052,-0.559466,-1.77781][0.354331,-0.889764,-0.283465][0.978984,0.523838,0][0.890128,-0.370252,-1.99454][0.677165,0.0787402,-0.732283][0.967752,0.523541,0][1.04395,-0.262738,-1.72372][0.968504,-0.23622,0.0708661][0.97794,0.514252,0][-0.527162,-0.433014,-1.93814][0.755906,0.0551181,-0.653543][0.941504,0.52384,0][-0.778852,-0.616658,-1.83288][-0.425197,-0.858268,0.275591][0.942528,0.514252,0][-0.905398,-0.370252,-1.98827][-0.748031,-0.0944882,-0.661417][0.952735,0.52352,0][0.604648,-0.57395,-1.90388][-0.897638,-0.362205,-0.259843][0.235322,0.144302,0][0.890128,-0.370252,-1.99454][0.677165,0.0787402,-0.732283][0.235402,0.13616,0][0.912052,-0.559466,-1.77781][0.354331,-0.889764,-0.283465][0.244779,0.144395,0][0.300252,-0.575758,1.74461][-0.866142,0.291339,-0.401575][0.192894,0.277689,0][0.596916,-0.741148,1.88515][-0.543307,-0.606299,0.582677][0.191405,0.260451,0][0.905006,-0.604768,1.63729][-0.393701,0.606299,0.692913][0.224374,0.269402,0][0.192792,-0.803838,1.82108][-0.519685,-0.496063,-0.692913][0.403813,0.26336,0][-0.169938,-0.741148,1.97008][-0.748031,-0.456693,0.480315][0.408916,0.292246,0][-0.560732,-0.800884,1.88695][-0.244094,-0.0708661,0.968504][0.396129,0.323661,0][-1.05732,-0.377282,-1.71638][-0.732283,-0.645669,0.212598][0.620636,0.723513,0][-0.905398,-0.370252,-1.98827][-0.748031,-0.0944882,-0.661417][0.609426,0.722754,0][-0.778852,-0.616658,-1.83288][-0.425197,-0.858268,0.275591][0.619989,0.713893,0][-1.15137,-0.803838,1.42402][0.0551181,-0.480315,-0.874016][0.342357,0.371091,0][-1.51323,-0.741148,1.27289][-0.850394,-0.496063,-0.19685][0.32554,0.395125,0][-1.73078,-0.800884,0.937778][-0.858268,-0.0708661,0.511811][0.294285,0.408297,0][1.42402,-0.803838,1.15137][0.472441,-0.519685,-0.708661][0.371091,0.143728,0][1.27289,-0.741148,1.51323][-0.19685,-0.496063,0.850394][0.395125,0.160544,0][0.93778,-0.800884,1.73078][-0.0629921,-0.992126,-0.0708661][0.408297,0.191799,0][-1.13406,-0.605334,1.37902][-0.220472,0.952756,-0.204724][0.389835,0.00615102,0][-0.91092,-0.741148,1.75509][-0.811024,-0.590551,0.015748][0.407098,0.005,0][-0.517808,-0.604768,1.79767][0.267717,0.692913,-0.669291][0.397503,0.037788,0][-1.74461,-0.575758,0.300252][0.401575,0.291339,-0.866142][0.315349,0.223839,0][-1.88515,-0.741148,0.596916][-0.582677,-0.606299,-0.543307][0.298111,0.225328,0][-1.63729,-0.604768,0.905004][0.653543,0.692913,-0.307087][0.307062,0.192358,0][-1.82108,-0.803838,0.192792][0.692913,-0.496063,-0.519685][0.222724,0.403813,0][-1.97008,-0.741148,-0.169938][-0.480315,-0.456693,-0.748031][0.193839,0.408916,0][-1.88695,-0.800884,-0.560732][-0.968504,-0.0708661,-0.244094][0.162424,0.396129,0][1.37902,-0.605334,1.13406][-0.204724,0.952756,0.220472][0.186499,0.154714,0][1.75509,-0.741148,0.91092][0.015748,-0.590551,0.811024][0.18765,0.171978,0][1.79767,-0.604768,0.517808][-0.669291,0.692913,-0.267717][0.154862,0.162382,0][1.82108,-0.803838,-0.192792][-0.692913,-0.496063,0.519685][0.26336,0.082271,0][1.97008,-0.741148,0.169938][0.480315,-0.456693,0.748031][0.292246,0.077169,0][1.88695,-0.800884,0.560732][0.968504,-0.0708661,0.244094][0.323661,0.089955,0][-0.163648,-0.604034,1.76408][0.0551181,0.984252,-0.149606][0.005067,0.668165,0][-0.169938,-0.741148,1.97008][-0.748031,-0.456693,0.480315][0.022289,0.666507,0][0.204056,-0.604034,1.9579][-0.519685,0.0393701,0.858268][0.022215,0.700424,0][0.596916,-0.741148,1.88515][-0.543307,-0.606299,0.582677][0.415119,0.225023,0][0.93778,-0.800884,1.73078][-0.0629921,-0.992126,-0.0708661][0.408297,0.191799,0][1.06995,-0.452252,2.5422][0.96063,-0.220472,0.149606][0.479484,0.194542,0][1.74461,-0.575758,-0.300252][-0.401575,0.291339,0.866142][0.044144,0.091275,0][1.88515,-0.741148,-0.596916][0.582677,-0.606299,0.543307][0.042655,0.074038,0][1.63729,-0.604768,-0.905004][-0.653543,0.692913,0.307087][0.075624,0.082989,0][-0.91092,-0.741148,1.75509][-0.811024,-0.590551,0.015748][0.37746,0.351977,0][-0.560732,-0.800884,1.88695][-0.244094,-0.0708661,0.968504][0.396129,0.323661,0][-1.04104,-0.452252,2.55418][-0.401575,0.913386,-0.102362][0.444526,0.375937,0][1.75509,-0.741148,0.91092][0.015748,-0.590551,0.811024][0.351977,0.108625,0][1.88695,-0.800884,0.560732][0.968504,-0.0708661,0.244094][0.323661,0.089955,0][2.55418,-0.452254,1.04104][-0.102362,0.913386,0.401575][0.375937,0.041558,0][-1.42402,-0.803838,-1.15137][0.874016,-0.480315,0.0551181][0.114994,0.342357,0][-1.27289,-0.741148,-1.51323][0.19685,-0.496063,-0.850394][0.09096,0.32554,0][-0.937778,-0.800884,-1.73078][-0.511811,-0.0708661,-0.858268][0.077787,0.294285,0][1.76408,-0.604034,0.163648][-0.149606,0.984252,-0.0551181][0.715369,0.00665802,0][1.97008,-0.741148,0.169938][0.480315,-0.456693,0.748031][0.732591,0.005,0][1.9579,-0.604034,-0.204056][0.858268,0.0393701,0.519685][0.732517,0.038917,0][1.15137,-0.803838,-1.42402][-0.0551181,-0.480315,0.874016][0.143728,0.114994,0][1.51323,-0.741148,-1.27289][0.850394,-0.496063,0.19685][0.160544,0.09096,0][1.73078,-0.800884,-0.937778][0.858268,-0.0708661,-0.511811][0.191799,0.077787,0][-1.82108,-0.803838,0.192792][0.692913,-0.496063,-0.519685][0.293217,0.682786,0][-1.9579,-0.604034,0.204056][-0.858268,0.0393701,-0.519685][0.299077,0.666507,0][-2.75814,-0.452254,0.015646][-0.0708661,0.858268,-0.511811][0.368304,0.678524,0][-0.169938,-0.741148,1.97008][-0.748031,-0.456693,0.480315][0.408916,0.292246,0][0.192792,-0.803838,1.82108][-0.519685,-0.496063,-0.692913][0.403813,0.26336,0][0.015646,-0.452252,2.75814][-0.511811,0.858268,0.0708661][0.480046,0.288716,0][-1.15137,-0.803838,1.42402][0.0551181,-0.480315,-0.874016][0.484839,0.307183,0][-1.24015,-0.604034,1.52873][-0.984252,0.15748,-0.0944882][0.490699,0.290904,0][-1.93924,-0.452254,1.96136][-0.409449,0.858268,-0.307087][0.560798,0.303235,0][-0.192792,-0.803838,-1.82108][0.519685,-0.496063,0.692913][0.082271,0.222724,0][0.169938,-0.74115,-1.97008][0.748031,-0.456693,-0.480315][0.077169,0.193839,0][0.560732,-0.800884,-1.88695][0.244094,-0.0708661,-0.968504][0.089955,0.162424,0][1.27289,-0.741148,1.51323][-0.19685,-0.496063,0.850394][0.395125,0.160544,0][1.42402,-0.803838,1.15137][0.472441,-0.519685,-0.708661][0.371091,0.143728,0][1.96136,-0.452254,1.93924][-0.307087,0.858268,0.409449][0.442926,0.107751,0][-1.51323,-0.741148,1.27289][-0.850394,-0.496063,-0.19685][0.32554,0.395125,0][-1.15137,-0.803838,1.42402][0.0551181,-0.480315,-0.874016][0.342357,0.371091,0][-1.93924,-0.452254,1.96136][-0.409449,0.858268,-0.307087][0.378333,0.442926,0][-1.88515,-0.741148,0.596916][-0.582677,-0.606299,-0.543307][0.261061,0.415119,0][-1.73078,-0.800884,0.937778][-0.858268,-0.0708661,0.511811][0.294285,0.408297,0][-2.5422,-0.452254,1.06995][-0.212598,0.913386,-0.354331][0.291543,0.479484,0][1.88515,-0.741148,-0.596916][0.582677,-0.606299,0.543307][0.225023,0.070966,0][1.73078,-0.800884,-0.937778][0.858268,-0.0708661,-0.511811][0.191799,0.077787,0][2.5422,-0.452254,-1.06995][0.212598,0.913386,0.354331][0.194542,0.00660002,0][-0.300252,-0.575758,-1.74461][0.866142,0.291339,0.401575][0.075089,0.389237,0][-0.596916,-0.741148,-1.88515][0.543307,-0.606299,-0.582677][0.076578,0.406474,0][-0.905004,-0.604768,-1.63729][0.307087,0.692913,0.653543][0.043609,0.397524,0][-1.37902,-0.605334,-1.13406][0.204724,0.952756,-0.220472][0.006151,0.091046,0][-1.75509,-0.741148,-0.91092][-0.015748,-0.590551,-0.811024][0.005,0.073783,0][-1.79767,-0.604768,-0.517808][0.669291,0.692913,0.267717][0.037788,0.083378,0][1.97008,-0.741148,0.169938][0.480315,-0.456693,0.748031][0.292246,0.077169,0][1.82108,-0.803838,-0.192792][-0.692913,-0.496063,0.519685][0.26336,0.082271,0][2.75814,-0.452254,-0.015646][0.0708661,0.858268,0.511811][0.288716,0.00603801,0][-1.97008,-0.741148,-0.169938][-0.480315,-0.456693,-0.748031][0.193839,0.408916,0][-1.82108,-0.803838,0.192792][0.692913,-0.496063,-0.519685][0.222724,0.403813,0][-2.75814,-0.452254,0.015646][-0.0708661,0.858268,-0.511811][0.197369,0.480046,0][-1.75509,-0.741148,-0.91092][-0.015748,-0.590551,-0.811024][0.134107,0.37746,0][-1.88695,-0.800884,-0.560732][-0.968504,-0.0708661,-0.244094][0.162424,0.396129,0][-2.55418,-0.452254,-1.04104][0.102362,0.913386,-0.401575][0.110147,0.444526,0][-1.42402,-0.803838,-1.15137][0.874016,-0.480315,0.0551181][0.680888,0.112113,0][-1.52873,-0.604034,-1.24015][0.0944882,0.15748,-0.984252][0.686748,0.095834,0][-1.96136,-0.452252,-1.93924][0.307087,0.858268,-0.409449][0.756847,0.108165,0][0.91092,-0.741148,-1.75509][0.811024,-0.590551,-0.015748][0.108625,0.134107,0][0.560732,-0.800884,-1.88695][0.244094,-0.0708661,-0.968504][0.089955,0.162424,0][1.04104,-0.452252,-2.55418][0.401575,0.913386,0.102362][0.041558,0.110147,0][1.13406,-0.605334,-1.37902][0.220472,0.952756,0.204724][0.474917,0.42162,0][0.91092,-0.741148,-1.75509][0.811024,-0.590551,-0.015748][0.457653,0.422771,0][0.517808,-0.604768,-1.79767][-0.267717,0.692913,0.669291][0.467249,0.389983,0][-1.73078,-0.800884,0.937778][-0.858268,-0.0708661,0.511811][0.761154,0.209981,0][-1.63729,-0.604768,0.905004][0.653543,0.692913,-0.307087][0.767014,0.193702,0][-2.5422,-0.452254,1.06995][-0.212598,0.913386,-0.354331][0.835375,0.205408,0][-1.76408,-0.604034,-0.163648][0.149606,0.984252,0.0551181][0.321841,0.607932,0][-1.97008,-0.741148,-0.169938][-0.480315,-0.456693,-0.748031][0.304619,0.60959,0][-1.9579,-0.604034,0.204056][-0.858268,0.0393701,-0.519685][0.304693,0.575673,0][-0.596916,-0.741148,-1.88515][0.543307,-0.606299,-0.582677][0.070966,0.261061,0][-0.937778,-0.800884,-1.73078][-0.511811,-0.0708661,-0.858268][0.077787,0.294285,0][-1.06995,-0.452252,-2.5422][0.354331,0.913386,-0.212598][0.0066,0.291543,0][1.51323,-0.741148,-1.27289][0.850394,-0.496063,0.19685][0.160544,0.09096,0][1.15137,-0.803838,-1.42402][-0.0551181,-0.480315,0.874016][0.143728,0.114994,0][1.93924,-0.452252,-1.96136][0.409449,0.858268,0.307087][0.107751,0.043159,0][-1.27289,-0.741148,-1.51323][0.19685,-0.496063,-0.850394][0.09096,0.32554,0][-1.42402,-0.803838,-1.15137][0.874016,-0.480315,0.0551181][0.114994,0.342357,0][-1.96136,-0.452252,-1.93924][0.307087,0.858268,-0.409449][0.043159,0.378333,0][-1.88695,-0.800884,-0.560732][-0.968504,-0.0708661,-0.244094][0.579427,0.258915,0][-1.79767,-0.604768,-0.517808][0.669291,0.692913,0.267717][0.585287,0.242636,0][-2.55418,-0.452254,-1.04104][0.102362,0.913386,-0.401575][0.655386,0.254967,0][0.192792,-0.803838,1.82108][-0.519685,-0.496063,-0.692913][0.773055,0.112113,0][0.204056,-0.604034,1.9579][-0.519685,0.0393701,0.858268][0.778916,0.095834,0][0.015646,-0.452252,2.75814][-0.511811,0.858268,0.0708661][0.848143,0.107851,0][0.169938,-0.74115,-1.97008][0.748031,-0.456693,-0.480315][0.077169,0.193839,0][-0.192792,-0.803838,-1.82108][0.519685,-0.496063,0.692913][0.082271,0.222724,0][-0.015646,-0.452252,-2.75814][0.511811,0.858268,-0.0708661][0.006038,0.197369,0][0.163648,-0.604034,-1.76408][-0.0551181,0.984252,0.149606][0.571216,0.128093,0][0.169938,-0.74115,-1.97008][0.748031,-0.456693,-0.480315][0.553994,0.129751,0][-0.204056,-0.604034,-1.9579][0.519685,0.0393701,-0.858268][0.554068,0.095834,0][-0.91092,-0.741148,1.75509][-0.811024,-0.590551,0.015748][0.37746,0.351977,0][-1.15137,-0.803838,1.42402][0.0551181,-0.480315,-0.874016][0.342357,0.371091,0][0.192792,-0.803838,1.82108][-0.519685,-0.496063,-0.692913][0.403813,0.26336,0][0.596916,-0.741148,1.88515][-0.543307,-0.606299,0.582677][0.415119,0.225023,0][0.192792,-0.803838,1.82108][-0.519685,-0.496063,-0.692913][0.403813,0.26336,0][1.42402,-0.803838,1.15137][0.472441,-0.519685,-0.708661][0.371091,0.143728,0][-0.560732,-0.800884,1.88695][-0.244094,-0.0708661,0.968504][0.907597,0.070213,0][-0.517808,-0.604768,1.79767][0.267717,0.692913,-0.669291][0.913457,0.053934,0][-1.04104,-0.452252,2.55418][-0.401575,0.913386,-0.102362][0.983557,0.066265,0][-1.88515,-0.741148,0.596916][-0.582677,-0.606299,-0.543307][0.261061,0.415119,0][-1.82108,-0.803838,0.192792][0.692913,-0.496063,-0.519685][0.222724,0.403813,0][-1.15137,-0.803838,1.42402][0.0551181,-0.480315,-0.874016][0.342357,0.371091,0][1.75509,-0.741148,0.91092][0.015748,-0.590551,0.811024][0.351977,0.108625,0][1.42402,-0.803838,1.15137][0.472441,-0.519685,-0.708661][0.371091,0.143728,0][1.82108,-0.803838,-0.192792][-0.692913,-0.496063,0.519685][0.26336,0.082271,0][-1.75509,-0.741148,-0.91092][-0.015748,-0.590551,-0.811024][0.134107,0.37746,0][-1.42402,-0.803838,-1.15137][0.874016,-0.480315,0.0551181][0.114994,0.342357,0][-1.82108,-0.803838,0.192792][0.692913,-0.496063,-0.519685][0.222724,0.403813,0][-0.192792,-0.803838,-1.82108][0.519685,-0.496063,0.692913][0.286345,0.73172,0][-0.204056,-0.604034,-1.9579][0.519685,0.0393701,-0.858268][0.292205,0.715441,0][-0.015646,-0.452252,-2.75814][0.511811,0.858268,-0.0708661][0.361432,0.727458,0][1.88515,-0.741148,-0.596916][0.582677,-0.606299,0.543307][0.225023,0.070966,0][1.82108,-0.803838,-0.192792][-0.692913,-0.496063,0.519685][0.26336,0.082271,0][1.15137,-0.803838,-1.42402][-0.0551181,-0.480315,0.874016][0.143728,0.114994,0][-0.937778,-0.800884,-1.73078][-0.511811,-0.0708661,-0.858268][0.671595,0.258915,0][-0.905004,-0.604768,-1.63729][0.307087,0.692913,0.653543][0.677455,0.242636,0][-1.06995,-0.452252,-2.5422][0.354331,0.913386,-0.212598][0.745816,0.254342,0][-0.596916,-0.741148,-1.88515][0.543307,-0.606299,-0.582677][0.070966,0.261061,0][-0.192792,-0.803838,-1.82108][0.519685,-0.496063,0.692913][0.082271,0.222724,0][-1.42402,-0.803838,-1.15137][0.874016,-0.480315,0.0551181][0.114994,0.342357,0][0.91092,-0.741148,-1.75509][0.811024,-0.590551,-0.015748][0.108625,0.134107,0][1.15137,-0.803838,-1.42402][-0.0551181,-0.480315,0.874016][0.143728,0.114994,0][-0.192792,-0.803838,-1.82108][0.519685,-0.496063,0.692913][0.082271,0.222724,0][1.42402,-0.803838,1.15137][0.472441,-0.519685,-0.708661][0.201049,0.682786,0][1.52873,-0.604034,1.24015][-0.0944882,0.15748,0.984252][0.206909,0.666507,0][1.96136,-0.452254,1.93924][-0.307087,0.858268,0.409449][0.277008,0.678838,0][0.93778,-0.800884,1.73078][-0.0629921,-0.992126,-0.0708661][0.577006,0.307183,0][0.905006,-0.604768,1.63729][-0.393701,0.606299,0.692913][0.582866,0.290904,0][1.06995,-0.452252,2.5422][0.96063,-0.220472,0.149606][0.651228,0.302609,0][1.15137,-0.803838,-1.42402][-0.0551181,-0.480315,0.874016][0.099588,0.780654,0][1.24015,-0.604034,-1.52873][0.984252,0.15748,0.0944882][0.105448,0.764375,0][1.93924,-0.452252,-1.96136][0.409449,0.858268,0.307087][0.175547,0.776706,0][1.82108,-0.803838,-0.192792][-0.692913,-0.496063,0.519685][0.191756,0.780654,0][1.9579,-0.604034,-0.204056][0.858268,0.0393701,0.519685][0.197616,0.764375,0][2.75814,-0.452254,-0.015646][0.0708661,0.858268,0.511811][0.266843,0.776392,0][-1.97008,-0.741148,-0.169938][-0.480315,-0.456693,-0.748031][0.178036,0.904152,0][-1.76408,-0.604034,-0.163648][0.149606,0.984252,0.0551181][0.178036,0.88693,0][-1.82335,0.114778,-0.351948][0.905512,0.393701,-0.165354][0.240306,0.893896,0][0.560732,-0.800884,-1.88695][0.244094,-0.0708661,-0.968504][0.194177,0.73172,0][0.517808,-0.604768,-1.79767][-0.267717,0.692913,0.669291][0.200037,0.715441,0][1.04104,-0.452252,-2.55418][0.401575,0.913386,0.102362][0.270136,0.727772,0][-0.059254,-0.55831,-1.99651][-0.527559,-0.614173,0.590551][0.412863,0.177915,0][-0.424314,0.502026,-1.99482][-0.897638,0.125984,0.417323][0.435886,0.168145,0][-0.212148,-0.022108,-2.1712][-0.748031,-0.322835,-0.574803][0.442309,0.178093,0][1.88695,-0.800884,0.560732][0.968504,-0.0708661,0.244094][0.33317,0.640886,0][1.79767,-0.604768,0.517808][-0.669291,0.692913,-0.267717][0.33903,0.624607,0][2.55418,-0.452254,1.04104][-0.102362,0.913386,0.401575][0.40913,0.636938,0][1.37902,-0.605334,1.13406][-0.204724,0.952756,0.220472][0.864352,0.113136,0][1.52873,-0.604034,1.24015][-0.0944882,0.15748,0.984252][0.864352,0.095834,0][1.54988,0.114778,1.02292][-0.15748,0.322835,-0.937008][0.927783,0.106383,0][1.73078,-0.800884,-0.937778][0.858268,-0.0708661,-0.511811][0.484839,0.338479,0][1.63729,-0.604768,-0.905004][-0.653543,0.692913,0.307087][0.490699,0.3222,0][2.5422,-0.452254,-1.06995][0.212598,0.913386,0.354331][0.559061,0.333905,0][1.13406,-0.605334,-1.37902][0.220472,0.952756,0.204724][0.484839,0.370797,0][1.24015,-0.604034,-1.52873][0.984252,0.15748,0.0944882][0.484839,0.353496,0][1.02293,0.114778,-1.54988][-0.937008,0.322835,0.15748][0.54827,0.364044,0][-0.169938,-0.741148,1.97008][-0.748031,-0.456693,0.480315][0.099588,0.936471,0][-0.163648,-0.604034,1.76408][0.0551181,0.984252,-0.149606][0.099588,0.919249,0][-0.351948,0.114778,1.82335][-0.165354,0.393701,-0.905512][0.161858,0.926215,0][0.204056,-0.604034,1.9579][-0.519685,0.0393701,0.858268][0.022215,0.700424,0][0.300252,-0.575758,1.74461][-0.866142,0.291339,-0.401575][0.005,0.698691,0][-0.163648,-0.604034,1.76408][0.0551181,0.984252,-0.149606][0.005067,0.668165,0][1.9579,-0.604034,-0.204056][0.858268,0.0393701,0.519685][0.732517,0.038917,0][1.74461,-0.575758,-0.300252][-0.401575,0.291339,0.866142][0.715302,0.037184,0][1.76408,-0.604034,0.163648][-0.149606,0.984252,-0.0551181][0.715369,0.00665802,0][-1.9579,-0.604034,0.204056][-0.858268,0.0393701,-0.519685][0.304693,0.575673,0][-1.74461,-0.575758,0.300252][0.401575,0.291339,-0.866142][0.321908,0.577406,0][-1.76408,-0.604034,-0.163648][0.149606,0.984252,0.0551181][0.321841,0.607932,0][0.169938,-0.74115,-1.97008][0.748031,-0.456693,-0.480315][0.484839,0.467673,0][0.163648,-0.604034,-1.76408][-0.0551181,0.984252,0.149606][0.484839,0.450451,0][0.351948,0.114778,-1.82335][0.165354,0.393701,0.905512][0.547109,0.457417,0][-0.204056,-0.604034,-1.9579][0.519685,0.0393701,-0.858268][0.554068,0.095834,0][-0.300252,-0.575758,-1.74461][0.866142,0.291339,0.401575][0.571283,0.097568,0][0.163648,-0.604034,-1.76408][-0.0551181,0.984252,0.149606][0.571216,0.128093,0][1.37902,-0.605334,1.13406][-0.204724,0.952756,0.220472][0.191591,0.17707,0][1.27289,-0.741148,1.51323][-0.19685,-0.496063,0.850394][0.209321,0.15375,0][1.52873,-0.604034,1.24015][-0.0944882,0.15748,0.984252][0.208582,0.187659,0][1.13406,-0.605334,-1.37902][0.220472,0.952756,0.204724][0.01559,0.389057,0][1.51323,-0.741148,-1.27289][0.850394,-0.496063,0.19685][0.038909,0.406787,0][1.24015,-0.604034,-1.52873][0.984252,0.15748,0.0944882][0.005,0.406048,0][-1.13406,-0.605334,1.37902][-0.220472,0.952756,-0.204724][0.178036,0.871914,0][-1.24015,-0.604034,1.52873][-0.984252,0.15748,-0.0944882][0.178036,0.854612,0][-1.02292,0.114778,1.54988][0.937008,0.322835,-0.15748][0.241467,0.865161,0][-1.13406,-0.605334,1.37902][-0.220472,0.952756,-0.204724][0.475515,0.053244,0][-1.51323,-0.741148,1.27289][-0.850394,-0.496063,-0.19685][0.457784,0.076564,0][-1.24015,-0.604034,1.52873][-0.984252,0.15748,-0.0944882][0.458523,0.042655,0][-1.37902,-0.605334,-1.13406][0.204724,0.952756,-0.220472][0.475515,0.437115,0][-1.27289,-0.741148,-1.51323][0.19685,-0.496063,-0.850394][0.457784,0.460435,0][-1.52873,-0.604034,-1.24015][0.0944882,0.15748,-0.984252][0.458523,0.426525,0][1.97008,-0.741148,0.169938][0.480315,-0.456693,0.748031][0.256484,0.871834,0][1.76408,-0.604034,0.163648][-0.149606,0.984252,-0.0551181][0.256484,0.854612,0][1.82335,0.114778,0.351948][-0.905512,0.393701,0.165354][0.318754,0.861578,0][-1.37902,-0.605334,-1.13406][0.204724,0.952756,-0.220472][0.484839,0.435434,0][-1.52873,-0.604034,-1.24015][0.0944882,0.15748,-0.984252][0.484839,0.418133,0][-1.54988,0.114778,-1.02292][0.15748,0.322835,0.937008][0.54827,0.428681,0][-0.192792,-0.803838,-1.82108][0.519685,-0.496063,0.692913][0.082271,0.222724,0][0.560732,-0.800884,-1.88695][0.244094,-0.0708661,-0.968504][0.089955,0.162424,0][0.91092,-0.741148,-1.75509][0.811024,-0.590551,-0.015748][0.108625,0.134107,0][1.15137,-0.803838,-1.42402][-0.0551181,-0.480315,0.874016][0.143728,0.114994,0][1.73078,-0.800884,-0.937778][0.858268,-0.0708661,-0.511811][0.191799,0.077787,0][1.88515,-0.741148,-0.596916][0.582677,-0.606299,0.543307][0.225023,0.070966,0][-1.42402,-0.803838,-1.15137][0.874016,-0.480315,0.0551181][0.114994,0.342357,0][-0.937778,-0.800884,-1.73078][-0.511811,-0.0708661,-0.858268][0.077787,0.294285,0][-0.596916,-0.741148,-1.88515][0.543307,-0.606299,-0.582677][0.070966,0.261061,0][1.82108,-0.803838,-0.192792][-0.692913,-0.496063,0.519685][0.26336,0.082271,0][1.88695,-0.800884,0.560732][0.968504,-0.0708661,0.244094][0.323661,0.089955,0][1.75509,-0.741148,0.91092][0.015748,-0.590551,0.811024][0.351977,0.108625,0][-1.82108,-0.803838,0.192792][0.692913,-0.496063,-0.519685][0.222724,0.403813,0][-1.88695,-0.800884,-0.560732][-0.968504,-0.0708661,-0.244094][0.162424,0.396129,0][-1.75509,-0.741148,-0.91092][-0.015748,-0.590551,-0.811024][0.134107,0.37746,0][-0.00497,0.327938,-1.61913][-0.212598,-0.220472,0.952756][0.11815,0.223803,0][0.081314,0.803838,-1.98976][0.488189,0.771654,0.401575][0.110564,0.202944,0][-0.424314,0.502026,-1.99482][-0.897638,0.125984,0.417323][0.116513,0.177742,0][1.42402,-0.803838,1.15137][0.472441,-0.519685,-0.708661][0.371091,0.143728,0][0.93778,-0.800884,1.73078][-0.0629921,-0.992126,-0.0708661][0.408297,0.191799,0][0.596916,-0.741148,1.88515][-0.543307,-0.606299,0.582677][0.415119,0.225023,0][-1.15137,-0.803838,1.42402][0.0551181,-0.480315,-0.874016][0.342357,0.371091,0][-1.73078,-0.800884,0.937778][-0.858268,-0.0708661,0.511811][0.294285,0.408297,0][-1.88515,-0.741148,0.596916][-0.582677,-0.606299,-0.543307][0.261061,0.415119,0][1.63729,-0.604768,-0.905004][-0.653543,0.692913,0.307087][0.075624,0.082989,0][1.88515,-0.741148,-0.596916][0.582677,-0.606299,0.543307][0.042655,0.074038,0][2.5422,-0.452254,-1.06995][0.212598,0.913386,0.354331][0.060395,0.00506502,0][0.192792,-0.803838,1.82108][-0.519685,-0.496063,-0.692913][0.403813,0.26336,0][-0.560732,-0.800884,1.88695][-0.244094,-0.0708661,0.968504][0.396129,0.323661,0][-0.91092,-0.741148,1.75509][-0.811024,-0.590551,0.015748][0.37746,0.351977,0][0.517808,-0.604768,-1.79767][-0.267717,0.692913,0.669291][0.467249,0.389983,0][0.91092,-0.741148,-1.75509][0.811024,-0.590551,-0.015748][0.457653,0.422771,0][1.04104,-0.452252,-2.55418][0.401575,0.913386,0.102362][0.389042,0.403682,0][1.79767,-0.604768,0.517808][-0.669291,0.692913,-0.267717][0.154862,0.162382,0][1.75509,-0.741148,0.91092][0.015748,-0.590551,0.811024][0.18765,0.171978,0][2.55418,-0.452254,1.04104][-0.102362,0.913386,0.401575][0.168561,0.240589,0][1.24015,-0.604034,-1.52873][0.984252,0.15748,0.0944882][0.005,0.406048,0][1.51323,-0.741148,-1.27289][0.850394,-0.496063,0.19685][0.038909,0.406787,0][1.93924,-0.452252,-1.96136][0.409449,0.858268,0.307087][0.020493,0.475583,0][1.9579,-0.604034,-0.204056][0.858268,0.0393701,0.519685][0.732517,0.038917,0][1.97008,-0.741148,0.169938][0.480315,-0.456693,0.748031][0.732591,0.005,0][2.75814,-0.452254,-0.015646][0.0708661,0.858268,0.511811][0.801735,0.022064,0][-0.00497,0.327938,-1.61913][-0.212598,-0.220472,0.952756][0.547633,0.527114,0][0.417118,0.392982,-2.0243][0.850394,0.511811,0.11811][0.523845,0.527311,0][0.081314,0.803838,-1.98976][0.488189,0.771654,0.401575][0.52575,0.514252,0][-0.204056,-0.604034,-1.9579][0.519685,0.0393701,-0.858268][0.554068,0.095834,0][0.169938,-0.74115,-1.97008][0.748031,-0.456693,-0.480315][0.553994,0.129751,0][-0.015646,-0.452252,-2.75814][0.511811,0.858268,-0.0708661][0.48485,0.112688,0][-0.905004,-0.604768,-1.63729][0.307087,0.692913,0.653543][0.043609,0.397524,0][-0.596916,-0.741148,-1.88515][0.543307,-0.606299,-0.582677][0.076578,0.406474,0][-1.06995,-0.452252,-2.5422][0.354331,0.913386,-0.212598][0.058838,0.475447,0][0.905006,-0.604768,1.63729][-0.393701,0.606299,0.692913][0.224374,0.269402,0][0.596916,-0.741148,1.88515][-0.543307,-0.606299,0.582677][0.191405,0.260451,0][1.06995,-0.452252,2.5422][0.96063,-0.220472,0.149606][0.209145,0.191478,0][1.52873,-0.604034,1.24015][-0.0944882,0.15748,0.984252][0.208582,0.187659,0][1.27289,-0.741148,1.51323][-0.19685,-0.496063,0.850394][0.209321,0.15375,0][1.96136,-0.452254,1.93924][-0.307087,0.858268,0.409449][0.278116,0.172166,0][-1.52873,-0.604034,-1.24015][0.0944882,0.15748,-0.984252][0.458523,0.426525,0][-1.27289,-0.741148,-1.51323][0.19685,-0.496063,-0.850394][0.457784,0.460435,0][-1.96136,-0.452252,-1.93924][0.307087,0.858268,-0.409449][0.388988,0.442018,0][-1.79767,-0.604768,-0.517808][0.669291,0.692913,0.267717][0.037788,0.083378,0][-1.75509,-0.741148,-0.91092][-0.015748,-0.590551,-0.811024][0.005,0.073783,0][-2.55418,-0.452254,-1.04104][0.102362,0.913386,-0.401575][0.02409,0.005171,0][-0.517808,-0.604768,1.79767][0.267717,0.692913,-0.669291][0.397503,0.037788,0][-0.91092,-0.741148,1.75509][-0.811024,-0.590551,0.015748][0.407098,0.005,0][-1.04104,-0.452252,2.55418][-0.401575,0.913386,-0.102362][0.47571,0.02409,0][0.204056,-0.604034,1.9579][-0.519685,0.0393701,0.858268][0.022215,0.700424,0][-0.169938,-0.741148,1.97008][-0.748031,-0.456693,0.480315][0.022289,0.666507,0][0.015646,-0.452252,2.75814][-0.511811,0.858268,0.0708661][0.091432,0.683571,0][1.74461,-0.575758,-0.300252][-0.401575,0.291339,0.866142][0.099588,0.968702,0][1.9579,-0.604034,-0.204056][0.858268,0.0393701,0.519685][0.099588,0.951488,0][1.81924,0.114778,-0.37261][-0.732283,0.362205,-0.574803][0.161858,0.963194,0][-1.63729,-0.604768,0.905004][0.653543,0.692913,-0.307087][0.307062,0.192358,0][-1.88515,-0.741148,0.596916][-0.582677,-0.606299,-0.543307][0.298111,0.225328,0][-2.5422,-0.452254,1.06995][-0.212598,0.913386,-0.354331][0.229138,0.207587,0][-1.9579,-0.604034,0.204056][-0.858268,0.0393701,-0.519685][0.304693,0.575673,0][-1.97008,-0.741148,-0.169938][-0.480315,-0.456693,-0.748031][0.304619,0.60959,0][-2.75814,-0.452254,0.015646][-0.0708661,0.858268,-0.511811][0.235475,0.592526,0][-1.24015,-0.604034,1.52873][-0.984252,0.15748,-0.0944882][0.458523,0.042655,0][-1.51323,-0.741148,1.27289][-0.850394,-0.496063,-0.19685][0.457784,0.076564,0][-1.93924,-0.452254,1.96136][-0.409449,0.858268,-0.307087][0.388988,0.058148,0][-0.875016,-0.040502,-1.80306][0.023622,0.968504,-0.244094][0.505418,0.627064,0][-1.05732,-0.377282,-1.71638][-0.732283,-0.645669,0.212598][0.504131,0.63662,0][-0.674404,-0.319952,-1.58355][0.653543,-0.0314961,0.755906][0.484839,0.627185,0][-0.875016,-0.040502,-1.80306][0.023622,0.968504,-0.244094][0.684229,0.523894,0][-0.674404,-0.319952,-1.58355][0.653543,-0.0314961,0.755906][0.663835,0.521135,0][-0.58981,-0.140772,-1.97763][0.19685,0.629921,-0.748031][0.684178,0.514252,0][1.04395,-0.262738,-1.72372][0.968504,-0.23622,0.0708661][0.920509,0.353496,0][0.80754,-0.033618,-1.83064][-0.00787402,0.913386,0.409449][0.919312,0.363063,0][0.661968,-0.319952,-1.58821][-0.173228,-0.173228,0.968504][0.899932,0.35381,0][0.80754,-0.033618,-1.83064][-0.00787402,0.913386,0.409449][0.792006,0.300475,0][0.54829,-0.160216,-1.98418][-0.606299,0.110236,-0.787402][0.793171,0.290904,0][0.661968,-0.319952,-1.58821][-0.173228,-0.173228,0.968504][0.812583,0.300091,0][-0.300252,-0.575758,-1.74461][0.866142,0.291339,0.401575][0.563286,0.435347,0][-0.204056,-0.604034,-1.9579][0.519685,0.0393701,-0.858268][0.563286,0.418133,0][-0.37261,0.114778,-1.81925][-0.574803,0.362205,0.732283][0.625556,0.429839,0][-0.527162,-0.433014,-1.93814][0.755906,0.0551181,-0.653543][0.484839,0.681998,0][-0.58981,-0.140772,-1.97763][0.19685,0.629921,-0.748031][0.485558,0.672541,0][-0.674404,-0.319952,-1.58355][0.653543,-0.0314961,0.755906][0.503775,0.681998,0][0.912052,-0.559466,-1.77781][0.354331,-0.889764,-0.283465][0.344032,0.832985,0][1.04395,-0.262738,-1.72372][0.968504,-0.23622,0.0708661][0.345319,0.82343,0][0.661968,-0.319952,-1.58821][-0.173228,-0.173228,0.968504][0.364612,0.832865,0][0.54829,-0.160216,-1.98418][-0.606299,0.110236,-0.787402][0.644124,0.574693,0][0.604648,-0.57395,-1.90388][-0.897638,-0.362205,-0.259843][0.643405,0.58415,0][0.661968,-0.319952,-1.58821][-0.173228,-0.173228,0.968504][0.625188,0.574693,0][-1.05732,-0.377282,-1.71638][-0.732283,-0.645669,0.212598][0.358112,0.928082,0][-0.778852,-0.616658,-1.83288][-0.425197,-0.858268,0.275591][0.359309,0.918515,0][-0.674404,-0.319952,-1.58355][0.653543,-0.0314961,0.755906][0.37869,0.927768,0][0.300252,-0.575758,1.74461][-0.866142,0.291339,-0.401575][0.641734,0.403029,0][0.204056,-0.604034,1.9579][-0.519685,0.0393701,0.858268][0.641734,0.385814,0][0.37261,0.114778,1.81924][0.574803,0.362205,-0.732283][0.704004,0.39752,0][-0.00497,0.327938,-1.61913][-0.212598,-0.220472,0.952756][0.192987,0.542745,0][-0.424314,0.502026,-1.99482][-0.897638,0.125984,0.417323][0.176795,0.525041,0][-0.059254,-0.55831,-1.99651][-0.527559,-0.614173,0.590551][0.191703,0.504959,0][0.604648,-0.57395,-1.90388][-0.897638,-0.362205,-0.259843][0.884915,0.353496,0][0.912052,-0.559466,-1.77781][0.354331,-0.889764,-0.283465][0.88375,0.363067,0][0.661968,-0.319952,-1.58821][-0.173228,-0.173228,0.968504][0.864338,0.35388,0][-0.00497,0.327938,-1.61913][-0.212598,-0.220472,0.952756][0.270129,0.100968,0][0.203442,-0.286186,-2.09888][0.952756,-0.283465,-0.102362][0.270156,0.138811,0][0.417118,0.392982,-2.0243][0.850394,0.511811,0.11811][0.254516,0.119294,0][-0.527162,-0.433014,-1.93814][0.755906,0.0551181,-0.653543][0.57476,0.584334,0][-0.674404,-0.319952,-1.58355][0.653543,-0.0314961,0.755906][0.554357,0.581645,0][-0.778852,-0.616658,-1.83288][-0.425197,-0.858268,0.275591][0.574677,0.574693,0][-0.596916,-0.741148,-1.88515][0.543307,-0.606299,-0.582677][0.562125,0.466997,0][-0.300252,-0.575758,-1.74461][0.866142,0.291339,0.401575][0.562125,0.450451,0][-0.37261,0.114778,-1.81925][-0.574803,0.362205,0.732283][0.624395,0.461788,0][-1.74461,-0.575758,0.300252][0.401575,0.291339,-0.866142][0.720182,0.37071,0][-1.9579,-0.604034,0.204056][-0.858268,0.0393701,-0.519685][0.720182,0.353496,0][-1.81925,0.114778,0.37261][0.732283,0.362205,0.574803][0.782452,0.365202,0][-0.00497,0.327938,-1.61913][-0.212598,-0.220472,0.952756][0.251776,0.496576,0][-0.059254,-0.55831,-1.99651][-0.527559,-0.614173,0.590551][0.251385,0.542745,0][0.203442,-0.286186,-2.09888][0.952756,-0.283465,-0.102362][0.23858,0.524092,0][0.517808,-0.604768,-1.79767][-0.267717,0.692913,0.669291][0.560116,0.06727,0][-0.192792,-0.803838,-1.82108][0.519685,-0.496063,0.692913][0.609694,0.084572,0][1.15137,-0.803838,-1.42402][-0.0551181,-0.480315,0.874016][0.504169,0.084572,0][-0.905004,-0.604768,-1.63729][0.307087,0.692913,0.653543][0.678696,0.06727,0][-1.42402,-0.803838,-1.15137][0.874016,-0.480315,0.0551181][0.693646,0.084572,0][-0.192792,-0.803838,-1.82108][0.519685,-0.496063,0.692913][0.609694,0.084572,0][-1.88515,-0.741148,0.596916][-0.582677,-0.606299,-0.543307][0.640573,0.434678,0][-1.74461,-0.575758,0.300252][0.401575,0.291339,-0.866142][0.640573,0.418133,0][-1.81925,0.114778,0.37261][0.732283,0.362205,0.574803][0.702843,0.42947,0][1.63729,-0.604768,-0.905004][-0.653543,0.692913,0.307087][0.198857,0.547109,0][1.15137,-0.803838,-1.42402][-0.0551181,-0.480315,0.874016][0.213807,0.56441,0][1.82108,-0.803838,-0.192792][-0.692913,-0.496063,0.519685][0.129856,0.56441,0][-1.79767,-0.604768,-0.517808][0.669291,0.692913,0.267717][0.080277,0.637943,0][-1.82108,-0.803838,0.192792][0.692913,-0.496063,-0.519685][0.129856,0.655244,0][-1.42402,-0.803838,-1.15137][0.874016,-0.480315,0.0551181][0.024331,0.655244,0][-0.192792,-0.803838,-1.82108][0.519685,-0.496063,0.692913][0.609694,0.084572,0][0.163648,-0.604034,-1.76408][-0.0551181,0.984252,0.149606][0.590068,0.06727,0][-0.300252,-0.575758,-1.74461][0.866142,0.291339,0.401575][0.630738,0.06727,0][-1.75509,-0.741148,-0.91092][-0.015748,-0.590551,-0.811024][0.099588,0.904232,0][-1.37902,-0.605334,-1.13406][0.204724,0.952756,-0.220472][0.099588,0.88693,0][-1.54988,0.114778,-1.02292][0.15748,0.322835,0.937008][0.16302,0.895092,0][-0.192792,-0.803838,-1.82108][0.519685,-0.496063,0.692913][0.609694,0.084572,0][-0.300252,-0.575758,-1.74461][0.866142,0.291339,0.401575][0.630738,0.06727,0][-0.905004,-0.604768,-1.63729][0.307087,0.692913,0.653543][0.678696,0.06727,0][-0.192792,-0.803838,-1.82108][0.519685,-0.496063,0.692913][0.609694,0.084572,0][0.517808,-0.604768,-1.79767][-0.267717,0.692913,0.669291][0.560116,0.06727,0][0.163648,-0.604034,-1.76408][-0.0551181,0.984252,0.149606][0.590068,0.06727,0][0.163648,-0.604034,-1.76408][-0.0551181,0.984252,0.149606][0.590068,0.06727,0][0.517808,-0.604768,-1.79767][-0.267717,0.692913,0.669291][0.560116,0.06727,0][0.351948,0.114778,-1.82335][0.165354,0.393701,0.905512][0.573719,0.005,0][1.15137,-0.803838,-1.42402][-0.0551181,-0.480315,0.874016][0.504169,0.084572,0][1.13406,-0.605334,-1.37902][0.220472,0.952756,0.204724][0.506643,0.06727,0][0.517808,-0.604768,-1.79767][-0.267717,0.692913,0.669291][0.560116,0.06727,0][1.79767,-0.604768,0.517808][-0.669291,0.692913,-0.267717][0.080277,0.547109,0][1.82108,-0.803838,-0.192792][-0.692913,-0.496063,0.519685][0.129856,0.56441,0][1.42402,-0.803838,1.15137][0.472441,-0.519685,-0.708661][0.024331,0.56441,0][0.91092,-0.741148,-1.75509][0.811024,-0.590551,-0.015748][0.005,0.93782,0][1.13406,-0.605334,-1.37902][0.220472,0.952756,0.204724][0.005,0.920518,0][1.02293,0.114778,-1.54988][-0.937008,0.322835,0.15748][0.068431,0.928679,0][-1.63729,-0.604768,0.905004][0.653543,0.692913,-0.307087][0.198857,0.637943,0][-1.15137,-0.803838,1.42402][0.0551181,-0.480315,-0.874016][0.213807,0.655244,0][-1.82108,-0.803838,0.192792][0.692913,-0.496063,-0.519685][0.129856,0.655244,0][1.88515,-0.741148,-0.596916][0.582677,-0.606299,0.543307][0.005,0.970138,0][1.74461,-0.575758,-0.300252][-0.401575,0.291339,0.866142][0.005,0.952836,0][1.81924,0.114778,-0.37261][-0.732283,0.362205,-0.574803][0.068431,0.960998,0][-1.42402,-0.803838,-1.15137][0.874016,-0.480315,0.0551181][0.024331,0.655244,0][-1.37902,-0.605334,-1.13406][0.204724,0.952756,-0.220472][0.026805,0.637943,0][-1.79767,-0.604768,-0.517808][0.669291,0.692913,0.267717][0.080277,0.637943,0][1.15137,-0.803838,-1.42402][-0.0551181,-0.480315,0.874016][0.213807,0.56441,0][1.63729,-0.604768,-0.905004][-0.653543,0.692913,0.307087][0.198857,0.547109,0][1.13406,-0.605334,-1.37902][0.220472,0.952756,0.204724][0.224201,0.547109,0][1.13406,-0.605334,-1.37902][0.220472,0.952756,0.204724][0.224201,0.547109,0][1.63729,-0.604768,-0.905004][-0.653543,0.692913,0.307087][0.198857,0.547109,0][1.53817,0.114778,-1.04044][-0.80315,0.519685,0.299213][0.215043,0.484839,0][-1.42402,-0.803838,-1.15137][0.874016,-0.480315,0.0551181][0.693646,0.084572,0][-0.905004,-0.604768,-1.63729][0.307087,0.692913,0.653543][0.678696,0.06727,0][-1.37902,-0.605334,-1.13406][0.204724,0.952756,-0.220472][0.70404,0.06727,0][-1.37902,-0.605334,-1.13406][0.204724,0.952756,-0.220472][0.70404,0.06727,0][-0.905004,-0.604768,-1.63729][0.307087,0.692913,0.653543][0.678696,0.06727,0][-1.04044,0.114778,-1.53817][0.299213,0.519685,0.80315][0.694881,0.005,0][0.905006,-0.604768,1.63729][-0.393701,0.606299,0.692913][0.429321,0.547109,0][1.42402,-0.803838,1.15137][0.472441,-0.519685,-0.708661][0.444271,0.56441,0][0.192792,-0.803838,1.82108][-0.519685,-0.496063,-0.692913][0.360319,0.56441,0][-0.517808,-0.604768,1.79767][0.267717,0.692913,-0.669291][0.310741,0.547109,0][0.192792,-0.803838,1.82108][-0.519685,-0.496063,-0.692913][0.360319,0.56441,0][-1.15137,-0.803838,1.42402][0.0551181,-0.480315,-0.874016][0.254795,0.56441,0][1.82108,-0.803838,-0.192792][-0.692913,-0.496063,0.519685][0.129856,0.56441,0][1.76408,-0.604034,0.163648][-0.149606,0.984252,-0.0551181][0.110229,0.547109,0][1.74461,-0.575758,-0.300252][-0.401575,0.291339,0.866142][0.1509,0.547109,0][-1.82108,-0.803838,0.192792][0.692913,-0.496063,-0.519685][0.129856,0.655244,0][-1.76408,-0.604034,-0.163648][0.149606,0.984252,0.0551181][0.110229,0.637943,0][-1.74461,-0.575758,0.300252][0.401575,0.291339,-0.866142][0.1509,0.637943,0][1.82108,-0.803838,-0.192792][-0.692913,-0.496063,0.519685][0.129856,0.56441,0][1.74461,-0.575758,-0.300252][-0.401575,0.291339,0.866142][0.1509,0.547109,0][1.63729,-0.604768,-0.905004][-0.653543,0.692913,0.307087][0.198857,0.547109,0][0.596916,-0.741148,1.88515][-0.543307,-0.606299,0.582677][0.484839,0.499236,0][0.300252,-0.575758,1.74461][-0.866142,0.291339,-0.401575][0.484839,0.48269,0][0.37261,0.114778,1.81924][0.574803,0.362205,-0.732283][0.547109,0.494027,0][1.82108,-0.803838,-0.192792][-0.692913,-0.496063,0.519685][0.129856,0.56441,0][1.79767,-0.604768,0.517808][-0.669291,0.692913,-0.267717][0.080277,0.547109,0][1.76408,-0.604034,0.163648][-0.149606,0.984252,-0.0551181][0.110229,0.547109,0][1.76408,-0.604034,0.163648][-0.149606,0.984252,-0.0551181][0.110229,0.547109,0][1.79767,-0.604768,0.517808][-0.669291,0.692913,-0.267717][0.080277,0.547109,0][1.82335,0.114778,0.351948][-0.905512,0.393701,0.165354][0.093881,0.484839,0][-1.82108,-0.803838,0.192792][0.692913,-0.496063,-0.519685][0.129856,0.655244,0][-1.74461,-0.575758,0.300252][0.401575,0.291339,-0.866142][0.1509,0.637943,0][-1.63729,-0.604768,0.905004][0.653543,0.692913,-0.307087][0.198857,0.637943,0][-1.82108,-0.803838,0.192792][0.692913,-0.496063,-0.519685][0.129856,0.655244,0][-1.79767,-0.604768,-0.517808][0.669291,0.692913,0.267717][0.080277,0.637943,0][-1.76408,-0.604034,-0.163648][0.149606,0.984252,0.0551181][0.110229,0.637943,0][-1.76408,-0.604034,-0.163648][0.149606,0.984252,0.0551181][0.110229,0.637943,0][-1.79767,-0.604768,-0.517808][0.669291,0.692913,0.267717][0.080277,0.637943,0][-1.82335,0.114778,-0.351948][0.905512,0.393701,-0.165354][0.093881,0.575673,0][-0.91092,-0.741148,1.75509][-0.811024,-0.590551,0.015748][0.918921,0.259938,0][-1.13406,-0.605334,1.37902][-0.220472,0.952756,-0.204724][0.918921,0.242636,0][-1.02292,0.114778,1.54988][0.937008,0.322835,-0.15748][0.982352,0.250797,0][1.42402,-0.803838,1.15137][0.472441,-0.519685,-0.708661][0.024331,0.56441,0][1.37902,-0.605334,1.13406][-0.204724,0.952756,0.220472][0.026805,0.547109,0][1.79767,-0.604768,0.517808][-0.669291,0.692913,-0.267717][0.080277,0.547109,0][0.192792,-0.803838,1.82108][-0.519685,-0.496063,-0.692913][0.360319,0.56441,0][-0.163648,-0.604034,1.76408][0.0551181,0.984252,-0.149606][0.340693,0.547109,0][0.300252,-0.575758,1.74461][-0.866142,0.291339,-0.401575][0.381364,0.547109,0][1.75509,-0.741148,0.91092][0.015748,-0.590551,0.811024][0.641734,0.370797,0][1.37902,-0.605334,1.13406][-0.204724,0.952756,0.220472][0.641734,0.353496,0][1.54988,0.114778,1.02292][-0.15748,0.322835,-0.937008][0.705165,0.361657,0][-1.15137,-0.803838,1.42402][0.0551181,-0.480315,-0.874016][0.254795,0.56441,0][-1.13406,-0.605334,1.37902][-0.220472,0.952756,-0.204724][0.257269,0.547109,0][-0.517808,-0.604768,1.79767][0.267717,0.692913,-0.669291][0.310741,0.547109,0][0.192792,-0.803838,1.82108][-0.519685,-0.496063,-0.692913][0.360319,0.56441,0][0.300252,-0.575758,1.74461][-0.866142,0.291339,-0.401575][0.381364,0.547109,0][0.905006,-0.604768,1.63729][-0.393701,0.606299,0.692913][0.429321,0.547109,0][1.42402,-0.803838,1.15137][0.472441,-0.519685,-0.708661][0.444271,0.56441,0][0.905006,-0.604768,1.63729][-0.393701,0.606299,0.692913][0.429321,0.547109,0][1.37902,-0.605334,1.13406][-0.204724,0.952756,0.220472][0.454665,0.547109,0][1.37902,-0.605334,1.13406][-0.204724,0.952756,0.220472][0.454665,0.547109,0][0.905006,-0.604768,1.63729][-0.393701,0.606299,0.692913][0.429321,0.547109,0][1.04044,0.114778,1.53817][0.80315,0.598425,0][0.445507,0.484839,0][-1.15137,-0.803838,1.42402][0.0551181,-0.480315,-0.874016][0.213807,0.655244,0][-1.63729,-0.604768,0.905004][0.653543,0.692913,-0.307087][0.198857,0.637943,0][-1.13406,-0.605334,1.37902][-0.220472,0.952756,-0.204724][0.224201,0.637943,0][-1.13406,-0.605334,1.37902][-0.220472,0.952756,-0.204724][0.224201,0.637943,0][-1.63729,-0.604768,0.905004][0.653543,0.692913,-0.307087][0.198857,0.637943,0][-1.53817,0.114778,1.04044][0.80315,0.519685,-0.299213][0.215043,0.575673,0][0.192792,-0.803838,1.82108][-0.519685,-0.496063,-0.692913][0.360319,0.56441,0][-0.517808,-0.604768,1.79767][0.267717,0.692913,-0.669291][0.310741,0.547109,0][-0.163648,-0.604034,1.76408][0.0551181,0.984252,-0.149606][0.340693,0.547109,0][-0.163648,-0.604034,1.76408][0.0551181,0.984252,-0.149606][0.340693,0.547109,0][-0.517808,-0.604768,1.79767][0.267717,0.692913,-0.669291][0.310741,0.547109,0][-0.351948,0.114778,1.82335][-0.165354,0.393701,-0.905512][0.324344,0.484839,0]