version 1.00
312
[0.582102,-0.785098,1.88047][0.110236,-0.992126,0.0551181][0.579427,0.193702,0][0.582102,-0.588248,1.88047][0,0.992126,-0.102362][0.596729,0.193702,0][0.204056,-0.588248,1.9579][0.181102,-0.110236,0.976378][0.596729,0.226953,0][0.204056,-0.588248,1.9579][0.181102,-0.110236,0.976378][0.596729,0.226953,0][0.204056,-0.785098,1.9579][0.181102,0.0787402,0.976378][0.579427,0.226953,0][0.582102,-0.785098,1.88047][0.110236,-0.992126,0.0551181][0.579427,0.193702,0][-0.181832,-0.785098,1.96009][-0.015748,-1,0.00787402][0.18703,0.244514,0][-0.181832,-0.588248,1.96009][0.0393701,0.992126,-0.0944882][0.18703,0.261816,0][-0.560732,-0.588248,1.88695][-0.204724,-0.102362,0.976378][0.15375,0.261816,0][-0.560732,-0.588248,1.88695][-0.204724,-0.102362,0.976378][0.15375,0.261816,0][-0.181832,-0.588248,1.96009][0.0393701,0.992126,-0.0944882][0.18703,0.261816,0][-0.351948,0.130564,1.82335][0.0472441,0.425197,-0.905512][0.171507,0.324086,0][-0.560732,-0.588248,1.88695][-0.204724,-0.102362,0.976378][0.15375,0.261816,0][-0.560732,-0.785098,1.88695][-0.188976,0.00787402,0.984252][0.15375,0.244514,0][-0.181832,-0.785098,1.96009][-0.015748,-1,0.00787402][0.18703,0.244514,0][0.204056,-0.588248,1.9579][0.181102,-0.110236,0.976378][0.596729,0.226953,0][0.582102,-0.588248,1.88047][0,0.992126,-0.102362][0.596729,0.193702,0][0.37261,0.130564,1.81924][-0.299213,0.425197,-0.850394][0.658999,0.211741,0][0.93778,-0.588248,1.73078][-0.0708661,0.992126,-0.0708661][0.022302,0.798292,0][0.93778,-0.785098,1.73078][0.00787402,-1,0.023622][0.005,0.798292,0][1.27289,-0.725362,1.51323][-0.125984,-0.661417,0.740157][0.01025,0.764375,0][-0.918084,-0.785098,1.74131][0.0393701,-0.992126,0.11811][0.907597,0.005,0][-0.918084,-0.588248,1.74131][0.0708661,0.992126,-0.0708661][0.924899,0.005,0][-1.24015,-0.588248,1.52873][-0.645669,-0.149606,0.748031][0.924899,0.038917,0][-1.24015,-0.588248,1.52873][-0.645669,-0.149606,0.748031][0.924899,0.038917,0][-1.24015,-0.785098,1.52873][-0.590551,0.0944882,0.80315][0.907597,0.038917,0][-0.918084,-0.785098,1.74131][0.0393701,-0.992126,0.11811][0.907597,0.005,0][-1.24015,-0.588248,1.52873][-0.645669,-0.149606,0.748031][0.924899,0.038917,0][-0.918084,-0.588248,1.74131][0.0708661,0.992126,-0.0708661][0.924899,0.005,0][-1.02292,0.130564,1.54988][0.385827,0.425197,-0.818898][0.987169,0.022095,0][0.93778,-0.588248,1.73078][-0.0708661,0.992126,-0.0708661][0.022302,0.798292,0][1.27289,-0.725362,1.51323][-0.125984,-0.661417,0.740157][0.01025,0.764375,0][1.04044,0.130564,1.53817][0.566929,0.433071,0.700787][0.084572,0.78147,0][-1.73078,-0.588248,0.937778][-0.929134,0.291339,-0.228346][0.50214,0.178686,0][-1.73078,-0.785098,0.937778][-0.874016,0,0.488189][0.484839,0.178686,0][-1.51323,-0.725362,1.27289][-0.740157,-0.661417,-0.125984][0.490089,0.144768,0][1.74131,-0.785098,0.918084][0.11811,-0.992126,-0.0393701][0.579427,0.144768,0][1.74131,-0.588248,0.918084][-0.0708661,0.992126,-0.0708661][0.596729,0.144768,0][1.52873,-0.588248,1.24015][0.748031,-0.149606,0.645669][0.596729,0.178686,0][1.52873,-0.588248,1.24015][0.748031,-0.149606,0.645669][0.596729,0.178686,0][1.52873,-0.785098,1.24015][0.80315,0.0944882,0.590551][0.579427,0.178686,0][1.74131,-0.785098,0.918084][0.11811,-0.992126,-0.0393701][0.579427,0.144768,0][0.200456,0.483576,-2.1802][0.519685,0.00787402,-0.858268][0.255323,0.994368,0][-0.120556,0.60127,-2.19108][-0.165354,0.173228,-0.968504][0.262929,0.984367,0][0.209174,0.746278,-1.99214][0.244094,0.874016,0.425197][0.27798,0.993491,0][-1.73078,-0.588248,0.937778][-0.929134,0.291339,-0.228346][0.50214,0.178686,0][-1.51323,-0.725362,1.27289][-0.740157,-0.661417,-0.125984][0.490089,0.144768,0][-1.53817,0.130564,1.04044][0.677165,0.425197,-0.606299][0.56441,0.161864,0][1.52873,-0.588248,1.24015][0.748031,-0.149606,0.645669][0.596729,0.178686,0][1.74131,-0.588248,0.918084][-0.0708661,0.992126,-0.0708661][0.596729,0.144768,0][1.54988,0.130564,1.02292][-0.818898,0.425197,-0.385827][0.658999,0.161864,0][-0.118524,0.785098,-1.98962][-0.559055,0.748031,0.354331][0.074821,0.588034,0][0.209174,0.746278,-1.99214][0.244094,0.874016,0.425197][0.060464,0.590105,0][-0.120556,0.60127,-2.19108][-0.165354,0.173228,-0.968504][0.061097,0.577076,0][-1.88047,-0.785098,0.582102][-0.0551181,-0.992126,0.110236][0.484839,0.242636,0][-1.88047,-0.588248,0.582102][0.102362,0.992126,0][0.50214,0.242636,0][-1.9579,-0.588248,0.204056][-0.976378,-0.110236,0.181102][0.50214,0.275887,0][-1.9579,-0.588248,0.204056][-0.976378,-0.110236,0.181102][0.50214,0.275887,0][-1.9579,-0.785098,0.204056][-0.976378,0.0787402,0.181102][0.484839,0.275887,0][-1.88047,-0.785098,0.582102][-0.0551181,-0.992126,0.110236][0.484839,0.242636,0][1.96009,-0.785098,0.181832][0.00787402,-1,0.015748][0.099588,0.715441,0][1.96009,-0.588248,0.181832][-0.0944882,0.992126,-0.0393701][0.11689,0.715441,0][1.88695,-0.588248,0.560732][0.976378,-0.102362,0.204724][0.11689,0.748721,0][1.88695,-0.588248,0.560732][0.976378,-0.102362,0.204724][0.11689,0.748721,0][1.88695,-0.785098,0.560732][0.984252,0.00787402,0.188976][0.099588,0.748721,0][1.96009,-0.785098,0.181832][0.00787402,-1,0.015748][0.099588,0.715441,0][-1.9579,-0.588248,0.204056][-0.976378,-0.110236,0.181102][0.50214,0.275887,0][-1.88047,-0.588248,0.582102][0.102362,0.992126,0][0.50214,0.242636,0][-1.81925,0.130564,0.37261][0.850394,0.425197,-0.299213][0.56441,0.260675,0][1.88695,-0.588248,0.560732][0.976378,-0.102362,0.204724][0.11689,0.748721,0][1.96009,-0.588248,0.181832][-0.0944882,0.992126,-0.0393701][0.11689,0.715441,0][1.82335,0.130564,0.351948][-0.905512,0.425197,-0.0472441][0.17916,0.730963,0][-1.96009,-0.785098,-0.181832][-0.00787402,-1,-0.015748][0.586299,0.095834,0][-1.96009,-0.588248,-0.181832][0.0944882,0.992126,0.0393701][0.603601,0.095834,0][-1.88695,-0.588248,-0.560732][-0.976378,-0.102362,-0.204724][0.603601,0.129114,0][-1.88695,-0.588248,-0.560732][-0.976378,-0.102362,-0.204724][0.603601,0.129114,0][-1.88695,-0.785098,-0.560732][-0.984252,0.00787402,-0.188976][0.586299,0.129114,0][-1.96009,-0.785098,-0.181832][-0.00787402,-1,-0.015748][0.586299,0.095834,0][1.88047,-0.785098,-0.582102][0.0551181,-0.992126,-0.110236][0.674015,0.144768,0][1.88047,-0.588248,-0.582102][-0.102362,0.992126,0][0.691317,0.144768,0][1.9579,-0.588248,-0.204056][0.976378,-0.110236,-0.181102][0.691317,0.178019,0][1.9579,-0.588248,-0.204056][0.976378,-0.110236,-0.181102][0.691317,0.178019,0][1.9579,-0.785098,-0.204056][0.976378,0.0787402,-0.181102][0.674015,0.178019,0][1.88047,-0.785098,-0.582102][0.0551181,-0.992126,-0.110236][0.674015,0.144768,0][-1.88695,-0.588248,-0.560732][-0.976378,-0.102362,-0.204724][0.603601,0.129114,0][-1.96009,-0.588248,-0.181832][0.0944882,0.992126,0.0393701][0.603601,0.095834,0][-1.82335,0.130564,-0.351948][0.905512,0.425197,0.0472441][0.665871,0.111357,0][1.9579,-0.588248,-0.204056][0.976378,-0.110236,-0.181102][0.691317,0.178019,0][1.88047,-0.588248,-0.582102][-0.102362,0.992126,0][0.691317,0.144768,0][1.81924,0.130564,-0.37261][-0.850394,0.425197,0.299213][0.753587,0.162807,0][-0.212148,-0.00632206,-2.1712][-0.590551,-0.417323,-0.685039][0.186727,0.795671,0][0.200456,0.483576,-2.1802][0.519685,0.00787402,-0.858268][0.222113,0.796229,0][0.112152,-0.129546,-2.1681][0.511811,-0.433071,-0.740157][0.208576,0.809874,0][-0.689892,-0.241484,-2.01266][-0.11811,-0.0472441,-0.992126][0.201734,0.143679,0][-0.844816,-0.455464,-1.96323][-0.519685,-0.598425,-0.614173][0.225253,0.133937,0][-0.962764,-0.232892,-1.89804][-0.755906,0.472441,-0.448819][0.225254,0.143679,0][0.674458,-0.241484,-2.01742][0.19685,0.204724,-0.96063][0.674015,0.221461,0][0.948122,-0.232892,-1.90471][0.866142,0.259843,-0.425197][0.697536,0.221461,0][0.829724,-0.455464,-1.96907][0.456693,-0.629921,-0.622047][0.697535,0.231203,0][-0.120556,0.60127,-2.19108][-0.165354,0.173228,-0.968504][0.474953,0.321693,0][0.200456,0.483576,-2.1802][0.519685,0.00787402,-0.858268][0.471241,0.353914,0][-0.212148,-0.00632206,-2.1712][-0.590551,-0.417323,-0.685039][0.456048,0.321949,0][-0.424314,0.517812,-1.99482][-0.897638,0.110236,0.433071][0.328753,0.953008,0][-0.118524,0.785098,-1.98962][-0.559055,0.748031,0.354331][0.337867,0.943193,0][-0.120556,0.60127,-2.19108][-0.165354,0.173228,-0.968504][0.34634,0.953015,0][1.73078,-0.588248,-0.937778][0.929134,0.291339,0.228346][0.350472,0.60959,0][1.73078,-0.785098,-0.937778][0.874016,0,-0.488189][0.33317,0.60959,0][1.51323,-0.725362,-1.27289][0.740157,-0.661417,0.125984][0.33842,0.575673,0][-1.74131,-0.785098,-0.918084][-0.11811,-0.992126,0.0393701][0.484839,0.193702,0][-1.74131,-0.588248,-0.918084][0.0708661,0.992126,0.0708661][0.50214,0.193702,0][-1.52873,-0.588248,-1.24015][-0.748031,-0.149606,-0.645669][0.50214,0.22762,0][-1.52873,-0.588248,-1.24015][-0.748031,-0.149606,-0.645669][0.50214,0.22762,0][-1.52873,-0.785098,-1.24015][-0.80315,0.0944882,-0.590551][0.484839,0.22762,0][-1.74131,-0.785098,-0.918084][-0.11811,-0.992126,0.0393701][0.484839,0.193702,0][0.209174,0.746278,-1.99214][0.244094,0.874016,0.425197][0.328753,0.964277,0][0.417118,0.408768,-2.0243][0.889764,0.393701,0.23622][0.34195,0.964284,0][0.200456,0.483576,-2.1802][0.519685,0.00787402,-0.858268][0.340157,0.977335,0][-1.52873,-0.588248,-1.24015][-0.748031,-0.149606,-0.645669][0.50214,0.22762,0][-1.74131,-0.588248,-0.918084][0.0708661,0.992126,0.0708661][0.50214,0.193702,0][-1.54988,0.130564,-1.02292][0.818898,0.425197,0.385827][0.56441,0.210798,0][1.73078,-0.588248,-0.937778][0.929134,0.291339,0.228346][0.350472,0.60959,0][1.51323,-0.725362,-1.27289][0.740157,-0.661417,0.125984][0.33842,0.575673,0][1.53817,0.130564,-1.04044][-0.677165,0.425197,0.606299][0.412742,0.592768,0][0.948122,-0.232892,-1.90471][0.866142,0.259843,-0.425197][0.473269,0.892778,0][0.674458,-0.241484,-2.01742][0.19685,0.204724,-0.96063][0.463527,0.892777,0][0.80754,-0.0178321,-1.83064][0,0.92126,0.393701][0.468397,0.88693,0][-0.962764,-0.232892,-1.89804][-0.755906,0.472441,-0.448819][0.771815,0.67445,0][-0.875016,-0.024716,-1.80306][0.0708661,0.992126,-0.0629921][0.776687,0.668602,0][-0.689892,-0.241484,-2.01266][-0.11811,-0.0472441,-0.992126][0.781557,0.674449,0][-0.937778,-0.588248,-1.73078][0.228346,0.291339,-0.929134][0.022302,0.749358,0][-0.937778,-0.785098,-1.73078][-0.488189,0,-0.874016][0.005,0.749358,0][-1.27289,-0.725362,-1.51323][0.125984,-0.661417,-0.740157][0.01025,0.715441,0][0.918084,-0.785098,-1.74131][-0.0393701,-0.992126,-0.11811][0.813009,0.005,0][0.918084,-0.588248,-1.74131][-0.0708661,0.992126,0.0708661][0.830311,0.005,0][1.24015,-0.588248,-1.52873][0.645669,-0.149606,-0.748031][0.830311,0.038917,0][1.24015,-0.588248,-1.52873][0.645669,-0.149606,-0.748031][0.830311,0.038917,0][1.24015,-0.785098,-1.52873][0.590551,0.0944882,-0.80315][0.813009,0.038917,0][0.918084,-0.785098,-1.74131][-0.0393701,-0.992126,-0.11811][0.813009,0.005,0][-0.424314,0.517812,-1.99482][-0.897638,0.110236,0.433071][0.172943,0.121649,0][-0.120556,0.60127,-2.19108][-0.165354,0.173228,-0.968504][0.186698,0.110564,0][-0.212148,-0.00632206,-2.1712][-0.590551,-0.417323,-0.685039][0.187085,0.138451,0][-0.937778,-0.588248,-1.73078][0.228346,0.291339,-0.929134][0.022302,0.749358,0][-1.27289,-0.725362,-1.51323][0.125984,-0.661417,-0.740157][0.01025,0.715441,0][-1.04044,0.130564,-1.53817][0.606299,0.425197,0.677165][0.084572,0.732536,0][1.24015,-0.588248,-1.52873][0.645669,-0.149606,-0.748031][0.830311,0.038917,0][0.918084,-0.588248,-1.74131][-0.0708661,0.992126,0.0708661][0.830311,0.005,0][1.02293,0.130564,-1.54988][-0.385827,0.425197,0.818898][0.892581,0.022095,0][-0.582102,-0.785098,-1.88047][-0.110236,-0.992126,-0.0551181][0.005,0.813309,0][-0.582102,-0.588248,-1.88047][0,0.992126,0.102362][0.022302,0.813309,0][-0.204056,-0.588248,-1.9579][-0.181102,-0.110236,-0.976378][0.022302,0.84656,0][-0.204056,-0.588248,-1.9579][-0.181102,-0.110236,-0.976378][0.022302,0.84656,0][-0.204056,-0.785098,-1.9579][-0.181102,0.0787402,-0.976378][0.005,0.84656,0][-0.582102,-0.785098,-1.88047][-0.110236,-0.992126,-0.0551181][0.005,0.813309,0][0.181832,-0.785098,-1.96009][0.015748,-1,-0.00787402][0.106461,0.666507,0][0.181832,-0.588248,-1.96009][-0.0393701,0.992126,0.0944882][0.123763,0.666507,0][0.560732,-0.588248,-1.88695][0.204724,-0.102362,-0.976378][0.123763,0.699787,0][0.560732,-0.588248,-1.88695][0.204724,-0.102362,-0.976378][0.123763,0.699787,0][0.560732,-0.785098,-1.88695][0.188976,0.00787402,-0.984252][0.106461,0.699787,0][0.181832,-0.785098,-1.96009][0.015748,-1,-0.00787402][0.106461,0.666507,0][-0.204056,-0.588248,-1.9579][-0.181102,-0.110236,-0.976378][0.022302,0.84656,0][-0.582102,-0.588248,-1.88047][0,0.992126,0.102362][0.022302,0.813309,0][-0.37261,0.130564,-1.81925][0.299213,0.425197,0.850394][0.084572,0.831348,0][0.560732,-0.588248,-1.88695][0.204724,-0.102362,-0.976378][0.123763,0.699787,0][0.181832,-0.588248,-1.96009][-0.0393701,0.992126,0.0944882][0.123763,0.666507,0][0.351948,0.130564,-1.82335][-0.0472441,0.425197,0.905512][0.186033,0.682029,0][-0.844816,-0.455464,-1.96323][-0.519685,-0.598425,-0.614173][0.725463,0.574693,0][-1.05732,-0.361496,-1.71638][-0.732283,-0.661417,0.173228][0.732947,0.586272,0][-0.962764,-0.232892,-1.89804][-0.755906,0.472441,-0.448819][0.719162,0.58605,0][-0.006988,-0.542574,-1.99891][-0.755906,-0.519685,0.393701][0.322072,0.15375,0][-0.212148,-0.00632206,-2.1712][-0.590551,-0.417323,-0.685039][0.33385,0.182196,0][0.112152,-0.129546,-2.1681][0.511811,-0.433071,-0.740157][0.310118,0.182173,0][-0.875016,-0.024716,-1.80306][0.0708661,0.992126,-0.0629921][0.52025,0.748182,0][-0.584316,-0.094982,-1.91427][0.204724,0.968504,-0.141732][0.534037,0.748232,0][-0.689892,-0.241484,-2.01266][-0.11811,-0.0472441,-0.992126][0.526326,0.759661,0][0.112152,-0.129546,-2.1681][0.511811,-0.433071,-0.740157][0.346849,0.925369,0][0.200456,0.483576,-2.1802][0.519685,0.00787402,-0.858268][0.328783,0.931931,0][0.417118,0.408768,-2.0243][0.889764,0.393701,0.23622][0.328753,0.918515,0][0.80754,-0.0178321,-1.83064][0,0.92126,0.393701][0.932409,0.450581,0][0.674458,-0.241484,-2.01742][0.19685,0.204724,-0.96063][0.945396,0.450451,0][0.530282,-0.131206,-1.9344][-0.440945,0.559055,-0.708661][0.939024,0.462677,0][0.912052,-0.54368,-1.77781][0.393701,-0.88189,-0.267717][0.978984,0.523838,0][0.829724,-0.455464,-1.96907][0.456693,-0.629921,-0.622047][0.967752,0.523541,0][1.04395,-0.246952,-1.72372][0.984252,-0.165354,-0.0472441][0.97794,0.514252,0][-0.689892,-0.241484,-2.01266][-0.11811,-0.0472441,-0.992126][0.492503,0.825026,0][-0.527162,-0.417228,-1.93814][0.858268,0.102362,-0.503937][0.484839,0.813566,0][-0.844816,-0.455464,-1.96323][-0.519685,-0.598425,-0.614173][0.498626,0.813572,0][0.674458,-0.241484,-2.01742][0.19685,0.204724,-0.96063][0.484839,0.748343,0][0.829724,-0.455464,-1.96907][0.456693,-0.629921,-0.622047][0.491139,0.736986,0][0.604648,-0.558164,-1.90388][-0.88189,-0.354331,-0.322835][0.498624,0.748565,0][0.829724,-0.455464,-1.96907][0.456693,-0.629921,-0.622047][0.623213,0.687422,0][0.948122,-0.232892,-1.90471][0.866142,0.259843,-0.425197][0.617091,0.698877,0][1.04395,-0.246952,-1.72372][0.984252,-0.165354,-0.0472441][0.609426,0.687416,0][1.04395,-0.246952,-1.72372][0.984252,-0.165354,-0.0472441][0.168145,0.473903,0][0.948122,-0.232892,-1.90471][0.866142,0.259843,-0.425197][0.168904,0.462693,0][0.80754,-0.0178321,-1.83064][0,0.92126,0.393701][0.177765,0.473256,0][0.246552,-0.208172,-1.99845][0.795276,-0.354331,0.496063][0.436063,0.243942,0][0.112152,-0.129546,-2.1681][0.511811,-0.433071,-0.740157][0.422459,0.230524,0][0.417118,0.408768,-2.0243][0.889764,0.393701,0.23622][0.462767,0.231614,0][-0.875016,-0.024716,-1.80306][0.0708661,0.992126,-0.0629921][0.581422,0.760146,0][-0.962764,-0.232892,-1.89804][-0.755906,0.472441,-0.448819][0.592654,0.760442,0][-1.05732,-0.361496,-1.71638][-0.732283,-0.661417,0.173228][0.582466,0.769732,0][0.246552,-0.208172,-1.99845][0.795276,-0.354331,0.496063][0.369304,0.277274,0][-0.006988,-0.542574,-1.99891][-0.755906,-0.519685,0.393701][0.360625,0.298169,0][0.112152,-0.129546,-2.1681][0.511811,-0.433071,-0.740157][0.360081,0.267339,0][-0.181832,-0.785098,1.96009][-0.015748,-1,0.00787402][0.408916,0.292246,0][0.204056,-0.785098,1.9579][0.181102,0.0787402,0.976378][0.415327,0.25894,0][0.015646,-0.436466,2.75814][-0.110236,0.984252,0.110236][0.480046,0.288716,0][0.582102,-0.785098,1.88047][0.110236,-0.992126,0.0551181][0.415119,0.225023,0][0.93778,-0.785098,1.73078][0.00787402,-1,0.023622][0.408297,0.191799,0][1.06995,-0.436466,2.5422][0.377953,-0.748031,0.535433][0.479484,0.194542,0][-0.918084,-0.785098,1.74131][0.0393701,-0.992126,0.11811][0.37746,0.351977,0][-0.560732,-0.785098,1.88695][-0.188976,0.00787402,0.984252][0.396129,0.323661,0][-1.04104,-0.436466,2.55418][-0.141732,0.984252,0.0629921][0.444526,0.375937,0][-1.05732,-0.361496,-1.71638][-0.732283,-0.661417,0.173228][0.620636,0.723513,0][-0.844816,-0.455464,-1.96323][-0.519685,-0.598425,-0.614173][0.609426,0.722754,0][-0.778852,-0.600872,-1.83288][-0.433071,-0.850394,0.299213][0.619989,0.713893,0][-0.006988,-0.542574,-1.99891][-0.755906,-0.519685,0.393701][0.27681,0.368918,0][-0.264984,-0.191916,-1.99634][-0.661417,-0.598425,0.456693][0.297308,0.360081,0][-0.212148,-0.00632206,-2.1712][-0.590551,-0.417323,-0.685039][0.307597,0.368858,0][-0.527162,-0.417228,-1.93814][0.858268,0.102362,-0.503937][0.941504,0.52384,0][-0.778852,-0.600872,-1.83288][-0.433071,-0.850394,0.299213][0.942528,0.514252,0][-0.844816,-0.455464,-1.96323][-0.519685,-0.598425,-0.614173][0.952735,0.52352,0][-1.23762,-0.785098,1.32441][0.598425,-0.251969,-0.76378][0.331862,0.366417,0][-1.51323,-0.725362,1.27289][-0.740157,-0.661417,-0.125984][0.32554,0.395125,0][-1.73078,-0.785098,0.937778][-0.874016,0,0.488189][0.294285,0.408297,0][-1.88047,-0.785098,0.582102][-0.0551181,-0.992126,0.110236][0.261061,0.415119,0][-1.73078,-0.785098,0.937778][-0.874016,0,0.488189][0.294285,0.408297,0][-2.5422,-0.436468,1.06995][-0.141732,0.984252,-0.0551181][0.291543,0.479484,0][1.74131,-0.785098,0.918084][0.11811,-0.992126,-0.0393701][0.351977,0.108625,0][1.88695,-0.785098,0.560732][0.984252,0.00787402,0.188976][0.323661,0.089955,0][2.55418,-0.436468,1.04104][0.0629921,0.984252,0.141732][0.375937,0.041558,0][1.13168,-0.588248,1.36311][0.0551181,1,-0.0393701][0.19207,0.15507,0][1.27289,-0.725362,1.51323][-0.125984,-0.661417,0.740157][0.209321,0.15375,0][1.52873,-0.588248,1.24015][0.748031,-0.149606,0.645669][0.208582,0.187659,0][-0.527162,-0.417228,-1.93814][0.858268,0.102362,-0.503937][0.821837,0.559761,0][-0.689892,-0.241484,-2.01266][-0.11811,-0.0472441,-0.992126][0.810602,0.559761,0][-0.584316,-0.094982,-1.91427][0.204724,0.968504,-0.141732][0.820541,0.550207,0][1.27289,-0.725362,1.51323][-0.125984,-0.661417,0.740157][0.395125,0.160544,0][1.52873,-0.785098,1.24015][0.80315,0.0944882,0.590551][0.376108,0.13246,0][1.96136,-0.436468,1.93924][-0.259843,0.905512,0.330709][0.442926,0.107751,0][-1.96009,-0.785098,-0.181832][-0.00787402,-1,-0.015748][0.193839,0.408916,0][-1.9579,-0.785098,0.204056][-0.976378,0.0787402,0.181102][0.227144,0.415327,0][-2.75814,-0.436468,0.015646][-0.110236,0.984252,-0.110236][0.197369,0.480046,0][1.96009,-0.785098,0.181832][0.00787402,-1,0.015748][0.292246,0.077169,0][1.9579,-0.785098,-0.204056][0.976378,0.0787402,-0.181102][0.25894,0.070757,0][2.75814,-0.436468,-0.015646][0.110236,0.984252,0.110236][0.288716,0.00603801,0][-1.51323,-0.725362,1.27289][-0.740157,-0.661417,-0.125984][0.32554,0.395125,0][-1.24015,-0.785098,1.52873][-0.590551,0.0944882,0.80315][0.353625,0.376108,0][-1.93924,-0.436468,1.96136][-0.330709,0.905512,-0.259843][0.378333,0.442926,0][-1.74131,-0.785098,-0.918084][-0.11811,-0.992126,0.0393701][0.134107,0.37746,0][-1.88695,-0.785098,-0.560732][-0.984252,0.00787402,-0.188976][0.162424,0.396129,0][-2.55418,-0.436468,-1.04104][-0.0629921,0.984252,-0.141732][0.110147,0.444526,0][1.88047,-0.785098,-0.582102][0.0551181,-0.992126,-0.110236][0.225023,0.070966,0][1.73078,-0.785098,-0.937778][0.874016,0,-0.488189][0.191799,0.077787,0][2.5422,-0.436468,-1.06995][0.141732,0.984252,0.0551181][0.194542,0.00660002,0][0.604648,-0.558164,-1.90388][-0.88189,-0.354331,-0.322835][0.235322,0.144302,0][0.829724,-0.455464,-1.96907][0.456693,-0.629921,-0.622047][0.235402,0.13616,0][0.912052,-0.54368,-1.77781][0.393701,-0.88189,-0.267717][0.244779,0.144395,0][-1.36311,-0.588248,1.13168][0.0393701,1,0.0551181][0.475036,0.075244,0][-1.51323,-0.725362,1.27289][-0.740157,-0.661417,-0.125984][0.457784,0.076564,0][-1.24015,-0.588248,1.52873][-0.645669,-0.149606,0.748031][0.458523,0.042655,0][-0.264984,-0.191916,-1.99634][-0.661417,-0.598425,0.456693][0.412863,0.177915,0][-0.424314,0.517812,-1.99482][-0.897638,0.110236,0.433071][0.435886,0.168145,0][-0.212148,-0.00632206,-2.1712][-0.590551,-0.417323,-0.685039][0.442309,0.178093,0][0.530282,-0.131206,-1.9344][-0.440945,0.559055,-0.708661][0.686919,0.734619,0][0.674458,-0.241484,-2.01742][0.19685,0.204724,-0.96063][0.698154,0.734619,0][0.604648,-0.558164,-1.90388][-0.88189,-0.354331,-0.322835][0.688215,0.744174,0][-1.73078,-0.785098,0.937778][-0.874016,0,0.488189][0.761154,0.209981,0][-1.73078,-0.588248,0.937778][-0.929134,0.291339,-0.228346][0.767014,0.193702,0][-2.5422,-0.436468,1.06995][-0.141732,0.984252,-0.0551181][0.835375,0.205408,0][1.74131,-0.588248,0.918084][-0.0708661,0.992126,-0.0708661][0.011464,0.905501,0][1.74131,-0.785098,0.918084][0.11811,-0.992126,-0.0393701][0.005,0.889452,0][2.55418,-0.436468,1.04104][0.0629921,0.984252,0.141732][0.080091,0.892927,0][-1.9579,-0.785098,0.204056][-0.976378,0.0787402,0.181102][0.293217,0.682786,0][-1.9579,-0.588248,0.204056][-0.976378,-0.110236,0.181102][0.299077,0.666507,0][-2.75814,-0.436468,0.015646][-0.110236,0.984252,-0.110236][0.368304,0.678524,0][1.96009,-0.588248,0.181832][-0.0944882,0.992126,-0.0393701][0.744674,0.193702,0][1.96009,-0.785098,0.181832][0.00787402,-1,0.015748][0.749891,0.210199,0][2.75814,-0.436468,-0.015646][0.110236,0.984252,0.110236][0.674523,0.20123,0][-1.32441,-0.785098,-1.23762][0.76378,-0.251969,0.598425][0.119666,0.331862,0][-1.27289,-0.725362,-1.51323][0.125984,-0.661417,-0.740157][0.09096,0.32554,0][-0.937778,-0.785098,-1.73078][-0.488189,0,-0.874016][0.077787,0.294285,0][-0.582102,-0.785098,-1.88047][-0.110236,-0.992126,-0.0551181][0.070966,0.261061,0][-0.937778,-0.785098,-1.73078][-0.488189,0,-0.874016][0.077787,0.294285,0][-1.06995,-0.436466,-2.5422][0.0551181,0.984252,-0.141732][0.0066,0.291543,0][0.918084,-0.785098,-1.74131][-0.0393701,-0.992126,-0.11811][0.108625,0.134107,0][0.560732,-0.785098,-1.88695][0.188976,0.00787402,-0.984252][0.089955,0.162424,0][1.04104,-0.436466,-2.55418][0.141732,0.984252,-0.0629921][0.041558,0.110147,0][0.181832,-0.785098,-1.96009][0.015748,-1,-0.00787402][0.077169,0.193839,0][-0.204056,-0.785098,-1.9579][-0.181102,0.0787402,-0.976378][0.070757,0.227144,0][-0.015646,-0.436466,-2.75814][0.110236,0.984252,-0.110236][0.006038,0.197369,0][1.23762,-0.785098,-1.32441][-0.598425,-0.251969,0.76378][0.154222,0.119666,0][1.51323,-0.725362,-1.27289][0.740157,-0.661417,0.125984][0.160544,0.09096,0][1.73078,-0.785098,-0.937778][0.874016,0,-0.488189][0.191799,0.077787,0][1.51323,-0.725362,-1.27289][0.740157,-0.661417,0.125984][0.160544,0.09096,0][1.24015,-0.785098,-1.52873][0.590551,0.0944882,-0.80315][0.13246,0.109977,0][1.93924,-0.436466,-1.96136][0.330709,0.905512,0.259843][0.107751,0.043159,0][-1.24015,-0.785098,1.52873][-0.590551,0.0944882,0.80315][0.484839,0.307183,0][-1.24015,-0.588248,1.52873][-0.645669,-0.149606,0.748031][0.490699,0.290904,0][-1.93924,-0.436468,1.96136][-0.330709,0.905512,-0.259843][0.560798,0.303235,0][-1.88695,-0.785098,-0.560732][-0.984252,0.00787402,-0.188976][0.579427,0.258915,0][-1.88695,-0.588248,-0.560732][-0.976378,-0.102362,-0.204724][0.585287,0.242636,0][-2.55418,-0.436468,-1.04104][-0.0629921,0.984252,-0.141732][0.655386,0.254967,0][1.88047,-0.588248,-0.582102][-0.102362,0.992126,0][0.45125,0.106185,0][1.88047,-0.785098,-0.582102][0.0551181,-0.992126,-0.110236][0.467746,0.100968,0][2.5422,-0.436468,-1.06995][0.141732,0.984252,0.0551181][0.459072,0.177267,0][1.36311,-0.588248,-1.13168][-0.0393701,1,-0.0551181][0.037589,0.389536,0][1.51323,-0.725362,-1.27289][0.740157,-0.661417,0.125984][0.038909,0.406787,0][1.24015,-0.588248,-1.52873][0.645669,-0.149606,-0.748031][0.005,0.406048,0][-1.27289,-0.725362,-1.51323][0.125984,-0.661417,-0.740157][0.09096,0.32554,0][-1.52873,-0.785098,-1.24015][-0.80315,0.0944882,-0.590551][0.109977,0.353625,0][-1.96136,-0.436466,-1.93924][0.259843,0.905512,-0.330709][0.043159,0.378333,0][0.582102,-0.588248,1.88047][0,0.992126,-0.102362][0.307717,0.021496,0][0.582102,-0.785098,1.88047][0.110236,-0.992126,0.0551181][0.3025,0.005,0][1.06995,-0.436466,2.5422][0.377953,-0.748031,0.535433][0.378799,0.013674,0][-0.560732,-0.785098,1.88695][-0.188976,0.00787402,0.984252][0.907597,0.070213,0][-0.560732,-0.588248,1.88695][-0.204724,-0.102362,0.976378][0.913457,0.053934,0][-1.04104,-0.436466,2.55418][-0.141732,0.984252,0.0629921][0.983557,0.066265,0][-1.52873,-0.785098,-1.24015][-0.80315,0.0944882,-0.590551][0.680888,0.112113,0][-1.52873,-0.588248,-1.24015][-0.748031,-0.149606,-0.645669][0.686748,0.095834,0][-1.96136,-0.436466,-1.93924][0.259843,0.905512,-0.330709][0.756847,0.108165,0][-1.13168,-0.588248,-1.36311][-0.0551181,1,0.0393701][0.475036,0.459114,0][-1.27289,-0.725362,-1.51323][0.125984,-0.661417,-0.740157][0.457784,0.460435,0][-1.52873,-0.588248,-1.24015][-0.748031,-0.149606,-0.645669][0.458523,0.426525,0][-0.181832,-0.588248,1.96009][0.0393701,0.992126,-0.0944882][0.839262,0.144768,0][-0.181832,-0.785098,1.96009][-0.015748,-1,0.00787402][0.84448,0.161265,0][0.015646,-0.436466,2.75814][-0.110236,0.984252,0.110236][0.769112,0.152296,0][0.204056,-0.785098,1.9579][0.181102,0.0787402,0.976378][0.773055,0.112113,0][0.204056,-0.588248,1.9579][0.181102,-0.110236,0.976378][0.778916,0.095834,0][0.015646,-0.436466,2.75814][-0.110236,0.984252,0.110236][0.848143,0.107851,0][-0.937778,-0.785098,-1.73078][-0.488189,0,-0.874016][0.671595,0.258915,0][-0.937778,-0.588248,-1.73078][0.228346,0.291339,-0.929134][0.677455,0.242636,0][-1.06995,-0.436466,-2.5422][0.0551181,0.984252,-0.141732][0.745816,0.254342,0][0.918084,-0.588248,-1.74131][-0.0708661,0.992126,0.0708661][0.106052,0.839595,0][0.918084,-0.785098,-1.74131][-0.0393701,-0.992126,-0.11811][0.099588,0.823546,0][1.04104,-0.436466,-2.55418][0.141732,0.984252,-0.0629921][0.174679,0.827021,0][-0.918084,-0.588248,1.74131][0.0708661,0.992126,-0.0708661][0.862206,0.160934,0][-0.918084,-0.785098,1.74131][0.0393701,-0.992126,0.11811][0.855742,0.144885,0][-1.04104,-0.436466,2.55418][-0.141732,0.984252,0.0629921][0.930833,0.14836,0][0.93778,-0.785098,1.73078][0.00787402,-1,0.023622][0.577006,0.307183,0][0.93778,-0.588248,1.73078][-0.0708661,0.992126,-0.0708661][0.582866,0.290904,0][1.06995,-0.436466,2.5422][0.377953,-0.748031,0.535433][0.651228,0.302609,0][1.32441,-0.785098,1.23762][0.275591,-0.952756,-0.125984][0.366417,0.154222,0][1.52873,-0.785098,1.24015][0.80315,0.0944882,0.590551][0.376108,0.13246,0][1.27289,-0.725362,1.51323][-0.125984,-0.661417,0.740157][0.395125,0.160544,0][-0.204056,-0.785098,-1.9579][-0.181102,0.0787402,-0.976378][0.286345,0.73172,0][-0.204056,-0.588248,-1.9579][-0.181102,-0.110236,-0.976378][0.292205,0.715441,0][-0.015646,-0.436466,-2.75814][0.110236,0.984252,-0.110236][0.361432,0.727458,0][0.181832,-0.588248,-1.96009][-0.0393701,0.992126,0.0944882][0.075659,0.861577,0][0.181832,-0.785098,-1.96009][0.015748,-1,-0.00787402][0.080876,0.878073,0][-0.015646,-0.436466,-2.75814][0.110236,0.984252,-0.110236][0.005508,0.869105,0][1.23762,-0.785098,-1.32441][-0.598425,-0.251969,0.76378][0.154222,0.119666,0][1.24015,-0.785098,-1.52873][0.590551,0.0944882,-0.80315][0.13246,0.109977,0][1.51323,-0.725362,-1.27289][0.740157,-0.661417,0.125984][0.160544,0.09096,0][-1.23762,-0.785098,1.32441][0.598425,-0.251969,-0.76378][0.331862,0.366417,0][-1.24015,-0.785098,1.52873][-0.590551,0.0944882,0.80315][0.353625,0.376108,0][-1.51323,-0.725362,1.27289][-0.740157,-0.661417,-0.125984][0.32554,0.395125,0][1.52873,-0.785098,1.24015][0.80315,0.0944882,0.590551][0.201049,0.682786,0][1.52873,-0.588248,1.24015][0.748031,-0.149606,0.645669][0.206909,0.666507,0][1.96136,-0.436468,1.93924][-0.259843,0.905512,0.330709][0.277008,0.678838,0][0.560732,-0.785098,-1.88695][0.188976,0.00787402,-0.984252][0.194177,0.73172,0][0.560732,-0.588248,-1.88695][0.204724,-0.102362,-0.976378][0.200037,0.715441,0][1.04104,-0.436466,-2.55418][0.141732,0.984252,-0.0629921][0.270136,0.727772,0][-0.582102,-0.588248,-1.88047][0,0.992126,0.102362][0.786892,0.05018,0][-0.582102,-0.785098,-1.88047][-0.110236,-0.992126,-0.0551181][0.792109,0.066676,0][-1.06995,-0.436466,-2.5422][0.0551181,0.984252,-0.141732][0.71581,0.058003,0][-1.32441,-0.785098,-1.23762][0.76378,-0.251969,0.598425][0.119666,0.331862,0][-1.52873,-0.785098,-1.24015][-0.80315,0.0944882,-0.590551][0.109977,0.353625,0][-1.27289,-0.725362,-1.51323][0.125984,-0.661417,-0.740157][0.09096,0.32554,0][0.582102,-0.785098,1.88047][0.110236,-0.992126,0.0551181][0.415119,0.225023,0][0.061352,-0.785098,1.81163][-0.0787402,-0.19685,-0.976378][0.393087,0.267478,0][1.32441,-0.785098,1.23762][0.275591,-0.952756,-0.125984][0.366417,0.154222,0][1.32441,-0.785098,1.23762][0.275591,-0.952756,-0.125984][0.366417,0.154222,0][1.27289,-0.725362,1.51323][-0.125984,-0.661417,0.740157][0.395125,0.160544,0][0.93778,-0.785098,1.73078][0.00787402,-1,0.023622][0.408297,0.191799,0][-1.88047,-0.588248,0.582102][0.102362,0.992126,0][0.884599,0.053934,0][-1.88047,-0.785098,0.582102][-0.0551181,-0.992126,0.110236][0.889816,0.07043,0][-2.5422,-0.436468,1.06995][-0.141732,0.984252,-0.0551181][0.813517,0.061757,0][1.88695,-0.785098,0.560732][0.984252,0.00787402,0.188976][0.33317,0.640886,0][1.88695,-0.588248,0.560732][0.976378,-0.102362,0.204724][0.33903,0.624607,0][2.55418,-0.436468,1.04104][0.0629921,0.984252,0.141732][0.40913,0.636938,0][1.24015,-0.785098,-1.52873][0.590551,0.0944882,-0.80315][0.099588,0.780654,0][1.24015,-0.588248,-1.52873][0.645669,-0.149606,-0.748031][0.105448,0.764375,0][1.93924,-0.436466,-1.96136][0.330709,0.905512,0.259843][0.175547,0.776706,0][-1.51323,-0.725362,1.27289][-0.740157,-0.661417,-0.125984][0.762025,0.259938,0][-1.36311,-0.588248,1.13168][0.0393701,1,0.0551181][0.762025,0.242636,0][-1.53817,0.130564,1.04044][0.677165,0.425197,-0.606299][0.825456,0.250797,0][-1.96009,-0.588248,-0.181832][0.0944882,0.992126,0.0393701][0.170247,0.795671,0][-1.96009,-0.785098,-0.181832][-0.00787402,-1,-0.015748][0.175464,0.812167,0][-2.75814,-0.436468,0.015646][-0.110236,0.984252,-0.110236][0.100096,0.803199,0][1.9579,-0.785098,-0.204056][0.976378,0.0787402,-0.181102][0.191756,0.780654,0][1.9579,-0.588248,-0.204056][0.976378,-0.110236,-0.181102][0.197616,0.764375,0][2.75814,-0.436468,-0.015646][0.110236,0.984252,0.110236][0.266843,0.776392,0][1.73078,-0.785098,-0.937778][0.874016,0,-0.488189][0.484839,0.338479,0][1.73078,-0.588248,-0.937778][0.929134,0.291339,0.228346][0.490699,0.3222,0][2.5422,-0.436468,-1.06995][0.141732,0.984252,0.0551181][0.559061,0.333905,0][-1.74131,-0.588248,-0.918084][0.0708661,0.992126,0.0708661][0.289516,0.780541,0][-1.74131,-0.785098,-0.918084][-0.11811,-0.992126,0.0393701][0.283052,0.764492,0][-2.55418,-0.436468,-1.04104][-0.0629921,0.984252,-0.141732][0.358143,0.767967,0][-1.27289,-0.725362,-1.51323][0.125984,-0.661417,-0.740157][0.384513,0.683809,0][-1.13168,-0.588248,-1.36311][-0.0551181,1,0.0393701][0.384513,0.666507,0][-1.04044,0.130564,-1.53817][0.606299,0.425197,0.677165][0.447944,0.674668,0][1.32441,-0.785098,1.23762][0.275591,-0.952756,-0.125984][0.366417,0.154222,0][0.93778,-0.785098,1.73078][0.00787402,-1,0.023622][0.408297,0.191799,0][0.582102,-0.785098,1.88047][0.110236,-0.992126,0.0551181][0.415119,0.225023,0][0.061352,-0.785098,1.81163][-0.0787402,-0.19685,-0.976378][0.393087,0.267478,0][0.582102,-0.785098,1.88047][0.110236,-0.992126,0.0551181][0.415119,0.225023,0][0.204056,-0.785098,1.9579][0.181102,0.0787402,0.976378][0.415327,0.25894,0][0.061352,-0.785098,1.81163][-0.0787402,-0.19685,-0.976378][0.393087,0.267478,0][0.204056,-0.785098,1.9579][0.181102,0.0787402,0.976378][0.415327,0.25894,0][-0.181832,-0.785098,1.96009][-0.015748,-1,0.00787402][0.408916,0.292246,0][0.061352,-0.785098,1.81163][-0.0787402,-0.19685,-0.976378][0.393087,0.267478,0][-0.181832,-0.785098,1.96009][-0.015748,-1,0.00787402][0.408916,0.292246,0][-0.560732,-0.785098,1.88695][-0.188976,0.00787402,0.984252][0.396129,0.323661,0][0.061352,-0.785098,1.81163][-0.0787402,-0.19685,-0.976378][0.393087,0.267478,0][-0.560732,-0.785098,1.88695][-0.188976,0.00787402,0.984252][0.396129,0.323661,0][-0.918084,-0.785098,1.74131][0.0393701,-0.992126,0.11811][0.37746,0.351977,0][-0.918084,-0.785098,1.74131][0.0393701,-0.992126,0.11811][0.37746,0.351977,0][-1.23762,-0.785098,1.32441][0.598425,-0.251969,-0.76378][0.331862,0.366417,0][0.061352,-0.785098,1.81163][-0.0787402,-0.19685,-0.976378][0.393087,0.267478,0][-1.23762,-0.785098,1.32441][0.598425,-0.251969,-0.76378][0.331862,0.366417,0][-0.918084,-0.785098,1.74131][0.0393701,-0.992126,0.11811][0.37746,0.351977,0][-1.24015,-0.785098,1.52873][-0.590551,0.0944882,0.80315][0.353625,0.376108,0][-1.23762,-0.785098,1.32441][0.598425,-0.251969,-0.76378][0.331862,0.366417,0][-1.73078,-0.785098,0.937778][-0.874016,0,0.488189][0.294285,0.408297,0][-1.88047,-0.785098,0.582102][-0.0551181,-0.992126,0.110236][0.261061,0.415119,0][-1.88047,-0.785098,0.582102][-0.0551181,-0.992126,0.110236][0.261061,0.415119,0][-1.81163,-0.785098,0.061352][0.976378,-0.19685,-0.0787402][0.218606,0.393087,0][-1.23762,-0.785098,1.32441][0.598425,-0.251969,-0.76378][0.331862,0.366417,0][-1.81163,-0.785098,0.061352][0.976378,-0.19685,-0.0787402][0.218606,0.393087,0][-1.88047,-0.785098,0.582102][-0.0551181,-0.992126,0.110236][0.261061,0.415119,0][-1.9579,-0.785098,0.204056][-0.976378,0.0787402,0.181102][0.227144,0.415327,0][-1.81163,-0.785098,0.061352][0.976378,-0.19685,-0.0787402][0.218606,0.393087,0][-1.9579,-0.785098,0.204056][-0.976378,0.0787402,0.181102][0.227144,0.415327,0][-1.96009,-0.785098,-0.181832][-0.00787402,-1,-0.015748][0.193839,0.408916,0][-1.81163,-0.785098,0.061352][0.976378,-0.19685,-0.0787402][0.218606,0.393087,0][-1.96009,-0.785098,-0.181832][-0.00787402,-1,-0.015748][0.193839,0.408916,0][-1.88695,-0.785098,-0.560732][-0.984252,0.00787402,-0.188976][0.162424,0.396129,0][-1.81163,-0.785098,0.061352][0.976378,-0.19685,-0.0787402][0.218606,0.393087,0][-1.88695,-0.785098,-0.560732][-0.984252,0.00787402,-0.188976][0.162424,0.396129,0][-1.74131,-0.785098,-0.918084][-0.11811,-0.992126,0.0393701][0.134107,0.37746,0][-1.74131,-0.785098,-0.918084][-0.11811,-0.992126,0.0393701][0.134107,0.37746,0][-1.32441,-0.785098,-1.23762][0.76378,-0.251969,0.598425][0.119666,0.331862,0][-1.81163,-0.785098,0.061352][0.976378,-0.19685,-0.0787402][0.218606,0.393087,0][-1.32441,-0.785098,-1.23762][0.76378,-0.251969,0.598425][0.119666,0.331862,0][-1.74131,-0.785098,-0.918084][-0.11811,-0.992126,0.0393701][0.134107,0.37746,0][-1.52873,-0.785098,-1.24015][-0.80315,0.0944882,-0.590551][0.109977,0.353625,0][-1.32441,-0.785098,-1.23762][0.76378,-0.251969,0.598425][0.119666,0.331862,0][-0.937778,-0.785098,-1.73078][-0.488189,0,-0.874016][0.077787,0.294285,0][-0.582102,-0.785098,-1.88047][-0.110236,-0.992126,-0.0551181][0.070966,0.261061,0][-0.582102,-0.785098,-1.88047][-0.110236,-0.992126,-0.0551181][0.070966,0.261061,0][-0.061352,-0.785098,-1.81163][0.0787402,-0.19685,0.976378][0.092997,0.218606,0][-1.32441,-0.785098,-1.23762][0.76378,-0.251969,0.598425][0.119666,0.331862,0][-0.061352,-0.785098,-1.81163][0.0787402,-0.19685,0.976378][0.092997,0.218606,0][-0.582102,-0.785098,-1.88047][-0.110236,-0.992126,-0.0551181][0.070966,0.261061,0][-0.204056,-0.785098,-1.9579][-0.181102,0.0787402,-0.976378][0.070757,0.227144,0][-0.061352,-0.785098,-1.81163][0.0787402,-0.19685,0.976378][0.092997,0.218606,0][-0.204056,-0.785098,-1.9579][-0.181102,0.0787402,-0.976378][0.070757,0.227144,0][0.181832,-0.785098,-1.96009][0.015748,-1,-0.00787402][0.077169,0.193839,0][-0.061352,-0.785098,-1.81163][0.0787402,-0.19685,0.976378][0.092997,0.218606,0][0.181832,-0.785098,-1.96009][0.015748,-1,-0.00787402][0.077169,0.193839,0][0.560732,-0.785098,-1.88695][0.188976,0.00787402,-0.984252][0.089955,0.162424,0][-0.061352,-0.785098,-1.81163][0.0787402,-0.19685,0.976378][0.092997,0.218606,0][0.560732,-0.785098,-1.88695][0.188976,0.00787402,-0.984252][0.089955,0.162424,0][0.918084,-0.785098,-1.74131][-0.0393701,-0.992126,-0.11811][0.108625,0.134107,0][0.918084,-0.785098,-1.74131][-0.0393701,-0.992126,-0.11811][0.108625,0.134107,0][1.23762,-0.785098,-1.32441][-0.598425,-0.251969,0.76378][0.154222,0.119666,0][-0.061352,-0.785098,-1.81163][0.0787402,-0.19685,0.976378][0.092997,0.218606,0][1.23762,-0.785098,-1.32441][-0.598425,-0.251969,0.76378][0.154222,0.119666,0][0.918084,-0.785098,-1.74131][-0.0393701,-0.992126,-0.11811][0.108625,0.134107,0][1.24015,-0.785098,-1.52873][0.590551,0.0944882,-0.80315][0.13246,0.109977,0][1.23762,-0.785098,-1.32441][-0.598425,-0.251969,0.76378][0.154222,0.119666,0][1.73078,-0.785098,-0.937778][0.874016,0,-0.488189][0.191799,0.077787,0][1.88047,-0.785098,-0.582102][0.0551181,-0.992126,-0.110236][0.225023,0.070966,0][1.88047,-0.785098,-0.582102][0.0551181,-0.992126,-0.110236][0.225023,0.070966,0][1.81163,-0.785098,-0.061352][-0.976378,-0.19685,0.0787402][0.267478,0.092997,0][1.23762,-0.785098,-1.32441][-0.598425,-0.251969,0.76378][0.154222,0.119666,0][1.81163,-0.785098,-0.061352][-0.976378,-0.19685,0.0787402][0.267478,0.092997,0][1.88047,-0.785098,-0.582102][0.0551181,-0.992126,-0.110236][0.225023,0.070966,0][1.9579,-0.785098,-0.204056][0.976378,0.0787402,-0.181102][0.25894,0.070757,0][1.81163,-0.785098,-0.061352][-0.976378,-0.19685,0.0787402][0.267478,0.092997,0][1.9579,-0.785098,-0.204056][0.976378,0.0787402,-0.181102][0.25894,0.070757,0][1.96009,-0.785098,0.181832][0.00787402,-1,0.015748][0.292246,0.077169,0][1.81163,-0.785098,-0.061352][-0.976378,-0.19685,0.0787402][0.267478,0.092997,0][1.96009,-0.785098,0.181832][0.00787402,-1,0.015748][0.292246,0.077169,0][1.88695,-0.785098,0.560732][0.984252,0.00787402,0.188976][0.323661,0.089955,0][1.81163,-0.785098,-0.061352][-0.976378,-0.19685,0.0787402][0.267478,0.092997,0][1.88695,-0.785098,0.560732][0.984252,0.00787402,0.188976][0.323661,0.089955,0][1.74131,-0.785098,0.918084][0.11811,-0.992126,-0.0393701][0.351977,0.108625,0][1.74131,-0.785098,0.918084][0.11811,-0.992126,-0.0393701][0.351977,0.108625,0][1.32441,-0.785098,1.23762][0.275591,-0.952756,-0.125984][0.366417,0.154222,0][1.81163,-0.785098,-0.061352][-0.976378,-0.19685,0.0787402][0.267478,0.092997,0][1.32441,-0.785098,1.23762][0.275591,-0.952756,-0.125984][0.366417,0.154222,0][1.74131,-0.785098,0.918084][0.11811,-0.992126,-0.0393701][0.351977,0.108625,0][1.52873,-0.785098,1.24015][0.80315,0.0944882,0.590551][0.376108,0.13246,0][-1.96009,-0.588248,-0.181832][0.0944882,0.992126,0.0393701][0.178036,0.904152,0][-1.76408,-0.588248,-0.163648][0.0314961,1,0.023622][0.178036,0.88693,0][-1.82335,0.130564,-0.351948][0.905512,0.425197,0.0472441][0.240306,0.893896,0][1.76211,-0.588248,-0.18365][-0.976378,-0.0944882,0.204724][0.099588,0.968702,0][1.9579,-0.588248,-0.204056][0.976378,-0.110236,-0.181102][0.099588,0.951488,0][1.81924,0.130564,-0.37261][-0.850394,0.425197,0.299213][0.161858,0.963194,0][1.69825,-0.588248,0.504658][-0.944882,0.244094,-0.212598][0.255323,0.903498,0][1.88695,-0.588248,0.560732][0.976378,-0.102362,0.204724][0.255323,0.88693,0][1.82335,0.130564,0.351948][-0.905512,0.425197,-0.0472441][0.317593,0.893549,0][-1.88047,-0.588248,0.582102][0.102362,0.992126,0][0.640573,0.434678,0][-1.69242,-0.588248,0.523892][-0.173228,0.984252,-0.023622][0.640573,0.418133,0][-1.81925,0.130564,0.37261][0.850394,0.425197,-0.299213][0.702843,0.42947,0][-1.74131,-0.588248,-0.918084][0.0708661,0.992126,0.0708661][0.099588,0.904232,0][-1.56717,-0.588248,-0.826276][-0.102362,0.984252,-0.141732][0.099588,0.88693,0][-1.54988,0.130564,-1.02292][0.818898,0.425197,0.385827][0.16302,0.895092,0][1.55769,-0.588248,-0.844][-0.818898,0.244094,0.511811][0.840473,0.259938,0][1.73078,-0.588248,-0.937778][0.929134,0.291339,0.228346][0.840473,0.242636,0][1.53817,0.130564,-1.04044][-0.677165,0.425197,0.606299][0.903904,0.253185,0][1.37586,-0.588248,1.11613][-0.834646,-0.0944882,-0.543307][0.864352,0.113136,0][1.52873,-0.588248,1.24015][0.748031,-0.149606,0.645669][0.864352,0.095834,0][1.54988,0.130564,1.02292][-0.818898,0.425197,-0.385827][0.927783,0.106383,0][1.11613,-0.588248,-1.37586][-0.543307,-0.0944882,0.834646][0.484839,0.370797,0][1.24015,-0.588248,-1.52873][0.645669,-0.149606,-0.748031][0.484839,0.353496,0][1.02293,0.130564,-1.54988][-0.385827,0.425197,0.818898][0.54827,0.364044,0][0.844,-0.588248,1.55769][0.110236,0.976378,0.19685][0.563286,0.370797,0][0.93778,-0.588248,1.73078][-0.0708661,0.992126,-0.0708661][0.563286,0.353496,0][1.04044,0.130564,1.53817][0.566929,0.433071,0.700787][0.626718,0.364044,0][-0.918084,-0.588248,1.74131][0.0708661,0.992126,-0.0708661][0.918921,0.259938,0][-0.826276,-0.588248,1.56717][-0.141732,0.984252,0.102362][0.918921,0.242636,0][-1.02292,0.130564,1.54988][0.385827,0.425197,-0.818898][0.982352,0.250797,0][-0.582102,-0.588248,-1.88047][0,0.992126,0.102362][0.562125,0.466997,0][-0.523892,-0.588248,-1.69242][0.023622,0.984252,-0.173228][0.562125,0.450451,0][-0.37261,0.130564,-1.81925][0.299213,0.425197,0.850394][0.624395,0.461788,0][0.504658,-0.588248,-1.69825][-0.212598,0.244094,0.944882][0.178036,0.935737,0][0.560732,-0.588248,-1.88695][0.204724,-0.102362,-0.976378][0.178036,0.919169,0][0.351948,0.130564,-1.82335][-0.0472441,0.425197,0.905512][0.240306,0.925788,0][0.18365,-0.588248,1.76211][-0.204724,-0.0944882,-0.976378][0.641734,0.403029,0][0.204056,-0.588248,1.9579][0.181102,-0.110236,0.976378][0.641734,0.385814,0][0.37261,0.130564,1.81924][-0.299213,0.425197,-0.850394][0.704004,0.39752,0][-0.181832,-0.588248,1.96009][0.0393701,0.992126,-0.0944882][0.099588,0.936471,0][-0.163648,-0.588248,1.76408][0.023622,1,-0.0314961][0.099588,0.919249,0][-0.351948,0.130564,1.82335][0.0472441,0.425197,-0.905512][0.161858,0.926215,0][1.27289,-0.725362,1.51323][-0.125984,-0.661417,0.740157][0.377641,0.732743,0][1.13168,-0.588248,1.36311][0.0551181,1,-0.0393701][0.377641,0.715441,0][1.04044,0.130564,1.53817][0.566929,0.433071,0.700787][0.441072,0.723602,0][0.181832,-0.588248,-1.96009][-0.0393701,0.992126,0.0944882][0.484839,0.467673,0][0.163648,-0.588248,-1.76408][-0.023622,1,0.0314961][0.484839,0.450451,0][0.351948,0.130564,-1.82335][-0.0472441,0.425197,0.905512][0.547109,0.457417,0][-0.18365,-0.588248,-1.76211][0.204724,-0.0944882,0.976378][0.563286,0.435347,0][-0.204056,-0.588248,-1.9579][-0.181102,-0.110236,-0.976378][0.563286,0.418133,0][-0.37261,0.130564,-1.81925][0.299213,0.425197,0.850394][0.625556,0.429839,0][0.204056,-0.588248,1.9579][0.181102,-0.110236,0.976378][0.022215,0.700424,0][0.18365,-0.588248,1.76211][-0.204724,-0.0944882,-0.976378][0.005,0.698691,0][-0.163648,-0.588248,1.76408][0.023622,1,-0.0314961][0.005067,0.668165,0][-0.163648,-0.588248,1.76408][0.023622,1,-0.0314961][0.005067,0.668165,0][-0.181832,-0.588248,1.96009][0.0393701,0.992126,-0.0944882][0.022289,0.666507,0][0.204056,-0.588248,1.9579][0.181102,-0.110236,0.976378][0.022215,0.700424,0][-0.560732,-0.588248,1.88695][-0.204724,-0.102362,0.976378][0.406027,0.0389,0][-0.504658,-0.588248,1.69825][0.212598,0.244094,-0.944882][0.388871,0.036661,0][-0.826276,-0.588248,1.56717][-0.141732,0.984252,0.102362][0.389835,0.00615102,0][-0.826276,-0.588248,1.56717][-0.141732,0.984252,0.102362][0.389835,0.00615102,0][-0.918084,-0.588248,1.74131][0.0708661,0.992126,-0.0708661][0.407098,0.005,0][-0.560732,-0.588248,1.88695][-0.204724,-0.102362,0.976378][0.406027,0.0389,0][-1.24015,-0.588248,1.52873][-0.645669,-0.149606,0.748031][0.458523,0.042655,0][-1.11613,-0.588248,1.37586][0.543307,-0.0944882,-0.834646][0.475701,0.044725,0][-1.36311,-0.588248,1.13168][0.0393701,1,0.0551181][0.475036,0.075244,0][-1.73078,-0.588248,0.937778][-0.929134,0.291339,-0.228346][0.298518,0.191413,0][-1.55769,-0.588248,0.844][0.818898,0.244094,-0.511811][0.315715,0.193315,0][-1.69242,-0.588248,0.523892][-0.173228,0.984252,-0.023622][0.315349,0.223839,0][-1.69242,-0.588248,0.523892][-0.173228,0.984252,-0.023622][0.315349,0.223839,0][-1.88047,-0.588248,0.582102][0.102362,0.992126,0][0.298111,0.225328,0][-1.73078,-0.588248,0.937778][-0.929134,0.291339,-0.228346][0.298518,0.191413,0][-1.9579,-0.588248,0.204056][-0.976378,-0.110236,0.181102][0.304693,0.575673,0][-1.76211,-0.588248,0.18365][0.976378,-0.0944882,-0.204724][0.321908,0.577406,0][-1.76408,-0.588248,-0.163648][0.0314961,1,0.023622][0.321841,0.607932,0][-1.76408,-0.588248,-0.163648][0.0314961,1,0.023622][0.321841,0.607932,0][-1.96009,-0.588248,-0.181832][0.0944882,0.992126,0.0393701][0.304619,0.60959,0][-1.9579,-0.588248,0.204056][-0.976378,-0.110236,0.181102][0.304693,0.575673,0][-1.52873,-0.588248,-1.24015][-0.748031,-0.149606,-0.645669][0.458523,0.426525,0][-1.37586,-0.588248,-1.11613][0.834646,-0.0944882,0.543307][0.475701,0.428596,0][-1.13168,-0.588248,-1.36311][-0.0551181,1,0.0393701][0.475036,0.459114,0][-0.204056,-0.588248,-1.9579][-0.181102,-0.110236,-0.976378][0.554068,0.095834,0][-0.18365,-0.588248,-1.76211][0.204724,-0.0944882,0.976378][0.571283,0.097568,0][0.163648,-0.588248,-1.76408][-0.023622,1,0.0314961][0.571216,0.128093,0][0.163648,-0.588248,-1.76408][-0.023622,1,0.0314961][0.571216,0.128093,0][0.181832,-0.588248,-1.96009][-0.0393701,0.992126,0.0944882][0.553994,0.129751,0][-0.204056,-0.588248,-1.9579][-0.181102,-0.110236,-0.976378][0.554068,0.095834,0][0.560732,-0.588248,-1.88695][0.204724,-0.102362,-0.976378][0.458725,0.388871,0][0.504658,-0.588248,-1.69825][-0.212598,0.244094,0.944882][0.475881,0.39111,0][0.826276,-0.588248,-1.56717][0.141732,0.984252,-0.102362][0.474917,0.42162,0][0.826276,-0.588248,-1.56717][0.141732,0.984252,-0.102362][0.474917,0.42162,0][0.918084,-0.588248,-1.74131][-0.0708661,0.992126,0.0708661][0.457653,0.422771,0][0.560732,-0.588248,-1.88695][0.204724,-0.102362,-0.976378][0.458725,0.388871,0][1.24015,-0.588248,-1.52873][0.645669,-0.149606,-0.748031][0.005,0.406048,0][1.11613,-0.588248,-1.37586][-0.543307,-0.0944882,0.834646][0.007071,0.388871,0][1.36311,-0.588248,-1.13168][-0.0393701,1,-0.0551181][0.037589,0.389536,0][1.9579,-0.588248,-0.204056][0.976378,-0.110236,-0.181102][0.732517,0.038917,0][1.76211,-0.588248,-0.18365][-0.976378,-0.0944882,0.204724][0.715302,0.037184,0][1.76408,-0.588248,0.163648][-0.0314961,1,-0.023622][0.715369,0.00665802,0][1.76408,-0.588248,0.163648][-0.0314961,1,-0.023622][0.715369,0.00665802,0][1.96009,-0.588248,0.181832][-0.0944882,0.992126,-0.0393701][0.732591,0.005,0][1.9579,-0.588248,-0.204056][0.976378,-0.110236,-0.181102][0.732517,0.038917,0][1.52873,-0.588248,1.24015][0.748031,-0.149606,0.645669][0.208582,0.187659,0][1.37586,-0.588248,1.11613][-0.834646,-0.0944882,-0.543307][0.191405,0.185589,0][1.13168,-0.588248,1.36311][0.0551181,1,-0.0393701][0.19207,0.15507,0][1.51323,-0.725362,-1.27289][0.740157,-0.661417,0.125984][0.563286,0.403116,0][1.36311,-0.588248,-1.13168][-0.0393701,1,-0.0551181][0.563286,0.385814,0][1.53817,0.130564,-1.04044][-0.677165,0.425197,0.606299][0.626718,0.393975,0][-0.504658,-0.588248,1.69825][0.212598,0.244094,-0.944882][0.333771,0.87118,0][-0.560732,-0.588248,1.88695][-0.204724,-0.102362,0.976378][0.333771,0.854612,0][-0.351948,0.130564,1.82335][0.0472441,0.425197,-0.905512][0.396041,0.861231,0][0.582102,-0.588248,1.88047][0,0.992126,-0.102362][0.484839,0.499236,0][0.523892,-0.588248,1.69242][-0.023622,0.984252,0.173228][0.484839,0.48269,0][0.37261,0.130564,1.81924][-0.299213,0.425197,-0.850394][0.547109,0.494027,0][0.918084,-0.588248,-1.74131][-0.0708661,0.992126,0.0708661][0.005,0.93782,0][0.826276,-0.588248,-1.56717][0.141732,0.984252,-0.102362][0.005,0.920518,0][1.02293,0.130564,-1.54988][-0.385827,0.425197,0.818898][0.068431,0.928679,0][-0.844,-0.588248,-1.55769][0.511811,0.244094,0.818898][0.099588,0.871914,0][-0.937778,-0.588248,-1.73078][0.228346,0.291339,-0.929134][0.099588,0.854612,0][-1.04044,0.130564,-1.53817][0.606299,0.425197,0.677165][0.16302,0.865161,0][-1.11613,-0.588248,1.37586][0.543307,-0.0944882,-0.834646][0.178036,0.871914,0][-1.24015,-0.588248,1.52873][-0.645669,-0.149606,0.748031][0.178036,0.854612,0][-1.02292,0.130564,1.54988][0.385827,0.425197,-0.818898][0.241467,0.865161,0][-1.37586,-0.588248,-1.11613][0.834646,-0.0944882,0.543307][0.484839,0.435434,0][-1.52873,-0.588248,-1.24015][-0.748031,-0.149606,-0.645669][0.484839,0.418133,0][-1.54988,0.130564,-1.02292][0.818898,0.425197,0.385827][0.54827,0.428681,0][-1.55769,-0.588248,0.844][0.818898,0.244094,-0.511811][0.484839,0.403116,0][-1.73078,-0.588248,0.937778][-0.929134,0.291339,-0.228346][0.484839,0.385814,0][-1.53817,0.130564,1.04044][0.677165,0.425197,-0.606299][0.54827,0.396363,0][1.74131,-0.588248,0.918084][-0.0708661,0.992126,-0.0708661][0.641734,0.370797,0][1.56717,-0.588248,0.826276][0.102362,0.984252,0.141732][0.641734,0.353496,0][1.54988,0.130564,1.02292][-0.818898,0.425197,-0.385827][0.705165,0.361657,0][-0.937778,-0.588248,-1.73078][0.228346,0.291339,-0.929134][0.042663,0.406068,0][-0.844,-0.588248,-1.55769][0.511811,0.244094,0.818898][0.044565,0.388871,0][-0.523892,-0.588248,-1.69242][0.023622,0.984252,-0.173228][0.075089,0.389237,0][-0.523892,-0.588248,-1.69242][0.023622,0.984252,-0.173228][0.075089,0.389237,0][-0.582102,-0.588248,-1.88047][0,0.992126,0.102362][0.076578,0.406474,0][-0.937778,-0.588248,-1.73078][0.228346,0.291339,-0.929134][0.042663,0.406068,0][-0.937778,-0.588248,-1.73078][0.228346,0.291339,-0.929134][0.042663,0.406068,0][-0.582102,-0.588248,-1.88047][0,0.992126,0.102362][0.076578,0.406474,0][-1.06995,-0.436466,-2.5422][0.0551181,0.984252,-0.141732][0.058838,0.475447,0][-1.69825,-0.588248,-0.504658][0.944882,0.244094,0.212598][0.851584,0.211004,0][-1.88695,-0.588248,-0.560732][-0.976378,-0.102362,-0.204724][0.851584,0.193702,0][-1.82335,0.130564,-0.351948][0.905512,0.425197,0.0472441][0.915015,0.204251,0][1.88047,-0.588248,-0.582102][-0.102362,0.992126,0][0.005,0.970138,0][1.69242,-0.588248,-0.523892][0.173228,0.984252,0.023622][0.005,0.952836,0][1.81924,0.130564,-0.37261][-0.850394,0.425197,0.299213][0.068431,0.960998,0][-1.88695,-0.588248,-0.560732][-0.976378,-0.102362,-0.204724][0.0389,0.074854,0][-1.69825,-0.588248,-0.504658][0.944882,0.244094,0.212598][0.036661,0.09201,0][-1.56717,-0.588248,-0.826276][-0.102362,0.984252,-0.141732][0.006151,0.091046,0][-1.56717,-0.588248,-0.826276][-0.102362,0.984252,-0.141732][0.006151,0.091046,0][-1.74131,-0.588248,-0.918084][0.0708661,0.992126,0.0708661][0.005,0.073783,0][-1.88695,-0.588248,-0.560732][-0.976378,-0.102362,-0.204724][0.0389,0.074854,0][-1.88695,-0.588248,-0.560732][-0.976378,-0.102362,-0.204724][0.0389,0.074854,0][-1.74131,-0.588248,-0.918084][0.0708661,0.992126,0.0708661][0.005,0.073783,0][-2.55418,-0.436468,-1.04104][-0.0629921,0.984252,-0.141732][0.02409,0.005171,0][1.73078,-0.588248,-0.937778][0.929134,0.291339,0.228346][0.076569,0.074444,0][1.55769,-0.588248,-0.844][-0.818898,0.244094,0.511811][0.074667,0.091641,0][1.69242,-0.588248,-0.523892][0.173228,0.984252,0.023622][0.044144,0.091275,0][1.69242,-0.588248,-0.523892][0.173228,0.984252,0.023622][0.044144,0.091275,0][1.88047,-0.588248,-0.582102][-0.102362,0.992126,0][0.042655,0.074038,0][1.73078,-0.588248,-0.937778][0.929134,0.291339,0.228346][0.076569,0.074444,0][1.73078,-0.588248,-0.937778][0.929134,0.291339,0.228346][0.076569,0.074444,0][1.88047,-0.588248,-0.582102][-0.102362,0.992126,0][0.042655,0.074038,0][2.5422,-0.436468,-1.06995][0.141732,0.984252,0.0551181][0.060395,0.00506502,0][-1.76211,-0.588248,0.18365][0.976378,-0.0944882,-0.204724][0.720182,0.37071,0][-1.9579,-0.588248,0.204056][-0.976378,-0.110236,0.181102][0.720182,0.353496,0][-1.81925,0.130564,0.37261][0.850394,0.425197,-0.299213][0.782452,0.365202,0][1.96009,-0.588248,0.181832][-0.0944882,0.992126,-0.0393701][0.256484,0.871834,0][1.76408,-0.588248,0.163648][-0.0314961,1,-0.023622][0.256484,0.854612,0][1.82335,0.130564,0.351948][-0.905512,0.425197,-0.0472441][0.318754,0.861578,0][1.88695,-0.588248,0.560732][0.976378,-0.102362,0.204724][0.15375,0.170906,0][1.69825,-0.588248,0.504658][-0.944882,0.244094,-0.212598][0.155989,0.15375,0][1.56717,-0.588248,0.826276][0.102362,0.984252,0.141732][0.186499,0.154714,0][1.56717,-0.588248,0.826276][0.102362,0.984252,0.141732][0.186499,0.154714,0][1.74131,-0.588248,0.918084][-0.0708661,0.992126,-0.0708661][0.18765,0.171978,0][1.88695,-0.588248,0.560732][0.976378,-0.102362,0.204724][0.15375,0.170906,0][1.88695,-0.588248,0.560732][0.976378,-0.102362,0.204724][0.15375,0.170906,0][1.74131,-0.588248,0.918084][-0.0708661,0.992126,-0.0708661][0.18765,0.171978,0][2.55418,-0.436468,1.04104][0.0629921,0.984252,0.141732][0.168561,0.240589,0][0.93778,-0.588248,1.73078][-0.0708661,0.992126,-0.0708661][0.225319,0.260858,0][0.844,-0.588248,1.55769][0.110236,0.976378,0.19685][0.223417,0.278055,0][0.523892,-0.588248,1.69242][-0.023622,0.984252,0.173228][0.192894,0.277689,0][0.523892,-0.588248,1.69242][-0.023622,0.984252,0.173228][0.192894,0.277689,0][0.582102,-0.588248,1.88047][0,0.992126,-0.102362][0.191405,0.260451,0][0.93778,-0.588248,1.73078][-0.0708661,0.992126,-0.0708661][0.225319,0.260858,0][0.93778,-0.588248,1.73078][-0.0708661,0.992126,-0.0708661][0.225319,0.260858,0][0.582102,-0.588248,1.88047][0,0.992126,-0.102362][0.191405,0.260451,0][1.06995,-0.436466,2.5422][0.377953,-0.748031,0.535433][0.209145,0.191478,0][-0.204056,-0.588248,-1.9579][-0.181102,-0.110236,-0.976378][0.554068,0.095834,0][0.181832,-0.588248,-1.96009][-0.0393701,0.992126,0.0944882][0.553994,0.129751,0][-0.015646,-0.436466,-2.75814][0.110236,0.984252,-0.110236][0.48485,0.112688,0][0.560732,-0.588248,-1.88695][0.204724,-0.102362,-0.976378][0.458725,0.388871,0][0.918084,-0.588248,-1.74131][-0.0708661,0.992126,0.0708661][0.457653,0.422771,0][1.04104,-0.436466,-2.55418][0.141732,0.984252,-0.0629921][0.389042,0.403682,0][-0.00497,0.343724,-1.61913][-0.220472,-0.244094,0.944882][0.136842,0.288847,0][0.209174,0.746278,-1.99214][0.244094,0.874016,0.425197][0.129758,0.267905,0][-0.118524,0.785098,-1.98962][-0.559055,0.748031,0.354331][0.136672,0.243347,0][-1.9579,-0.588248,0.204056][-0.976378,-0.110236,0.181102][0.304693,0.575673,0][-1.96009,-0.588248,-0.181832][0.0944882,0.992126,0.0393701][0.304619,0.60959,0][-2.75814,-0.436468,0.015646][-0.110236,0.984252,-0.110236][0.235475,0.592526,0][1.9579,-0.588248,-0.204056][0.976378,-0.110236,-0.181102][0.732517,0.038917,0][1.96009,-0.588248,0.181832][-0.0944882,0.992126,-0.0393701][0.732591,0.005,0][2.75814,-0.436468,-0.015646][0.110236,0.984252,0.110236][0.801735,0.022064,0][-1.73078,-0.588248,0.937778][-0.929134,0.291339,-0.228346][0.298518,0.191413,0][-1.88047,-0.588248,0.582102][0.102362,0.992126,0][0.298111,0.225328,0][-2.5422,-0.436468,1.06995][-0.141732,0.984252,-0.0551181][0.229138,0.207587,0][-0.560732,-0.588248,1.88695][-0.204724,-0.102362,0.976378][0.406027,0.0389,0][-0.918084,-0.588248,1.74131][0.0708661,0.992126,-0.0708661][0.407098,0.005,0][-1.04104,-0.436466,2.55418][-0.141732,0.984252,0.0629921][0.47571,0.02409,0][0.204056,-0.588248,1.9579][0.181102,-0.110236,0.976378][0.022215,0.700424,0][-0.181832,-0.588248,1.96009][0.0393701,0.992126,-0.0944882][0.022289,0.666507,0][0.015646,-0.436466,2.75814][-0.110236,0.984252,0.110236][0.091432,0.683571,0][1.24015,-0.588248,-1.52873][0.645669,-0.149606,-0.748031][0.005,0.406048,0][1.51323,-0.725362,-1.27289][0.740157,-0.661417,0.125984][0.038909,0.406787,0][1.93924,-0.436466,-1.96136][0.330709,0.905512,0.259843][0.020493,0.475583,0][-0.00497,0.343724,-1.61913][-0.220472,-0.244094,0.944882][0.11815,0.223803,0][-0.118524,0.785098,-1.98962][-0.559055,0.748031,0.354331][0.110564,0.202944,0][-0.424314,0.517812,-1.99482][-0.897638,0.110236,0.433071][0.116513,0.177742,0][1.52873,-0.588248,1.24015][0.748031,-0.149606,0.645669][0.208582,0.187659,0][1.27289,-0.725362,1.51323][-0.125984,-0.661417,0.740157][0.209321,0.15375,0][1.96136,-0.436468,1.93924][-0.259843,0.905512,0.330709][0.278116,0.172166,0][-1.52873,-0.588248,-1.24015][-0.748031,-0.149606,-0.645669][0.458523,0.426525,0][-1.27289,-0.725362,-1.51323][0.125984,-0.661417,-0.740157][0.457784,0.460435,0][-1.96136,-0.436466,-1.93924][0.259843,0.905512,-0.330709][0.388988,0.442018,0][-0.00497,0.343724,-1.61913][-0.220472,-0.244094,0.944882][0.547633,0.527114,0][0.417118,0.408768,-2.0243][0.889764,0.393701,0.23622][0.523845,0.527311,0][0.209174,0.746278,-1.99214][0.244094,0.874016,0.425197][0.52575,0.514252,0][-1.24015,-0.588248,1.52873][-0.645669,-0.149606,0.748031][0.458523,0.042655,0][-1.51323,-0.725362,1.27289][-0.740157,-0.661417,-0.125984][0.457784,0.076564,0][-1.93924,-0.436468,1.96136][-0.330709,0.905512,-0.259843][0.388988,0.058148,0][-0.875016,-0.024716,-1.80306][0.0708661,0.992126,-0.0629921][0.505418,0.627064,0][-1.05732,-0.361496,-1.71638][-0.732283,-0.661417,0.173228][0.504131,0.63662,0][-0.674404,-0.304166,-1.58355][0.637795,-0.0629921,0.771654][0.484839,0.627185,0][1.04395,-0.246952,-1.72372][0.984252,-0.165354,-0.0472441][0.920509,0.353496,0][0.80754,-0.0178321,-1.83064][0,0.92126,0.393701][0.919312,0.363063,0][0.661968,-0.304166,-1.58821][-0.149606,-0.181102,0.968504][0.899932,0.35381,0][-0.875016,-0.024716,-1.80306][0.0708661,0.992126,-0.0629921][0.684229,0.523894,0][-0.674404,-0.304166,-1.58355][0.637795,-0.0629921,0.771654][0.663835,0.521135,0][-0.584316,-0.094982,-1.91427][0.204724,0.968504,-0.141732][0.684178,0.514252,0][0.80754,-0.0178321,-1.83064][0,0.92126,0.393701][0.792006,0.300475,0][0.530282,-0.131206,-1.9344][-0.440945,0.559055,-0.708661][0.793171,0.290904,0][0.661968,-0.304166,-1.58821][-0.149606,-0.181102,0.968504][0.812583,0.300091,0][0.912052,-0.54368,-1.77781][0.393701,-0.88189,-0.267717][0.344032,0.832985,0][1.04395,-0.246952,-1.72372][0.984252,-0.165354,-0.0472441][0.345319,0.82343,0][0.661968,-0.304166,-1.58821][-0.149606,-0.181102,0.968504][0.364612,0.832865,0][-1.05732,-0.361496,-1.71638][-0.732283,-0.661417,0.173228][0.358112,0.928082,0][-0.778852,-0.600872,-1.83288][-0.433071,-0.850394,0.299213][0.359309,0.918515,0][-0.674404,-0.304166,-1.58355][0.637795,-0.0629921,0.771654][0.37869,0.927768,0][0.530282,-0.131206,-1.9344][-0.440945,0.559055,-0.708661][0.644124,0.574693,0][0.604648,-0.558164,-1.90388][-0.88189,-0.354331,-0.322835][0.643405,0.58415,0][0.661968,-0.304166,-1.58821][-0.149606,-0.181102,0.968504][0.625188,0.574693,0][-0.527162,-0.417228,-1.93814][0.858268,0.102362,-0.503937][0.484839,0.681998,0][-0.584316,-0.094982,-1.91427][0.204724,0.968504,-0.141732][0.485558,0.672541,0][-0.674404,-0.304166,-1.58355][0.637795,-0.0629921,0.771654][0.503775,0.681998,0][-0.00497,0.343724,-1.61913][-0.220472,-0.244094,0.944882][0.192987,0.542745,0][-0.424314,0.517812,-1.99482][-0.897638,0.110236,0.433071][0.176795,0.525041,0][-0.264984,-0.191916,-1.99634][-0.661417,-0.598425,0.456693][0.191703,0.504959,0][-0.00497,0.343724,-1.61913][-0.220472,-0.244094,0.944882][0.270129,0.100968,0][0.246552,-0.208172,-1.99845][0.795276,-0.354331,0.496063][0.270156,0.138811,0][0.417118,0.408768,-2.0243][0.889764,0.393701,0.23622][0.254516,0.119294,0][0.604648,-0.558164,-1.90388][-0.88189,-0.354331,-0.322835][0.884915,0.353496,0][0.912052,-0.54368,-1.77781][0.393701,-0.88189,-0.267717][0.88375,0.363067,0][0.661968,-0.304166,-1.58821][-0.149606,-0.181102,0.968504][0.864338,0.35388,0][-0.527162,-0.417228,-1.93814][0.858268,0.102362,-0.503937][0.57476,0.584334,0][-0.674404,-0.304166,-1.58355][0.637795,-0.0629921,0.771654][0.554357,0.581645,0][-0.778852,-0.600872,-1.83288][-0.433071,-0.850394,0.299213][0.574677,0.574693,0][-0.00497,0.343724,-1.61913][-0.220472,-0.244094,0.944882][0.659957,0.016718,0][-0.264984,-0.191916,-1.99634][-0.661417,-0.598425,0.456693][0.672826,0.044249,0][-0.006988,-0.542574,-1.99891][-0.755906,-0.519685,0.393701][0.660573,0.062907,0][-0.00497,0.343724,-1.61913][-0.220472,-0.244094,0.944882][0.251776,0.496576,0][-0.006988,-0.542574,-1.99891][-0.755906,-0.519685,0.393701][0.251385,0.542745,0][0.246552,-0.208172,-1.99845][0.795276,-0.354331,0.496063][0.23858,0.524092,0][0.504658,-0.588248,-1.69825][-0.212598,0.244094,0.944882][0.560116,0.06727,0][-0.061352,-0.785098,-1.81163][0.0787402,-0.19685,0.976378][0.609694,0.084572,0][1.23762,-0.785098,-1.32441][-0.598425,-0.251969,0.76378][0.504169,0.084572,0][-0.844,-0.588248,-1.55769][0.511811,0.244094,0.818898][0.678696,0.06727,0][-1.32441,-0.785098,-1.23762][0.76378,-0.251969,0.598425][0.693646,0.084572,0][-0.061352,-0.785098,-1.81163][0.0787402,-0.19685,0.976378][0.609694,0.084572,0][-0.061352,-0.785098,-1.81163][0.0787402,-0.19685,0.976378][0.609694,0.084572,0][0.163648,-0.588248,-1.76408][-0.023622,1,0.0314961][0.590068,0.06727,0][-0.18365,-0.588248,-1.76211][0.204724,-0.0944882,0.976378][0.620593,0.06727,0][-0.061352,-0.785098,-1.81163][0.0787402,-0.19685,0.976378][0.609694,0.084572,0][-0.523892,-0.588248,-1.69242][0.023622,0.984252,-0.173228][0.650519,0.06727,0][-0.844,-0.588248,-1.55769][0.511811,0.244094,0.818898][0.678696,0.06727,0][1.23762,-0.785098,-1.32441][-0.598425,-0.251969,0.76378][0.504169,0.084572,0][0.826276,-0.588248,-1.56717][0.141732,0.984252,-0.102362][0.531888,0.06727,0][0.504658,-0.588248,-1.69825][-0.212598,0.244094,0.944882][0.560116,0.06727,0][-0.061352,-0.785098,-1.81163][0.0787402,-0.19685,0.976378][0.609694,0.084572,0][0.504658,-0.588248,-1.69825][-0.212598,0.244094,0.944882][0.560116,0.06727,0][0.163648,-0.588248,-1.76408][-0.023622,1,0.0314961][0.590068,0.06727,0][0.163648,-0.588248,-1.76408][-0.023622,1,0.0314961][0.590068,0.06727,0][0.504658,-0.588248,-1.69825][-0.212598,0.244094,0.944882][0.560116,0.06727,0][0.351948,0.130564,-1.82335][-0.0472441,0.425197,0.905512][0.573719,0.005,0][-0.061352,-0.785098,-1.81163][0.0787402,-0.19685,0.976378][0.609694,0.084572,0][-0.18365,-0.588248,-1.76211][0.204724,-0.0944882,0.976378][0.620593,0.06727,0][-0.523892,-0.588248,-1.69242][0.023622,0.984252,-0.173228][0.650519,0.06727,0][-0.523892,-0.588248,-1.69242][0.023622,0.984252,-0.173228][0.650519,0.06727,0][-0.18365,-0.588248,-1.76211][0.204724,-0.0944882,0.976378][0.620593,0.06727,0][-0.37261,0.130564,-1.81925][0.299213,0.425197,0.850394][0.636715,0.005,0][1.23762,-0.785098,-1.32441][-0.598425,-0.251969,0.76378][0.504169,0.084572,0][1.36311,-0.588248,-1.13168][-0.0393701,1,-0.0551181][0.484839,0.06727,0][1.11613,-0.588248,-1.37586][-0.543307,-0.0944882,0.834646][0.50647,0.06727,0][-1.32441,-0.785098,-1.23762][0.76378,-0.251969,0.598425][0.024331,0.655244,0][-1.13168,-0.588248,-1.36311][-0.0551181,1,0.0393701][0.005,0.637943,0][-1.37586,-0.588248,-1.11613][0.834646,-0.0944882,0.543307][0.026632,0.637943,0][1.55769,-0.588248,-0.844][-0.818898,0.244094,0.511811][0.198857,0.547109,0][1.23762,-0.785098,-1.32441][-0.598425,-0.251969,0.76378][0.213807,0.56441,0][1.81163,-0.785098,-0.061352][-0.976378,-0.19685,0.0787402][0.129856,0.56441,0][-1.32441,-0.785098,-1.23762][0.76378,-0.251969,0.598425][0.693646,0.084572,0][-0.844,-0.588248,-1.55769][0.511811,0.244094,0.818898][0.678696,0.06727,0][-1.13168,-0.588248,-1.36311][-0.0551181,1,0.0393701][0.70404,0.06727,0][-1.13168,-0.588248,-1.36311][-0.0551181,1,0.0393701][0.70404,0.06727,0][-0.844,-0.588248,-1.55769][0.511811,0.244094,0.818898][0.678696,0.06727,0][-1.04044,0.130564,-1.53817][0.606299,0.425197,0.677165][0.694881,0.005,0][1.23762,-0.785098,-1.32441][-0.598425,-0.251969,0.76378][0.504169,0.084572,0][1.11613,-0.588248,-1.37586][-0.543307,-0.0944882,0.834646][0.50647,0.06727,0][0.826276,-0.588248,-1.56717][0.141732,0.984252,-0.102362][0.531888,0.06727,0][0.826276,-0.588248,-1.56717][0.141732,0.984252,-0.102362][0.531888,0.06727,0][1.11613,-0.588248,-1.37586][-0.543307,-0.0944882,0.834646][0.50647,0.06727,0][1.02293,0.130564,-1.54988][-0.385827,0.425197,0.818898][0.515485,0.005,0][-1.69825,-0.588248,-0.504658][0.944882,0.244094,0.212598][0.080277,0.637943,0][-1.81163,-0.785098,0.061352][0.976378,-0.19685,-0.0787402][0.129856,0.655244,0][-1.32441,-0.785098,-1.23762][0.76378,-0.251969,0.598425][0.024331,0.655244,0][1.81163,-0.785098,-0.061352][-0.976378,-0.19685,0.0787402][0.129856,0.56441,0][1.69242,-0.588248,-0.523892][0.173228,0.984252,0.023622][0.170681,0.547109,0][1.55769,-0.588248,-0.844][-0.818898,0.244094,0.511811][0.198857,0.547109,0][-1.32441,-0.785098,-1.23762][0.76378,-0.251969,0.598425][0.024331,0.655244,0][-1.56717,-0.588248,-0.826276][-0.102362,0.984252,-0.141732][0.05205,0.637943,0][-1.69825,-0.588248,-0.504658][0.944882,0.244094,0.212598][0.080277,0.637943,0][1.23762,-0.785098,-1.32441][-0.598425,-0.251969,0.76378][0.213807,0.56441,0][1.55769,-0.588248,-0.844][-0.818898,0.244094,0.511811][0.198857,0.547109,0][1.36311,-0.588248,-1.13168][-0.0393701,1,-0.0551181][0.224201,0.547109,0][1.36311,-0.588248,-1.13168][-0.0393701,1,-0.0551181][0.224201,0.547109,0][1.55769,-0.588248,-0.844][-0.818898,0.244094,0.511811][0.198857,0.547109,0][1.53817,0.130564,-1.04044][-0.677165,0.425197,0.606299][0.215043,0.484839,0][-1.32441,-0.785098,-1.23762][0.76378,-0.251969,0.598425][0.024331,0.655244,0][-1.37586,-0.588248,-1.11613][0.834646,-0.0944882,0.543307][0.026632,0.637943,0][-1.56717,-0.588248,-0.826276][-0.102362,0.984252,-0.141732][0.05205,0.637943,0][-1.56717,-0.588248,-0.826276][-0.102362,0.984252,-0.141732][0.05205,0.637943,0][-1.37586,-0.588248,-1.11613][0.834646,-0.0944882,0.543307][0.026632,0.637943,0][-1.54988,0.130564,-1.02292][0.818898,0.425197,0.385827][0.035646,0.575673,0][1.81163,-0.785098,-0.061352][-0.976378,-0.19685,0.0787402][0.129856,0.56441,0][1.76408,-0.588248,0.163648][-0.0314961,1,-0.023622][0.110229,0.547109,0][1.76211,-0.588248,-0.18365][-0.976378,-0.0944882,0.204724][0.140755,0.547109,0][-1.81163,-0.785098,0.061352][0.976378,-0.19685,-0.0787402][0.129856,0.655244,0][-1.76408,-0.588248,-0.163648][0.0314961,1,0.023622][0.110229,0.637943,0][-1.76211,-0.588248,0.18365][0.976378,-0.0944882,-0.204724][0.140755,0.637943,0][-1.81163,-0.785098,0.061352][0.976378,-0.19685,-0.0787402][0.129856,0.655244,0][-1.69825,-0.588248,-0.504658][0.944882,0.244094,0.212598][0.080277,0.637943,0][-1.76408,-0.588248,-0.163648][0.0314961,1,0.023622][0.110229,0.637943,0][-1.76408,-0.588248,-0.163648][0.0314961,1,0.023622][0.110229,0.637943,0][-1.69825,-0.588248,-0.504658][0.944882,0.244094,0.212598][0.080277,0.637943,0][-1.82335,0.130564,-0.351948][0.905512,0.425197,0.0472441][0.093881,0.575673,0][1.81163,-0.785098,-0.061352][-0.976378,-0.19685,0.0787402][0.129856,0.56441,0][1.76211,-0.588248,-0.18365][-0.976378,-0.0944882,0.204724][0.140755,0.547109,0][1.69242,-0.588248,-0.523892][0.173228,0.984252,0.023622][0.170681,0.547109,0][1.69242,-0.588248,-0.523892][0.173228,0.984252,0.023622][0.170681,0.547109,0][1.76211,-0.588248,-0.18365][-0.976378,-0.0944882,0.204724][0.140755,0.547109,0][1.81924,0.130564,-0.37261][-0.850394,0.425197,0.299213][0.156876,0.484839,0][1.69825,-0.588248,0.504658][-0.944882,0.244094,-0.212598][0.080277,0.547109,0][1.81163,-0.785098,-0.061352][-0.976378,-0.19685,0.0787402][0.129856,0.56441,0][1.32441,-0.785098,1.23762][0.275591,-0.952756,-0.125984][0.024331,0.56441,0][-1.55769,-0.588248,0.844][0.818898,0.244094,-0.511811][0.198857,0.637943,0][-1.23762,-0.785098,1.32441][0.598425,-0.251969,-0.76378][0.213807,0.655244,0][-1.81163,-0.785098,0.061352][0.976378,-0.19685,-0.0787402][0.129856,0.655244,0][1.32441,-0.785098,1.23762][0.275591,-0.952756,-0.125984][0.024331,0.56441,0][1.56717,-0.588248,0.826276][0.102362,0.984252,0.141732][0.05205,0.547109,0][1.69825,-0.588248,0.504658][-0.944882,0.244094,-0.212598][0.080277,0.547109,0][-1.81163,-0.785098,0.061352][0.976378,-0.19685,-0.0787402][0.129856,0.655244,0][-1.69242,-0.588248,0.523892][-0.173228,0.984252,-0.023622][0.170681,0.637943,0][-1.55769,-0.588248,0.844][0.818898,0.244094,-0.511811][0.198857,0.637943,0][1.81163,-0.785098,-0.061352][-0.976378,-0.19685,0.0787402][0.129856,0.56441,0][1.69825,-0.588248,0.504658][-0.944882,0.244094,-0.212598][0.080277,0.547109,0][1.76408,-0.588248,0.163648][-0.0314961,1,-0.023622][0.110229,0.547109,0][1.76408,-0.588248,0.163648][-0.0314961,1,-0.023622][0.110229,0.547109,0][1.69825,-0.588248,0.504658][-0.944882,0.244094,-0.212598][0.080277,0.547109,0][1.82335,0.130564,0.351948][-0.905512,0.425197,-0.0472441][0.093881,0.484839,0][-1.81163,-0.785098,0.061352][0.976378,-0.19685,-0.0787402][0.129856,0.655244,0][-1.76211,-0.588248,0.18365][0.976378,-0.0944882,-0.204724][0.140755,0.637943,0][-1.69242,-0.588248,0.523892][-0.173228,0.984252,-0.023622][0.170681,0.637943,0][-1.69242,-0.588248,0.523892][-0.173228,0.984252,-0.023622][0.170681,0.637943,0][-1.76211,-0.588248,0.18365][0.976378,-0.0944882,-0.204724][0.140755,0.637943,0][-1.81925,0.130564,0.37261][0.850394,0.425197,-0.299213][0.156876,0.575673,0][0.844,-0.588248,1.55769][0.110236,0.976378,0.19685][0.429321,0.547109,0][1.32441,-0.785098,1.23762][0.275591,-0.952756,-0.125984][0.444271,0.56441,0][0.061352,-0.785098,1.81163][-0.0787402,-0.19685,-0.976378][0.360319,0.56441,0][-0.504658,-0.588248,1.69825][0.212598,0.244094,-0.944882][0.310741,0.547109,0][0.061352,-0.785098,1.81163][-0.0787402,-0.19685,-0.976378][0.360319,0.56441,0][-1.23762,-0.785098,1.32441][0.598425,-0.251969,-0.76378][0.254795,0.56441,0][1.32441,-0.785098,1.23762][0.275591,-0.952756,-0.125984][0.024331,0.56441,0][1.13168,-0.588248,1.36311][0.0551181,1,-0.0393701][0.005,0.547109,0][1.37586,-0.588248,1.11613][-0.834646,-0.0944882,-0.543307][0.026632,0.547109,0][-1.23762,-0.785098,1.32441][0.598425,-0.251969,-0.76378][0.254795,0.56441,0][-1.36311,-0.588248,1.13168][0.0393701,1,0.0551181][0.235464,0.547109,0][-1.11613,-0.588248,1.37586][0.543307,-0.0944882,-0.834646][0.257096,0.547109,0][-1.23762,-0.785098,1.32441][0.598425,-0.251969,-0.76378][0.213807,0.655244,0][-1.55769,-0.588248,0.844][0.818898,0.244094,-0.511811][0.198857,0.637943,0][-1.36311,-0.588248,1.13168][0.0393701,1,0.0551181][0.224201,0.637943,0][-1.36311,-0.588248,1.13168][0.0393701,1,0.0551181][0.224201,0.637943,0][-1.55769,-0.588248,0.844][0.818898,0.244094,-0.511811][0.198857,0.637943,0][-1.53817,0.130564,1.04044][0.677165,0.425197,-0.606299][0.215043,0.575673,0][1.32441,-0.785098,1.23762][0.275591,-0.952756,-0.125984][0.024331,0.56441,0][1.37586,-0.588248,1.11613][-0.834646,-0.0944882,-0.543307][0.026632,0.547109,0][1.56717,-0.588248,0.826276][0.102362,0.984252,0.141732][0.05205,0.547109,0][1.56717,-0.588248,0.826276][0.102362,0.984252,0.141732][0.05205,0.547109,0][1.37586,-0.588248,1.11613][-0.834646,-0.0944882,-0.543307][0.026632,0.547109,0][1.54988,0.130564,1.02292][-0.818898,0.425197,-0.385827][0.035646,0.484839,0][0.061352,-0.785098,1.81163][-0.0787402,-0.19685,-0.976378][0.360319,0.56441,0][0.523892,-0.588248,1.69242][-0.023622,0.984252,0.173228][0.401145,0.547109,0][0.844,-0.588248,1.55769][0.110236,0.976378,0.19685][0.429321,0.547109,0][-1.23762,-0.785098,1.32441][0.598425,-0.251969,-0.76378][0.254795,0.56441,0][-0.826276,-0.588248,1.56717][-0.141732,0.984252,0.102362][0.282514,0.547109,0][-0.504658,-0.588248,1.69825][0.212598,0.244094,-0.944882][0.310741,0.547109,0][0.061352,-0.785098,1.81163][-0.0787402,-0.19685,-0.976378][0.360319,0.56441,0][-0.163648,-0.588248,1.76408][0.023622,1,-0.0314961][0.340693,0.547109,0][0.18365,-0.588248,1.76211][-0.204724,-0.0944882,-0.976378][0.371219,0.547109,0][1.32441,-0.785098,1.23762][0.275591,-0.952756,-0.125984][0.444271,0.56441,0][0.844,-0.588248,1.55769][0.110236,0.976378,0.19685][0.429321,0.547109,0][1.13168,-0.588248,1.36311][0.0551181,1,-0.0393701][0.454665,0.547109,0][1.13168,-0.588248,1.36311][0.0551181,1,-0.0393701][0.454665,0.547109,0][0.844,-0.588248,1.55769][0.110236,0.976378,0.19685][0.429321,0.547109,0][1.04044,0.130564,1.53817][0.566929,0.433071,0.700787][0.445507,0.484839,0][-1.23762,-0.785098,1.32441][0.598425,-0.251969,-0.76378][0.254795,0.56441,0][-1.11613,-0.588248,1.37586][0.543307,-0.0944882,-0.834646][0.257096,0.547109,0][-0.826276,-0.588248,1.56717][-0.141732,0.984252,0.102362][0.282514,0.547109,0][-0.826276,-0.588248,1.56717][-0.141732,0.984252,0.102362][0.282514,0.547109,0][-1.11613,-0.588248,1.37586][0.543307,-0.0944882,-0.834646][0.257096,0.547109,0][-1.02292,0.130564,1.54988][0.385827,0.425197,-0.818898][0.26611,0.484839,0][0.061352,-0.785098,1.81163][-0.0787402,-0.19685,-0.976378][0.360319,0.56441,0][-0.504658,-0.588248,1.69825][0.212598,0.244094,-0.944882][0.310741,0.547109,0][-0.163648,-0.588248,1.76408][0.023622,1,-0.0314961][0.340693,0.547109,0][-0.163648,-0.588248,1.76408][0.023622,1,-0.0314961][0.340693,0.547109,0][-0.504658,-0.588248,1.69825][0.212598,0.244094,-0.944882][0.310741,0.547109,0][-0.351948,0.130564,1.82335][0.0472441,0.425197,-0.905512][0.324344,0.484839,0][0.061352,-0.785098,1.81163][-0.0787402,-0.19685,-0.976378][0.360319,0.56441,0][0.18365,-0.588248,1.76211][-0.204724,-0.0944882,-0.976378][0.371219,0.547109,0][0.523892,-0.588248,1.69242][-0.023622,0.984252,0.173228][0.401145,0.547109,0][0.523892,-0.588248,1.69242][-0.023622,0.984252,0.173228][0.401145,0.547109,0][0.18365,-0.588248,1.76211][-0.204724,-0.0944882,-0.976378][0.371219,0.547109,0][0.37261,0.130564,1.81924][-0.299213,0.425197,-0.850394][0.38734,0.484839,0]