version 1.00
312
[0.668666,-0.857746,2.09792][0.133858,-0.448819,0.88189][0.579427,0.193702,0][0.657006,-0.692816,2.1087][0,1,-0.0708661][0.596729,0.193702,0][0.224952,-0.692816,2.1974][0.283465,-0.299213,0.913386][0.596729,0.226953,0][-0.18507,-0.857746,2.1941][-0.220472,-0.448819,0.866142][0.18703,0.244514,0][-0.199974,-0.692816,2.19962][0.023622,1,-0.0629921][0.18703,0.261816,0][-0.633082,-0.692816,2.11622][-0.165354,-0.322835,0.929134][0.15375,0.261816,0][-0.633082,-0.692816,2.11622][-0.165354,-0.322835,0.929134][0.15375,0.261816,0][-0.199974,-0.692816,2.19962][0.023622,1,-0.0629921][0.18703,0.261816,0][-0.397378,0.125592,2.06096][-0.0472441,0.409449,-0.913386][0.171481,0.324086,0][0.224952,-0.692816,2.1974][0.283465,-0.299213,0.913386][0.596729,0.226953,0][0.657006,-0.692816,2.1087][0,1,-0.0708661][0.596729,0.193702,0][0.421566,0.125592,2.05616][-0.393701,0.409449,-0.826772][0.658999,0.211768,0][1.4206,-0.857744,1.68234][0.456693,-0.448819,0.76378][0.005,0.764375,0][1.41396,-0.692816,1.69677][-0.023622,1,-0.0629921][0.022302,0.764375,0][1.04874,-0.692816,1.94405][0.244094,0.96063,-0.125984][0.022302,0.798292,0][-1.39473,-0.692816,1.71286][-0.700787,-0.228346,0.677165][0.924899,0.038917,0][-1.01487,-0.807642,1.9671][-0.874016,-0.456693,0.149606][0.912843,0.005,0][-1.15582,0.125592,1.75201][0.299213,0.409449,-0.858268][0.987169,0.022122,0][1.04874,-0.692816,1.94405][0.244094,0.96063,-0.125984][0.022302,0.798292,0][1.41396,-0.692816,1.69677][-0.023622,1,-0.0629921][0.022302,0.764375,0][1.17633,0.125592,1.7383][0.622047,0.440945,0.645669][0.084572,0.781497,0][-1.68234,-0.857744,1.4206][-0.76378,-0.448819,0.456693][0.484839,0.144768,0][-1.69677,-0.692816,1.41396][0.0629921,1,-0.023622][0.50214,0.144768,0][-1.94405,-0.692816,1.04874][-0.732283,-0.299213,0.614173][0.50214,0.178686,0][-1.94405,-0.692816,1.04874][-0.732283,-0.299213,0.614173][0.50214,0.178686,0][-1.69677,-0.692816,1.41396][0.0629921,1,-0.023622][0.50214,0.144768,0][-1.73831,0.125592,1.17633][0.614173,0.409449,-0.677165][0.56441,0.161891,0][1.71286,-0.692816,1.39473][0.677165,-0.228346,0.700787][0.596729,0.178686,0][1.9671,-0.807642,1.01487][0.149606,-0.456693,0.874016][0.584673,0.144768,0][1.75201,0.125592,1.15582][-0.858268,0.409449,-0.299213][0.658999,0.161891,0][-0.128722,0.868444,-2.25116][-0.0629921,0.88189,0.472441][0.768418,0.385814,0][0.174728,0.61551,-2.46684][0.511811,0.393701,-0.76378][0.77895,0.399868,0][-0.19823,0.60098,-2.46438][-0.11811,0.19685,-0.976378][0.758128,0.399873,0][-2.09792,-0.857746,0.668668][-0.88189,-0.448819,0.133858][0.484839,0.242636,0][-2.1087,-0.692816,0.657006][0.0708661,1,0][0.50214,0.242636,0][-2.1974,-0.692816,0.22495][-0.913386,-0.299213,0.283465][0.50214,0.275887,0][2.1941,-0.857746,0.185069][0.866142,-0.448819,0.220472][0.099588,0.715441,0][2.19962,-0.692816,0.199973][-0.0629921,1,-0.023622][0.11689,0.715441,0][2.11622,-0.692816,0.633082][0.929134,-0.322835,0.165354][0.11689,0.748721,0][-2.1974,-0.692816,0.22495][-0.913386,-0.299213,0.283465][0.50214,0.275887,0][-2.1087,-0.692816,0.657006][0.0708661,1,0][0.50214,0.242636,0][-2.05616,0.125592,0.421568][0.826772,0.409449,-0.393701][0.56441,0.260702,0][2.11622,-0.692816,0.633082][0.929134,-0.322835,0.165354][0.11689,0.748721,0][2.19962,-0.692816,0.199973][-0.0629921,1,-0.023622][0.11689,0.715441,0][2.06096,0.125592,0.397378][-0.913386,0.409449,0.0472441][0.17916,0.73099,0][-0.128722,0.868444,-2.25116][-0.0629921,0.88189,0.472441][0.074821,0.588034,0][0.33535,0.755032,-2.25248][0.811024,0.472441,-0.338583][0.060464,0.590105,0][0.174728,0.61551,-2.46684][0.511811,0.393701,-0.76378][0.061097,0.577076,0][0.224952,-0.692816,2.1974][0.283465,-0.299213,0.913386][0.596729,0.226953,0][0.233318,-0.868444,2.05684][-0.708661,-0.417323,-0.566929][0.579427,0.226953,0][0.668666,-0.857746,2.09792][0.133858,-0.448819,0.88189][0.579427,0.193702,0][-2.1941,-0.857746,-0.185071][-0.866142,-0.448819,-0.220472][0.586299,0.095834,0][-2.19962,-0.692816,-0.199973][0.0629921,1,0.023622][0.603601,0.095834,0][-2.11622,-0.692816,-0.633082][-0.929134,-0.322835,-0.165354][0.603601,0.129114,0][2.09792,-0.857746,-0.668664][0.88189,-0.448819,-0.133858][0.674015,0.144768,0][2.1087,-0.692816,-0.657006][-0.0708661,1,0][0.691317,0.144768,0][2.1974,-0.692816,-0.22495][0.913386,-0.299213,-0.283465][0.691317,0.178019,0][1.04874,-0.692816,1.94405][0.244094,0.96063,-0.125984][0.022302,0.798292,0][1.00268,-0.868444,1.81098][0.425197,-0.543307,-0.724409][0.005,0.798292,0][1.4206,-0.857744,1.68234][0.456693,-0.448819,0.76378][0.005,0.764375,0][-0.39598,0.675982,-2.25014][-0.937008,0.23622,-0.267717][0.328753,0.953008,0][-0.128722,0.868444,-2.25116][-0.0629921,0.88189,0.472441][0.337867,0.943193,0][-0.19823,0.60098,-2.46438][-0.11811,0.19685,-0.976378][0.34634,0.953015,0][-0.633082,-0.692816,2.11622][-0.165354,-0.322835,0.929134][0.15375,0.261816,0][-0.571558,-0.868444,1.98955][-0.464567,-0.401575,-0.787402][0.15375,0.244514,0][-0.18507,-0.857746,2.1941][-0.220472,-0.448819,0.866142][0.18703,0.244514,0][-2.11622,-0.692816,-0.633082][-0.929134,-0.322835,-0.165354][0.603601,0.129114,0][-2.19962,-0.692816,-0.199973][0.0629921,1,0.023622][0.603601,0.095834,0][-2.06096,0.125592,-0.397376][0.913386,0.409449,-0.0472441][0.665871,0.111383,0][2.1974,-0.692816,-0.22495][0.913386,-0.299213,-0.283465][0.691317,0.178019,0][2.1087,-0.692816,-0.657006][-0.0708661,1,0][0.691317,0.144768,0][2.05614,0.125592,-0.421566][-0.826772,0.409449,0.393701][0.753587,0.162834,0][-1.39473,-0.692816,1.71286][-0.700787,-0.228346,0.677165][0.924899,0.038917,0][-1.28942,-0.868444,1.61938][-0.0944882,-0.448819,-0.889764][0.907597,0.038917,0][-1.01487,-0.807642,1.9671][-0.874016,-0.456693,0.149606][0.912843,0.005,0][1.71286,-0.692816,1.39473][0.677165,-0.228346,0.700787][0.596729,0.178686,0][1.61938,-0.868444,1.28942][-0.889764,-0.448819,0.0944882][0.579427,0.178686,0][1.9671,-0.807642,1.01487][0.149606,-0.456693,0.874016][0.584673,0.144768,0][-0.834942,-0.47232,-2.26234][0.0629921,-0.503937,-0.858268][0.235944,0.993599,0][-1.0895,-0.411138,-2.1362][-0.685039,0.15748,-0.716535][0.212423,0.993599,0][-0.893096,-0.187602,-2.21914][-0.346457,0.141732,-0.929134][0.229053,0.986708,0][-0.19823,0.60098,-2.46438][-0.11811,0.19685,-0.976378][0.474953,0.321693,0][0.174728,0.61551,-2.46684][0.511811,0.393701,-0.76378][0.471241,0.353914,0][-0.215382,0.017568,-2.45366][-0.511811,-0.425197,-0.748031][0.456048,0.321949,0][-0.215382,0.017568,-2.45366][-0.511811,-0.425197,-0.748031][0.186727,0.795671,0][0.174728,0.61551,-2.46684][0.511811,0.393701,-0.76378][0.222113,0.796229,0][0.103744,-0.10392,-2.4531][0.472441,-0.409449,-0.779528][0.208576,0.809874,0][0.817582,-0.47232,-2.26812][0.220472,-0.00787402,-0.976378][0.763278,0.48958,0][0.876036,-0.187602,-2.22532][0.204724,0.645669,-0.732283][0.770168,0.48269,0][1.07302,-0.41114,-2.14374][0.779528,-0.354331,-0.511811][0.786798,0.48958,0][1.68234,-0.857746,-1.4206][0.76378,-0.448819,-0.456693][0.33317,0.575673,0][1.69677,-0.692816,-1.41396][-0.0629921,1,0.023622][0.350472,0.575673,0][1.94405,-0.692816,-1.04874][0.732283,-0.299213,-0.614173][0.350472,0.60959,0][2.11622,-0.692816,0.633082][0.929134,-0.322835,0.165354][0.11689,0.748721,0][1.98955,-0.868444,0.57156][-0.787402,-0.401575,0.464567][0.099588,0.748721,0][2.1941,-0.857746,0.185069][0.866142,-0.448819,0.220472][0.099588,0.715441,0][-1.71286,-0.692816,-1.39473][-0.677165,-0.228346,-0.700787][0.50214,0.22762,0][-1.9671,-0.807642,-1.01487][-0.149606,-0.456693,-0.874016][0.490085,0.193702,0][-1.75201,0.125592,-1.15582][0.858268,0.409449,0.299213][0.56441,0.210825,0][1.94405,-0.692816,-1.04874][0.732283,-0.299213,-0.614173][0.350472,0.60959,0][1.69677,-0.692816,-1.41396][-0.0629921,1,0.023622][0.350472,0.575673,0][1.73831,0.125592,-1.17633][-0.614173,0.409449,0.677165][0.412742,0.592795,0][-1.0895,-0.411138,-2.1362][-0.685039,0.15748,-0.716535][0.768384,0.875869,0][-1.12321,-0.163506,-1.97944][-0.456693,0.740157,0.488189][0.766978,0.868388,0][-0.893096,-0.187602,-2.21914][-0.346457,0.141732,-0.929134][0.774587,0.868357,0][1.07302,-0.41114,-2.14374][0.779528,-0.354331,-0.511811][0.619168,0.953993,0][0.876036,-0.187602,-2.22532][0.204724,0.645669,-0.732283][0.609426,0.953986,0][1.10782,-0.163506,-1.98723][0.937008,0.19685,0.299213][0.6143,0.948142,0][-1.94405,-0.692816,1.04874][-0.732283,-0.299213,0.614173][0.50214,0.178686,0][-1.81098,-0.868444,1.00268][0.259843,-0.417323,-0.874016][0.484839,0.178686,0][-1.68234,-0.857744,1.4206][-0.76378,-0.448819,0.456693][0.484839,0.144768,0][-1.4206,-0.857746,-1.68234][-0.456693,-0.448819,-0.76378][0.005,0.715441,0][-1.41396,-0.692816,-1.69677][0.023622,1,0.0629921][0.022302,0.715441,0][-1.04874,-0.692816,-1.94405][-0.614173,-0.299213,-0.732283][0.022302,0.749358,0][1.01063,-0.857746,-1.95627][0.535433,-0.448819,-0.716535][0.813009,0.005,0][1.02651,-0.692816,-1.95566][-0.0472441,1,0.0472441][0.830311,0.005,0][1.39473,-0.692816,-1.71286][0.440945,-0.299213,-0.850394][0.830311,0.038917,0][-1.12321,-0.163506,-1.97944][-0.456693,0.740157,0.488189][0.59441,0.687416,0][-0.938484,-0.040602,-2.04822][-0.637795,0.771654,-0.023622][0.588038,0.699643,0][-0.893096,-0.187602,-2.21914][-0.346457,0.141732,-0.929134][0.581422,0.687546,0][2.1974,-0.692816,-0.22495][0.913386,-0.299213,-0.283465][0.691317,0.178019,0][2.05684,-0.868444,-0.233318][-0.566929,-0.417323,0.708661][0.674015,0.178019,0][2.09792,-0.857746,-0.668664][0.88189,-0.448819,-0.133858][0.674015,0.144768,0][-1.04874,-0.692816,-1.94405][-0.614173,-0.299213,-0.732283][0.022302,0.749358,0][-1.41396,-0.692816,-1.69677][0.023622,1,0.0629921][0.022302,0.715441,0][-1.17633,0.125592,-1.73831][0.677165,0.409449,0.614173][0.084572,0.732563,0][1.10782,-0.163506,-1.98723][0.937008,0.19685,0.299213][0.490915,0.802303,0][0.876036,-0.187602,-2.22532][0.204724,0.645669,-0.732283][0.484839,0.790824,0][0.922616,-0.040602,-2.0547][0.267717,0.80315,0.527559][0.498625,0.790874,0][1.39473,-0.692816,-1.71286][0.440945,-0.299213,-0.850394][0.830311,0.038917,0][1.02651,-0.692816,-1.95566][-0.0472441,1,0.0472441][0.830311,0.005,0][1.15582,0.125592,-1.75201][-0.307087,0.409449,0.858268][0.892581,0.022122,0][-0.668666,-0.857746,-2.09792][-0.133858,-0.448819,-0.88189][0.005,0.813309,0][-0.657006,-0.692816,-2.1087][0,1,0.0708661][0.022302,0.813309,0][-0.224952,-0.692816,-2.1974][-0.283465,-0.299213,-0.913386][0.022302,0.84656,0][0.18507,-0.857746,-2.1941][0.220472,-0.448819,-0.866142][0.106461,0.666507,0][0.199972,-0.692816,-2.19962][-0.023622,1,0.0629921][0.123763,0.666507,0][0.633082,-0.692816,-2.11622][0.0866142,-0.299213,-0.952756][0.123763,0.699787,0][-2.1974,-0.692816,0.22495][-0.913386,-0.299213,0.283465][0.50214,0.275887,0][-2.05684,-0.868444,0.23332][0.566929,-0.417323,-0.708661][0.484839,0.275887,0][-2.09792,-0.857746,0.668668][-0.88189,-0.448819,0.133858][0.484839,0.242636,0][0.33535,0.755032,-2.25248][0.811024,0.472441,-0.338583][0.605664,0.00634301,0][0.448918,0.321552,-2.28268][0.897638,-0.417323,-0.15748][0.614858,0.016385,0][0.174728,0.61551,-2.46684][0.511811,0.393701,-0.76378][0.597208,0.016445,0][-0.463414,0.36484,-2.2584][-0.905512,0.149606,0.393701][0.469768,0.728208,0][-0.39598,0.675982,-2.25014][-0.937008,0.23622,-0.267717][0.456088,0.728435,0][-0.19823,0.60098,-2.46438][-0.11811,0.19685,-0.976378][0.457559,0.715441,0][0.103744,-0.10392,-2.4531][0.472441,-0.409449,-0.779528][0.346849,0.925369,0][0.174728,0.61551,-2.46684][0.511811,0.393701,-0.76378][0.328783,0.931931,0][0.448918,0.321552,-2.28268][0.897638,-0.417323,-0.15748][0.328753,0.918515,0][-0.224952,-0.692816,-2.1974][-0.283465,-0.299213,-0.913386][0.022302,0.84656,0][-0.657006,-0.692816,-2.1087][0,1,0.0708661][0.022302,0.813309,0][-0.421568,0.125592,-2.05616][0.393701,0.409449,0.826772][0.084572,0.831375,0][0.633082,-0.692816,-2.11622][0.0866142,-0.299213,-0.952756][0.123763,0.699787,0][0.199972,-0.692816,-2.19962][-0.023622,1,0.0629921][0.123763,0.666507,0][0.397378,0.125592,-2.06096][0.0472441,0.409449,0.913386][0.186033,0.682056,0][-0.00791606,-0.61153,-2.26198][-0.779528,-0.511811,0.354331][0.322072,0.15375,0][-0.215382,0.017568,-2.45366][-0.511811,-0.425197,-0.748031][0.33385,0.182196,0][0.103744,-0.10392,-2.4531][0.472441,-0.409449,-0.779528][0.310118,0.182173,0][-0.463414,0.36484,-2.2584][-0.905512,0.149606,0.393701][0.172943,0.121649,0][-0.19823,0.60098,-2.46438][-0.11811,0.19685,-0.976378][0.186698,0.110564,0][-0.215382,0.017568,-2.45366][-0.511811,-0.425197,-0.748031][0.187085,0.138451,0][-1.17114,-0.418182,-1.9509][-0.992126,0.0944882,-0.00787402][0.609426,0.836716,0][-1.12321,-0.163506,-1.97944][-0.456693,0.740157,0.488189][0.610146,0.827259,0][-1.0895,-0.411138,-2.1362][-0.685039,0.15748,-0.716535][0.619912,0.836716,0][1.94405,-0.692816,-1.04874][0.732283,-0.299213,-0.614173][0.350472,0.60959,0][1.81098,-0.868444,-1.00268][-0.259843,-0.417323,0.874016][0.33317,0.60959,0][1.68234,-0.857746,-1.4206][0.76378,-0.448819,-0.456693][0.33317,0.575673,0][1.15595,-0.41819,-1.95902][0.826772,-0.551181,0.0787402][0.563106,0.886819,0][1.07302,-0.41114,-2.14374][0.779528,-0.354331,-0.511811][0.55262,0.886819,0][1.10782,-0.163506,-1.98723][0.937008,0.19685,0.299213][0.562386,0.877363,0][-0.834942,-0.47232,-2.26234][0.0629921,-0.503937,-0.858268][0.538536,0.012964,0][-0.893096,-0.187602,-2.21914][-0.346457,0.141732,-0.929134][0.542311,0.00635499,0][-0.59001,-0.291744,-2.19376][0.574803,0.165354,-0.80315][0.55466,0.012486,0][0.817582,-0.47232,-2.26812][0.220472,-0.00787402,-0.976378][0.297078,0.655075,0][0.573134,-0.291744,-2.19782][-0.559055,0.425197,-0.708661][0.280949,0.6552,0][0.876036,-0.187602,-2.22532][0.204724,0.645669,-0.732283][0.293059,0.648611,0][-2.11622,-0.692816,-0.633082][-0.929134,-0.322835,-0.165354][0.603601,0.129114,0][-1.98955,-0.868444,-0.571558][0.787402,-0.401575,-0.464567][0.586299,0.129114,0][-2.1941,-0.857746,-0.185071][-0.866142,-0.448819,-0.220472][0.586299,0.095834,0][-0.834942,-0.47232,-2.26234][0.0629921,-0.503937,-0.858268][0.676544,0.613959,0][-1.04516,-0.622496,-2.0036][-0.346457,-0.889764,-0.299213][0.662757,0.61391,0][-1.0895,-0.411138,-2.1362][-0.685039,0.15748,-0.716535][0.670468,0.60248,0][0.817582,-0.47232,-2.26812][0.220472,-0.00787402,-0.976378][0.497826,0.775678,0][1.07302,-0.41114,-2.14374][0.779528,-0.354331,-0.511811][0.484839,0.775808,0][1.0296,-0.622498,-2.01084][0.314961,-0.905512,-0.291339][0.49121,0.763582,0][0.69973,-0.088334,-2.14602][-0.409449,0.874016,0.251969][0.609426,0.75938,0][0.876036,-0.187602,-2.22532][0.204724,0.645669,-0.732283][0.620658,0.759676,0][0.573134,-0.291744,-2.19782][-0.559055,0.425197,-0.708661][0.61047,0.768965,0][-0.71624,-0.088334,-2.14106][0.0551181,0.952756,-0.291339][0.520302,0.807042,0][-0.59001,-0.291744,-2.19376][0.574803,0.165354,-0.80315][0.52025,0.797401,0][-0.893096,-0.187602,-2.21914][-0.346457,0.141732,-0.929134][0.531428,0.805471,0][-1.71286,-0.692816,-1.39473][-0.677165,-0.228346,-0.700787][0.50214,0.22762,0][-1.61938,-0.868444,-1.28942][0.889764,-0.448819,-0.0944882][0.484839,0.22762,0][-1.9671,-0.807642,-1.01487][-0.149606,-0.456693,-0.874016][0.490085,0.193702,0][-0.938484,-0.040602,-2.04822][-0.637795,0.771654,-0.023622][0.77967,0.61204,0][-0.71624,-0.088334,-2.14106][0.0551181,0.952756,-0.291339][0.780926,0.60248,0][-0.893096,-0.187602,-2.21914][-0.346457,0.141732,-0.929134][0.790905,0.611993,0][0.922616,-0.040602,-2.0547][0.267717,0.80315,0.527559][0.592577,0.794389,0][0.876036,-0.187602,-2.22532][0.204724,0.645669,-0.732283][0.581422,0.793044,0][0.69973,-0.088334,-2.14602][-0.409449,0.874016,0.251969][0.592434,0.784748,0][1.39473,-0.692816,-1.71286][0.440945,-0.299213,-0.850394][0.830311,0.038917,0][1.28942,-0.868444,-1.61938][0.0944882,-0.417323,0.905512][0.813009,0.038917,0][1.01063,-0.857746,-1.95627][0.535433,-0.448819,-0.716535][0.813009,0.005,0][-0.822804,-0.670398,-2.09662][0.0314961,-0.84252,-0.535433][0.586783,0.848745,0][-1.04516,-0.622496,-2.0036][-0.346457,-0.889764,-0.299213][0.593901,0.85497,0][-0.834942,-0.47232,-2.26234][0.0629921,-0.503937,-0.858268][0.581422,0.854874,0][0.806602,-0.670398,-2.10232][-0.590551,-0.795276,-0.141732][0.235322,0.144302,0][0.817582,-0.47232,-2.26812][0.220472,-0.00787402,-0.976378][0.235402,0.13616,0][1.0296,-0.622498,-2.01084][0.314961,-0.905512,-0.291339][0.244779,0.144395,0][-1.04516,-0.622496,-2.0036][-0.346457,-0.889764,-0.299213][0.768354,0.60248,0][-1.17114,-0.418182,-1.9509][-0.992126,0.0944882,-0.00787402][0.768407,0.612122,0][-1.0895,-0.411138,-2.1362][-0.685039,0.15748,-0.716535][0.757229,0.604052,0][1.0296,-0.622498,-2.01084][0.314961,-0.905512,-0.291339][0.978984,0.523838,0][1.07302,-0.41114,-2.14374][0.779528,-0.354331,-0.511811][0.967752,0.523541,0][1.15595,-0.41819,-1.95902][0.826772,-0.551181,0.0787402][0.97794,0.514252,0][0.633082,-0.692816,-2.11622][0.0866142,-0.299213,-0.952756][0.123763,0.699787,0][0.571558,-0.868444,-1.98955][0.433071,-0.417323,0.795276][0.106461,0.699787,0][0.18507,-0.857746,-2.1941][0.220472,-0.448819,-0.866142][0.106461,0.666507,0][-1.04874,-0.692816,-1.94405][-0.614173,-0.299213,-0.732283][0.022302,0.749358,0][-1.00268,-0.868444,-1.81098][0.874016,-0.417323,0.259843][0.005,0.749358,0][-1.4206,-0.857746,-1.68234][-0.456693,-0.448819,-0.76378][0.005,0.715441,0][-0.224952,-0.692816,-2.1974][-0.283465,-0.299213,-0.913386][0.022302,0.84656,0][-0.233318,-0.868444,-2.05684][0.708661,-0.417323,0.566929][0.005,0.84656,0][-0.668666,-0.857746,-2.09792][-0.133858,-0.448819,-0.88189][0.005,0.813309,0][0.26872,-0.247984,-2.26168][0.755906,-0.448819,0.480315][0.436063,0.243942,0][0.103744,-0.10392,-2.4531][0.472441,-0.409449,-0.779528][0.422459,0.230524,0][0.448918,0.321552,-2.28268][0.897638,-0.417323,-0.15748][0.462767,0.231614,0][0.26872,-0.247984,-2.26168][0.755906,-0.448819,0.480315][0.369304,0.277274,0][-0.00791606,-0.61153,-2.26198][-0.779528,-0.511811,0.354331][0.360625,0.298169,0][0.103744,-0.10392,-2.4531][0.472441,-0.409449,-0.779528][0.360081,0.267339,0][0.573134,-0.291744,-2.19782][-0.559055,0.425197,-0.708661][0.686919,0.734619,0][0.817582,-0.47232,-2.26812][0.220472,-0.00787402,-0.976378][0.698154,0.734619,0][0.61773,-0.533912,-2.17994][-0.96063,-0.0866142,-0.267717][0.688215,0.744174,0][-0.59001,-0.291744,-2.19376][0.574803,0.165354,-0.80315][0.671906,0.759279,0][-0.63448,-0.533912,-2.17556][0.551181,-0.417323,-0.724409][0.67061,0.768833,0][-0.834942,-0.47232,-2.26234][0.0629921,-0.503937,-0.858268][0.660671,0.759279,0][-0.00791606,-0.61153,-2.26198][-0.779528,-0.511811,0.354331][0.27681,0.368918,0][-0.289154,-0.23073,-2.25936][-0.661417,-0.614173,0.433071][0.297308,0.360081,0][-0.215382,0.017568,-2.45366][-0.511811,-0.425197,-0.748031][0.307597,0.368858,0][-0.962116,-0.68753,1.79417][0.0944882,0.992126,0.0472441][0.389835,0.00615102,0][-1.01487,-0.807642,1.9671][-0.874016,-0.456693,0.149606][0.407098,0.005,0][-0.633082,-0.692816,2.11622][-0.165354,-0.322835,0.929134][0.406027,0.0389,0][1.79417,-0.68753,0.962116][0.0472441,0.992126,-0.0944882][0.186499,0.154714,0][1.9671,-0.807642,1.01487][0.149606,-0.456693,0.874016][0.18765,0.171978,0][2.11622,-0.692816,0.633082][0.929134,-0.322835,0.165354][0.15375,0.170906,0][0.61773,-0.533912,-2.17994][-0.96063,-0.0866142,-0.267717][0.592632,0.72428,0][0.817582,-0.47232,-2.26812][0.220472,-0.00787402,-0.976378][0.581422,0.72352,0][0.806602,-0.670398,-2.10232][-0.590551,-0.795276,-0.141732][0.591985,0.714659,0][-0.63448,-0.533912,-2.17556][0.551181,-0.417323,-0.724409][0.941504,0.52384,0][-0.822804,-0.670398,-2.09662][0.0314961,-0.84252,-0.535433][0.942528,0.514252,0][-0.834942,-0.47232,-2.26234][0.0629921,-0.503937,-0.858268][0.952735,0.52352,0][-0.289154,-0.23073,-2.25936][-0.661417,-0.614173,0.433071][0.412863,0.177915,0][-0.463414,0.36484,-2.2584][-0.905512,0.149606,0.393701][0.435886,0.168145,0][-0.215382,0.017568,-2.45366][-0.511811,-0.425197,-0.748031][0.442309,0.178093,0][-1.81098,-0.868444,1.00268][0.259843,-0.417323,-0.874016][0.761154,0.209981,0][-1.94405,-0.692816,1.04874][-0.732283,-0.299213,0.614173][0.767014,0.193702,0][-2.86408,-0.508968,1.20562][-0.23622,0.944882,-0.212598][0.835395,0.205355,0][-2.05684,-0.868444,0.23332][0.566929,-0.417323,-0.708661][0.293217,0.682786,0][-2.1974,-0.692816,0.22495][-0.913386,-0.299213,0.283465][0.299077,0.666507,0][-3.10744,-0.508968,0.017811][-0.141732,0.944882,-0.291339][0.368323,0.67847,0][2.19962,-0.692816,0.199973][-0.0629921,1,-0.023622][0.744674,0.193702,0][2.1941,-0.857746,0.185069][0.866142,-0.448819,0.220472][0.749891,0.210199,0][3.10744,-0.508968,-0.017813][0.141732,0.944882,0.291339][0.67451,0.201188,0][-0.18507,-0.857746,2.1941][-0.220472,-0.448819,0.866142][0.408916,0.292246,0][0.233318,-0.868444,2.05684][-0.708661,-0.417323,-0.566929][0.408685,0.262566,0][0.0178119,-0.508968,3.10744][-0.291339,0.944882,0.141732][0.480051,0.288691,0][-1.28942,-0.868444,1.61938][-0.0944882,-0.448819,-0.889764][0.484839,0.307183,0][-1.39473,-0.692816,1.71286][-0.700787,-0.228346,0.677165][0.490699,0.290904,0][-2.18468,-0.508966,2.20988][-0.299213,0.944882,-0.102362][0.560817,0.303182,0][-1.68234,-0.857744,1.4206][-0.76378,-0.448819,0.456693][0.32554,0.395125,0][-1.28942,-0.868444,1.61938][-0.0944882,-0.448819,-0.889764][0.346363,0.373975,0][-2.18468,-0.508966,2.20988][-0.299213,0.944882,-0.102362][0.378354,0.442911,0][1.41396,-0.692816,1.69677][-0.023622,1,-0.0629921][0.005,0.106185,0][1.4206,-0.857744,1.68234][0.456693,-0.448819,0.76378][0.021496,0.100968,0][2.20988,-0.508968,2.18468][-0.102362,0.944882,0.299213][0.012781,0.17728,0][0.668666,-0.857746,2.09792][0.133858,-0.448819,0.88189][0.415119,0.225023,0][1.00268,-0.868444,1.81098][0.425197,-0.543307,-0.724409][0.403547,0.197692,0][1.20562,-0.508966,2.86408][0.464567,-0.755906,0.464567][0.479479,0.194517,0][-1.98955,-0.868444,-0.571558][0.787402,-0.401575,-0.464567][0.579427,0.258915,0][-2.11622,-0.692816,-0.633082][-0.929134,-0.322835,-0.165354][0.585287,0.242636,0][-2.8777,-0.508968,-1.1727][0.149606,0.787402,-0.598425][0.655405,0.254914,0][-2.09792,-0.857746,0.668668][-0.88189,-0.448819,0.133858][0.261061,0.415119,0][-1.81098,-0.868444,1.00268][0.259843,-0.417323,-0.874016][0.288392,0.403547,0][-2.86408,-0.508968,1.20562][-0.23622,0.944882,-0.212598][0.291568,0.479479,0][2.1087,-0.692816,-0.657006][-0.0708661,1,0][0.45125,0.106185,0][2.09792,-0.857746,-0.668664][0.88189,-0.448819,-0.133858][0.467746,0.100968,0][2.86408,-0.508968,-1.20562][0.23622,0.944882,0.212598][0.45903,0.17728,0][1.4206,-0.857744,1.68234][0.456693,-0.448819,0.76378][0.395125,0.160544,0][1.61938,-0.868444,1.28942][-0.889764,-0.448819,0.0944882][0.373975,0.139722,0][2.20988,-0.508968,2.18468][-0.102362,0.944882,0.299213][0.442911,0.10773,0][-1.01487,-0.807642,1.9671][-0.874016,-0.456693,0.149606][0.37746,0.351977,0][-0.571558,-0.868444,1.98955][-0.464567,-0.401575,-0.787402][0.388605,0.32447,0][-1.1727,-0.508968,2.8777][-0.598425,0.787402,-0.149606][0.44454,0.375915,0][-0.571558,-0.868444,1.98955][-0.464567,-0.401575,-0.787402][0.388605,0.32447,0][-1.01487,-0.807642,1.9671][-0.874016,-0.456693,0.149606][0.37746,0.351977,0][-1.28942,-0.868444,1.61938][-0.0944882,-0.448819,-0.889764][0.346363,0.373975,0][-0.571558,-0.868444,1.98955][-0.464567,-0.401575,-0.787402][0.907597,0.070213,0][-0.633082,-0.692816,2.11622][-0.165354,-0.322835,0.929134][0.913457,0.053934,0][-1.1727,-0.508968,2.8777][-0.598425,0.787402,-0.149606][0.983576,0.066212,0][0.657006,-0.692816,2.1087][0,1,-0.0708661][0.307717,0.021496,0][0.668666,-0.857746,2.09792][0.133858,-0.448819,0.88189][0.3025,0.005,0][1.20562,-0.508966,2.86408][0.464567,-0.755906,0.464567][0.378813,0.013716,0][1.9671,-0.807642,1.01487][0.149606,-0.456693,0.874016][0.351977,0.108625,0][1.98955,-0.868444,0.57156][-0.787402,-0.401575,0.464567][0.32447,0.097479,0][2.8777,-0.508968,1.1727][-0.149606,0.787402,0.598425][0.375915,0.041544,0][-1.61938,-0.868444,-1.28942][0.889764,-0.448819,-0.0944882][0.680888,0.112113,0][-1.71286,-0.692816,-1.39473][-0.677165,-0.228346,-0.700787][0.686748,0.095834,0][-2.20988,-0.508966,-2.18468][0.102362,0.944882,-0.299213][0.756866,0.108112,0][1.98955,-0.868444,0.57156][-0.787402,-0.401575,0.464567][0.32447,0.097479,0][1.9671,-0.807642,1.01487][0.149606,-0.456693,0.874016][0.351977,0.108625,0][1.61938,-0.868444,1.28942][-0.889764,-0.448819,0.0944882][0.373975,0.139722,0][1.69677,-0.692816,-1.41396][-0.0629921,1,0.023622][0.005,0.307717,0][1.68234,-0.857746,-1.4206][0.76378,-0.448819,-0.456693][0.021496,0.3025,0][2.18468,-0.508966,-2.20988][0.299213,0.944882,0.102362][0.012781,0.378813,0][-1.4206,-0.857746,-1.68234][-0.456693,-0.448819,-0.76378][0.09096,0.32554,0][-1.61938,-0.868444,-1.28942][0.889764,-0.448819,-0.0944882][0.11211,0.346363,0][-2.20988,-0.508966,-2.18468][0.102362,0.944882,-0.299213][0.043173,0.378354,0][2.09792,-0.857746,-0.668664][0.88189,-0.448819,-0.133858][0.225023,0.070966,0][1.81098,-0.868444,-1.00268][-0.259843,-0.417323,0.874016][0.197692,0.082537,0][2.86408,-0.508968,-1.20562][0.23622,0.944882,0.212598][0.194517,0.00660503,0][-2.05684,-0.868444,0.23332][0.566929,-0.417323,-0.708661][0.223518,0.408684,0][-2.1941,-0.857746,-0.185071][-0.866142,-0.448819,-0.220472][0.193839,0.408916,0][-1.98955,-0.868444,-0.571558][0.787402,-0.401575,-0.464567][0.161615,0.388605,0][-2.1941,-0.857746,-0.185071][-0.866142,-0.448819,-0.220472][0.193839,0.408916,0][-2.05684,-0.868444,0.23332][0.566929,-0.417323,-0.708661][0.223518,0.408684,0][-3.10744,-0.508968,0.017811][-0.141732,0.944882,-0.291339][0.197394,0.480051,0][0.233318,-0.868444,2.05684][-0.708661,-0.417323,-0.566929][0.773055,0.112113,0][0.224952,-0.692816,2.1974][0.283465,-0.299213,0.913386][0.778916,0.095834,0][0.0178119,-0.508968,3.10744][-0.291339,0.944882,0.141732][0.848162,0.107798,0][-0.668666,-0.857746,-2.09792][-0.133858,-0.448819,-0.88189][0.070966,0.261061,0][-1.00268,-0.868444,-1.81098][0.874016,-0.417323,0.259843][0.082537,0.288392,0][-1.20562,-0.508966,-2.86408][0.212598,0.944882,-0.23622][0.006605,0.291568,0][-1.9671,-0.807642,-1.01487][-0.149606,-0.456693,-0.874016][0.134107,0.37746,0][-1.98955,-0.868444,-0.571558][0.787402,-0.401575,-0.464567][0.161615,0.388605,0][-2.8777,-0.508968,-1.1727][0.149606,0.787402,-0.598425][0.110169,0.44454,0][-1.79417,-0.68753,-0.962114][-0.0472441,0.992126,0.0944882][0.006151,0.091046,0][-1.9671,-0.807642,-1.01487][-0.149606,-0.456693,-0.874016][0.005,0.073783,0][-2.11622,-0.692816,-0.633082][-0.929134,-0.322835,-0.165354][0.0389,0.074854,0][1.68234,-0.857746,-1.4206][0.76378,-0.448819,-0.456693][0.160544,0.09096,0][1.28942,-0.868444,-1.61938][0.0944882,-0.417323,0.905512][0.139722,0.11211,0][2.18468,-0.508966,-2.20988][0.299213,0.944882,0.102362][0.10773,0.043173,0][-1.98955,-0.868444,-0.571558][0.787402,-0.401575,-0.464567][0.161615,0.388605,0][-1.9671,-0.807642,-1.01487][-0.149606,-0.456693,-0.874016][0.134107,0.37746,0][-1.61938,-0.868444,-1.28942][0.889764,-0.448819,-0.0944882][0.11211,0.346363,0][-0.199974,-0.692816,2.19962][0.023622,1,-0.0629921][0.839262,0.144768,0][-0.18507,-0.857746,2.1941][-0.220472,-0.448819,0.866142][0.84448,0.161265,0][0.0178119,-0.508968,3.10744][-0.291339,0.944882,0.141732][0.769098,0.152254,0][0.18507,-0.857746,-2.1941][0.220472,-0.448819,-0.866142][0.077169,0.193839,0][-0.233318,-0.868444,-2.05684][0.708661,-0.417323,0.566929][0.077399,0.223518,0][-0.0178121,-0.508966,-3.10744][0.291339,0.944882,-0.141732][0.006033,0.197394,0][1.01063,-0.857746,-1.95627][0.535433,-0.448819,-0.716535][0.108625,0.134107,0][0.571558,-0.868444,-1.98955][0.433071,-0.417323,0.795276][0.097479,0.161615,0][1.1727,-0.508966,-2.8777][0.322835,0.944882,-0.015748][0.041544,0.110169,0][-1.00268,-0.868444,-1.81098][0.874016,-0.417323,0.259843][0.671595,0.258915,0][-1.04874,-0.692816,-1.94405][-0.614173,-0.299213,-0.732283][0.677455,0.242636,0][-1.20562,-0.508966,-2.86408][0.212598,0.944882,-0.23622][0.745836,0.254289,0][2.05684,-0.868444,-0.233318][-0.566929,-0.417323,0.708661][0.262566,0.077399,0][2.1941,-0.857746,0.185069][0.866142,-0.448819,0.220472][0.292246,0.077169,0][1.98955,-0.868444,0.57156][-0.787402,-0.401575,0.464567][0.32447,0.097479,0][2.1941,-0.857746,0.185069][0.866142,-0.448819,0.220472][0.292246,0.077169,0][2.05684,-0.868444,-0.233318][-0.566929,-0.417323,0.708661][0.262566,0.077399,0][3.10744,-0.508968,-0.017813][0.141732,0.944882,0.291339][0.288691,0.006033,0][1.02651,-0.692816,-1.95566][-0.0472441,1,0.0472441][0.106052,0.839595,0][1.01063,-0.857746,-1.95627][0.535433,-0.448819,-0.716535][0.099588,0.823546,0][1.1727,-0.508966,-2.8777][0.322835,0.944882,-0.015748][0.174695,0.827062,0][1.00268,-0.868444,1.81098][0.425197,-0.543307,-0.724409][0.577006,0.307183,0][1.04874,-0.692816,1.94405][0.244094,0.96063,-0.125984][0.582866,0.290904,0][1.20562,-0.508966,2.86408][0.464567,-0.755906,0.464567][0.651247,0.302556,0][-0.233318,-0.868444,-2.05684][0.708661,-0.417323,0.566929][0.286345,0.73172,0][-0.224952,-0.692816,-2.1974][-0.283465,-0.299213,-0.913386][0.292205,0.715441,0][-0.0178121,-0.508966,-3.10744][0.291339,0.944882,-0.141732][0.361451,0.727405,0][0.199972,-0.692816,-2.19962][-0.023622,1,0.0629921][0.075659,0.861577,0][0.18507,-0.857746,-2.1941][0.220472,-0.448819,-0.866142][0.080876,0.878073,0][-0.0178121,-0.508966,-3.10744][0.291339,0.944882,-0.141732][0.005494,0.869063,0][1.61938,-0.868444,1.28942][-0.889764,-0.448819,0.0944882][0.201049,0.682786,0][1.71286,-0.692816,1.39473][0.677165,-0.228346,0.700787][0.206909,0.666507,0][2.20988,-0.508968,2.18468][-0.102362,0.944882,0.299213][0.277028,0.678785,0][-1.69677,-0.692816,1.41396][0.0629921,1,-0.023622][0.307054,0.620853,0][-1.68234,-0.857744,1.4206][-0.76378,-0.448819,0.456693][0.312271,0.637349,0][-2.18468,-0.508966,2.20988][-0.299213,0.944882,-0.102362][0.235958,0.628633,0][0.571558,-0.868444,-1.98955][0.433071,-0.417323,0.795276][0.194177,0.73172,0][0.633082,-0.692816,-2.11622][0.0866142,-0.299213,-0.952756][0.200037,0.715441,0][1.1727,-0.508966,-2.8777][0.322835,0.944882,-0.015748][0.270155,0.727718,0][-0.657006,-0.692816,-2.1087][0,1,0.0708661][0.786892,0.05018,0][-0.668666,-0.857746,-2.09792][-0.133858,-0.448819,-0.88189][0.792109,0.066676,0][-1.20562,-0.508966,-2.86408][0.212598,0.944882,-0.23622][0.715797,0.05796,0][0.233318,-0.868444,2.05684][-0.708661,-0.417323,-0.566929][0.408685,0.262566,0][-0.18507,-0.857746,2.1941][-0.220472,-0.448819,0.866142][0.408916,0.292246,0][-0.571558,-0.868444,1.98955][-0.464567,-0.401575,-0.787402][0.388605,0.32447,0][1.00268,-0.868444,1.81098][0.425197,-0.543307,-0.724409][0.403547,0.197692,0][0.668666,-0.857746,2.09792][0.133858,-0.448819,0.88189][0.415119,0.225023,0][0.233318,-0.868444,2.05684][-0.708661,-0.417323,-0.566929][0.408685,0.262566,0][1.61938,-0.868444,1.28942][-0.889764,-0.448819,0.0944882][0.373975,0.139722,0][1.4206,-0.857744,1.68234][0.456693,-0.448819,0.76378][0.395125,0.160544,0][1.00268,-0.868444,1.81098][0.425197,-0.543307,-0.724409][0.403547,0.197692,0][-1.28942,-0.868444,1.61938][-0.0944882,-0.448819,-0.889764][0.346363,0.373975,0][-1.68234,-0.857744,1.4206][-0.76378,-0.448819,0.456693][0.32554,0.395125,0][-1.81098,-0.868444,1.00268][0.259843,-0.417323,-0.874016][0.288392,0.403547,0][-1.81098,-0.868444,1.00268][0.259843,-0.417323,-0.874016][0.288392,0.403547,0][-2.09792,-0.857746,0.668668][-0.88189,-0.448819,0.133858][0.261061,0.415119,0][-2.05684,-0.868444,0.23332][0.566929,-0.417323,-0.708661][0.223518,0.408684,0][1.81098,-0.868444,-1.00268][-0.259843,-0.417323,0.874016][0.197692,0.082537,0][2.09792,-0.857746,-0.668664][0.88189,-0.448819,-0.133858][0.225023,0.070966,0][2.05684,-0.868444,-0.233318][-0.566929,-0.417323,0.708661][0.262566,0.077399,0][1.98955,-0.868444,0.57156][-0.787402,-0.401575,0.464567][0.33317,0.640886,0][2.11622,-0.692816,0.633082][0.929134,-0.322835,0.165354][0.33903,0.624607,0][2.8777,-0.508968,1.1727][-0.149606,0.787402,0.598425][0.409149,0.636885,0][1.28942,-0.868444,-1.61938][0.0944882,-0.417323,0.905512][0.139722,0.11211,0][1.68234,-0.857746,-1.4206][0.76378,-0.448819,-0.456693][0.160544,0.09096,0][1.81098,-0.868444,-1.00268][-0.259843,-0.417323,0.874016][0.197692,0.082537,0][-1.61938,-0.868444,-1.28942][0.889764,-0.448819,-0.0944882][0.11211,0.346363,0][-1.4206,-0.857746,-1.68234][-0.456693,-0.448819,-0.76378][0.09096,0.32554,0][-1.00268,-0.868444,-1.81098][0.874016,-0.417323,0.259843][0.082537,0.288392,0][-1.00268,-0.868444,-1.81098][0.874016,-0.417323,0.259843][0.082537,0.288392,0][-0.668666,-0.857746,-2.09792][-0.133858,-0.448819,-0.88189][0.070966,0.261061,0][-0.233318,-0.868444,-2.05684][0.708661,-0.417323,0.566929][0.077399,0.223518,0][0.571558,-0.868444,-1.98955][0.433071,-0.417323,0.795276][0.097479,0.161615,0][1.01063,-0.857746,-1.95627][0.535433,-0.448819,-0.716535][0.108625,0.134107,0][1.28942,-0.868444,-1.61938][0.0944882,-0.417323,0.905512][0.139722,0.11211,0][-0.233318,-0.868444,-2.05684][0.708661,-0.417323,0.566929][0.077399,0.223518,0][0.18507,-0.857746,-2.1941][0.220472,-0.448819,-0.866142][0.077169,0.193839,0][0.571558,-0.868444,-1.98955][0.433071,-0.417323,0.795276][0.097479,0.161615,0][-2.1087,-0.692816,0.657006][0.0708661,1,0][0.884599,0.053934,0][-2.09792,-0.857746,0.668668][-0.88189,-0.448819,0.133858][0.889816,0.07043,0][-2.86408,-0.508968,1.20562][-0.23622,0.944882,-0.212598][0.813503,0.061715,0][1.28942,-0.868444,-1.61938][0.0944882,-0.417323,0.905512][0.099588,0.780654,0][1.39473,-0.692816,-1.71286][0.440945,-0.299213,-0.850394][0.105448,0.764375,0][2.18468,-0.508966,-2.20988][0.299213,0.944882,0.102362][0.175567,0.776653,0][-1.41396,-0.692816,-1.69677][0.023622,1,0.0629921][0.106185,0.021496,0][-1.4206,-0.857746,-1.68234][-0.456693,-0.448819,-0.76378][0.100968,0.005,0][-2.20988,-0.508966,-2.18468][0.102362,0.944882,-0.299213][0.17728,0.013716,0][2.05684,-0.868444,-0.233318][-0.566929,-0.417323,0.708661][0.191756,0.780654,0][2.1974,-0.692816,-0.22495][0.913386,-0.299213,-0.283465][0.197616,0.764375,0][3.10744,-0.508968,-0.017813][0.141732,0.944882,0.291339][0.266863,0.776339,0][1.81098,-0.868444,-1.00268][-0.259843,-0.417323,0.874016][0.484839,0.338479,0][1.94405,-0.692816,-1.04874][0.732283,-0.299213,-0.614173][0.490699,0.3222,0][2.86408,-0.508968,-1.20562][0.23622,0.944882,0.212598][0.55908,0.333852,0][-2.19962,-0.692816,-0.199973][0.0629921,1,0.023622][0.170247,0.795671,0][-2.1941,-0.857746,-0.185071][-0.866142,-0.448819,-0.220472][0.175464,0.812167,0][-3.10744,-0.508968,0.017811][-0.141732,0.944882,-0.291339][0.100083,0.803157,0][-1.9671,-0.807642,-1.01487][-0.149606,-0.456693,-0.874016][0.099588,0.904232,0][-1.79417,-0.68753,-0.962114][-0.0472441,0.992126,0.0944882][0.099588,0.88693,0][-1.75201,0.125592,-1.15582][0.858268,0.409449,0.299213][0.16302,0.895078,0][-2.19962,-0.692816,-0.199973][0.0629921,1,0.023622][0.178036,0.904152,0][-2.02578,-0.68753,-0.20228][0.0314961,1,0.0629921][0.178036,0.88693,0][-2.06096,0.125592,-0.397376][0.913386,0.409449,-0.0472441][0.240306,0.893883,0][2.02338,-0.687534,-0.225268][-0.968504,-0.15748,0.19685][0.099588,0.968702,0][2.1974,-0.692816,-0.22495][0.913386,-0.299213,-0.283465][0.099588,0.951488,0][2.05614,0.125592,-0.421566][-0.826772,0.409449,0.393701][0.161858,0.963217,0][1.95556,-0.687534,0.566192][-0.968504,-0.15748,-0.188976][0.255323,0.903498,0][2.11622,-0.692816,0.633082][0.929134,-0.322835,0.165354][0.255323,0.88693,0][2.06096,0.125592,0.397378][-0.913386,0.409449,0.0472441][0.317593,0.893572,0][-2.1087,-0.692816,0.657006][0.0708661,1,0][0.640573,0.434678,0][-1.94898,-0.68753,0.588348][0.0551181,1,0.0472441][0.640573,0.418133,0][-2.05616,0.125592,0.421568][0.826772,0.409449,-0.393701][0.702843,0.429457,0][1.78315,-0.687534,-0.982438][-0.818898,-0.15748,0.551181][0.840473,0.259938,0][1.94405,-0.692816,-1.04874][0.732283,-0.299213,-0.614173][0.840473,0.242636,0][1.73831,0.125592,-1.17633][-0.614173,0.409449,0.677165][0.903904,0.253209,0][-1.01487,-0.807642,1.9671][-0.874016,-0.456693,0.149606][0.918921,0.259938,0][-0.962116,-0.68753,1.79417][0.0944882,0.992126,0.0472441][0.918921,0.242636,0][-1.15582,0.125592,1.75201][0.299213,0.409449,-0.858268][0.982352,0.250784,0][-1.41396,-0.692816,-1.69677][0.023622,1,0.0629921][0.384513,0.683809,0][-1.28941,-0.68753,-1.57547][-0.023622,1,0.0629921][0.384513,0.666507,0][-1.17633,0.125592,-1.73831][0.677165,0.409449,0.614173][0.447944,0.674655,0][1.59004,-0.687534,1.27145][-0.818898,-0.15748,-0.551181][0.864352,0.113136,0][1.71286,-0.692816,1.39473][0.677165,-0.228346,0.700787][0.864352,0.095834,0][1.75201,0.125592,1.15582][-0.858268,0.409449,-0.299213][0.927783,0.106406,0][-1.69677,-0.692816,1.41396][0.0629921,1,-0.023622][0.762025,0.259938,0][-1.57548,-0.68753,1.28941][0.0629921,1,0.023622][0.762025,0.242636,0][-1.73831,0.125592,1.17633][0.614173,0.409449,-0.677165][0.825456,0.250784,0][1.27145,-0.687534,-1.59004][-0.551181,-0.15748,0.818898][0.484839,0.370797,0][1.39473,-0.692816,-1.71286][0.440945,-0.299213,-0.850394][0.484839,0.353496,0][1.15582,0.125592,-1.75201][-0.307087,0.409449,0.858268][0.54827,0.364068,0][0.224952,-0.692816,2.1974][0.283465,-0.299213,0.913386][0.022215,0.700424,0][0.225268,-0.687534,2.02338][-0.19685,-0.15748,-0.968504][0.005,0.698691,0][-0.202282,-0.68753,2.02578][0.0629921,1,-0.0314961][0.005067,0.668165,0][-0.202282,-0.68753,2.02578][0.0629921,1,-0.0314961][0.005067,0.668165,0][-0.199974,-0.692816,2.19962][0.023622,1,-0.0629921][0.022289,0.666507,0][0.224952,-0.692816,2.1974][0.283465,-0.299213,0.913386][0.022215,0.700424,0][-0.633082,-0.692816,2.11622][-0.165354,-0.322835,0.929134][0.406027,0.0389,0][-0.566194,-0.687534,1.95556][0.188976,-0.15748,-0.968504][0.388871,0.036661,0][-0.962116,-0.68753,1.79417][0.0944882,0.992126,0.0472441][0.389835,0.00615102,0][-1.39473,-0.692816,1.71286][-0.700787,-0.228346,0.677165][0.458523,0.042655,0][-1.27145,-0.687534,1.59004][0.551181,-0.15748,-0.818898][0.475701,0.044725,0][-1.57548,-0.68753,1.28941][0.0629921,1,0.023622][0.475036,0.075244,0][-1.57548,-0.68753,1.28941][0.0629921,1,0.023622][0.475036,0.075244,0][-1.69677,-0.692816,1.41396][0.0629921,1,-0.023622][0.457784,0.076564,0][-1.39473,-0.692816,1.71286][-0.700787,-0.228346,0.677165][0.458523,0.042655,0][1.71286,-0.692816,1.39473][0.677165,-0.228346,0.700787][0.208582,0.187659,0][1.59004,-0.687534,1.27145][-0.818898,-0.15748,-0.551181][0.191405,0.185589,0][1.28941,-0.68753,1.57547][0.023622,1,-0.0629921][0.19207,0.15507,0][1.28941,-0.68753,1.57547][0.023622,1,-0.0629921][0.19207,0.15507,0][1.41396,-0.692816,1.69677][-0.023622,1,-0.0629921][0.209321,0.15375,0][1.71286,-0.692816,1.39473][0.677165,-0.228346,0.700787][0.208582,0.187659,0][-1.94405,-0.692816,1.04874][-0.732283,-0.299213,0.614173][0.298518,0.191413,0][-1.78315,-0.687534,0.982434][0.818898,-0.15748,-0.551181][0.315715,0.193315,0][-1.94898,-0.68753,0.588348][0.0551181,1,0.0472441][0.315349,0.223839,0][-1.94898,-0.68753,0.588348][0.0551181,1,0.0472441][0.315349,0.223839,0][-2.1087,-0.692816,0.657006][0.0708661,1,0][0.298111,0.225328,0][-1.94405,-0.692816,1.04874][-0.732283,-0.299213,0.614173][0.298518,0.191413,0][2.11622,-0.692816,0.633082][0.929134,-0.322835,0.165354][0.15375,0.170906,0][1.95556,-0.687534,0.566192][-0.968504,-0.15748,-0.188976][0.155989,0.15375,0][1.79417,-0.68753,0.962116][0.0472441,0.992126,-0.0944882][0.186499,0.154714,0][-0.657006,-0.692816,-2.1087][0,1,0.0708661][0.562125,0.466997,0][-0.588348,-0.68753,-1.94898][-0.0472441,1,0.0551181][0.562125,0.450451,0][-0.421568,0.125592,-2.05616][0.393701,0.409449,0.826772][0.624395,0.461775,0][0.982436,-0.687534,1.78315][0.015748,1,-0.0472441][0.563286,0.370797,0][1.04874,-0.692816,1.94405][0.244094,0.96063,-0.125984][0.563286,0.353496,0][1.17633,0.125592,1.7383][0.622047,0.440945,0.645669][0.626718,0.364068,0][-2.1974,-0.692816,0.22495][-0.913386,-0.299213,0.283465][0.304693,0.575673,0][-2.02338,-0.687534,0.22527][0.968504,-0.15748,-0.19685][0.321908,0.577406,0][-2.02578,-0.68753,-0.20228][0.0314961,1,0.0629921][0.321841,0.607932,0][-2.02578,-0.68753,-0.20228][0.0314961,1,0.0629921][0.321841,0.607932,0][-2.19962,-0.692816,-0.199973][0.0629921,1,0.023622][0.304619,0.60959,0][-2.1974,-0.692816,0.22495][-0.913386,-0.299213,0.283465][0.304693,0.575673,0][2.1974,-0.692816,-0.22495][0.913386,-0.299213,-0.283465][0.732517,0.038917,0][2.02338,-0.687534,-0.225268][-0.968504,-0.15748,0.19685][0.715302,0.037184,0][2.02578,-0.68753,0.20228][-0.0314961,1,-0.0629921][0.715369,0.00665802,0][2.02578,-0.68753,0.20228][-0.0314961,1,-0.0629921][0.715369,0.00665802,0][2.19962,-0.692816,0.199973][-0.0629921,1,-0.023622][0.732591,0.005,0][2.1974,-0.692816,-0.22495][0.913386,-0.299213,-0.283465][0.732517,0.038917,0][-2.11622,-0.692816,-0.633082][-0.929134,-0.322835,-0.165354][0.0389,0.074854,0][-1.95556,-0.687534,-0.566192][0.968504,-0.15748,0.188976][0.036661,0.09201,0][-1.79417,-0.68753,-0.962114][-0.0472441,0.992126,0.0944882][0.006151,0.091046,0][-1.71286,-0.692816,-1.39473][-0.677165,-0.228346,-0.700787][0.458523,0.426525,0][-1.59004,-0.687534,-1.27145][0.818898,-0.15748,0.551181][0.475701,0.428596,0][-1.28941,-0.68753,-1.57547][-0.023622,1,0.0629921][0.475036,0.459114,0][-1.28941,-0.68753,-1.57547][-0.023622,1,0.0629921][0.475036,0.459114,0][-1.41396,-0.692816,-1.69677][0.023622,1,0.0629921][0.457784,0.460435,0][-1.71286,-0.692816,-1.39473][-0.677165,-0.228346,-0.700787][0.458523,0.426525,0][0.566192,-0.687536,-1.95556][-0.188976,-0.15748,0.968504][0.178036,0.935737,0][0.633082,-0.692816,-2.11622][0.0866142,-0.299213,-0.952756][0.178036,0.919169,0][0.397378,0.125592,-2.06096][0.0472441,0.409449,0.913386][0.240306,0.925811,0][-0.224952,-0.692816,-2.1974][-0.283465,-0.299213,-0.913386][0.554068,0.095834,0][-0.22527,-0.687536,-2.02338][0.19685,-0.15748,0.968504][0.571283,0.097568,0][0.20228,-0.68753,-2.02578][-0.0629921,1,0.0314961][0.571216,0.128093,0][0.20228,-0.68753,-2.02578][-0.0629921,1,0.0314961][0.571216,0.128093,0][0.199972,-0.692816,-2.19962][-0.023622,1,0.0629921][0.553994,0.129751,0][-0.224952,-0.692816,-2.1974][-0.283465,-0.299213,-0.913386][0.554068,0.095834,0][0.633082,-0.692816,-2.11622][0.0866142,-0.299213,-0.952756][0.458725,0.388871,0][0.566192,-0.687536,-1.95556][-0.188976,-0.15748,0.968504][0.475881,0.39111,0][0.962114,-0.68753,-1.79417][-0.0708661,1,0][0.474917,0.42162,0][0.962114,-0.68753,-1.79417][-0.0708661,1,0][0.474917,0.42162,0][1.02651,-0.692816,-1.95566][-0.0472441,1,0.0472441][0.457653,0.422771,0][0.633082,-0.692816,-2.11622][0.0866142,-0.299213,-0.952756][0.458725,0.388871,0][0.225268,-0.687534,2.02338][-0.19685,-0.15748,-0.968504][0.641734,0.403029,0][0.224952,-0.692816,2.1974][0.283465,-0.299213,0.913386][0.641734,0.385814,0][0.421566,0.125592,2.05616][-0.393701,0.409449,-0.826772][0.704004,0.397543,0][0.199972,-0.692816,-2.19962][-0.023622,1,0.0629921][0.484839,0.467673,0][0.20228,-0.68753,-2.02578][-0.0629921,1,0.0314961][0.484839,0.450451,0][0.397378,0.125592,-2.06096][0.0472441,0.409449,0.913386][0.547109,0.457403,0][-0.199974,-0.692816,2.19962][0.023622,1,-0.0629921][0.099588,0.936471,0][-0.202282,-0.68753,2.02578][0.0629921,1,-0.0314961][0.099588,0.919249,0][-0.397378,0.125592,2.06096][-0.0472441,0.409449,-0.913386][0.161858,0.926201,0][-0.22527,-0.687536,-2.02338][0.19685,-0.15748,0.968504][0.563286,0.435347,0][-0.224952,-0.692816,-2.1974][-0.283465,-0.299213,-0.913386][0.563286,0.418133,0][-0.421568,0.125592,-2.05616][0.393701,0.409449,0.826772][0.625556,0.429862,0][-1.04874,-0.692816,-1.94405][-0.614173,-0.299213,-0.732283][0.042663,0.406068,0][-0.982436,-0.687534,-1.78315][0.551181,-0.15748,0.818898][0.044565,0.388871,0][-0.588348,-0.68753,-1.94898][-0.0472441,1,0.0551181][0.075089,0.389237,0][-0.588348,-0.68753,-1.94898][-0.0472441,1,0.0551181][0.075089,0.389237,0][-0.657006,-0.692816,-2.1087][0,1,0.0708661][0.076578,0.406474,0][-1.04874,-0.692816,-1.94405][-0.614173,-0.299213,-0.732283][0.042663,0.406068,0][-1.04874,-0.692816,-1.94405][-0.614173,-0.299213,-0.732283][0.042663,0.406068,0][-0.657006,-0.692816,-2.1087][0,1,0.0708661][0.076578,0.406474,0][-1.20562,-0.508966,-2.86408][0.212598,0.944882,-0.23622][0.058812,0.475447,0][1.39473,-0.692816,-1.71286][0.440945,-0.299213,-0.850394][0.005,0.406048,0][1.27145,-0.687534,-1.59004][-0.551181,-0.15748,0.818898][0.007071,0.388871,0][1.57547,-0.68753,-1.28941][-0.0629921,1,-0.023622][0.037589,0.389536,0][1.39473,-0.692816,-1.71286][0.440945,-0.299213,-0.850394][0.005,0.406048,0][1.69677,-0.692816,-1.41396][-0.0629921,1,0.023622][0.038909,0.406787,0][2.18468,-0.508966,-2.20988][0.299213,0.944882,0.102362][0.020468,0.475582,0][1.57547,-0.68753,-1.28941][-0.0629921,1,-0.023622][0.037589,0.389536,0][1.69677,-0.692816,-1.41396][-0.0629921,1,0.023622][0.038909,0.406787,0][1.39473,-0.692816,-1.71286][0.440945,-0.299213,-0.850394][0.005,0.406048,0][-0.00625606,0.411862,-1.85828][-0.204724,0.464567,0.858268][0.743111,0.399904,0][0.33535,0.755032,-2.25248][0.811024,0.472441,-0.338583][0.719021,0.400043,0][-0.128722,0.868444,-2.25116][-0.0629921,0.88189,0.472441][0.721843,0.385814,0][1.94405,-0.692816,-1.04874][0.732283,-0.299213,-0.614173][0.076569,0.074444,0][1.78315,-0.687534,-0.982438][-0.818898,-0.15748,0.551181][0.074667,0.091641,0][1.94898,-0.68753,-0.588348][-0.0551181,1,-0.0472441][0.044144,0.091275,0][1.94898,-0.68753,-0.588348][-0.0551181,1,-0.0472441][0.044144,0.091275,0][2.1087,-0.692816,-0.657006][-0.0708661,1,0][0.042655,0.074038,0][1.94405,-0.692816,-1.04874][0.732283,-0.299213,-0.614173][0.076569,0.074444,0][1.94405,-0.692816,-1.04874][0.732283,-0.299213,-0.614173][0.076569,0.074444,0][2.1087,-0.692816,-0.657006][-0.0708661,1,0][0.042655,0.074038,0][2.86408,-0.508968,-1.20562][0.23622,0.944882,0.212598][0.060421,0.00506502,0][-0.566194,-0.687534,1.95556][0.188976,-0.15748,-0.968504][0.333771,0.87118,0][-0.633082,-0.692816,2.11622][-0.165354,-0.322835,0.929134][0.333771,0.854612,0][-0.397378,0.125592,2.06096][-0.0472441,0.409449,-0.913386][0.396041,0.861254,0][1.02651,-0.692816,-1.95566][-0.0472441,1,0.0472441][0.005,0.93782,0][0.962114,-0.68753,-1.79417][-0.0708661,1,0][0.005,0.920518,0][1.15582,0.125592,-1.75201][-0.307087,0.409449,0.858268][0.068431,0.928666,0][0.657006,-0.692816,2.1087][0,1,-0.0708661][0.484839,0.499236,0][0.588348,-0.68753,1.94898][0.0472441,1,-0.0551181][0.484839,0.48269,0][0.421566,0.125592,2.05616][-0.393701,0.409449,-0.826772][0.547109,0.494014,0][-0.982436,-0.687534,-1.78315][0.551181,-0.15748,0.818898][0.099588,0.871914,0][-1.04874,-0.692816,-1.94405][-0.614173,-0.299213,-0.732283][0.099588,0.854612,0][-1.17633,0.125592,-1.73831][0.677165,0.409449,0.614173][0.16302,0.865185,0][1.04874,-0.692816,1.94405][0.244094,0.96063,-0.125984][0.225319,0.260858,0][0.982436,-0.687534,1.78315][0.015748,1,-0.0472441][0.223417,0.278055,0][0.588348,-0.68753,1.94898][0.0472441,1,-0.0551181][0.192894,0.277689,0][0.588348,-0.68753,1.94898][0.0472441,1,-0.0551181][0.192894,0.277689,0][0.657006,-0.692816,2.1087][0,1,-0.0708661][0.191405,0.260451,0][1.04874,-0.692816,1.94405][0.244094,0.96063,-0.125984][0.225319,0.260858,0][1.04874,-0.692816,1.94405][0.244094,0.96063,-0.125984][0.225319,0.260858,0][0.657006,-0.692816,2.1087][0,1,-0.0708661][0.191405,0.260451,0][1.20562,-0.508966,2.86408][0.464567,-0.755906,0.464567][0.209171,0.191478,0][-0.224952,-0.692816,-2.1974][-0.283465,-0.299213,-0.913386][0.554068,0.095834,0][0.199972,-0.692816,-2.19962][-0.023622,1,0.0629921][0.553994,0.129751,0][-0.0178121,-0.508966,-3.10744][0.291339,0.944882,-0.141732][0.48485,0.112662,0][0.633082,-0.692816,-2.11622][0.0866142,-0.299213,-0.952756][0.458725,0.388871,0][1.02651,-0.692816,-1.95566][-0.0472441,1,0.0472441][0.457653,0.422771,0][1.1727,-0.508966,-2.8777][0.322835,0.944882,-0.015748][0.389042,0.403656,0][1.9671,-0.807642,1.01487][0.149606,-0.456693,0.874016][0.641734,0.370797,0][1.79417,-0.68753,0.962116][0.0472441,0.992126,-0.0944882][0.641734,0.353496,0][1.75201,0.125592,1.15582][-0.858268,0.409449,-0.299213][0.705165,0.361643,0][-1.71286,-0.692816,-1.39473][-0.677165,-0.228346,-0.700787][0.458523,0.426525,0][-1.41396,-0.692816,-1.69677][0.023622,1,0.0629921][0.457784,0.460435,0][-2.20988,-0.508966,-2.18468][0.102362,0.944882,-0.299213][0.388989,0.441993,0][-0.00625606,0.411862,-1.85828][-0.204724,0.464567,0.858268][0.11815,0.223803,0][-0.128722,0.868444,-2.25116][-0.0629921,0.88189,0.472441][0.110564,0.202944,0][-0.39598,0.675982,-2.25014][-0.937008,0.23622,-0.267717][0.116513,0.177742,0][-1.27145,-0.687534,1.59004][0.551181,-0.15748,-0.818898][0.178036,0.871914,0][-1.39473,-0.692816,1.71286][-0.700787,-0.228346,0.677165][0.178036,0.854612,0][-1.15582,0.125592,1.75201][0.299213,0.409449,-0.858268][0.241467,0.865185,0][1.69677,-0.692816,-1.41396][-0.0629921,1,0.023622][0.563286,0.403116,0][1.57547,-0.68753,-1.28941][-0.0629921,1,-0.023622][0.563286,0.385814,0][1.73831,0.125592,-1.17633][-0.614173,0.409449,0.677165][0.626718,0.393962,0][-1.59004,-0.687534,-1.27145][0.818898,-0.15748,0.551181][0.484839,0.435434,0][-1.71286,-0.692816,-1.39473][-0.677165,-0.228346,-0.700787][0.484839,0.418133,0][-1.75201,0.125592,-1.15582][0.858268,0.409449,0.299213][0.54827,0.428705,0][1.41396,-0.692816,1.69677][-0.023622,1,-0.0629921][0.377641,0.732743,0][1.28941,-0.68753,1.57547][0.023622,1,-0.0629921][0.377641,0.715441,0][1.17633,0.125592,1.7383][0.622047,0.440945,0.645669][0.441072,0.723589,0][2.1974,-0.692816,-0.22495][0.913386,-0.299213,-0.283465][0.732517,0.038917,0][2.19962,-0.692816,0.199973][-0.0629921,1,-0.023622][0.732591,0.005,0][3.10744,-0.508968,-0.017813][0.141732,0.944882,0.291339][0.801735,0.022089,0][-2.1974,-0.692816,0.22495][-0.913386,-0.299213,0.283465][0.304693,0.575673,0][-2.19962,-0.692816,-0.199973][0.0629921,1,0.023622][0.304619,0.60959,0][-3.10744,-0.508968,0.017811][-0.141732,0.944882,-0.291339][0.235475,0.592501,0][-1.94405,-0.692816,1.04874][-0.732283,-0.299213,0.614173][0.298518,0.191413,0][-2.1087,-0.692816,0.657006][0.0708661,1,0][0.298111,0.225328,0][-2.86408,-0.508968,1.20562][-0.23622,0.944882,-0.212598][0.229139,0.207562,0][1.71286,-0.692816,1.39473][0.677165,-0.228346,0.700787][0.208582,0.187659,0][1.41396,-0.692816,1.69677][-0.023622,1,-0.0629921][0.209321,0.15375,0][2.20988,-0.508968,2.18468][-0.102362,0.944882,0.299213][0.278116,0.172191,0][-1.78315,-0.687534,0.982434][0.818898,-0.15748,-0.551181][0.484839,0.403116,0][-1.94405,-0.692816,1.04874][-0.732283,-0.299213,0.614173][0.484839,0.385814,0][-1.73831,0.125592,1.17633][0.614173,0.409449,-0.677165][0.54827,0.396387,0][2.1087,-0.692816,-0.657006][-0.0708661,1,0][0.005,0.970138,0][1.94898,-0.68753,-0.588348][-0.0551181,1,-0.0472441][0.005,0.952836,0][2.05614,0.125592,-0.421566][-0.826772,0.409449,0.393701][0.068431,0.960984,0][-1.39473,-0.692816,1.71286][-0.700787,-0.228346,0.677165][0.458523,0.042655,0][-1.69677,-0.692816,1.41396][0.0629921,1,-0.023622][0.457784,0.076564,0][-2.18468,-0.508966,2.20988][-0.299213,0.944882,-0.102362][0.388989,0.058122,0][-1.95556,-0.687534,-0.566192][0.968504,-0.15748,0.188976][0.851584,0.211004,0][-2.11622,-0.692816,-0.633082][-0.929134,-0.322835,-0.165354][0.851584,0.193702,0][-2.06096,0.125592,-0.397376][0.913386,0.409449,-0.0472441][0.915015,0.204275,0][0.224952,-0.692816,2.1974][0.283465,-0.299213,0.913386][0.022215,0.700424,0][-0.199974,-0.692816,2.19962][0.023622,1,-0.0629921][0.022289,0.666507,0][0.0178119,-0.508968,3.10744][-0.291339,0.944882,0.141732][0.091432,0.683596,0][-2.02338,-0.687534,0.22527][0.968504,-0.15748,-0.19685][0.720182,0.37071,0][-2.1974,-0.692816,0.22495][-0.913386,-0.299213,0.283465][0.720182,0.353496,0][-2.05616,0.125592,0.421568][0.826772,0.409449,-0.393701][0.782452,0.365225,0][2.19962,-0.692816,0.199973][-0.0629921,1,-0.023622][0.256484,0.871834,0][2.02578,-0.68753,0.20228][-0.0314961,1,-0.0629921][0.256484,0.854612,0][2.06096,0.125592,0.397378][-0.913386,0.409449,0.0472441][0.318754,0.861564,0][2.11622,-0.692816,0.633082][0.929134,-0.322835,0.165354][0.15375,0.170906,0][1.9671,-0.807642,1.01487][0.149606,-0.456693,0.874016][0.18765,0.171978,0][2.8777,-0.508968,1.1727][-0.149606,0.787402,0.598425][0.168535,0.240589,0][-2.11622,-0.692816,-0.633082][-0.929134,-0.322835,-0.165354][0.0389,0.074854,0][-1.9671,-0.807642,-1.01487][-0.149606,-0.456693,-0.874016][0.005,0.073783,0][-2.8777,-0.508968,-1.1727][0.149606,0.787402,-0.598425][0.024115,0.005171,0][-0.633082,-0.692816,2.11622][-0.165354,-0.322835,0.929134][0.406027,0.0389,0][-1.01487,-0.807642,1.9671][-0.874016,-0.456693,0.149606][0.407098,0.005,0][-1.1727,-0.508968,2.8777][-0.598425,0.787402,-0.149606][0.47571,0.024115,0][0.448918,0.321552,-2.28268][0.897638,-0.417323,-0.15748][0.347837,0.239472,0][0.33535,0.755032,-2.25248][0.811024,0.472441,-0.338583][0.340887,0.21457,0][-0.00625606,0.411862,-1.85828][-0.204724,0.464567,0.858268][0.347952,0.193021,0][-0.00625606,0.411862,-1.85828][-0.204724,0.464567,0.858268][0.136822,0.239593,0][-0.39598,0.675982,-2.25014][-0.937008,0.23622,-0.267717][0.129758,0.218129,0][-0.463414,0.36484,-2.2584][-0.905512,0.149606,0.393701][0.136707,0.193142,0][-1.12321,-0.163506,-1.97944][-0.456693,0.740157,0.488189][0.767275,0.3222,0][-0.769156,-0.355134,-1.80821][0.299213,-0.299213,0.905512][0.787678,0.324889,0][-0.938484,-0.040602,-2.04822][-0.637795,0.771654,-0.023622][0.767358,0.331841,0][1.10782,-0.163506,-1.98723][0.937008,0.19685,0.299213][0.920509,0.353496,0][0.922616,-0.040602,-2.0547][0.267717,0.80315,0.527559][0.919312,0.363063,0][0.75497,-0.355134,-1.81353][-0.0787402,-0.023622,1][0.899932,0.35381,0][-1.17114,-0.418182,-1.9509][-0.992126,0.0944882,-0.00787402][0.821784,0.331657,0][-0.769156,-0.355134,-1.80821][0.299213,-0.299213,0.905512][0.802695,0.331657,0][-1.12321,-0.163506,-1.97944][-0.456693,0.740157,0.488189][0.820046,0.3222,0][1.15595,-0.41819,-1.95902][0.826772,-0.551181,0.0787402][0.411286,0.832886,0][1.10782,-0.163506,-1.98723][0.937008,0.19685,0.299213][0.413024,0.82343,0][0.75497,-0.355134,-1.81353][-0.0787402,-0.023622,1][0.430375,0.832886,0][0.922616,-0.040602,-2.0547][0.267717,0.80315,0.527559][0.792006,0.300475,0][0.69973,-0.088334,-2.14602][-0.409449,0.874016,0.251969][0.793171,0.290904,0][0.75497,-0.355134,-1.81353][-0.0787402,-0.023622,1][0.812583,0.300091,0][-0.938484,-0.040602,-2.04822][-0.637795,0.771654,-0.023622][0.684229,0.523894,0][-0.769156,-0.355134,-1.80821][0.299213,-0.299213,0.905512][0.663835,0.521135,0][-0.71624,-0.088334,-2.14106][0.0551181,0.952756,-0.291339][0.684178,0.514252,0][-1.04516,-0.622496,-2.0036][-0.346457,-0.889764,-0.299213][0.13437,0.983719,0][-0.769156,-0.355134,-1.80821][0.299213,-0.299213,0.905512][0.154798,0.986216,0][-1.17114,-0.418182,-1.9509][-0.992126,0.0944882,-0.00787402][0.134545,0.993359,0][1.0296,-0.622498,-2.01084][0.314961,-0.905512,-0.291339][0.344032,0.832985,0][1.15595,-0.41819,-1.95902][0.826772,-0.551181,0.0787402][0.345319,0.82343,0][0.75497,-0.355134,-1.81353][-0.0787402,-0.023622,1][0.364612,0.832865,0][0.69973,-0.088334,-2.14602][-0.409449,0.874016,0.251969][0.414286,0.918515,0][0.573134,-0.291744,-2.19782][-0.559055,0.425197,-0.708661][0.412999,0.92807,0][0.75497,-0.355134,-1.81353][-0.0787402,-0.023622,1][0.393706,0.918635,0][-0.71624,-0.088334,-2.14106][0.0551181,0.952756,-0.291339][0.57488,0.559847,0][-0.769156,-0.355134,-1.80821][0.299213,-0.299213,0.905512][0.554452,0.55735,0][-0.59001,-0.291744,-2.19376][0.574803,0.165354,-0.80315][0.574706,0.550207,0][-0.00625606,0.411862,-1.85828][-0.204724,0.464567,0.858268][0.270129,0.100968,0][0.26872,-0.247984,-2.26168][0.755906,-0.448819,0.480315][0.270156,0.138811,0][0.448918,0.321552,-2.28268][0.897638,-0.417323,-0.15748][0.254516,0.119294,0][0.806602,-0.670398,-2.10232][-0.590551,-0.795276,-0.141732][0.884915,0.353496,0][1.0296,-0.622498,-2.01084][0.314961,-0.905512,-0.291339][0.88375,0.363067,0][0.75497,-0.355134,-1.81353][-0.0787402,-0.023622,1][0.864338,0.35388,0][-0.822804,-0.670398,-2.09662][0.0314961,-0.84252,-0.535433][0.375875,0.82343,0][-0.769156,-0.355134,-1.80821][0.299213,-0.299213,0.905512][0.396269,0.826189,0][-1.04516,-0.622496,-2.0036][-0.346457,-0.889764,-0.299213][0.375926,0.833071,0][-0.00625606,0.411862,-1.85828][-0.204724,0.464567,0.858268][0.192987,0.542745,0][-0.463414,0.36484,-2.2584][-0.905512,0.149606,0.393701][0.176795,0.525041,0][-0.289154,-0.23073,-2.25936][-0.661417,-0.614173,0.433071][0.191703,0.504959,0][0.573134,-0.291744,-2.19782][-0.559055,0.425197,-0.708661][0.644124,0.574693,0][0.61773,-0.533912,-2.17994][-0.96063,-0.0866142,-0.267717][0.643405,0.58415,0][0.75497,-0.355134,-1.81353][-0.0787402,-0.023622,1][0.625188,0.574693,0][-0.59001,-0.291744,-2.19376][0.574803,0.165354,-0.80315][0.699246,0.514252,0][-0.769156,-0.355134,-1.80821][0.299213,-0.299213,0.905512][0.718182,0.514252,0][-0.63448,-0.533912,-2.17556][0.551181,-0.417323,-0.724409][0.699965,0.523709,0][0.61773,-0.533912,-2.17994][-0.96063,-0.0866142,-0.267717][0.484839,0.612048,0][0.806602,-0.670398,-2.10232][-0.590551,-0.795276,-0.141732][0.486036,0.60248,0][0.75497,-0.355134,-1.81353][-0.0787402,-0.023622,1][0.505416,0.611734,0][-0.63448,-0.533912,-2.17556][0.551181,-0.417323,-0.724409][0.57476,0.584334,0][-0.769156,-0.355134,-1.80821][0.299213,-0.299213,0.905512][0.554357,0.581645,0][-0.822804,-0.670398,-2.09662][0.0314961,-0.84252,-0.535433][0.574677,0.574693,0][-0.00625606,0.411862,-1.85828][-0.204724,0.464567,0.858268][0.659957,0.016718,0][-0.289154,-0.23073,-2.25936][-0.661417,-0.614173,0.433071][0.672826,0.044249,0][-0.00791606,-0.61153,-2.26198][-0.779528,-0.511811,0.354331][0.660573,0.062907,0][-0.00625606,0.411862,-1.85828][-0.204724,0.464567,0.858268][0.251776,0.496576,0][-0.00791606,-0.61153,-2.26198][-0.779528,-0.511811,0.354331][0.251385,0.542745,0][0.26872,-0.247984,-2.26168][0.755906,-0.448819,0.480315][0.23858,0.524092,0][-0.233318,-0.868444,-2.05684][0.708661,-0.417323,0.566929][0.608081,0.084572,0][0.20228,-0.68753,-2.02578][-0.0629921,1,0.0314961][0.590068,0.06727,0][-0.22527,-0.687536,-2.02338][0.19685,-0.15748,0.968504][0.620593,0.06727,0][0.571558,-0.868444,-1.98955][0.433071,-0.417323,0.795276][0.548544,0.084572,0][0.962114,-0.68753,-1.79417][-0.0708661,1,0][0.531888,0.06727,0][0.566192,-0.687536,-1.95556][-0.188976,-0.15748,0.968504][0.560116,0.06727,0][-1.00268,-0.868444,-1.81098][0.874016,-0.417323,0.259843][0.667147,0.084572,0][-0.588348,-0.68753,-1.94898][-0.0472441,1,0.0551181][0.650519,0.06727,0][-0.982436,-0.687534,-1.78315][0.551181,-0.15748,0.818898][0.678696,0.06727,0][0.20228,-0.68753,-2.02578][-0.0629921,1,0.0314961][0.590068,0.06727,0][-0.233318,-0.868444,-2.05684][0.708661,-0.417323,0.566929][0.608081,0.084572,0][0.571558,-0.868444,-1.98955][0.433071,-0.417323,0.795276][0.548544,0.084572,0][0.571558,-0.868444,-1.98955][0.433071,-0.417323,0.795276][0.548544,0.084572,0][0.566192,-0.687536,-1.95556][-0.188976,-0.15748,0.968504][0.560116,0.06727,0][0.20228,-0.68753,-2.02578][-0.0629921,1,0.0314961][0.590068,0.06727,0][0.20228,-0.68753,-2.02578][-0.0629921,1,0.0314961][0.590068,0.06727,0][0.566192,-0.687536,-1.95556][-0.188976,-0.15748,0.968504][0.560116,0.06727,0][0.397378,0.125592,-2.06096][0.0472441,0.409449,0.913386][0.573695,0.005,0][-0.233318,-0.868444,-2.05684][0.708661,-0.417323,0.566929][0.608081,0.084572,0][-0.22527,-0.687536,-2.02338][0.19685,-0.15748,0.968504][0.620593,0.06727,0][-0.588348,-0.68753,-1.94898][-0.0472441,1,0.0551181][0.650519,0.06727,0][-0.588348,-0.68753,-1.94898][-0.0472441,1,0.0551181][0.650519,0.06727,0][-0.22527,-0.687536,-2.02338][0.19685,-0.15748,0.968504][0.620593,0.06727,0][-0.421568,0.125592,-2.05616][0.393701,0.409449,0.826772][0.636691,0.005,0][-0.588348,-0.68753,-1.94898][-0.0472441,1,0.0551181][0.650519,0.06727,0][-1.00268,-0.868444,-1.81098][0.874016,-0.417323,0.259843][0.667147,0.084572,0][-0.233318,-0.868444,-2.05684][0.708661,-0.417323,0.566929][0.608081,0.084572,0][0.962114,-0.68753,-1.79417][-0.0708661,1,0][0.531888,0.06727,0][0.571558,-0.868444,-1.98955][0.433071,-0.417323,0.795276][0.548544,0.084572,0][1.28942,-0.868444,-1.61938][0.0944882,-0.417323,0.905512][0.497605,0.084572,0][1.28942,-0.868444,-1.61938][0.0944882,-0.417323,0.905512][0.497605,0.084572,0][1.57547,-0.68753,-1.28941][-0.0629921,1,-0.023622][0.484839,0.06727,0][1.27145,-0.687534,-1.59004][-0.551181,-0.15748,0.818898][0.50647,0.06727,0][-1.61938,-0.868444,-1.28942][0.889764,-0.448819,-0.0944882][0.017766,0.655244,0][-1.28941,-0.68753,-1.57547][-0.023622,1,0.0629921][0.005,0.637943,0][-1.59004,-0.687534,-1.27145][0.818898,-0.15748,0.551181][0.026632,0.637943,0][1.28942,-0.868444,-1.61938][0.0944882,-0.417323,0.905512][0.497605,0.084572,0][1.27145,-0.687534,-1.59004][-0.551181,-0.15748,0.818898][0.50647,0.06727,0][0.962114,-0.68753,-1.79417][-0.0708661,1,0][0.531888,0.06727,0][0.962114,-0.68753,-1.79417][-0.0708661,1,0][0.531888,0.06727,0][1.27145,-0.687534,-1.59004][-0.551181,-0.15748,0.818898][0.50647,0.06727,0][1.15582,0.125592,-1.75201][-0.307087,0.409449,0.858268][0.515464,0.005,0][-1.00268,-0.868444,-1.81098][0.874016,-0.417323,0.259843][0.667147,0.084572,0][-0.982436,-0.687534,-1.78315][0.551181,-0.15748,0.818898][0.678696,0.06727,0][-1.28941,-0.68753,-1.57547][-0.023622,1,0.0629921][0.70404,0.06727,0][-1.28941,-0.68753,-1.57547][-0.023622,1,0.0629921][0.70404,0.06727,0][-0.982436,-0.687534,-1.78315][0.551181,-0.15748,0.818898][0.678696,0.06727,0][-1.17633,0.125592,-1.73831][0.677165,0.409449,0.614173][0.694861,0.005,0][-1.28941,-0.68753,-1.57547][-0.023622,1,0.0629921][0.70404,0.06727,0][-1.61938,-0.868444,-1.28942][0.889764,-0.448819,-0.0944882][0.70404,0.084572,0][-1.00268,-0.868444,-1.81098][0.874016,-0.417323,0.259843][0.667147,0.084572,0][1.57547,-0.68753,-1.28941][-0.0629921,1,-0.023622][0.224201,0.547109,0][1.28942,-0.868444,-1.61938][0.0944882,-0.417323,0.905512][0.224201,0.56441,0][1.81098,-0.868444,-1.00268][-0.259843,-0.417323,0.874016][0.187309,0.56441,0][1.81098,-0.868444,-1.00268][-0.259843,-0.417323,0.874016][0.187309,0.56441,0][1.78315,-0.687534,-0.982438][-0.818898,-0.15748,0.551181][0.198857,0.547109,0][1.57547,-0.68753,-1.28941][-0.0629921,1,-0.023622][0.224201,0.547109,0][1.57547,-0.68753,-1.28941][-0.0629921,1,-0.023622][0.224201,0.547109,0][1.78315,-0.687534,-0.982438][-0.818898,-0.15748,0.551181][0.198857,0.547109,0][1.73831,0.125592,-1.17633][-0.614173,0.409449,0.677165][0.215023,0.484839,0][1.81098,-0.868444,-1.00268][-0.259843,-0.417323,0.874016][0.187309,0.56441,0][1.94898,-0.68753,-0.588348][-0.0551181,1,-0.0472441][0.170681,0.547109,0][1.78315,-0.687534,-0.982438][-0.818898,-0.15748,0.551181][0.198857,0.547109,0][-1.98955,-0.868444,-0.571558][0.787402,-0.401575,-0.464567][0.068706,0.655244,0][-1.79417,-0.68753,-0.962114][-0.0472441,0.992126,0.0944882][0.05205,0.637943,0][-1.95556,-0.687534,-0.566192][0.968504,-0.15748,0.188976][0.080277,0.637943,0][-1.61938,-0.868444,-1.28942][0.889764,-0.448819,-0.0944882][0.017766,0.655244,0][-1.59004,-0.687534,-1.27145][0.818898,-0.15748,0.551181][0.026632,0.637943,0][-1.79417,-0.68753,-0.962114][-0.0472441,0.992126,0.0944882][0.05205,0.637943,0][-1.79417,-0.68753,-0.962114][-0.0472441,0.992126,0.0944882][0.05205,0.637943,0][-1.59004,-0.687534,-1.27145][0.818898,-0.15748,0.551181][0.026632,0.637943,0][-1.75201,0.125592,-1.15582][0.858268,0.409449,0.299213][0.035626,0.575673,0][-1.79417,-0.68753,-0.962114][-0.0472441,0.992126,0.0944882][0.05205,0.637943,0][-1.98955,-0.868444,-0.571558][0.787402,-0.401575,-0.464567][0.068706,0.655244,0][-1.61938,-0.868444,-1.28942][0.889764,-0.448819,-0.0944882][0.017766,0.655244,0][1.94898,-0.68753,-0.588348][-0.0551181,1,-0.0472441][0.170681,0.547109,0][1.81098,-0.868444,-1.00268][-0.259843,-0.417323,0.874016][0.187309,0.56441,0][2.05684,-0.868444,-0.233318][-0.566929,-0.417323,0.708661][0.128243,0.56441,0][2.05684,-0.868444,-0.233318][-0.566929,-0.417323,0.708661][0.128243,0.56441,0][2.02338,-0.687534,-0.225268][-0.968504,-0.15748,0.19685][0.140755,0.547109,0][1.94898,-0.68753,-0.588348][-0.0551181,1,-0.0472441][0.170681,0.547109,0][1.94898,-0.68753,-0.588348][-0.0551181,1,-0.0472441][0.170681,0.547109,0][2.02338,-0.687534,-0.225268][-0.968504,-0.15748,0.19685][0.140755,0.547109,0][2.05614,0.125592,-0.421566][-0.826772,0.409449,0.393701][0.156852,0.484839,0][2.05684,-0.868444,-0.233318][-0.566929,-0.417323,0.708661][0.128243,0.56441,0][2.02578,-0.68753,0.20228][-0.0314961,1,-0.0629921][0.110229,0.547109,0][2.02338,-0.687534,-0.225268][-0.968504,-0.15748,0.19685][0.140755,0.547109,0][-1.98955,-0.868444,-0.571558][0.787402,-0.401575,-0.464567][0.068706,0.655244,0][-1.95556,-0.687534,-0.566192][0.968504,-0.15748,0.188976][0.080277,0.637943,0][-2.02578,-0.68753,-0.20228][0.0314961,1,0.0629921][0.110229,0.637943,0][-2.02578,-0.68753,-0.20228][0.0314961,1,0.0629921][0.110229,0.637943,0][-1.95556,-0.687534,-0.566192][0.968504,-0.15748,0.188976][0.080277,0.637943,0][-2.06096,0.125592,-0.397376][0.913386,0.409449,-0.0472441][0.093857,0.575673,0][-2.05684,-0.868444,0.23332][0.566929,-0.417323,-0.708661][0.128243,0.655244,0][-2.02578,-0.68753,-0.20228][0.0314961,1,0.0629921][0.110229,0.637943,0][-2.02338,-0.687534,0.22527][0.968504,-0.15748,-0.19685][0.140755,0.637943,0][-2.02578,-0.68753,-0.20228][0.0314961,1,0.0629921][0.110229,0.637943,0][-2.05684,-0.868444,0.23332][0.566929,-0.417323,-0.708661][0.128243,0.655244,0][-1.98955,-0.868444,-0.571558][0.787402,-0.401575,-0.464567][0.068706,0.655244,0][2.02578,-0.68753,0.20228][-0.0314961,1,-0.0629921][0.110229,0.547109,0][2.05684,-0.868444,-0.233318][-0.566929,-0.417323,0.708661][0.128243,0.56441,0][1.98955,-0.868444,0.57156][-0.787402,-0.401575,0.464567][0.068706,0.56441,0][1.98955,-0.868444,0.57156][-0.787402,-0.401575,0.464567][0.068706,0.56441,0][1.95556,-0.687534,0.566192][-0.968504,-0.15748,-0.188976][0.080277,0.547109,0][2.02578,-0.68753,0.20228][-0.0314961,1,-0.0629921][0.110229,0.547109,0][2.02578,-0.68753,0.20228][-0.0314961,1,-0.0629921][0.110229,0.547109,0][1.95556,-0.687534,0.566192][-0.968504,-0.15748,-0.188976][0.080277,0.547109,0][2.06096,0.125592,0.397378][-0.913386,0.409449,0.0472441][0.093857,0.484839,0][1.98955,-0.868444,0.57156][-0.787402,-0.401575,0.464567][0.068706,0.56441,0][1.79417,-0.68753,0.962116][0.0472441,0.992126,-0.0944882][0.05205,0.547109,0][1.95556,-0.687534,0.566192][-0.968504,-0.15748,-0.188976][0.080277,0.547109,0][-1.81098,-0.868444,1.00268][0.259843,-0.417323,-0.874016][0.187309,0.655244,0][-1.94898,-0.68753,0.588348][0.0551181,1,0.0472441][0.170681,0.637943,0][-1.78315,-0.687534,0.982434][0.818898,-0.15748,-0.551181][0.198857,0.637943,0][-2.05684,-0.868444,0.23332][0.566929,-0.417323,-0.708661][0.128243,0.655244,0][-2.02338,-0.687534,0.22527][0.968504,-0.15748,-0.19685][0.140755,0.637943,0][-1.94898,-0.68753,0.588348][0.0551181,1,0.0472441][0.170681,0.637943,0][-1.94898,-0.68753,0.588348][0.0551181,1,0.0472441][0.170681,0.637943,0][-2.02338,-0.687534,0.22527][0.968504,-0.15748,-0.19685][0.140755,0.637943,0][-2.05616,0.125592,0.421568][0.826772,0.409449,-0.393701][0.156852,0.575673,0][-1.94898,-0.68753,0.588348][0.0551181,1,0.0472441][0.170681,0.637943,0][-1.81098,-0.868444,1.00268][0.259843,-0.417323,-0.874016][0.187309,0.655244,0][-2.05684,-0.868444,0.23332][0.566929,-0.417323,-0.708661][0.128243,0.655244,0][1.79417,-0.68753,0.962116][0.0472441,0.992126,-0.0944882][0.05205,0.547109,0][1.98955,-0.868444,0.57156][-0.787402,-0.401575,0.464567][0.068706,0.56441,0][1.61938,-0.868444,1.28942][-0.889764,-0.448819,0.0944882][0.017766,0.56441,0][1.61938,-0.868444,1.28942][-0.889764,-0.448819,0.0944882][0.017766,0.56441,0][1.28941,-0.68753,1.57547][0.023622,1,-0.0629921][0.005,0.547109,0][1.59004,-0.687534,1.27145][-0.818898,-0.15748,-0.551181][0.026632,0.547109,0][-1.28942,-0.868444,1.61938][-0.0944882,-0.448819,-0.889764][0.24823,0.56441,0][-1.57548,-0.68753,1.28941][0.0629921,1,0.023622][0.235464,0.547109,0][-1.27145,-0.687534,1.59004][0.551181,-0.15748,-0.818898][0.257096,0.547109,0][1.61938,-0.868444,1.28942][-0.889764,-0.448819,0.0944882][0.017766,0.56441,0][1.59004,-0.687534,1.27145][-0.818898,-0.15748,-0.551181][0.026632,0.547109,0][1.79417,-0.68753,0.962116][0.0472441,0.992126,-0.0944882][0.05205,0.547109,0][1.79417,-0.68753,0.962116][0.0472441,0.992126,-0.0944882][0.05205,0.547109,0][1.59004,-0.687534,1.27145][-0.818898,-0.15748,-0.551181][0.026632,0.547109,0][1.75201,0.125592,1.15582][-0.858268,0.409449,-0.299213][0.035626,0.484839,0][-1.81098,-0.868444,1.00268][0.259843,-0.417323,-0.874016][0.187309,0.655244,0][-1.78315,-0.687534,0.982434][0.818898,-0.15748,-0.551181][0.198857,0.637943,0][-1.57548,-0.68753,1.28941][0.0629921,1,0.023622][0.224201,0.637943,0][-1.57548,-0.68753,1.28941][0.0629921,1,0.023622][0.224201,0.637943,0][-1.78315,-0.687534,0.982434][0.818898,-0.15748,-0.551181][0.198857,0.637943,0][-1.73831,0.125592,1.17633][0.614173,0.409449,-0.677165][0.215023,0.575673,0][1.00268,-0.868444,1.81098][0.425197,-0.543307,-0.724409][0.417773,0.56441,0][0.982436,-0.687534,1.78315][0.015748,1,-0.0472441][0.429321,0.547109,0][1.28941,-0.68753,1.57547][0.023622,1,-0.0629921][0.454665,0.547109,0][-1.57548,-0.68753,1.28941][0.0629921,1,0.023622][0.224201,0.637943,0][-1.28942,-0.868444,1.61938][-0.0944882,-0.448819,-0.889764][0.224201,0.655244,0][-1.81098,-0.868444,1.00268][0.259843,-0.417323,-0.874016][0.187309,0.655244,0][1.00268,-0.868444,1.81098][0.425197,-0.543307,-0.724409][0.417773,0.56441,0][0.588348,-0.68753,1.94898][0.0472441,1,-0.0551181][0.401145,0.547109,0][0.982436,-0.687534,1.78315][0.015748,1,-0.0472441][0.429321,0.547109,0][-0.571558,-0.868444,1.98955][-0.464567,-0.401575,-0.787402][0.29917,0.56441,0][-0.962116,-0.68753,1.79417][0.0944882,0.992126,0.0472441][0.282514,0.547109,0][-0.566194,-0.687534,1.95556][0.188976,-0.15748,-0.968504][0.310741,0.547109,0][1.28941,-0.68753,1.57547][0.023622,1,-0.0629921][0.454665,0.547109,0][1.61938,-0.868444,1.28942][-0.889764,-0.448819,0.0944882][0.454665,0.56441,0][1.00268,-0.868444,1.81098][0.425197,-0.543307,-0.724409][0.417773,0.56441,0][1.28941,-0.68753,1.57547][0.023622,1,-0.0629921][0.454665,0.547109,0][0.982436,-0.687534,1.78315][0.015748,1,-0.0472441][0.429321,0.547109,0][1.17633,0.125592,1.7383][0.622047,0.440945,0.645669][0.445487,0.484839,0][0.233318,-0.868444,2.05684][-0.708661,-0.417323,-0.566929][0.358707,0.56441,0][-0.202282,-0.68753,2.02578][0.0629921,1,-0.0314961][0.340693,0.547109,0][0.225268,-0.687534,2.02338][-0.19685,-0.15748,-0.968504][0.371219,0.547109,0][-1.28942,-0.868444,1.61938][-0.0944882,-0.448819,-0.889764][0.24823,0.56441,0][-1.27145,-0.687534,1.59004][0.551181,-0.15748,-0.818898][0.257096,0.547109,0][-0.962116,-0.68753,1.79417][0.0944882,0.992126,0.0472441][0.282514,0.547109,0][-0.962116,-0.68753,1.79417][0.0944882,0.992126,0.0472441][0.282514,0.547109,0][-1.27145,-0.687534,1.59004][0.551181,-0.15748,-0.818898][0.257096,0.547109,0][-1.15582,0.125592,1.75201][0.299213,0.409449,-0.858268][0.26609,0.484839,0][-0.962116,-0.68753,1.79417][0.0944882,0.992126,0.0472441][0.282514,0.547109,0][-0.571558,-0.868444,1.98955][-0.464567,-0.401575,-0.787402][0.29917,0.56441,0][-1.28942,-0.868444,1.61938][-0.0944882,-0.448819,-0.889764][0.24823,0.56441,0][0.588348,-0.68753,1.94898][0.0472441,1,-0.0551181][0.401145,0.547109,0][1.00268,-0.868444,1.81098][0.425197,-0.543307,-0.724409][0.417773,0.56441,0][0.233318,-0.868444,2.05684][-0.708661,-0.417323,-0.566929][0.358707,0.56441,0][0.233318,-0.868444,2.05684][-0.708661,-0.417323,-0.566929][0.358707,0.56441,0][0.225268,-0.687534,2.02338][-0.19685,-0.15748,-0.968504][0.371219,0.547109,0][0.588348,-0.68753,1.94898][0.0472441,1,-0.0551181][0.401145,0.547109,0][0.588348,-0.68753,1.94898][0.0472441,1,-0.0551181][0.401145,0.547109,0][0.225268,-0.687534,2.02338][-0.19685,-0.15748,-0.968504][0.371219,0.547109,0][0.421566,0.125592,2.05616][-0.393701,0.409449,-0.826772][0.387316,0.484839,0][-0.202282,-0.68753,2.02578][0.0629921,1,-0.0314961][0.340693,0.547109,0][0.233318,-0.868444,2.05684][-0.708661,-0.417323,-0.566929][0.358707,0.56441,0][-0.571558,-0.868444,1.98955][-0.464567,-0.401575,-0.787402][0.29917,0.56441,0][-0.571558,-0.868444,1.98955][-0.464567,-0.401575,-0.787402][0.29917,0.56441,0][-0.566194,-0.687534,1.95556][0.188976,-0.15748,-0.968504][0.310741,0.547109,0][-0.202282,-0.68753,2.02578][0.0629921,1,-0.0314961][0.340693,0.547109,0][-0.202282,-0.68753,2.02578][0.0629921,1,-0.0314961][0.340693,0.547109,0][-0.566194,-0.687534,1.95556][0.188976,-0.15748,-0.968504][0.310741,0.547109,0][-0.397378,0.125592,2.06096][-0.0472441,0.409449,-0.913386][0.32432,0.484839,0]