version 1.00
456
[-1.6907,11.2026,-1.57766][-0.015748,0.968504,0.244094][0.488517,0.576075,0][-0.810724,11.2026,-1.5131][-0.015748,0.976378,0.228346][0.490995,0.679218,0][-1.23095,11.2026,-1.63923][0,1,0][0.477004,0.62938,0][0.0823014,11.2026,-1.5704][0,1,0][0.477004,0.783139,0][-1.23095,11.2026,-1.63923][0,1,0][0.477004,0.62938,0][-0.810724,11.2026,-1.5131][-0.015748,0.976378,0.228346][0.490995,0.679218,0][-0.810724,11.2026,-1.5131][-0.015748,0.976378,0.228346][0.490995,0.679218,0][0.0764048,11.2026,-1.45789][-0.015748,0.976378,0.228346][0.492166,0.783139,0][0.0823014,11.2026,-1.5704][0,1,0][0.477004,0.783139,0][0.0823014,11.2026,-1.5704][0,1,0][0.477004,0.783139,0][0.0764048,11.2026,-1.45789][-0.015748,0.976378,0.228346][0.492166,0.783139,0][0.964444,11.2026,-1.42007][-0.00787402,0.976378,0.228346][0.490995,0.887061,0][0.964444,11.2026,-1.42007][-0.00787402,0.976378,0.228346][0.490995,0.887061,0][1.39556,11.2026,-1.50158][0,1,0][0.477004,0.936899,0][0.0823014,11.2026,-1.5704][0,1,0][0.477004,0.783139,0][1.84635,11.2026,-1.39229][-0.00787402,0.968504,0.244094][0.488517,0.990204,0][1.39556,11.2026,-1.50158][0,1,0][0.477004,0.936899,0][0.964444,11.2026,-1.42007][-0.00787402,0.976378,0.228346][0.490995,0.887061,0][-1.17392,10.2688,1.54465][-0.0551181,0,1][0.311662,0.074795,0][-1.17356,8.16844,1.54467][-0.0551181,0,1][0.312098,0.266779,0][-0.389076,8.16844,1.58578][-0.0551181,0,1][0.240294,0.266954,0][-0.389076,8.16844,1.58578][-0.0551181,0,1][0.240294,0.266954,0][-0.389076,10.2688,1.58578][-0.0551181,0,1][0.239825,0.07497,0][-1.17392,10.2688,1.54465][-0.0551181,0,1][0.311662,0.074795,0][-0.271016,9.2742,1.59197][-0.0551181,0,1][0.229241,0.165907,0][-0.389076,10.2688,1.58578][-0.0551181,0,1][0.239825,0.07497,0][-0.389076,8.16844,1.58578][-0.0551181,0,1][0.240294,0.266954,0][-0.389076,8.16844,1.58578][-0.0551181,0,1][0.240294,0.266954,0][-0.271016,8.24788,1.59197][-0.0551181,0,1][0.22947,0.25972,0][-0.271016,9.2742,1.59197][-0.0551181,0,1][0.229241,0.165907,0][-0.389076,10.2688,1.58578][-0.0551181,0,1][0.239825,0.07497,0][-0.271016,9.2742,1.59197][-0.0551181,0,1][0.229241,0.165907,0][0.887926,9.2742,1.65271][-0.0551181,0,1][0.123161,0.166166,0][-0.271016,8.24788,1.59197][-0.0551181,0,1][0.22947,0.25972,0][-0.389076,8.16844,1.58578][-0.0551181,0,1][0.240294,0.266954,0][1.00566,8.16844,1.65888][-0.0551181,0,1][0.112631,0.267266,0][0.887926,9.2742,1.65271][-0.0551181,0,1][0.123161,0.166166,0][1.00603,10.2688,1.6589][-0.0551181,0,1][0.112129,0.075282,0][-0.389076,10.2688,1.58578][-0.0551181,0,1][0.239825,0.07497,0][1.00566,8.16844,1.65888][-0.0551181,0,1][0.112631,0.267266,0][1.00603,10.2688,1.6589][-0.0551181,0,1][0.112129,0.075282,0][0.887926,9.2742,1.65271][-0.0551181,0,1][0.123161,0.166166,0][1.00566,8.16844,1.65888][-0.0551181,0,1][0.112631,0.267266,0][0.887644,8.24788,1.65269][-0.0551181,0,1][0.123416,0.259979,0][-0.271016,8.24788,1.59197][-0.0551181,0,1][0.22947,0.25972,0][0.887926,9.2742,1.65271][-0.0551181,0,1][0.123161,0.166166,0][0.887644,8.24788,1.65269][-0.0551181,0,1][0.123416,0.259979,0][1.00566,8.16844,1.65888][-0.0551181,0,1][0.112631,0.267266,0][0.087978,8.88206,1.52206][-0.0551181,0,1][0.577897,0.269499,0][0.163133,8.88206,1.526][-0.0551181,0,1][0.561952,0.269499,0][0.125556,8.94724,1.52403][-0.0551181,0,1][0.569925,0.255053,0][0.163133,9.0124,1.526][-0.0551181,0,1][0.561952,0.241882,0][0.087978,9.0124,1.52206][-0.0551181,0,1][0.577897,0.241882,0][0.125556,8.94724,1.52403][-0.0551181,0,1][0.569925,0.255053,0][0.163133,8.88206,1.526][-0.0551181,0,1][0.561952,0.269499,0][0.20071,8.94724,1.52797][-0.0551181,0,1][0.55398,0.255691,0][0.125556,8.94724,1.52403][-0.0551181,0,1][0.569925,0.255053,0][0.20071,8.94724,1.52797][-0.0551181,0,1][0.55398,0.255691,0][0.163133,9.0124,1.526][-0.0551181,0,1][0.561952,0.241882,0][0.125556,8.94724,1.52403][-0.0551181,0,1][0.569925,0.255053,0][0.087978,9.0124,1.52206][-0.0551181,0,1][0.577897,0.241882,0][0.0504016,8.94724,1.52009][-0.0551181,0,1][0.585869,0.255691,0][0.125556,8.94724,1.52403][-0.0551181,0,1][0.569925,0.255053,0][0.0504016,8.94724,1.52009][-0.0551181,0,1][0.585869,0.255691,0][0.087978,8.88206,1.52206][-0.0551181,0,1][0.577897,0.269499,0][0.125556,8.94724,1.52403][-0.0551181,0,1][0.569925,0.255053,0][0.445332,8.88206,1.54079][-0.0551181,0,1][0.577897,0.269499,0][0.520486,8.88206,1.54473][-0.0551181,0,1][0.561952,0.269499,0][0.482908,8.94724,1.54276][-0.0551181,0,1][0.569925,0.255053,0][0.520486,9.0124,1.54473][-0.0551181,0,1][0.561952,0.241882,0][0.445332,9.0124,1.54079][-0.0551181,0,1][0.577897,0.241882,0][0.482908,8.94724,1.54276][-0.0551181,0,1][0.569925,0.255053,0][0.520486,8.88206,1.54473][-0.0551181,0,1][0.561952,0.269499,0][0.558064,8.94724,1.5467][-0.0551181,0,1][0.55398,0.255691,0][0.482908,8.94724,1.54276][-0.0551181,0,1][0.569925,0.255053,0][0.558064,8.94724,1.5467][-0.0551181,0,1][0.55398,0.255691,0][0.520486,9.0124,1.54473][-0.0551181,0,1][0.561952,0.241882,0][0.482908,8.94724,1.54276][-0.0551181,0,1][0.569925,0.255053,0][0.445332,9.0124,1.54079][-0.0551181,0,1][0.577897,0.241882,0][0.407756,8.94724,1.53882][-0.0551181,0,1][0.585869,0.255691,0][0.482908,8.94724,1.54276][-0.0551181,0,1][0.569925,0.255053,0][0.407756,8.94724,1.53882][-0.0551181,0,1][0.585869,0.255691,0][0.445332,8.88206,1.54079][-0.0551181,0,1][0.577897,0.269499,0][0.482908,8.94724,1.54276][-0.0551181,0,1][0.569925,0.255053,0][0.087978,8.34626,1.52206][-0.0551181,0,1][0.577897,0.269499,0][0.163133,8.34626,1.526][-0.0551181,0,1][0.561952,0.269499,0][0.125556,8.41142,1.52403][-0.0551181,0,1][0.569925,0.255053,0][0.163133,8.4766,1.526][-0.0551181,0,1][0.561952,0.241882,0][0.087978,8.4766,1.52206][-0.0551181,0,1][0.577897,0.241882,0][0.125556,8.41142,1.52403][-0.0551181,0,1][0.569925,0.255053,0][0.163133,8.34626,1.526][-0.0551181,0,1][0.561952,0.269499,0][0.20071,8.41142,1.52797][-0.0551181,0,1][0.55398,0.255691,0][0.125556,8.41142,1.52403][-0.0551181,0,1][0.569925,0.255053,0][0.20071,8.41142,1.52797][-0.0551181,0,1][0.55398,0.255691,0][0.163133,8.4766,1.526][-0.0551181,0,1][0.561952,0.241882,0][0.125556,8.41142,1.52403][-0.0551181,0,1][0.569925,0.255053,0][0.087978,8.4766,1.52206][-0.0551181,0,1][0.577897,0.241882,0][0.0504016,8.41142,1.52009][-0.0551181,0,1][0.585869,0.255691,0][0.125556,8.41142,1.52403][-0.0551181,0,1][0.569925,0.255053,0][0.0504016,8.41142,1.52009][-0.0551181,0,1][0.585869,0.255691,0][0.087978,8.34626,1.52206][-0.0551181,0,1][0.577897,0.269499,0][0.125556,8.41142,1.52403][-0.0551181,0,1][0.569925,0.255053,0][0.445332,8.34626,1.54079][-0.0551181,0,1][0.577897,0.269499,0][0.520486,8.34626,1.54473][-0.0551181,0,1][0.561952,0.269499,0][0.482908,8.41142,1.54276][-0.0551181,0,1][0.569925,0.255053,0][0.520486,8.4766,1.54473][-0.0551181,0,1][0.561952,0.241882,0][0.445332,8.4766,1.54079][-0.0551181,0,1][0.577897,0.241882,0][0.482908,8.41142,1.54276][-0.0551181,0,1][0.569925,0.255053,0][0.520486,8.34626,1.54473][-0.0551181,0,1][0.561952,0.269499,0][0.558064,8.41142,1.5467][-0.0551181,0,1][0.55398,0.255691,0][0.482908,8.41142,1.54276][-0.0551181,0,1][0.569925,0.255053,0][0.558064,8.41142,1.5467][-0.0551181,0,1][0.55398,0.255691,0][0.520486,8.4766,1.54473][-0.0551181,0,1][0.561952,0.241882,0][0.482908,8.41142,1.54276][-0.0551181,0,1][0.569925,0.255053,0][0.445332,8.4766,1.54079][-0.0551181,0,1][0.577897,0.241882,0][0.407756,8.41142,1.53882][-0.0551181,0,1][0.585869,0.255691,0][0.482908,8.41142,1.54276][-0.0551181,0,1][0.569925,0.255053,0][0.407756,8.41142,1.53882][-0.0551181,0,1][0.585869,0.255691,0][0.445332,8.34626,1.54079][-0.0551181,0,1][0.577897,0.269499,0][0.482908,8.41142,1.54276][-0.0551181,0,1][0.569925,0.255053,0][0.087978,8.6142,1.52206][-0.0551181,0,1][0.577897,0.269499,0][0.163133,8.6142,1.526][-0.0551181,0,1][0.561952,0.269499,0][0.125556,8.67936,1.52403][-0.0551181,0,1][0.569925,0.255053,0][0.163133,8.74454,1.526][-0.0551181,0,1][0.561952,0.241882,0][0.087978,8.74454,1.52206][-0.0551181,0,1][0.577897,0.241882,0][0.125556,8.67936,1.52403][-0.0551181,0,1][0.569925,0.255053,0][0.163133,8.6142,1.526][-0.0551181,0,1][0.561952,0.269499,0][0.20071,8.67936,1.52797][-0.0551181,0,1][0.55398,0.255691,0][0.125556,8.67936,1.52403][-0.0551181,0,1][0.569925,0.255053,0][0.20071,8.67936,1.52797][-0.0551181,0,1][0.55398,0.255691,0][0.163133,8.74454,1.526][-0.0551181,0,1][0.561952,0.241882,0][0.125556,8.67936,1.52403][-0.0551181,0,1][0.569925,0.255053,0][0.087978,8.74454,1.52206][-0.0551181,0,1][0.577897,0.241882,0][0.0504016,8.67936,1.52009][-0.0551181,0,1][0.585869,0.255691,0][0.125556,8.67936,1.52403][-0.0551181,0,1][0.569925,0.255053,0][0.0504016,8.67936,1.52009][-0.0551181,0,1][0.585869,0.255691,0][0.087978,8.6142,1.52206][-0.0551181,0,1][0.577897,0.269499,0][0.125556,8.67936,1.52403][-0.0551181,0,1][0.569925,0.255053,0][0.445332,8.6142,1.54079][-0.0551181,0,1][0.577897,0.269499,0][0.520486,8.6142,1.54473][-0.0551181,0,1][0.561952,0.269499,0][0.482908,8.67936,1.54276][-0.0551181,0,1][0.569925,0.255053,0][0.520486,8.74454,1.54473][-0.0551181,0,1][0.561952,0.241882,0][0.445332,8.74454,1.54079][-0.0551181,0,1][0.577897,0.241882,0][0.482908,8.67936,1.54276][-0.0551181,0,1][0.569925,0.255053,0][0.520486,8.6142,1.54473][-0.0551181,0,1][0.561952,0.269499,0][0.558064,8.67936,1.5467][-0.0551181,0,1][0.55398,0.255691,0][0.482908,8.67936,1.54276][-0.0551181,0,1][0.569925,0.255053,0][0.558064,8.67936,1.5467][-0.0551181,0,1][0.55398,0.255691,0][0.520486,8.74454,1.54473][-0.0551181,0,1][0.561952,0.241882,0][0.482908,8.67936,1.54276][-0.0551181,0,1][0.569925,0.255053,0][0.445332,8.74454,1.54079][-0.0551181,0,1][0.577897,0.241882,0][0.407756,8.67936,1.53882][-0.0551181,0,1][0.585869,0.255691,0][0.482908,8.67936,1.54276][-0.0551181,0,1][0.569925,0.255053,0][0.407756,8.67936,1.53882][-0.0551181,0,1][0.585869,0.255691,0][0.445332,8.6142,1.54079][-0.0551181,0,1][0.577897,0.269499,0][0.482908,8.67936,1.54276][-0.0551181,0,1][0.569925,0.255053,0][1.79789,10.968,-0.467582][1,0,0.0551181][0.846361,0.235471,0][1.69117,10.5814,-0.0630656][0.952756,0.0551181,0.307087][0.783475,0.283231,0][1.79095,10.3873,-0.335284][1,0.00787402,0.0866142][0.830298,0.306394,0][1.79789,8.16844,-0.467582][1,0,0.0551181][0.849985,0.561324,0][1.79789,10.968,-0.467582][1,0,0.0551181][0.846361,0.235471,0][1.79095,10.3873,-0.335284][1,0.00787402,0.0866142][0.830298,0.306394,0][1.79095,10.3873,-0.335284][1,0.00787402,0.0866142][0.830298,0.306394,0][1.79237,8.41854,-0.362348][1,-0.00787402,0.0629921][0.83624,0.530795,0][1.79789,8.16844,-0.467582][1,0,0.0551181][0.849985,0.561324,0][1.84635,8.50894,-1.39229][1,0,0.0551181][0.972615,0.521237,0][1.84635,11.2026,-1.39229][1,0,0.0551181][0.969622,0.208108,0][1.79789,10.968,-0.467582][1,0,0.0551181][0.846361,0.235471,0][1.79789,10.968,-0.467582][1,0,0.0551181][0.846361,0.235471,0][1.79789,8.16844,-0.467582][1,0,0.0551181][0.849985,0.561324,0][1.84635,8.50894,-1.39229][1,0,0.0551181][0.972615,0.521237,0][1.84493,8.16844,-1.3652][1,0,0.0551181][0.969205,0.560686,0][1.84635,8.50894,-1.39229][1,0,0.0551181][0.972615,0.521237,0][1.79789,8.16844,-0.467582][1,0,0.0551181][0.849985,0.561324,0][-0.260404,8.24788,1.38946][-0.0551181,0,1][0.969115,0.634906,0][0.898256,8.24788,1.45018][-0.0551181,0,1][0.903046,0.635174,0][0.89854,9.2742,1.45019][-0.0551181,0,1][0.902792,0.57673,0][0.89854,9.2742,1.45019][-0.0551181,0,1][0.902792,0.57673,0][-0.260404,9.2742,1.38946][-0.0551181,0,1][0.968878,0.576462,0][-0.260404,8.24788,1.38946][-0.0551181,0,1][0.969115,0.634906,0][0.781196,8.16844,1.42916][-0.0551181,0,1][0.760961,0.108927,0][-0.926304,8.16844,1.33968][-0.0551181,0,1][0.760962,0.198743,0][-0.926304,8.01716,1.33968][-0.0551181,0,1][0.751816,0.198753,0][-0.926304,8.01716,1.33968][-0.0551181,0,1][0.751816,0.198753,0][0.781196,8.01716,1.42916][-0.0551181,0,1][0.751815,0.108918,0][0.781196,8.16844,1.42916][-0.0551181,0,1][0.760961,0.108927,0][1.69296,8.41854,-0.367558][1,0.00787402,-0.0314961][0.823604,0.530086,0][1.69155,10.3873,-0.340494][1,0.00787402,-0.0314961][0.818432,0.309894,0][1.69117,10.5814,-0.0630656][0.944882,-0.015748,0.330709][0.783475,0.283231,0][1.70361,8.16844,-0.300572][0.937008,-0.015748,0.346457][0.815668,0.56044,0][1.69117,10.5814,-0.0630656][0.944882,-0.015748,0.330709][0.783475,0.283231,0][1.00603,10.2688,1.6589][0.937008,-0.015748,0.354331][0.536925,0.32075,0][1.79237,8.41854,-0.362348][1,-0.00787402,0.0629921][0.83624,0.530795,0][1.70361,8.16844,-0.300572][0.858268,-0.181102,0.480315][0.815668,0.56044,0][1.79789,8.16844,-0.467582][1,0,0.0551181][0.849985,0.561324,0][1.00603,10.2688,1.6589][0.937008,-0.015748,0.354331][0.536925,0.32075,0][1.00566,8.16844,1.65888][0.937008,-0.015748,0.354331][0.516975,0.559183,0][1.70361,8.16844,-0.300572][0.937008,-0.015748,0.346457][0.815668,0.56044,0][1.69117,10.5814,-0.0630656][0.944882,-0.015748,0.330709][0.783475,0.283231,0][1.70361,8.16844,-0.300572][0.937008,-0.015748,0.346457][0.815668,0.56044,0][1.69296,8.41854,-0.367558][1,0.00787402,-0.0314961][0.823604,0.530086,0][-1.6907,11.2026,-1.57766][-0.015748,0.968504,0.244094][0.488517,0.576075,0][-1.73916,10.968,-0.652952][-0.023622,0.874016,0.488189][0.613132,0.576075,0][-0.810724,11.2026,-1.5131][-0.015748,0.976378,0.228346][0.490995,0.679218,0][-0.810724,11.2026,-1.5131][-0.015748,0.976378,0.228346][0.490995,0.679218,0][-1.73916,10.968,-0.652952][-0.023622,0.874016,0.488189][0.613132,0.576075,0][0.0293624,10.968,-0.560268][-0.023622,0.889764,0.456693][0.613132,0.783139,0][0.0293624,10.968,-0.560268][-0.023622,0.889764,0.456693][0.613132,0.783139,0][1.79789,10.968,-0.467582][-0.023622,0.874016,0.488189][0.613132,0.990204,0][0.964444,11.2026,-1.42007][-0.00787402,0.976378,0.228346][0.490995,0.887061,0][1.79789,10.968,-0.467582][-0.023622,0.874016,0.488189][0.613132,0.990204,0][1.84635,11.2026,-1.39229][-0.00787402,0.968504,0.244094][0.488517,0.990204,0][0.964444,11.2026,-1.42007][-0.00787402,0.976378,0.228346][0.490995,0.887061,0][0.964444,11.2026,-1.42007][-0.00787402,0.976378,0.228346][0.490995,0.887061,0][0.0764048,11.2026,-1.45789][-0.015748,0.976378,0.228346][0.492166,0.783139,0][0.0293624,10.968,-0.560268][-0.023622,0.889764,0.456693][0.613132,0.783139,0][0.0293624,10.968,-0.560268][-0.023622,0.889764,0.456693][0.613132,0.783139,0][0.0764048,11.2026,-1.45789][-0.015748,0.976378,0.228346][0.492166,0.783139,0][-0.810724,11.2026,-1.5131][-0.015748,0.976378,0.228346][0.490995,0.679218,0][0.0293624,10.968,-0.560268][-0.023622,0.889764,0.456693][0.613132,0.783139,0][-1.73916,10.968,-0.652952][-0.023622,0.874016,0.488189][0.613132,0.576075,0][-1.6753,10.5814,-0.239494][-0.023622,0.929134,0.370079][0.668248,0.586061,0][-1.6753,10.5814,-0.239494][-0.023622,0.929134,0.370079][0.668248,0.586061,0][0.00792828,10.5814,-0.15128][-0.015748,0.944882,0.330709][0.668248,0.783139,0][0.0293624,10.968,-0.560268][-0.023622,0.889764,0.456693][0.613132,0.783139,0][0.0293624,10.968,-0.560268][-0.023622,0.889764,0.456693][0.613132,0.783139,0][0.00792828,10.5814,-0.15128][-0.015748,0.944882,0.330709][0.668248,0.783139,0][1.69117,10.5814,-0.0630656][-0.023622,0.929134,0.370079][0.668248,0.980218,0][1.69117,10.5814,-0.0630656][-0.023622,0.929134,0.370079][0.668248,0.980218,0][1.79789,10.968,-0.467582][-0.023622,0.874016,0.488189][0.613132,0.990204,0][0.0293624,10.968,-0.560268][-0.023622,0.889764,0.456693][0.613132,0.783139,0][-1.17392,10.2688,1.54465][-0.00787402,0.984252,0.173228][0.904494,0.655522,0][-0.389076,10.2688,1.58578][-0.00787402,0.984252,0.173228][0.904494,0.746979,0][0.00792828,10.5814,-0.15128][-0.015748,0.944882,0.330709][0.668248,0.783139,0][0.00792828,10.5814,-0.15128][-0.015748,0.944882,0.330709][0.668248,0.783139,0][-1.6753,10.5814,-0.239494][-0.023622,0.929134,0.370079][0.668248,0.586061,0][-1.17392,10.2688,1.54465][-0.00787402,0.984252,0.173228][0.904494,0.655522,0][0.00792828,10.5814,-0.15128][-0.015748,0.944882,0.330709][0.668248,0.783139,0][-0.389076,10.2688,1.58578][-0.00787402,0.984252,0.173228][0.904494,0.746979,0][1.00603,10.2688,1.6589][-0.00787402,0.984252,0.173228][0.904494,0.910757,0][1.00603,10.2688,1.6589][-0.00787402,0.984252,0.173228][0.904494,0.910757,0][1.69117,10.5814,-0.0630656][-0.023622,0.929134,0.370079][0.668248,0.980218,0][0.00792828,10.5814,-0.15128][-0.015748,0.944882,0.330709][0.668248,0.783139,0][-1.73916,10.968,-0.652952][-1,0,-0.0472441][0.846361,0.235471,0][-1.74609,10.3873,-0.520654][-1,0.00787402,-0.023622][0.830298,0.306394,0][-1.6753,10.5814,-0.239494][-0.976378,0.0551181,0.204724][0.783475,0.283231,0][-1.73916,10.968,-0.652952][-1,0,-0.0472441][0.846361,0.235471,0][-1.6907,11.2026,-1.57766][-1,0,-0.0551181][0.969622,0.208108,0][-1.6907,8.50894,-1.57766][-1,0,-0.0551181][0.972615,0.521237,0][-1.6907,8.50894,-1.57766][-1,0,-0.0551181][0.972615,0.521237,0][-1.73916,8.16844,-0.652952][-1,0,-0.0472441][0.849985,0.561324,0][-1.73916,10.968,-0.652952][-1,0,-0.0472441][0.846361,0.235471,0][-1.69212,8.16844,-1.55057][-1,0,-0.0551181][0.969205,0.560686,0][-1.73916,8.16844,-0.652952][-1,0,-0.0472441][0.849985,0.561324,0][-1.6907,8.50894,-1.57766][-1,0,-0.0551181][0.972615,0.521237,0][-1.74609,10.3873,-0.520654][-1,0.00787402,-0.023622][0.830298,0.306394,0][-1.73916,10.968,-0.652952][-1,0,-0.0472441][0.846361,0.235471,0][-1.73916,8.16844,-0.652952][-1,0,-0.0472441][0.849985,0.561324,0][-1.73916,8.16844,-0.652952][-1,0,-0.0472441][0.849985,0.561324,0][-1.74468,8.41854,-0.547716][-1,-0.00787402,-0.0393701][0.83624,0.530795,0][-1.74609,10.3873,-0.520654][-1,0.00787402,-0.023622][0.830298,0.306394,0][1.84493,8.16844,-1.3652][0.448819,-0.889764,0.023622][0.546661,0.020177,0][1.79789,8.16844,-0.467582][0.133858,-0.976378,0.188976][0.623921,0.020177,0][1.48966,8.00002,-0.998876][0.181102,-0.976378,0.141732][0.579703,0.04524,0][1.48966,8.00002,-0.998876][0.181102,-0.976378,0.141732][0.579703,0.04524,0][1.50978,8.00002,-1.38277][0.267717,-0.96063,0.015748][0.546661,0.04524,0][1.84493,8.16844,-1.3652][0.448819,-0.889764,0.023622][0.546661,0.020177,0][-1.74468,8.41854,-0.547716][-1,-0.00787402,-0.0393701][0.83624,0.530795,0][-1.73916,8.16844,-0.652952][-1,0,-0.0472441][0.849985,0.561324,0][-1.66286,8.16844,-0.477002][-0.905512,-0.181102,0.393701][0.815668,0.56044,0][-1.17598,8.69894,-1.64178][-0.409449,0,-0.913386][0.972833,0.087236,0][-1.16713,8.6767,-1.64131][-0.322835,-0.338583,-0.88189][0.97029,0.080512,0][-1.21449,8.65892,-1.61255][-0.393701,-0.330709,-0.858268][0.986416,0.07429,0][-1.6753,10.5814,-0.239494][-0.968504,-0.015748,0.23622][0.783475,0.283231,0][-1.64668,10.3873,-0.515442][-0.992126,0.00787402,-0.133858][0.818432,0.309894,0][-1.64527,8.41854,-0.542506][-0.992126,0.00787402,-0.133858][0.823604,0.530086,0][-1.17392,10.2688,1.54465][-0.968504,-0.015748,0.251969][0.536925,0.32075,0][-1.6753,10.5814,-0.239494][-0.968504,-0.015748,0.23622][0.783475,0.283231,0][-1.66286,8.16844,-0.477002][-0.968504,-0.015748,0.244094][0.815668,0.56044,0][-1.21449,8.65892,-1.61255][-0.393701,-0.330709,-0.858268][0.986416,0.07429,0][-1.23041,8.69894,-1.61339][-0.464567,0,-0.889764][0.990912,0.087414,0][-1.17598,8.69894,-1.64178][-0.409449,0,-0.913386][0.972833,0.087236,0][-1.17598,8.69894,-1.64178][-0.409449,0,-0.913386][0.972833,0.087236,0][-1.23041,8.69894,-1.61339][-0.464567,0,-0.889764][0.990912,0.087414,0][-1.21449,8.73896,-1.61255][-0.393701,0.330709,-0.858268][0.986159,0.100447,0][-1.66286,8.16844,-0.477002][-0.968504,-0.015748,0.244094][0.815668,0.56044,0][-1.17356,8.16844,1.54467][-0.968504,-0.015748,0.251969][0.516975,0.559183,0][-1.17392,10.2688,1.54465][-0.968504,-0.015748,0.251969][0.536925,0.32075,0][-1.64527,8.41854,-0.542506][-0.992126,0.00787402,-0.133858][0.823604,0.530086,0][-1.66286,8.16844,-0.477002][-0.968504,-0.015748,0.244094][0.815668,0.56044,0][-1.6753,10.5814,-0.239494][-0.968504,-0.015748,0.23622][0.783475,0.283231,0][-1.21449,8.73896,-1.61255][-0.393701,0.330709,-0.858268][0.986159,0.100447,0][-1.16713,8.72118,-1.64131][-0.322835,0.338583,-0.88189][0.970159,0.093909,0][-1.17598,8.69894,-1.64178][-0.409449,0,-0.913386][0.972833,0.087236,0][1.32763,10.7143,-1.38654][0.244094,0.133858,-0.96063][0.456055,0.981083,0][1.32763,8.8913,-1.38654][0.244094,-0.133858,-0.96063][0.021523,0.981083,0][0.981052,9.51578,-1.54331][0.259843,-0.0551181,-0.96063][0.170373,0.90771,0][0.981052,9.51578,-1.54331][0.259843,-0.0551181,-0.96063][0.170373,0.90771,0][0.981052,10.0898,-1.54331][0.259843,0.0551181,-0.96063][0.307205,0.90771,0][1.32763,10.7143,-1.38654][0.244094,0.133858,-0.96063][0.456055,0.981083,0][-1.37709,8.00002,-1.14912][-0.19685,-0.976378,0.11811][0.579703,0.259615,0][-1.73916,8.16844,-0.652952][-0.149606,-0.976378,0.173228][0.623921,0.284678,0][-1.69212,8.16844,-1.55057][-0.448819,-0.889764,-0.023622][0.546661,0.284678,0][-1.69212,8.16844,-1.55057][-0.448819,-0.889764,-0.023622][0.546661,0.284678,0][-1.35697,8.00002,-1.53301][-0.267717,-0.96063,-0.015748][0.546661,0.259615,0][-1.37709,8.00002,-1.14912][-0.19685,-0.976378,0.11811][0.579703,0.259615,0][-0.887636,8.69894,-1.63052][-0.559055,0,-0.826772][0.886759,0.087236,0][-0.878794,8.6767,-1.63006][-0.440945,-0.433071,-0.787402][0.884216,0.080512,0][-0.92693,8.65892,-1.58648][-0.511811,-0.425197,-0.740157][0.900341,0.07429,0][-1.16713,8.6767,-1.64131][-0.322835,-0.338583,-0.88189][0.97029,0.080512,0][-1.14297,8.66042,-1.64005][-0.149606,-0.535433,-0.834646][0.963257,0.075447,0][-1.17101,8.62962,-1.61027][-0.204724,-0.574803,-0.787402][0.97301,0.063634,0][-1.17101,8.62962,-1.61027][-0.204724,-0.574803,-0.787402][0.97301,0.063634,0][-1.21449,8.65892,-1.61255][-0.393701,-0.330709,-0.858268][0.986416,0.07429,0][-1.16713,8.6767,-1.64131][-0.322835,-0.338583,-0.88189][0.97029,0.080512,0][-0.887636,8.69894,-1.63052][-0.559055,0,-0.826772][0.886759,0.087236,0][-0.878794,8.72118,-1.63006][-0.440945,0.433071,-0.787402][0.884084,0.093909,0][-0.820482,8.69894,-1.64917][0.0551181,0,-1][0.867229,0.087045,0][-0.82164,8.7434,-1.62706][0.0314961,0.732283,-0.677165][0.867097,0.100528,0][-0.788642,8.73744,-1.62533][0.283465,0.669291,-0.692913][0.857276,0.098642,0][-0.820482,8.69894,-1.64917][0.0551181,0,-1][0.867229,0.087045,0][-0.878794,8.6767,-1.63006][-0.440945,-0.433071,-0.787402][0.884216,0.080512,0][-0.887636,8.69894,-1.63052][-0.559055,0,-0.826772][0.886759,0.087236,0][-0.820482,8.69894,-1.64917][0.0551181,0,-1][0.867229,0.087045,0][-0.878794,8.6767,-1.63006][-0.440945,-0.433071,-0.787402][0.884216,0.080512,0][-0.854636,8.66042,-1.62879][-0.212598,-0.669291,-0.716535][0.877182,0.075447,0][-0.883446,8.62962,-1.5842][-0.267717,-0.708661,-0.661417][0.886935,0.063634,0][-0.92693,8.65892,-1.58648][-0.511811,-0.425197,-0.740157][0.900341,0.07429,0][-0.942848,8.69894,-1.58731][-0.614173,0,-0.787402][0.904837,0.087414,0][-0.887636,8.69894,-1.63052][-0.559055,0,-0.826772][0.886759,0.087236,0][-0.887636,8.69894,-1.63052][-0.559055,0,-0.826772][0.886759,0.087236,0][-0.942848,8.69894,-1.58731][-0.614173,0,-0.787402][0.904837,0.087414,0][-0.92693,8.73896,-1.58648][-0.511811,0.425197,-0.740157][0.900084,0.100447,0][-0.814356,9.51578,-1.6374][-0.15748,-0.0551181,-0.984252][0.170373,0.535394,0][-1.17542,8.8913,-1.51772][-0.141732,-0.133858,-0.984252][0.021523,0.462022,0][-1.17542,10.7143,-1.51772][-0.141732,0.133858,-0.984252][0.456055,0.462021,0][-1.17542,10.7143,-1.51772][-0.141732,0.133858,-0.984252][0.456055,0.462021,0][-0.814356,10.0898,-1.6374][-0.15748,0.0551181,-0.984252][0.307205,0.535394,0][-0.814356,9.51578,-1.6374][-0.15748,-0.0551181,-0.984252][0.170373,0.535394,0][-0.92693,8.73896,-1.58648][-0.511811,0.425197,-0.740157][0.900084,0.100447,0][-0.878794,8.72118,-1.63006][-0.440945,0.433071,-0.787402][0.884084,0.093909,0][-0.887636,8.69894,-1.63052][-0.559055,0,-0.826772][0.886759,0.087236,0][1.0915,8.16844,-0.504602][0.984252,-0.00787402,0.15748][0.63564,0.089525,0][0.781196,8.16844,1.42916][0.984252,-0.00787402,0.15748][0.752635,0.100993,0][0.781196,8.01716,1.42916][0.984252,-0.00787402,0.15748][0.751815,0.108918,0][0.781196,8.01716,1.42916][0.984252,-0.00787402,0.15748][0.751815,0.108918,0][1.1701,8.00002,-1.01562][0.984252,-0.00787402,0.15748][0.603386,0.095267,0][1.0915,8.16844,-0.504602][0.984252,-0.00787402,0.15748][0.63564,0.089525,0][-0.883446,8.62962,-1.5842][-0.267717,-0.708661,-0.661417][0.886935,0.063634,0][-0.92693,8.65892,-1.58648][-0.511811,-0.425197,-0.740157][0.900341,0.07429,0][-0.878794,8.6767,-1.63006][-0.440945,-0.433071,-0.787402][0.884216,0.080512,0][-0.551882,10.7205,-1.48504][0.00787402,0.275591,-0.96063][0.457527,0.591326,0][-0.427254,10.2862,-1.62574][0.0393701,0.11811,-0.992126][0.35401,0.615575,0][-0.814356,10.0898,-1.6374][-0.15748,0.0551181,-0.984252][0.307205,0.535394,0][-0.814356,10.0898,-1.6374][-0.15748,0.0551181,-0.984252][0.307205,0.535394,0][-1.17542,10.7143,-1.51772][-0.141732,0.133858,-0.984252][0.456055,0.462021,0][-0.551882,10.7205,-1.48504][0.00787402,0.275591,-0.96063][0.457527,0.591326,0][-0.427254,10.2862,-1.62574][0.0393701,0.11811,-0.992126][0.35401,0.615575,0][-0.551882,10.7205,-1.48504][0.00787402,0.275591,-0.96063][0.457527,0.591326,0][0.0761028,10.7267,-1.45213][0.0472441,0.330709,-0.944882][0.45901,0.721552,0][0.0761028,10.7267,-1.45213][0.0472441,0.330709,-0.944882][0.45901,0.721552,0][0.0833376,10.3615,-1.59018][0.0551181,0.11811,-0.992126][0.371958,0.721552,0][-0.427254,10.2862,-1.62574][0.0393701,0.11811,-0.992126][0.35401,0.615575,0][0.59485,10.2862,-1.57217][0.0629921,0.11811,-0.992126][0.35401,0.82753,0][0.0833376,10.3615,-1.59018][0.0551181,0.11811,-0.992126][0.371958,0.721552,0][0.0761028,10.7267,-1.45213][0.0472441,0.330709,-0.944882][0.45901,0.721552,0][0.0761028,10.7267,-1.45213][0.0472441,0.330709,-0.944882][0.45901,0.721552,0][0.704086,10.7205,-1.41922][0.0944882,0.275591,-0.96063][0.457527,0.851778,0][0.59485,10.2862,-1.57217][0.0629921,0.11811,-0.992126][0.35401,0.82753,0][0.981052,10.0898,-1.54331][0.259843,0.0551181,-0.96063][0.307205,0.90771,0][0.59485,10.2862,-1.57217][0.0629921,0.11811,-0.992126][0.35401,0.82753,0][0.704086,10.7205,-1.41922][0.0944882,0.275591,-0.96063][0.457527,0.851778,0][0.704086,10.7205,-1.41922][0.0944882,0.275591,-0.96063][0.457527,0.851778,0][1.32763,10.7143,-1.38654][0.244094,0.133858,-0.96063][0.456055,0.981083,0][0.981052,10.0898,-1.54331][0.259843,0.0551181,-0.96063][0.307205,0.90771,0][0.59485,10.2862,-1.57217][0.0629921,0.11811,-0.992126][0.35401,0.82753,0][0.59485,9.31942,-1.57217][0.0629921,-0.11811,-0.992126][0.123568,0.82753,0][0.0833376,9.24412,-1.59018][0.0551181,-0.11811,-0.992126][0.10562,0.721552,0][0.981052,10.0898,-1.54331][0.259843,0.0551181,-0.96063][0.307205,0.90771,0][0.981052,9.51578,-1.54331][0.259843,-0.0551181,-0.96063][0.170373,0.90771,0][0.59485,9.31942,-1.57217][0.0629921,-0.11811,-0.992126][0.123568,0.82753,0][0.59485,9.31942,-1.57217][0.0629921,-0.11811,-0.992126][0.123568,0.82753,0][0.59485,10.2862,-1.57217][0.0629921,0.11811,-0.992126][0.35401,0.82753,0][0.981052,10.0898,-1.54331][0.259843,0.0551181,-0.96063][0.307205,0.90771,0][0.0833376,9.24412,-1.59018][0.0551181,-0.11811,-0.992126][0.10562,0.721552,0][0.0833376,10.3615,-1.59018][0.0551181,0.11811,-0.992126][0.371958,0.721552,0][0.59485,10.2862,-1.57217][0.0629921,0.11811,-0.992126][0.35401,0.82753,0][-0.427254,10.2862,-1.62574][0.0393701,0.11811,-0.992126][0.35401,0.615575,0][0.0833376,10.3615,-1.59018][0.0551181,0.11811,-0.992126][0.371958,0.721552,0][0.0833376,9.24412,-1.59018][0.0551181,-0.11811,-0.992126][0.10562,0.721552,0][0.0833376,9.24412,-1.59018][0.0551181,-0.11811,-0.992126][0.10562,0.721552,0][-0.427254,9.31942,-1.62574][0.0393701,-0.11811,-0.992126][0.123568,0.615575,0][-0.427254,10.2862,-1.62574][0.0393701,0.11811,-0.992126][0.35401,0.615575,0][-0.814356,10.0898,-1.6374][-0.15748,0.0551181,-0.984252][0.307205,0.535394,0][-0.427254,10.2862,-1.62574][0.0393701,0.11811,-0.992126][0.35401,0.615575,0][-0.427254,9.31942,-1.62574][0.0393701,-0.11811,-0.992126][0.123568,0.615575,0][-0.427254,9.31942,-1.62574][0.0393701,-0.11811,-0.992126][0.123568,0.615575,0][-0.814356,9.51578,-1.6374][-0.15748,-0.0551181,-0.984252][0.170373,0.535394,0][-0.814356,10.0898,-1.6374][-0.15748,0.0551181,-0.984252][0.307205,0.535394,0][1.39556,11.2026,-1.50158][0.110236,-0.0551181,-0.992126][0.084097,0.334991,0][1.84635,11.2026,-1.39229][0.133858,-0.00787402,-0.992126][0.022743,0.334991,0][1.36216,10.7427,-1.48116][0.11811,0,-0.992126][0.088441,0.281211,0][-0.585514,8.69894,-1.61469][-0.559055,0,-0.826772][0.931715,0.03296,0][-0.576672,8.72118,-1.61422][-0.440945,0.433071,-0.787402][0.92904,0.039633,0][-0.51836,8.69894,-1.63334][0.0551181,0,-1][0.912185,0.032768,0][-0.519518,8.7434,-1.61123][0.0314961,0.732283,-0.677165][0.912053,0.046251,0][-0.48652,8.73744,-1.6095][0.283465,0.669291,-0.692913][0.902233,0.044366,0][-0.51836,8.69894,-1.63334][0.0551181,0,-1][0.912185,0.032768,0][-0.576672,8.6767,-1.61422][-0.440945,-0.433071,-0.787402][0.929172,0.026236,0][-0.585514,8.69894,-1.61469][-0.559055,0,-0.826772][0.931715,0.03296,0][-0.51836,8.69894,-1.63334][0.0551181,0,-1][0.912185,0.032768,0][-0.585514,8.69894,-1.61469][-0.559055,0,-0.826772][0.931715,0.03296,0][-0.640722,8.69894,-1.57148][-0.614173,0,-0.787402][0.949794,0.033137,0][-0.624808,8.73896,-1.57064][-0.511811,0.425197,-0.740157][0.94504,0.04617,0][-0.576672,8.6767,-1.61422][-0.440945,-0.433071,-0.787402][0.929172,0.026236,0][-0.552516,8.66042,-1.61296][-0.212598,-0.669291,-0.716535][0.922138,0.021171,0][-0.581324,8.62962,-1.56836][-0.267717,-0.708661,-0.661417][0.931892,0.00935799,0][-0.585514,8.69894,-1.61469][-0.559055,0,-0.826772][0.931715,0.03296,0][-0.576672,8.6767,-1.61422][-0.440945,-0.433071,-0.787402][0.929172,0.026236,0][-0.624808,8.65892,-1.57064][-0.511811,-0.425197,-0.740157][0.945297,0.020014,0][-0.624808,8.65892,-1.57064][-0.511811,-0.425197,-0.740157][0.945297,0.020014,0][-0.640722,8.69894,-1.57148][-0.614173,0,-0.787402][0.949794,0.033137,0][-0.585514,8.69894,-1.61469][-0.559055,0,-0.826772][0.931715,0.03296,0][-1.16713,8.72118,-1.64131][-0.322835,0.338583,-0.88189][0.970159,0.093909,0][-1.14297,8.73746,-1.64005][-0.149606,0.535433,-0.834646][0.963027,0.098835,0][-1.10919,8.69894,-1.6533][0.0551181,0,-1][0.953304,0.087045,0][-1.19988,10.7427,-1.61543][-0.015748,0,-1][0.433706,0.281211,0][-1.6907,11.2026,-1.57766][-0.0314961,-0.00787402,-1][0.499404,0.334991,0][-1.23095,11.2026,-1.63923][0,-0.0551181,-1][0.43805,0.334991,0][0.965702,8.16844,-1.42001][0.992126,-0.11811,0.0551181][0.133895,0.374557,0][0.94534,8.00002,-1.42107][0.992126,-0.11811,0.0551181][0.136517,0.354837,0][0.947632,8.00002,-1.4648][0.992126,-0.11811,0.0551181][0.14237,0.355393,0][0.947632,8.00002,-1.4648][0.992126,-0.11811,0.0551181][0.14237,0.355393,0][0.967994,8.16844,-1.46374][0.992126,-0.11811,0.0551181][0.139754,0.375059,0][0.965702,8.16844,-1.42001][0.992126,-0.11811,0.0551181][0.133895,0.374557,0][-1.16713,8.72118,-1.64131][-0.322835,0.338583,-0.88189][0.970159,0.093909,0][-1.21449,8.73896,-1.61255][-0.393701,0.330709,-0.858268][0.986159,0.100447,0][-1.17101,8.76826,-1.61027][-0.204724,0.574803,-0.787402][0.972546,0.110837,0][-1.17101,8.76826,-1.61027][-0.204724,0.574803,-0.787402][0.972546,0.110837,0][-1.14297,8.73746,-1.64005][-0.149606,0.535433,-0.834646][0.963027,0.098835,0][-1.16713,8.72118,-1.64131][-0.322835,0.338583,-0.88189][0.970159,0.093909,0][0.992968,8.50632,-1.41858][0.992126,-0.0787402,0.0551181][0.130101,0.414074,0][0.965702,8.16844,-1.42001][0.992126,-0.0787402,0.0551181][0.133895,0.374557,0][0.967994,8.16844,-1.46374][0.992126,-0.0787402,0.0551181][0.139754,0.375059,0][0.967994,8.16844,-1.46374][0.992126,-0.0787402,0.0551181][0.139754,0.375059,0][0.99526,8.50632,-1.46231][0.992126,-0.0787402,0.0551181][0.135974,0.41451,0][0.992968,8.50632,-1.41858][0.992126,-0.0787402,0.0551181][0.130101,0.414074,0][-1.14297,8.66042,-1.64005][-0.149606,-0.535433,-0.834646][0.963257,0.075447,0][-1.10998,8.65446,-1.63832][0.0393701,-0.590551,-0.80315][0.953436,0.073561,0][-1.11161,8.61888,-1.60716][0.0393701,-0.661417,-0.748031][0.953577,0.059186,0][-1.11161,8.61888,-1.60716][0.0393701,-0.661417,-0.748031][0.953577,0.059186,0][-1.17101,8.62962,-1.61027][-0.204724,-0.574803,-0.787402][0.97301,0.063634,0][-1.14297,8.66042,-1.64005][-0.149606,-0.535433,-0.834646][0.963257,0.075447,0][-0.788642,8.73744,-1.62533][0.283465,0.669291,-0.692913][0.857276,0.098642,0][-0.764486,8.72118,-1.62407][0.519685,0.433071,-0.732283][0.850243,0.093577,0][-0.820482,8.69894,-1.64917][0.0551181,0,-1][0.867229,0.087045,0][-0.854636,8.66042,-1.62879][-0.212598,-0.669291,-0.716535][0.877182,0.075447,0][-0.878794,8.6767,-1.63006][-0.440945,-0.433071,-0.787402][0.884216,0.080512,0][-0.820482,8.69894,-1.64917][0.0551181,0,-1][0.867229,0.087045,0][-0.48652,8.73744,-1.6095][0.283465,0.669291,-0.692913][0.902233,0.044366,0][-0.462366,8.72118,-1.60823][0.519685,0.433071,-0.732283][0.895199,0.039301,0][-0.51836,8.69894,-1.63334][0.0551181,0,-1][0.912185,0.032768,0][-0.552516,8.66042,-1.61296][-0.212598,-0.669291,-0.716535][0.922138,0.021171,0][-0.576672,8.6767,-1.61422][-0.440945,-0.433071,-0.787402][0.929172,0.026236,0][-0.51836,8.69894,-1.63334][0.0551181,0,-1][0.912185,0.032768,0][-1.07698,8.73746,-1.63659][0.23622,0.535433,-0.811024][0.943351,0.098642,0][-1.05283,8.72118,-1.63532][0.417323,0.338583,-0.84252][0.936317,0.093577,0][-1.10919,8.69894,-1.6533][0.0551181,0,-1][0.953304,0.087045,0][-1.14297,8.66042,-1.64005][-0.149606,-0.535433,-0.834646][0.963257,0.075447,0][-1.16713,8.6767,-1.64131][-0.322835,-0.338583,-0.88189][0.97029,0.080512,0][-1.10919,8.69894,-1.6533][0.0551181,0,-1][0.953304,0.087045,0][-1.14297,8.73746,-1.64005][-0.149606,0.535433,-0.834646][0.963027,0.098835,0][-1.10998,8.7434,-1.63832][0.0393701,0.590551,-0.80315][0.953171,0.100528,0][-1.10919,8.69894,-1.6533][0.0551181,0,-1][0.953304,0.087045,0][-1.10998,8.7434,-1.63832][0.0393701,0.590551,-0.80315][0.953171,0.100528,0][-1.07698,8.73746,-1.63659][0.23622,0.535433,-0.811024][0.943351,0.098642,0][-1.10919,8.69894,-1.6533][0.0551181,0,-1][0.953304,0.087045,0][-1.05283,8.6767,-1.63532][0.417323,-0.338583,-0.84252][0.936449,0.08018,0][-1.07698,8.66042,-1.63659][0.23622,-0.535433,-0.811024][0.943581,0.075254,0][-1.10919,8.69894,-1.6533][0.0551181,0,-1][0.953304,0.087045,0][-1.10998,8.65446,-1.63832][0.0393701,-0.590551,-0.80315][0.953436,0.073561,0][-1.14297,8.66042,-1.64005][-0.149606,-0.535433,-0.834646][0.963257,0.075447,0][-1.10919,8.69894,-1.6533][0.0551181,0,-1][0.953304,0.087045,0][-1.07698,8.66042,-1.63659][0.23622,-0.535433,-0.811024][0.943581,0.075254,0][-1.10998,8.65446,-1.63832][0.0393701,-0.590551,-0.80315][0.953436,0.073561,0][-1.10919,8.69894,-1.6533][0.0551181,0,-1][0.953304,0.087045,0][-1.17598,8.69894,-1.64178][-0.409449,0,-0.913386][0.972833,0.087236,0][-1.16713,8.72118,-1.64131][-0.322835,0.338583,-0.88189][0.970159,0.093909,0][-1.10919,8.69894,-1.6533][0.0551181,0,-1][0.953304,0.087045,0][-1.16713,8.6767,-1.64131][-0.322835,-0.338583,-0.88189][0.97029,0.080512,0][-1.17598,8.69894,-1.64178][-0.409449,0,-0.913386][0.972833,0.087236,0][-1.10919,8.69894,-1.6533][0.0551181,0,-1][0.953304,0.087045,0][-1.04399,8.69894,-1.63486][0.503937,0,-0.866142][0.933775,0.086853,0][-1.05283,8.6767,-1.63532][0.417323,-0.338583,-0.84252][0.936449,0.08018,0][-1.10919,8.69894,-1.6533][0.0551181,0,-1][0.953304,0.087045,0][-1.05283,8.72118,-1.63532][0.417323,0.338583,-0.84252][0.936317,0.093577,0][-1.04399,8.69894,-1.63486][0.503937,0,-0.866142][0.933775,0.086853,0][-1.10919,8.69894,-1.6533][0.0551181,0,-1][0.953304,0.087045,0][-0.581324,8.62962,-1.56836][-0.267717,-0.708661,-0.661417][0.931892,0.00935799,0][-0.624808,8.65892,-1.57064][-0.511811,-0.425197,-0.740157][0.945297,0.020014,0][-0.576672,8.6767,-1.61422][-0.440945,-0.433071,-0.787402][0.929172,0.026236,0][-0.880384,8.52096,-1.61042][0.0551181,0,-1][0.847773,0.177774,0][-0.892066,8.4773,-1.61103][0.0551181,0,-1][0.854113,0.154114,0][-0.967574,8.52096,-1.61499][0.0551181,0,-1][0.895092,0.175881,0][-0.892066,8.4773,-1.61103][0.0551181,0,-1][0.854113,0.154114,0][-0.923984,8.44534,-1.61271][0.0551181,0,-1][0.871433,0.136795,0][-0.967574,8.52096,-1.61499][0.0551181,0,-1][0.895092,0.175881,0][-0.923984,8.44534,-1.61271][0.0551181,0,-1][0.871433,0.136795,0][-0.967574,8.43364,-1.61499][0.0551181,0,-1][0.895092,0.130455,0][-0.967574,8.52096,-1.61499][0.0551181,0,-1][0.895092,0.175881,0][-0.967574,8.43364,-1.61499][0.0551181,0,-1][0.895092,0.130455,0][-1.01117,8.44534,-1.61728][0.0551181,0,-1][0.918751,0.136795,0][-0.967574,8.52096,-1.61499][0.0551181,0,-1][0.895092,0.175881,0][-1.01117,8.44534,-1.61728][0.0551181,0,-1][0.918751,0.136795,0][-1.04309,8.4773,-1.61895][0.0551181,0,-1][0.936071,0.154114,0][-0.967574,8.52096,-1.61499][0.0551181,0,-1][0.895092,0.175881,0][-1.04309,8.4773,-1.61895][0.0551181,0,-1][0.936071,0.154114,0][-1.05477,8.52096,-1.61956][0.0551181,0,-1][0.942411,0.177774,0][-0.967574,8.52096,-1.61499][0.0551181,0,-1][0.895092,0.175881,0][-1.34981,8.50632,-1.64546][-0.0944882,0.015748,-0.992126][0.454069,0.019733,0][-1.6907,8.50894,-1.57766][-0.19685,0,-0.984252][0.499404,0.020039,0][-1.6907,11.2026,-1.57766][-0.0314961,-0.00787402,-1][0.499404,0.334991,0][-1.34981,8.50632,-1.64546][-0.0944882,0.015748,-0.992126][0.454069,0.019733,0][-1.6907,11.2026,-1.57766][-0.0314961,-0.00787402,-1][0.499404,0.334991,0][-1.19988,10.7427,-1.61543][-0.015748,0,-1][0.433706,0.281211,0][-1.19988,10.7427,-1.61543][-0.015748,0,-1][0.433706,0.281211,0][-1.19988,8.86296,-1.61543][0,0.023622,-1][0.433706,0.061433,0][-1.34981,8.50632,-1.64546][-0.0944882,0.015748,-0.992126][0.454069,0.019733,0][-0.884164,8.50632,-1.62978][0.0472441,0.0708661,-0.992126][0.391378,0.019733,0][-1.34981,8.50632,-1.64546][-0.0944882,0.015748,-0.992126][0.454069,0.019733,0][-1.19988,8.86296,-1.61543][0,0.023622,-1][0.433706,0.061433,0][-1.23095,11.2026,-1.63923][0,-0.0551181,-1][0.43805,0.334991,0][-0.561642,10.7324,-1.58198][0.0393701,-0.0472441,-1][0.347696,0.280015,0][-1.19988,10.7427,-1.61543][-0.015748,0,-1][0.433706,0.281211,0][-0.561642,10.7324,-1.58198][0.0393701,-0.0472441,-1][0.347696,0.280015,0][-1.23095,11.2026,-1.63923][0,-0.0551181,-1][0.43805,0.334991,0][0.0823014,11.2026,-1.5704][0.0551181,-0.0472441,-1][0.261074,0.334991,0][0.0823014,11.2026,-1.5704][0.0551181,-0.0472441,-1][0.261074,0.334991,0][0.0811428,10.7221,-1.5483][0.0551181,-0.0472441,-1][0.261074,0.27881,0][-0.561642,10.7324,-1.58198][0.0393701,-0.0472441,-1][0.347696,0.280015,0][0.723926,10.7324,-1.51461][0.0629921,-0.0472441,-1][0.174451,0.280015,0][0.0811428,10.7221,-1.5483][0.0551181,-0.0472441,-1][0.261074,0.27881,0][0.0823014,11.2026,-1.5704][0.0551181,-0.0472441,-1][0.261074,0.334991,0][0.0823014,11.2026,-1.5704][0.0551181,-0.0472441,-1][0.261074,0.334991,0][1.39556,11.2026,-1.50158][0.110236,-0.0551181,-0.992126][0.084097,0.334991,0][0.723926,10.7324,-1.51461][0.0629921,-0.0472441,-1][0.174451,0.280015,0][1.36216,10.7427,-1.48116][0.11811,0,-0.992126][0.088441,0.281211,0][0.723926,10.7324,-1.51461][0.0629921,-0.0472441,-1][0.174451,0.280015,0][1.39556,11.2026,-1.50158][0.110236,-0.0551181,-0.992126][0.084097,0.334991,0][1.51442,8.50632,-1.49535][0.19685,0.015748,-0.976378][0.068079,0.019733,0][1.36216,8.86296,-1.48116][0.102362,0.023622,-0.992126][0.088441,0.061433,0][1.36216,10.7427,-1.48116][0.11811,0,-0.992126][0.088441,0.281211,0][1.36216,10.7427,-1.48116][0.11811,0,-0.992126][0.088441,0.281211,0][1.84635,11.2026,-1.39229][0.133858,-0.00787402,-0.992126][0.022743,0.334991,0][1.51442,8.50632,-1.49535][0.19685,0.015748,-0.976378][0.068079,0.019733,0][1.51442,8.50632,-1.49535][0.19685,0.015748,-0.976378][0.068079,0.019733,0][1.84635,11.2026,-1.39229][0.133858,-0.00787402,-0.992126][0.022743,0.334991,0][1.84635,8.50894,-1.39229][0.299213,0,-0.952756][0.022743,0.020039,0][1.36216,8.86296,-1.48116][0.102362,0.023622,-0.992126][0.088441,0.061433,0][1.51442,8.50632,-1.49535][0.19685,0.015748,-0.976378][0.068079,0.019733,0][1.04968,8.50632,-1.52843][0.0551181,0.0708661,-0.992126][0.13077,0.019733,0][0.723926,8.8732,-1.51461][0.0472441,0.0708661,-1][0.174451,0.062629,0][1.04968,8.50632,-1.52843][0.0551181,0.0708661,-0.992126][0.13077,0.019733,0][0.0823014,8.50632,-1.5704][0.0551181,0.0708661,-1][0.261074,0.019733,0][1.04968,8.50632,-1.52843][0.0551181,0.0708661,-0.992126][0.13077,0.019733,0][0.723926,8.8732,-1.51461][0.0472441,0.0708661,-1][0.174451,0.062629,0][1.36216,8.86296,-1.48116][0.102362,0.023622,-0.992126][0.088441,0.061433,0][-0.561642,8.8732,-1.58198][0.0551181,0.0708661,-0.992126][0.347696,0.062629,0][0.0811428,8.8835,-1.5483][0.0551181,0.0708661,-1][0.261074,0.063834,0][0.0823014,8.50632,-1.5704][0.0551181,0.0708661,-1][0.261074,0.019733,0][0.0823014,8.50632,-1.5704][0.0551181,0.0708661,-1][0.261074,0.019733,0][0.0811428,8.8835,-1.5483][0.0551181,0.0708661,-1][0.261074,0.063834,0][0.723926,8.8732,-1.51461][0.0472441,0.0708661,-1][0.174451,0.062629,0][0.0823014,8.50632,-1.5704][0.0551181,0.0708661,-1][0.261074,0.019733,0][-0.884164,8.50632,-1.62978][0.0472441,0.0708661,-0.992126][0.391378,0.019733,0][-0.561642,8.8732,-1.58198][0.0551181,0.0708661,-0.992126][0.347696,0.062629,0][-1.19988,8.86296,-1.61543][0,0.023622,-1][0.433706,0.061433,0][-0.561642,8.8732,-1.58198][0.0551181,0.0708661,-0.992126][0.347696,0.062629,0][-0.884164,8.50632,-1.62978][0.0472441,0.0708661,-0.992126][0.391378,0.019733,0][-0.624808,8.73896,-1.57064][-0.511811,0.425197,-0.740157][0.94504,0.04617,0][-0.576672,8.72118,-1.61422][-0.440945,0.433071,-0.787402][0.92904,0.039633,0][-0.585514,8.69894,-1.61469][-0.559055,0,-0.826772][0.931715,0.03296,0][-1.04309,8.4773,-1.61895][-0.968504,-0.259843,-0.0472441][0.925503,0.193903,0][-1.04523,8.4773,-1.5782][-0.968504,-0.259843,-0.0472441][0.925503,0.186722,0][-1.05691,8.52096,-1.57881][-0.968504,-0.259843,-0.0472441][0.941688,0.186722,0][-1.05691,8.52096,-1.57881][-0.968504,-0.259843,-0.0472441][0.941688,0.186722,0][-1.05477,8.52096,-1.61956][-0.968504,-0.259843,-0.0472441][0.941688,0.193903,0][-1.04309,8.4773,-1.61895][-0.968504,-0.259843,-0.0472441][0.925503,0.193903,0][0.078697,8.50632,-1.50163][0.0551181,0,-1][0.259364,0.414479,0][0.078697,8.16844,-1.50163][0.0551181,0,-1][0.259403,0.374964,0][-0.80969,8.16844,-1.5569][0.0629921,0,-1][0.379051,0.375236,0][0.078697,8.50632,-1.50163][0.0551181,0,-1][0.259364,0.414479,0][0.99526,8.50632,-1.46231][0.0393701,0,-1][0.135974,0.41451,0][0.967994,8.16844,-1.46374][0.0393701,0,-1][0.139754,0.375059,0][0.967994,8.16844,-1.46374][0.0393701,0,-1][0.139754,0.375059,0][0.078697,8.16844,-1.50163][0.0551181,0,-1][0.259403,0.374964,0][0.078697,8.50632,-1.50163][0.0551181,0,-1][0.259364,0.414479,0][-0.80969,8.16844,-1.5569][0.0629921,0,-1][0.379051,0.375236,0][-0.836954,8.50632,-1.55833][0.0629921,0,-1][0.382755,0.414692,0][0.078697,8.50632,-1.50163][0.0551181,0,-1][0.259364,0.414479,0][0.078697,8.16844,-1.50163][0.0551181,0,-1][0.259403,0.374964,0][0.967994,8.16844,-1.46374][0.0393701,0,-1][0.139754,0.375059,0][0.947632,8.00002,-1.4648][0.0393701,0,-1][0.14237,0.355393,0][-0.789328,8.00002,-1.55583][0.0629921,0,-1][0.376475,0.355566,0][-0.80969,8.16844,-1.5569][0.0629921,0,-1][0.379051,0.375236,0][0.078697,8.16844,-1.50163][0.0551181,0,-1][0.259403,0.374964,0][0.947632,8.00002,-1.4648][0.0393701,0,-1][0.14237,0.355393,0][0.078697,8.00002,-1.50163][0.0551181,0,-1][0.259422,0.355282,0][0.078697,8.16844,-1.50163][0.0551181,0,-1][0.259403,0.374964,0][0.078697,8.16844,-1.50163][0.0551181,0,-1][0.259403,0.374964,0][0.078697,8.00002,-1.50163][0.0551181,0,-1][0.259422,0.355282,0][-0.789328,8.00002,-1.55583][0.0629921,0,-1][0.376475,0.355566,0][0.965702,8.16844,-1.42001][0.0629921,0,-1][0.133895,0.374557,0][1.84493,8.16844,-1.3652][0.0551181,-0.00787402,-1][0.015363,0.374615,0][1.50978,8.00002,-1.38277][0.0629921,-0.015748,-1][0.060454,0.354926,0][1.61266,8.50632,-1.37738][0.0551181,0,-1][0.046654,0.414046,0][1.84493,8.16844,-1.3652][0.0551181,-0.00787402,-1][0.015363,0.374615,0][0.965702,8.16844,-1.42001][0.0629921,0,-1][0.133895,0.374557,0][1.50978,8.00002,-1.38277][0.0629921,-0.015748,-1][0.060454,0.354926,0][0.94534,8.00002,-1.42107][0.0629921,-0.015748,-1][0.136517,0.354837,0][0.965702,8.16844,-1.42001][0.0629921,0,-1][0.133895,0.374557,0][0.965702,8.16844,-1.42001][0.0629921,0,-1][0.133895,0.374557,0][0.992968,8.50632,-1.41858][0.0629921,0,-1][0.130101,0.414074,0][1.61266,8.50632,-1.37738][0.0551181,0,-1][0.046654,0.414046,0][-1.45985,8.50632,-1.5384][0.0472441,0,-1][0.472076,0.41436,0][-0.839246,8.50632,-1.5146][0.0393701,0,-1][0.388628,0.414266,0][-0.811982,8.16844,-1.51317][0.0393701,0,-1][0.384912,0.374743,0][-0.811982,8.16844,-1.51317][0.0393701,0,-1][0.384912,0.374743,0][-1.69212,8.16844,-1.55057][0.0472441,-0.00787402,-1][0.503443,0.374976,0][-1.45985,8.50632,-1.5384][0.0472441,0,-1][0.472076,0.41436,0][-1.35697,8.00002,-1.53301][0.0393701,-0.015748,-1][0.458391,0.355221,0][-1.69212,8.16844,-1.55057][0.0472441,-0.00787402,-1][0.503443,0.374976,0][-0.811982,8.16844,-1.51317][0.0393701,0,-1][0.384912,0.374743,0][-0.811982,8.16844,-1.51317][0.0393701,0,-1][0.384912,0.374743,0][-0.79162,8.00002,-1.5121][0.0393701,-0.015748,-1][0.382329,0.355019,0][-1.35697,8.00002,-1.53301][0.0393701,-0.015748,-1][0.458391,0.355221,0][-1.01117,8.44534,-1.61728][-0.708661,-0.708661,-0.0393701][0.909319,0.193903,0][-1.01331,8.44534,-1.57652][-0.708661,-0.708661,-0.0393701][0.909319,0.186722,0][-1.04523,8.4773,-1.5782][-0.708661,-0.708661,-0.0393701][0.925503,0.186722,0][-1.04523,8.4773,-1.5782][-0.708661,-0.708661,-0.0393701][0.925503,0.186722,0][-1.04309,8.4773,-1.61895][-0.708661,-0.708661,-0.0393701][0.925503,0.193903,0][-1.01117,8.44534,-1.61728][-0.708661,-0.708661,-0.0393701][0.909319,0.193903,0][-0.854636,8.66042,-1.62879][-0.212598,-0.669291,-0.716535][0.877182,0.075447,0][-0.82164,8.65446,-1.62706][0.0314961,-0.732283,-0.677165][0.867362,0.073561,0][-0.82405,8.61888,-1.58108][0.0314961,-0.787402,-0.614173][0.867503,0.059186,0][-0.82405,8.61888,-1.58108][0.0314961,-0.787402,-0.614173][0.867503,0.059186,0][-0.883446,8.62962,-1.5842][-0.267717,-0.708661,-0.661417][0.886935,0.063634,0][-0.854636,8.66042,-1.62879][-0.212598,-0.669291,-0.716535][0.877182,0.075447,0][-0.462366,8.72118,-1.60823][0.519685,0.433071,-0.732283][0.895199,0.039301,0][-0.48652,8.73744,-1.6095][0.283465,0.669291,-0.692913][0.902233,0.044366,0][-0.462532,8.76826,-1.56214][0.330709,0.708661,-0.629921][0.892479,0.056179,0][-0.462366,8.72118,-1.60823][0.519685,0.433071,-0.732283][0.895199,0.039301,0][-0.453524,8.69894,-1.60777][0.637795,0,-0.76378][0.892656,0.032576,0][-0.51836,8.69894,-1.63334][0.0551181,0,-1][0.912185,0.032768,0][-0.453524,8.69894,-1.60777][0.637795,0,-0.76378][0.892656,0.032576,0][-0.403134,8.69894,-1.55902][0.692913,0,-0.716535][0.874577,0.032399,0][-0.41905,8.65892,-1.55986][0.590551,-0.425197,-0.685039][0.879331,0.019366,0][-0.576672,8.72118,-1.61422][-0.440945,0.433071,-0.787402][0.92904,0.039633,0][-0.552516,8.73744,-1.61296][-0.212598,0.669291,-0.716535][0.921909,0.044559,0][-0.51836,8.69894,-1.63334][0.0551181,0,-1][0.912185,0.032768,0][-0.552516,8.73744,-1.61296][-0.212598,0.669291,-0.716535][0.921909,0.044559,0][-0.519518,8.7434,-1.61123][0.0314961,0.732283,-0.677165][0.912053,0.046251,0][-0.51836,8.69894,-1.63334][0.0551181,0,-1][0.912185,0.032768,0][-0.519518,8.65446,-1.61123][0.0314961,-0.732283,-0.677165][0.912318,0.019285,0][-0.552516,8.66042,-1.61296][-0.212598,-0.669291,-0.716535][0.922138,0.021171,0][-0.51836,8.69894,-1.63334][0.0551181,0,-1][0.912185,0.032768,0][-0.48652,8.66042,-1.6095][0.283465,-0.669291,-0.692913][0.902462,0.020978,0][-0.519518,8.65446,-1.61123][0.0314961,-0.732283,-0.677165][0.912318,0.019285,0][-0.51836,8.69894,-1.63334][0.0551181,0,-1][0.912185,0.032768,0][-0.462366,8.6767,-1.60823][0.519685,-0.433071,-0.732283][0.895331,0.025904,0][-0.48652,8.66042,-1.6095][0.283465,-0.669291,-0.692913][0.902462,0.020978,0][-0.51836,8.69894,-1.63334][0.0551181,0,-1][0.912185,0.032768,0][-0.453524,8.69894,-1.60777][0.637795,0,-0.76378][0.892656,0.032576,0][-0.462366,8.6767,-1.60823][0.519685,-0.433071,-0.732283][0.895331,0.025904,0][-0.51836,8.69894,-1.63334][0.0551181,0,-1][0.912185,0.032768,0][0.520486,8.34626,1.54473][0.866142,-0.496063,0.0472441][0.32844,0.622735,0][0.528364,8.34626,1.39441][0.866142,-0.496063,0.0472441][0.32844,0.536676,0][0.565942,8.41142,1.39638][0.866142,-0.496063,0.0472441][0.337978,0.536676,0][0.565942,8.41142,1.39638][0.866142,-0.496063,0.0472441][0.337978,0.536676,0][0.558064,8.41142,1.5467][0.866142,-0.496063,0.0472441][0.337978,0.622735,0][0.520486,8.34626,1.54473][0.866142,-0.496063,0.0472441][0.32844,0.622735,0][-0.814356,9.51578,-1.6374][-0.15748,-0.0551181,-0.984252][0.170373,0.535394,0][-0.427254,9.31942,-1.62574][0.0393701,-0.11811,-0.992126][0.123568,0.615575,0][-0.551882,8.88512,-1.48504][0.00787402,-0.275591,-0.96063][0.020051,0.591326,0][-0.551882,8.88512,-1.48504][0.00787402,-0.275591,-0.96063][0.020051,0.591326,0][-1.17542,8.8913,-1.51772][-0.141732,-0.133858,-0.984252][0.021523,0.462022,0][-0.814356,9.51578,-1.6374][-0.15748,-0.0551181,-0.984252][0.170373,0.535394,0][0.0761028,8.8789,-1.45213][0.0472441,-0.330709,-0.944882][0.018568,0.721552,0][-0.551882,8.88512,-1.48504][0.00787402,-0.275591,-0.96063][0.020051,0.591326,0][-0.427254,9.31942,-1.62574][0.0393701,-0.11811,-0.992126][0.123568,0.615575,0][-0.427254,9.31942,-1.62574][0.0393701,-0.11811,-0.992126][0.123568,0.615575,0][0.0833376,9.24412,-1.59018][0.0551181,-0.11811,-0.992126][0.10562,0.721552,0][0.0761028,8.8789,-1.45213][0.0472441,-0.330709,-0.944882][0.018568,0.721552,0][0.0761028,8.8789,-1.45213][0.0472441,-0.330709,-0.944882][0.018568,0.721552,0][0.0833376,9.24412,-1.59018][0.0551181,-0.11811,-0.992126][0.10562,0.721552,0][0.59485,9.31942,-1.57217][0.0629921,-0.11811,-0.992126][0.123568,0.82753,0][0.59485,9.31942,-1.57217][0.0629921,-0.11811,-0.992126][0.123568,0.82753,0][0.704086,8.88512,-1.41922][0.0944882,-0.275591,-0.96063][0.020051,0.851778,0][0.0761028,8.8789,-1.45213][0.0472441,-0.330709,-0.944882][0.018568,0.721552,0][0.704086,8.88512,-1.41922][0.0944882,-0.275591,-0.96063][0.020051,0.851778,0][0.59485,9.31942,-1.57217][0.0629921,-0.11811,-0.992126][0.123568,0.82753,0][0.981052,9.51578,-1.54331][0.259843,-0.0551181,-0.96063][0.170373,0.90771,0][0.981052,9.51578,-1.54331][0.259843,-0.0551181,-0.96063][0.170373,0.90771,0][1.32763,8.8913,-1.38654][0.244094,-0.133858,-0.96063][0.021523,0.981083,0][0.704086,8.88512,-1.41922][0.0944882,-0.275591,-0.96063][0.020051,0.851778,0][-0.878794,8.72118,-1.63006][-0.440945,0.433071,-0.787402][0.884084,0.093909,0][-0.92693,8.73896,-1.58648][-0.511811,0.425197,-0.740157][0.900084,0.100447,0][-0.883446,8.76826,-1.5842][-0.267717,0.708661,-0.661417][0.886472,0.110837,0][-0.883446,8.76826,-1.5842][-0.267717,0.708661,-0.661417][0.886472,0.110837,0][-0.854636,8.73744,-1.62879][-0.212598,0.669291,-0.716535][0.876952,0.098835,0][-0.878794,8.72118,-1.63006][-0.440945,0.433071,-0.787402][0.884084,0.093909,0][-0.552516,8.66042,-1.61296][-0.212598,-0.669291,-0.716535][0.922138,0.021171,0][-0.519518,8.65446,-1.61123][0.0314961,-0.732283,-0.677165][0.912318,0.019285,0][-0.521928,8.61888,-1.56525][0.0314961,-0.787402,-0.614173][0.912459,0.00490898,0][-0.521928,8.61888,-1.56525][0.0314961,-0.787402,-0.614173][0.912459,0.00490898,0][-0.581324,8.62962,-1.56836][-0.267717,-0.708661,-0.661417][0.931892,0.00935799,0][-0.552516,8.66042,-1.61296][-0.212598,-0.669291,-0.716535][0.922138,0.021171,0][-1.35697,8.00002,-1.53301][-0.267717,-0.96063,-0.015748][0.546661,0.259615,0][-0.79162,8.00002,-1.5121][0,-1,0][0.545913,0.217372,0][-1.05753,8.00002,-1.13237][0,-1,0.0472441][0.579703,0.235718,0][-1.05753,8.00002,-1.13237][0,-1,0.0472441][0.579703,0.235718,0][-1.37709,8.00002,-1.14912][-0.19685,-0.976378,0.11811][0.579703,0.259615,0][-1.35697,8.00002,-1.53301][-0.267717,-0.96063,-0.015748][0.546661,0.259615,0][0.0562858,8.00002,-1.074][0,-1,0.00787402][0.579703,0.152427,0][-1.05753,8.00002,-1.13237][0,-1,0.0472441][0.579703,0.235718,0][-0.79162,8.00002,-1.5121][0,-1,0][0.545913,0.217372,0][-0.79162,8.00002,-1.5121][0,-1,0][0.545913,0.217372,0][0.0764048,8.00002,-1.45789][0,-1,0][0.546661,0.152427,0][0.0562858,8.00002,-1.074][0,-1,0.00787402][0.579703,0.152427,0][0.0562858,8.00002,-1.074][0,-1,0.00787402][0.579703,0.152427,0][0.0764048,8.00002,-1.45789][0,-1,0][0.546661,0.152427,0][0.94534,8.00002,-1.42107][0,-1,0][0.545913,0.087482,0][0.94534,8.00002,-1.42107][0,-1,0][0.545913,0.087482,0][1.1701,8.00002,-1.01562][0,-1,0.0472441][0.579703,0.069136,0][0.0562858,8.00002,-1.074][0,-1,0.00787402][0.579703,0.152427,0][1.1701,8.00002,-1.01562][0,-1,0.0472441][0.579703,0.069136,0][0.94534,8.00002,-1.42107][0,-1,0][0.545913,0.087482,0][1.50978,8.00002,-1.38277][0.267717,-0.96063,0.015748][0.546661,0.04524,0][1.50978,8.00002,-1.38277][0.267717,-0.96063,0.015748][0.546661,0.04524,0][1.48966,8.00002,-0.998876][0.181102,-0.976378,0.141732][0.579703,0.04524,0][1.1701,8.00002,-1.01562][0,-1,0.0472441][0.579703,0.069136,0][0.078697,8.00002,-1.50163][0,-1,0][0.259422,0.355282,0][0.0764048,8.00002,-1.45789][0,-1,0][0.259427,0.350164,0][-0.79162,8.00002,-1.5121][0,-1,0][0.37644,0.350451,0][-0.79162,8.00002,-1.5121][0,-1,0][0.37644,0.350451,0][-0.789328,8.00002,-1.55583][0,-1,0][0.376475,0.355566,0][0.078697,8.00002,-1.50163][0,-1,0][0.259422,0.355282,0][0.94534,8.00002,-1.42107][0,-1,0][0.142414,0.350278,0][0.0764048,8.00002,-1.45789][0,-1,0][0.259427,0.350164,0][0.078697,8.00002,-1.50163][0,-1,0][0.259422,0.355282,0][0.078697,8.00002,-1.50163][0,-1,0][0.259422,0.355282,0][0.947632,8.00002,-1.4648][0,-1,0][0.14237,0.355393,0][0.94534,8.00002,-1.42107][0,-1,0][0.142414,0.350278,0][0.0562858,8.00002,-1.074][0,-1,0.00787402][0.603181,0.153835,0][-0.926304,8.01716,1.33968][0,-1,0.00787402][0.751816,0.198753,0][-1.05753,8.00002,-1.13237][0,-1,0.0472441][0.603386,0.212403,0][0.781196,8.01716,1.42916][0,-1,0.00787402][0.751815,0.108918,0][-0.926304,8.01716,1.33968][0,-1,0.00787402][0.751816,0.198753,0][0.0562858,8.00002,-1.074][0,-1,0.00787402][0.603181,0.153835,0][0.781196,8.01716,1.42916][0,-1,0.00787402][0.751815,0.108918,0][0.0562858,8.00002,-1.074][0,-1,0.00787402][0.603181,0.153835,0][1.1701,8.00002,-1.01562][0,-1,0.0472441][0.603386,0.095267,0][-1.03278,8.16844,-0.615932][-1,-0.00787402,0.0551181][0.63564,0.218145,0][-1.05753,8.00002,-1.13237][-1,-0.00787402,0.0551181][0.603386,0.212403,0][-0.926304,8.01716,1.33968][-1,-0.00787402,0.0551181][0.751816,0.198753,0][-0.926304,8.01716,1.33968][-1,-0.00787402,0.0551181][0.751816,0.198753,0][-0.926304,8.16844,1.33968][-1,-0.00787402,0.0551181][0.752635,0.206678,0][-1.03278,8.16844,-0.615932][-1,-0.00787402,0.0551181][0.63564,0.218145,0][-1.07698,8.66042,-1.63659][0.23622,-0.535433,-0.811024][0.943581,0.075254,0][-1.05221,8.62962,-1.60405][0.291339,-0.574803,-0.76378][0.934061,0.063252,0][-1.11161,8.61888,-1.60716][0.0393701,-0.661417,-0.748031][0.953577,0.059186,0][-1.11161,8.61888,-1.60716][0.0393701,-0.661417,-0.748031][0.953577,0.059186,0][-1.10998,8.65446,-1.63832][0.0393701,-0.590551,-0.80315][0.953436,0.073561,0][-1.07698,8.66042,-1.63659][0.23622,-0.535433,-0.811024][0.943581,0.075254,0][-0.764486,8.72118,-1.62407][0.519685,0.433071,-0.732283][0.850243,0.093577,0][-0.788642,8.73744,-1.62533][0.283465,0.669291,-0.692913][0.857276,0.098642,0][-0.764654,8.76826,-1.57797][0.330709,0.708661,-0.629921][0.847523,0.110455,0][-0.764486,8.72118,-1.62407][0.519685,0.433071,-0.732283][0.850243,0.093577,0][-0.755644,8.69894,-1.6236][0.637795,0,-0.76378][0.8477,0.086853,0][-0.820482,8.69894,-1.64917][0.0551181,0,-1][0.867229,0.087045,0][-0.72117,8.73896,-1.57569][0.590551,0.425197,-0.685039][0.834118,0.099799,0][-0.705254,8.69894,-1.57486][0.692913,0,-0.716535][0.829621,0.086675,0][-0.755644,8.69894,-1.6236][0.637795,0,-0.76378][0.8477,0.086853,0][-0.878794,8.72118,-1.63006][-0.440945,0.433071,-0.787402][0.884084,0.093909,0][-0.854636,8.73744,-1.62879][-0.212598,0.669291,-0.716535][0.876952,0.098835,0][-0.820482,8.69894,-1.64917][0.0551181,0,-1][0.867229,0.087045,0][-0.854636,8.73744,-1.62879][-0.212598,0.669291,-0.716535][0.876952,0.098835,0][-0.82164,8.7434,-1.62706][0.0314961,0.732283,-0.677165][0.867097,0.100528,0][-0.820482,8.69894,-1.64917][0.0551181,0,-1][0.867229,0.087045,0][-0.82164,8.65446,-1.62706][0.0314961,-0.732283,-0.677165][0.867362,0.073561,0][-0.854636,8.66042,-1.62879][-0.212598,-0.669291,-0.716535][0.877182,0.075447,0][-0.820482,8.69894,-1.64917][0.0551181,0,-1][0.867229,0.087045,0][-0.788642,8.66042,-1.62533][0.283465,-0.669291,-0.692913][0.857506,0.075254,0][-0.82164,8.65446,-1.62706][0.0314961,-0.732283,-0.677165][0.867362,0.073561,0][-0.820482,8.69894,-1.64917][0.0551181,0,-1][0.867229,0.087045,0][-0.764486,8.6767,-1.62407][0.519685,-0.433071,-0.732283][0.850374,0.08018,0][-0.788642,8.66042,-1.62533][0.283465,-0.669291,-0.692913][0.857506,0.075254,0][-0.820482,8.69894,-1.64917][0.0551181,0,-1][0.867229,0.087045,0][-0.755644,8.69894,-1.6236][0.637795,0,-0.76378][0.8477,0.086853,0][-0.764486,8.6767,-1.62407][0.519685,-0.433071,-0.732283][0.850374,0.08018,0][-0.820482,8.69894,-1.64917][0.0551181,0,-1][0.867229,0.087045,0][-1.69212,8.16844,-1.55057][0.0472441,-0.00787402,-1][0.503443,0.374976,0][-1.6907,8.50894,-1.57766][0.165354,-0.0787402,-0.984252][0.503554,0.41487,0][-1.45985,8.50632,-1.5384][0.0472441,0,-1][0.472076,0.41436,0][-1.14297,8.73746,-1.64005][-0.149606,0.535433,-0.834646][0.963027,0.098835,0][-1.17101,8.76826,-1.61027][-0.204724,0.574803,-0.787402][0.972546,0.110837,0][-1.11161,8.77898,-1.60716][0.0393701,0.661417,-0.748031][0.95303,0.114903,0][-1.11161,8.77898,-1.60716][0.0393701,0.661417,-0.748031][0.95303,0.114903,0][-1.10998,8.7434,-1.63832][0.0393701,0.590551,-0.80315][0.953171,0.100528,0][-1.14297,8.73746,-1.64005][-0.149606,0.535433,-0.834646][0.963027,0.098835,0][0.520486,8.6142,1.54473][0.866142,-0.496063,0.0472441][0.32844,0.622735,0][0.528364,8.6142,1.39441][0.866142,-0.496063,0.0472441][0.32844,0.536676,0][0.565942,8.67936,1.39638][0.866142,-0.496063,0.0472441][0.337978,0.536676,0][0.565942,8.67936,1.39638][0.866142,-0.496063,0.0472441][0.337978,0.536676,0][0.558064,8.67936,1.5467][0.866142,-0.496063,0.0472441][0.337978,0.622735,0][0.520486,8.6142,1.54473][0.866142,-0.496063,0.0472441][0.32844,0.622735,0][-0.789328,8.00002,-1.55583][-0.992126,-0.11811,-0.0551181][0.376475,0.355566,0][-0.79162,8.00002,-1.5121][-0.992126,-0.11811,-0.0551181][0.382329,0.355019,0][-0.811982,8.16844,-1.51317][-0.992126,-0.11811,-0.0551181][0.384912,0.374743,0][-0.811982,8.16844,-1.51317][-0.992126,-0.11811,-0.0551181][0.384912,0.374743,0][-0.80969,8.16844,-1.5569][-0.992126,-0.11811,-0.0551181][0.379051,0.375236,0][-0.789328,8.00002,-1.55583][-0.992126,-0.11811,-0.0551181][0.376475,0.355566,0][-0.576672,8.72118,-1.61422][-0.440945,0.433071,-0.787402][0.92904,0.039633,0][-0.624808,8.73896,-1.57064][-0.511811,0.425197,-0.740157][0.94504,0.04617,0][-0.581324,8.76826,-1.56836][-0.267717,0.708661,-0.661417][0.931428,0.056561,0][-0.581324,8.76826,-1.56836][-0.267717,0.708661,-0.661417][0.931428,0.056561,0][-0.552516,8.73744,-1.61296][-0.212598,0.669291,-0.716535][0.921909,0.044559,0][-0.576672,8.72118,-1.61422][-0.440945,0.433071,-0.787402][0.92904,0.039633,0][-0.48652,8.66042,-1.6095][0.283465,-0.669291,-0.692913][0.902462,0.020978,0][-0.462532,8.62962,-1.56214][0.330709,-0.708661,-0.629921][0.892943,0.00897503,0][-0.521928,8.61888,-1.56525][0.0314961,-0.787402,-0.614173][0.912459,0.00490898,0][-0.521928,8.61888,-1.56525][0.0314961,-0.787402,-0.614173][0.912459,0.00490898,0][-0.519518,8.65446,-1.61123][0.0314961,-0.732283,-0.677165][0.912318,0.019285,0][-0.48652,8.66042,-1.6095][0.283465,-0.669291,-0.692913][0.902462,0.020978,0][-1.37709,8.00002,-1.14912][-0.19685,-0.976378,0.11811][0.579703,0.259615,0][-1.05753,8.00002,-1.13237][0,-1,0.0472441][0.579703,0.235718,0][-1.03278,8.16844,-0.615932][-0.00787402,-1,0.0708661][0.623921,0.231854,0][-1.03278,8.16844,-0.615932][-0.00787402,-1,0.0708661][0.623921,0.231854,0][-1.73916,8.16844,-0.652952][-0.149606,-0.976378,0.173228][0.623921,0.284678,0][-1.37709,8.00002,-1.14912][-0.19685,-0.976378,0.11811][0.579703,0.259615,0][-1.03278,8.16844,-0.615932][-0.00787402,-1,0.0708661][0.623921,0.231854,0][-1.66286,8.16844,-0.477002][0,-1,0][0.63868,0.2783,0][-1.73916,8.16844,-0.652952][-0.149606,-0.976378,0.173228][0.623921,0.284678,0][-1.66286,8.16844,-0.477002][0,-1,0][0.63868,0.2783,0][-1.03278,8.16844,-0.615932][-0.00787402,-1,0.0708661][0.623921,0.231854,0][-0.926304,8.16844,1.33968][0,-1,0][0.791303,0.216271,0][-0.926304,8.16844,1.33968][0,-1,0][0.791303,0.216271,0][-1.17356,8.16844,1.54467][0,-1,0][0.810011,0.233908,0][-1.66286,8.16844,-0.477002][0,-1,0][0.63868,0.2783,0][1.0915,8.16844,-0.504602][-0.00787402,-1,0.0708661][0.623921,0.073,0][1.1701,8.00002,-1.01562][0,-1,0.0472441][0.579703,0.069136,0][1.48966,8.00002,-0.998876][0.181102,-0.976378,0.141732][0.579703,0.04524,0][1.48966,8.00002,-0.998876][0.181102,-0.976378,0.141732][0.579703,0.04524,0][1.79789,8.16844,-0.467582][0.133858,-0.976378,0.188976][0.623921,0.020177,0][1.0915,8.16844,-0.504602][-0.00787402,-1,0.0708661][0.623921,0.073,0][1.0915,8.16844,-0.504602][-0.00787402,-1,0.0708661][0.623921,0.073,0][1.79789,8.16844,-0.467582][0.133858,-0.976378,0.188976][0.623921,0.020177,0][1.70361,8.16844,-0.300572][0,-1,0][0.638681,0.026555,0][0.781196,8.16844,1.42916][0,-1,0][0.791303,0.088584,0][1.0915,8.16844,-0.504602][-0.00787402,-1,0.0708661][0.623921,0.073,0][1.70361,8.16844,-0.300572][0,-1,0][0.638681,0.026555,0][1.70361,8.16844,-0.300572][0,-1,0][0.638681,0.026555,0][1.00566,8.16844,1.65888][0,-1,0][0.810011,0.070946,0][0.781196,8.16844,1.42916][0,-1,0][0.791303,0.088584,0][1.84493,8.16844,-1.3652][0.0551181,-0.00787402,-1][0.015363,0.374615,0][1.61266,8.50632,-1.37738][0.0551181,0,-1][0.046654,0.414046,0][1.84635,8.50894,-1.39229][-0.0629921,-0.0787402,-0.992126][0.015174,0.414509,0][-0.80969,8.16844,-1.5569][-0.992126,-0.0787402,-0.0551181][0.379051,0.375236,0][-0.811982,8.16844,-1.51317][-0.992126,-0.0787402,-0.0551181][0.384912,0.374743,0][-0.839246,8.50632,-1.5146][-0.992126,-0.0787402,-0.0551181][0.388628,0.414266,0][-0.839246,8.50632,-1.5146][-0.992126,-0.0787402,-0.0551181][0.388628,0.414266,0][-0.836954,8.50632,-1.55833][-0.992126,-0.0787402,-0.0551181][0.382755,0.414692,0][-0.80969,8.16844,-1.5569][-0.992126,-0.0787402,-0.0551181][0.379051,0.375236,0][-0.788642,8.66042,-1.62533][0.283465,-0.669291,-0.692913][0.857506,0.075254,0][-0.764654,8.62962,-1.57797][0.330709,-0.708661,-0.629921][0.847987,0.063252,0][-0.82405,8.61888,-1.58108][0.0314961,-0.787402,-0.614173][0.867503,0.059186,0][-0.82405,8.61888,-1.58108][0.0314961,-0.787402,-0.614173][0.867503,0.059186,0][-0.82164,8.65446,-1.62706][0.0314961,-0.732283,-0.677165][0.867362,0.073561,0][-0.788642,8.66042,-1.62533][0.283465,-0.669291,-0.692913][0.857506,0.075254,0][-0.926304,8.16844,1.33968][0,-1,0][0.791303,0.216271,0][0.781196,8.16844,1.42916][0,-1,0][0.791303,0.088584,0][-0.389076,8.16844,1.58578][0,-1,0][0.810011,0.152427,0][-0.389076,8.16844,1.58578][0,-1,0][0.810011,0.152427,0][-1.17356,8.16844,1.54467][0,-1,0][0.810011,0.233908,0][-0.926304,8.16844,1.33968][0,-1,0][0.791303,0.216271,0][0.781196,8.16844,1.42916][0,-1,0][0.791303,0.088584,0][1.00566,8.16844,1.65888][0,-1,0][0.810011,0.070946,0][-0.389076,8.16844,1.58578][0,-1,0][0.810011,0.152427,0][0.558064,8.94724,1.5467][0.866142,0.496063,0.0472441][0.337978,0.622735,0][0.565942,8.94724,1.39638][0.866142,0.496063,0.0472441][0.337978,0.536676,0][0.528364,9.0124,1.39441][0.866142,0.496063,0.0472441][0.347516,0.536676,0][0.528364,9.0124,1.39441][0.866142,0.496063,0.0472441][0.347516,0.536676,0][0.520486,9.0124,1.54473][0.866142,0.496063,0.0472441][0.347516,0.622735,0][0.558064,8.94724,1.5467][0.866142,0.496063,0.0472441][0.337978,0.622735,0][-0.462366,8.6767,-1.60823][0.519685,-0.433071,-0.732283][0.895331,0.025904,0][-0.41905,8.65892,-1.55986][0.590551,-0.425197,-0.685039][0.879331,0.019366,0][-0.462532,8.62962,-1.56214][0.330709,-0.708661,-0.629921][0.892943,0.00897503,0][-0.462532,8.62962,-1.56214][0.330709,-0.708661,-0.629921][0.892943,0.00897503,0][-0.48652,8.66042,-1.6095][0.283465,-0.669291,-0.692913][0.902462,0.020978,0][-0.462366,8.6767,-1.60823][0.519685,-0.433071,-0.732283][0.895331,0.025904,0][-0.967574,8.43364,-1.61499][-0.259843,-0.968504,-0.015748][0.893134,0.193903,0][-0.96971,8.43364,-1.57424][-0.259843,-0.968504,-0.015748][0.893134,0.186722,0][-1.01331,8.44534,-1.57652][-0.259843,-0.968504,-0.015748][0.909319,0.186722,0][-1.01331,8.44534,-1.57652][-0.259843,-0.968504,-0.015748][0.909319,0.186722,0][-1.01117,8.44534,-1.61728][-0.259843,-0.968504,-0.015748][0.909319,0.193903,0][-0.967574,8.43364,-1.61499][-0.259843,-0.968504,-0.015748][0.893134,0.193903,0][0.520486,8.88206,1.54473][0.866142,-0.496063,0.0472441][0.32844,0.622735,0][0.528364,8.88206,1.39441][0.866142,-0.496063,0.0472441][0.32844,0.536676,0][0.565942,8.94724,1.39638][0.866142,-0.496063,0.0472441][0.337978,0.536676,0][0.565942,8.94724,1.39638][0.866142,-0.496063,0.0472441][0.337978,0.536676,0][0.558064,8.94724,1.5467][0.866142,-0.496063,0.0472441][0.337978,0.622735,0][0.520486,8.88206,1.54473][0.866142,-0.496063,0.0472441][0.32844,0.622735,0][-1.05283,8.6767,-1.63532][0.417323,-0.338583,-0.84252][0.936449,0.08018,0][-1.00873,8.65892,-1.60177][0.480315,-0.330709,-0.811024][0.920449,0.073643,0][-1.05221,8.62962,-1.60405][0.291339,-0.574803,-0.76378][0.934061,0.063252,0][-1.05221,8.62962,-1.60405][0.291339,-0.574803,-0.76378][0.934061,0.063252,0][-1.07698,8.66042,-1.63659][0.23622,-0.535433,-0.811024][0.943581,0.075254,0][-1.05283,8.6767,-1.63532][0.417323,-0.338583,-0.84252][0.936449,0.08018,0][0.163133,8.34626,1.526][0.866142,-0.496063,0.0472441][0.32844,0.622735,0][0.171011,8.34626,1.37569][0.866142,-0.496063,0.0472441][0.32844,0.536676,0][0.208586,8.41142,1.37765][0.866142,-0.496063,0.0472441][0.337978,0.536676,0][0.208586,8.41142,1.37765][0.866142,-0.496063,0.0472441][0.337978,0.536676,0][0.20071,8.41142,1.52797][0.866142,-0.496063,0.0472441][0.337978,0.622735,0][0.163133,8.34626,1.526][0.866142,-0.496063,0.0472441][0.32844,0.622735,0][-0.854636,8.73744,-1.62879][-0.212598,0.669291,-0.716535][0.876952,0.098835,0][-0.883446,8.76826,-1.5842][-0.267717,0.708661,-0.661417][0.886472,0.110837,0][-0.82405,8.77898,-1.58108][0.0314961,0.787402,-0.614173][0.866956,0.114903,0][-0.82405,8.77898,-1.58108][0.0314961,0.787402,-0.614173][0.866956,0.114903,0][-0.82164,8.7434,-1.62706][0.0314961,0.732283,-0.677165][0.867097,0.100528,0][-0.854636,8.73744,-1.62879][-0.212598,0.669291,-0.716535][0.876952,0.098835,0][-0.41905,8.65892,-1.55986][0.590551,-0.425197,-0.685039][0.879331,0.019366,0][-0.462366,8.6767,-1.60823][0.519685,-0.433071,-0.732283][0.895331,0.025904,0][-0.453524,8.69894,-1.60777][0.637795,0,-0.76378][0.892656,0.032576,0][-0.552516,8.73744,-1.61296][-0.212598,0.669291,-0.716535][0.921909,0.044559,0][-0.581324,8.76826,-1.56836][-0.267717,0.708661,-0.661417][0.931428,0.056561,0][-0.521928,8.77898,-1.56525][0.0314961,0.787402,-0.614173][0.911912,0.060627,0][-0.521928,8.77898,-1.56525][0.0314961,0.787402,-0.614173][0.911912,0.060627,0][-0.519518,8.7434,-1.61123][0.0314961,0.732283,-0.677165][0.912053,0.046251,0][-0.552516,8.73744,-1.61296][-0.212598,0.669291,-0.716535][0.921909,0.044559,0][-0.764486,8.6767,-1.62407][0.519685,-0.433071,-0.732283][0.850374,0.08018,0][-0.72117,8.65892,-1.57569][0.590551,-0.425197,-0.685039][0.834374,0.073643,0][-0.764654,8.62962,-1.57797][0.330709,-0.708661,-0.629921][0.847987,0.063252,0][-0.764654,8.62962,-1.57797][0.330709,-0.708661,-0.629921][0.847987,0.063252,0][-0.788642,8.66042,-1.62533][0.283465,-0.669291,-0.692913][0.857506,0.075254,0][-0.764486,8.6767,-1.62407][0.519685,-0.433071,-0.732283][0.850374,0.08018,0][-1.07698,8.73746,-1.63659][0.23622,0.535433,-0.811024][0.943351,0.098642,0][-1.10998,8.7434,-1.63832][0.0393701,0.590551,-0.80315][0.953171,0.100528,0][-1.11161,8.77898,-1.60716][0.0393701,0.661417,-0.748031][0.95303,0.114903,0][-1.11161,8.77898,-1.60716][0.0393701,0.661417,-0.748031][0.95303,0.114903,0][-1.05221,8.76826,-1.60405][0.291339,0.574803,-0.76378][0.933598,0.110455,0][-1.07698,8.73746,-1.63659][0.23622,0.535433,-0.811024][0.943351,0.098642,0][0.558064,8.67936,1.5467][0.866142,0.496063,0.0472441][0.337978,0.622735,0][0.565942,8.67936,1.39638][0.866142,0.496063,0.0472441][0.337978,0.536676,0][0.528364,8.74454,1.39441][0.866142,0.496063,0.0472441][0.347516,0.536676,0][0.528364,8.74454,1.39441][0.866142,0.496063,0.0472441][0.347516,0.536676,0][0.520486,8.74454,1.54473][0.866142,0.496063,0.0472441][0.347516,0.622735,0][0.558064,8.67936,1.5467][0.866142,0.496063,0.0472441][0.337978,0.622735,0][0.087978,8.34626,1.52206][0,-1,0][0.318902,0.622735,0][0.0958556,8.34626,1.37175][0,-1,0][0.318902,0.536676,0][0.171011,8.34626,1.37569][0,-1,0][0.32844,0.536676,0][0.171011,8.34626,1.37569][0,-1,0][0.32844,0.536676,0][0.163133,8.34626,1.526][0,-1,0][0.32844,0.622735,0][0.087978,8.34626,1.52206][0,-1,0][0.318902,0.622735,0][0.445332,8.34626,1.54079][0,-1,0][0.318902,0.622735,0][0.45321,8.34626,1.39047][0,-1,0][0.318902,0.536676,0][0.528364,8.34626,1.39441][0,-1,0][0.32844,0.536676,0][0.528364,8.34626,1.39441][0,-1,0][0.32844,0.536676,0][0.520486,8.34626,1.54473][0,-1,0][0.32844,0.622735,0][0.445332,8.34626,1.54079][0,-1,0][0.318902,0.622735,0][-0.453524,8.69894,-1.60777][0.637795,0,-0.76378][0.892656,0.032576,0][-0.462366,8.72118,-1.60823][0.519685,0.433071,-0.732283][0.895199,0.039301,0][-0.41905,8.73896,-1.55986][0.590551,0.425197,-0.685039][0.879074,0.045523,0][-0.41905,8.73896,-1.55986][0.590551,0.425197,-0.685039][0.879074,0.045523,0][-0.403134,8.69894,-1.55902][0.692913,0,-0.716535][0.874577,0.032399,0][-0.453524,8.69894,-1.60777][0.637795,0,-0.76378][0.892656,0.032576,0][0.163133,8.6142,1.526][0.866142,-0.496063,0.0472441][0.32844,0.622735,0][0.171011,8.6142,1.37569][0.866142,-0.496063,0.0472441][0.32844,0.536676,0][0.208586,8.67936,1.37765][0.866142,-0.496063,0.0472441][0.337978,0.536676,0][0.208586,8.67936,1.37765][0.866142,-0.496063,0.0472441][0.337978,0.536676,0][0.20071,8.67936,1.52797][0.866142,-0.496063,0.0472441][0.337978,0.622735,0][0.163133,8.6142,1.526][0.866142,-0.496063,0.0472441][0.32844,0.622735,0][-1.00873,8.65892,-1.60177][0.480315,-0.330709,-0.811024][0.920449,0.073643,0][-1.05283,8.6767,-1.63532][0.417323,-0.338583,-0.84252][0.936449,0.08018,0][-1.04399,8.69894,-1.63486][0.503937,0,-0.866142][0.933775,0.086853,0][-0.48652,8.73744,-1.6095][0.283465,0.669291,-0.692913][0.902233,0.044366,0][-0.519518,8.7434,-1.61123][0.0314961,0.732283,-0.677165][0.912053,0.046251,0][-0.521928,8.77898,-1.56525][0.0314961,0.787402,-0.614173][0.911912,0.060627,0][-0.521928,8.77898,-1.56525][0.0314961,0.787402,-0.614173][0.911912,0.060627,0][-0.462532,8.76826,-1.56214][0.330709,0.708661,-0.629921][0.892479,0.056179,0][-0.48652,8.73744,-1.6095][0.283465,0.669291,-0.692913][0.902233,0.044366,0][-1.00873,8.73896,-1.60177][0.480315,0.330709,-0.811024][0.920192,0.099799,0][-0.992814,8.69894,-1.60093][0.551181,0,-0.834646][0.915696,0.086675,0][-1.04399,8.69894,-1.63486][0.503937,0,-0.866142][0.933775,0.086853,0][-1.04399,8.69894,-1.63486][0.503937,0,-0.866142][0.933775,0.086853,0][-0.992814,8.69894,-1.60093][0.551181,0,-0.834646][0.915696,0.086675,0][-1.00873,8.65892,-1.60177][0.480315,-0.330709,-0.811024][0.920449,0.073643,0][0.558064,8.41142,1.5467][0.866142,0.496063,0.0472441][0.337978,0.622735,0][0.565942,8.41142,1.39638][0.866142,0.496063,0.0472441][0.337978,0.536676,0][0.528364,8.4766,1.39441][0.866142,0.496063,0.0472441][0.347516,0.536676,0][0.528364,8.4766,1.39441][0.866142,0.496063,0.0472441][0.347516,0.536676,0][0.520486,8.4766,1.54473][0.866142,0.496063,0.0472441][0.347516,0.622735,0][0.558064,8.41142,1.5467][0.866142,0.496063,0.0472441][0.337978,0.622735,0][-0.462532,8.76826,-1.56214][0.330709,0.708661,-0.629921][0.892479,0.056179,0][-0.41905,8.73896,-1.55986][0.590551,0.425197,-0.685039][0.879074,0.045523,0][-0.462366,8.72118,-1.60823][0.519685,0.433071,-0.732283][0.895199,0.039301,0][1.61266,8.50632,-1.37738][0.00787402,-1,-0.00787402][0.0521,0.42434,0][1.51442,8.50632,-1.49535][0.00787402,-1,-0.00787402][0.066134,0.437513,0][1.84635,8.50894,-1.39229][0.00787402,-1,-0.00787402][0.020797,0.427512,0][-1.45985,8.50632,-1.5384][-0.00787402,-1,-0.00787402][0.466156,0.424339,0][-1.6907,8.50894,-1.57766][-0.00787402,-1,-0.00787402][0.497459,0.427511,0][-1.34981,8.50632,-1.64546][-0.00787402,-1,-0.00787402][0.452122,0.437513,0][-1.05283,8.72118,-1.63532][0.417323,0.338583,-0.84252][0.936317,0.093577,0][-1.07698,8.73746,-1.63659][0.23622,0.535433,-0.811024][0.943351,0.098642,0][-1.05221,8.76826,-1.60405][0.291339,0.574803,-0.76378][0.933598,0.110455,0][-1.05221,8.76826,-1.60405][0.291339,0.574803,-0.76378][0.933598,0.110455,0][-1.00873,8.73896,-1.60177][0.480315,0.330709,-0.811024][0.920192,0.099799,0][-1.05283,8.72118,-1.63532][0.417323,0.338583,-0.84252][0.936317,0.093577,0][-0.755644,8.69894,-1.6236][0.637795,0,-0.76378][0.8477,0.086853,0][-0.705254,8.69894,-1.57486][0.692913,0,-0.716535][0.829621,0.086675,0][-0.72117,8.65892,-1.57569][0.590551,-0.425197,-0.685039][0.834374,0.073643,0][-0.72117,8.65892,-1.57569][0.590551,-0.425197,-0.685039][0.834374,0.073643,0][-0.764486,8.6767,-1.62407][0.519685,-0.433071,-0.732283][0.850374,0.08018,0][-0.755644,8.69894,-1.6236][0.637795,0,-0.76378][0.8477,0.086853,0][-0.788642,8.73744,-1.62533][0.283465,0.669291,-0.692913][0.857276,0.098642,0][-0.82164,8.7434,-1.62706][0.0314961,0.732283,-0.677165][0.867097,0.100528,0][-0.82405,8.77898,-1.58108][0.0314961,0.787402,-0.614173][0.866956,0.114903,0][-0.82405,8.77898,-1.58108][0.0314961,0.787402,-0.614173][0.866956,0.114903,0][-0.764654,8.76826,-1.57797][0.330709,0.708661,-0.629921][0.847523,0.110455,0][-0.788642,8.73744,-1.62533][0.283465,0.669291,-0.692913][0.857276,0.098642,0][-1.34981,8.50632,-1.64546][0,-1,0][0.452122,0.437513,0][-0.884164,8.50632,-1.62978][0,-1,0][0.389432,0.43853,0][-0.836954,8.50632,-1.55833][0,-1,0][0.382584,0.430477,0][-0.836954,8.50632,-1.55833][0,-1,0][0.382584,0.430477,0][-1.45985,8.50632,-1.5384][0,-1,0][0.466156,0.424339,0][-1.34981,8.50632,-1.64546][0,-1,0][0.452122,0.437513,0][-0.836954,8.50632,-1.55833][0,-1,0][0.382584,0.430477,0][-0.839246,8.50632,-1.5146][0,-1,0][0.382584,0.425356,0][-1.45985,8.50632,-1.5384][0,-1,0][0.466156,0.424339,0][-0.836954,8.50632,-1.55833][0,-1,0][0.382584,0.430477,0][-0.884164,8.50632,-1.62978][0,-1,0][0.389432,0.43853,0][0.0823014,8.50632,-1.5704][0,-1,0][0.259128,0.437513,0][0.0823014,8.50632,-1.5704][0,-1,0][0.259128,0.437513,0][0.078697,8.50632,-1.50163][0,-1,0][0.259128,0.42946,0][-0.836954,8.50632,-1.55833][0,-1,0][0.382584,0.430477,0][0.99526,8.50632,-1.46231][0,-1,0][0.135672,0.430478,0][0.078697,8.50632,-1.50163][0,-1,0][0.259128,0.42946,0][0.0823014,8.50632,-1.5704][0,-1,0][0.259128,0.437513,0][0.0823014,8.50632,-1.5704][0,-1,0][0.259128,0.437513,0][1.04968,8.50632,-1.52843][0,-1,0][0.128824,0.438531,0][0.99526,8.50632,-1.46231][0,-1,0][0.135672,0.430478,0][0.99526,8.50632,-1.46231][0,-1,0][0.135672,0.430478,0][1.04968,8.50632,-1.52843][0,-1,0][0.128824,0.438531,0][1.51442,8.50632,-1.49535][0,-1,0][0.066134,0.437513,0][1.51442,8.50632,-1.49535][0,-1,0][0.066134,0.437513,0][1.61266,8.50632,-1.37738][0,-1,0][0.0521,0.42434,0][0.99526,8.50632,-1.46231][0,-1,0][0.135672,0.430478,0][0.99526,8.50632,-1.46231][0,-1,0][0.135672,0.430478,0][1.61266,8.50632,-1.37738][0,-1,0][0.0521,0.42434,0][0.992968,8.50632,-1.41858][0,-1,0][0.135672,0.425357,0][0.20071,8.94724,1.52797][0.866142,0.496063,0.0472441][0.337978,0.622735,0][0.208586,8.94724,1.37765][0.866142,0.496063,0.0472441][0.337978,0.536676,0][0.171011,9.0124,1.37569][0.866142,0.496063,0.0472441][0.347516,0.536676,0][0.171011,9.0124,1.37569][0.866142,0.496063,0.0472441][0.347516,0.536676,0][0.163133,9.0124,1.526][0.866142,0.496063,0.0472441][0.347516,0.622735,0][0.20071,8.94724,1.52797][0.866142,0.496063,0.0472441][0.337978,0.622735,0][-1.04399,8.69894,-1.63486][0.503937,0,-0.866142][0.933775,0.086853,0][-1.05283,8.72118,-1.63532][0.417323,0.338583,-0.84252][0.936317,0.093577,0][-1.00873,8.73896,-1.60177][0.480315,0.330709,-0.811024][0.920192,0.099799,0][0.163133,8.88206,1.526][0.866142,-0.496063,0.0472441][0.32844,0.622735,0][0.171011,8.88206,1.37569][0.866142,-0.496063,0.0472441][0.32844,0.536676,0][0.208586,8.94724,1.37765][0.866142,-0.496063,0.0472441][0.337978,0.536676,0][0.208586,8.94724,1.37765][0.866142,-0.496063,0.0472441][0.337978,0.536676,0][0.20071,8.94724,1.52797][0.866142,-0.496063,0.0472441][0.337978,0.622735,0][0.163133,8.88206,1.526][0.866142,-0.496063,0.0472441][0.32844,0.622735,0][-0.755644,8.69894,-1.6236][0.637795,0,-0.76378][0.8477,0.086853,0][-0.764486,8.72118,-1.62407][0.519685,0.433071,-0.732283][0.850243,0.093577,0][-0.72117,8.73896,-1.57569][0.590551,0.425197,-0.685039][0.834118,0.099799,0][-0.764654,8.76826,-1.57797][0.330709,0.708661,-0.629921][0.847523,0.110455,0][-0.72117,8.73896,-1.57569][0.590551,0.425197,-0.685039][0.834118,0.099799,0][-0.764486,8.72118,-1.62407][0.519685,0.433071,-0.732283][0.850243,0.093577,0][0.087978,8.6142,1.52206][0,-1,0][0.318902,0.622735,0][0.0958556,8.6142,1.37175][0,-1,0][0.318902,0.536676,0][0.171011,8.6142,1.37569][0,-1,0][0.32844,0.536676,0][0.171011,8.6142,1.37569][0,-1,0][0.32844,0.536676,0][0.163133,8.6142,1.526][0,-1,0][0.32844,0.622735,0][0.087978,8.6142,1.52206][0,-1,0][0.318902,0.622735,0][0.445332,8.6142,1.54079][0,-1,0][0.318902,0.622735,0][0.45321,8.6142,1.39047][0,-1,0][0.318902,0.536676,0][0.528364,8.6142,1.39441][0,-1,0][0.32844,0.536676,0][0.528364,8.6142,1.39441][0,-1,0][0.32844,0.536676,0][0.520486,8.6142,1.54473][0,-1,0][0.32844,0.622735,0][0.445332,8.6142,1.54079][0,-1,0][0.318902,0.622735,0][0.20071,8.67936,1.52797][0.866142,0.496063,0.0472441][0.337978,0.622735,0][0.208586,8.67936,1.37765][0.866142,0.496063,0.0472441][0.337978,0.536676,0][0.171011,8.74454,1.37569][0.866142,0.496063,0.0472441][0.347516,0.536676,0][0.171011,8.74454,1.37569][0.866142,0.496063,0.0472441][0.347516,0.536676,0][0.163133,8.74454,1.526][0.866142,0.496063,0.0472441][0.347516,0.622735,0][0.20071,8.67936,1.52797][0.866142,0.496063,0.0472441][0.337978,0.622735,0][-0.923984,8.44534,-1.61271][0.259843,-0.968504,0.015748][0.876949,0.193903,0][-0.92612,8.44534,-1.57195][0.259843,-0.968504,0.015748][0.876949,0.186722,0][-0.96971,8.43364,-1.57424][0.259843,-0.968504,0.015748][0.893134,0.186722,0][-0.96971,8.43364,-1.57424][0.259843,-0.968504,0.015748][0.893134,0.186722,0][-0.967574,8.43364,-1.61499][0.259843,-0.968504,0.015748][0.893134,0.193903,0][-0.923984,8.44534,-1.61271][0.259843,-0.968504,0.015748][0.876949,0.193903,0][0.20071,8.41142,1.52797][0.866142,0.496063,0.0472441][0.337978,0.622735,0][0.208586,8.41142,1.37765][0.866142,0.496063,0.0472441][0.337978,0.536676,0][0.171011,8.4766,1.37569][0.866142,0.496063,0.0472441][0.347516,0.536676,0][0.171011,8.4766,1.37569][0.866142,0.496063,0.0472441][0.347516,0.536676,0][0.163133,8.4766,1.526][0.866142,0.496063,0.0472441][0.347516,0.622735,0][0.20071,8.41142,1.52797][0.866142,0.496063,0.0472441][0.337978,0.622735,0][0.163133,9.0124,1.526][0,1,0][0.347516,0.622735,0][0.171011,9.0124,1.37569][0,1,0][0.347516,0.536676,0][0.0958556,9.0124,1.37175][0,1,0][0.357054,0.536676,0][0.0958556,9.0124,1.37175][0,1,0][0.357054,0.536676,0][0.087978,9.0124,1.52206][0,1,0][0.357054,0.622735,0][0.163133,9.0124,1.526][0,1,0][0.347516,0.622735,0][0.520486,9.0124,1.54473][0,1,0][0.347516,0.622735,0][0.528364,9.0124,1.39441][0,1,0][0.347516,0.536676,0][0.45321,9.0124,1.39047][0,1,0][0.357054,0.536676,0][0.45321,9.0124,1.39047][0,1,0][0.357054,0.536676,0][0.445332,9.0124,1.54079][0,1,0][0.357054,0.622735,0][0.520486,9.0124,1.54473][0,1,0][0.347516,0.622735,0][-1.17542,8.8913,-1.51772][0.00787402,0.976378,-0.204724][0.957093,0.655179,0][-0.551882,8.88512,-1.48504][0,0.992126,-0.110236][0.957093,0.720147,0][-0.561642,8.8732,-1.58198][0,0.992126,-0.125984][0.945559,0.718604,0][0.0811428,8.8835,-1.5483][0,1,-0.0393701][0.945559,0.785578,0][-0.561642,8.8732,-1.58198][0,0.992126,-0.125984][0.945559,0.718604,0][-0.551882,8.88512,-1.48504][0,0.992126,-0.110236][0.957093,0.720147,0][-0.561642,8.8732,-1.58198][0,0.992126,-0.125984][0.945559,0.718604,0][-1.19988,8.86296,-1.61543][0.00787402,0.976378,-0.204724][0.945559,0.652106,0][-1.17542,8.8913,-1.51772][0.00787402,0.976378,-0.204724][0.957093,0.655179,0][-0.551882,8.88512,-1.48504][0,0.992126,-0.110236][0.957093,0.720147,0][0.0761028,8.8789,-1.45213][0,1,-0.0393701][0.957093,0.785578,0][0.0811428,8.8835,-1.5483][0,1,-0.0393701][0.945559,0.785578,0][0.0811428,8.8835,-1.5483][0,1,-0.0393701][0.945559,0.785578,0][0.0761028,8.8789,-1.45213][0,1,-0.0393701][0.957093,0.785578,0][0.704086,8.88512,-1.41922][0.00787402,0.992126,-0.110236][0.957093,0.851008,0][0.704086,8.88512,-1.41922][0.00787402,0.992126,-0.110236][0.957093,0.851008,0][0.723926,8.8732,-1.51461][0.00787402,0.992126,-0.125984][0.945559,0.85255,0][0.0811428,8.8835,-1.5483][0,1,-0.0393701][0.945559,0.785578,0][0.723926,8.8732,-1.51461][0.00787402,0.992126,-0.125984][0.945559,0.85255,0][0.704086,8.88512,-1.41922][0.00787402,0.992126,-0.110236][0.957093,0.851008,0][1.32763,8.8913,-1.38654][0.015748,0.976378,-0.204724][0.957093,0.915976,0][1.32763,8.8913,-1.38654][0.015748,0.976378,-0.204724][0.957093,0.915976,0][1.36216,8.86296,-1.48116][0.015748,0.976378,-0.204724][0.945559,0.919049,0][0.723926,8.8732,-1.51461][0.00787402,0.992126,-0.125984][0.945559,0.85255,0][-1.74609,10.3873,-0.520654][-0.0551181,-0.015748,1][0.830298,0.306394,0][-1.74468,8.41854,-0.547716][-0.0551181,0,1][0.83624,0.530795,0][-1.64527,8.41854,-0.542506][-0.0551181,0,1][0.823604,0.530086,0][-1.64527,8.41854,-0.542506][-0.0551181,0,1][0.823604,0.530086,0][-1.64668,10.3873,-0.515442][-0.0551181,-0.015748,1][0.818432,0.309894,0][-1.74609,10.3873,-0.520654][-0.0551181,-0.015748,1][0.830298,0.306394,0][1.69296,8.41854,-0.367558][-0.0551181,0,1][0.823604,0.530086,0][1.79237,8.41854,-0.362348][-0.0551181,0,1][0.83624,0.530795,0][1.79095,10.3873,-0.335284][-0.0551181,-0.015748,1][0.830298,0.306394,0][1.79095,10.3873,-0.335284][-0.0551181,-0.015748,1][0.830298,0.306394,0][1.69155,10.3873,-0.340494][-0.0551181,-0.015748,1][0.818432,0.309894,0][1.69296,8.41854,-0.367558][-0.0551181,0,1][0.823604,0.530086,0][0.087978,8.88206,1.52206][0,-1,0][0.318902,0.622735,0][0.0958556,8.88206,1.37175][0,-1,0][0.318902,0.536676,0][0.171011,8.88206,1.37569][0,-1,0][0.32844,0.536676,0][0.171011,8.88206,1.37569][0,-1,0][0.32844,0.536676,0][0.163133,8.88206,1.526][0,-1,0][0.32844,0.622735,0][0.087978,8.88206,1.52206][0,-1,0][0.318902,0.622735,0][0.445332,8.88206,1.54079][0,-1,0][0.318902,0.622735,0][0.45321,8.88206,1.39047][0,-1,0][0.318902,0.536676,0][0.528364,8.88206,1.39441][0,-1,0][0.32844,0.536676,0][0.528364,8.88206,1.39441][0,-1,0][0.32844,0.536676,0][0.520486,8.88206,1.54473][0,-1,0][0.32844,0.622735,0][0.445332,8.88206,1.54079][0,-1,0][0.318902,0.622735,0][0.0504016,8.41142,1.52009][-0.866142,-0.496063,-0.0472441][0.366592,0.622735,0][0.0582792,8.41142,1.36978][-0.866142,-0.496063,-0.0472441][0.366592,0.536676,0][0.0958556,8.34626,1.37175][-0.866142,-0.496063,-0.0472441][0.37613,0.536676,0][0.0958556,8.34626,1.37175][-0.866142,-0.496063,-0.0472441][0.37613,0.536676,0][0.087978,8.34626,1.52206][-0.866142,-0.496063,-0.0472441][0.37613,0.622735,0][0.0504016,8.41142,1.52009][-0.866142,-0.496063,-0.0472441][0.366592,0.622735,0][-0.260404,9.2742,1.38946][-0.0551181,0,1][0.970287,0.966339,0][-0.271016,9.2742,1.59197][-0.0551181,0,1][0.970372,0.98731,0][-0.271016,8.24788,1.59197][-0.0551181,0,1][0.86424,0.987741,0][-0.271016,8.24788,1.59197][-0.0551181,0,1][0.86424,0.987741,0][-0.260404,8.24788,1.38946][-0.0551181,0,1][0.864155,0.96677,0][-0.260404,9.2742,1.38946][-0.0551181,0,1][0.970287,0.966339,0][-1.74468,8.41854,-0.547716][-0.0551181,0,1][0.83624,0.530795,0][-1.66286,8.16844,-0.477002][-0.0472441,0.259843,0.968504][0.815668,0.56044,0][-1.64527,8.41854,-0.542506][-0.0551181,0,1][0.823604,0.530086,0][1.79237,8.41854,-0.362348][-0.0551181,0,1][0.83624,0.530795,0][1.69296,8.41854,-0.367558][-0.0551181,0,1][0.823604,0.530086,0][1.70361,8.16844,-0.300572][-0.0472441,0.259843,0.968504][0.815668,0.56044,0][0.0504016,8.67936,1.52009][-0.866142,-0.496063,-0.0472441][0.366592,0.622735,0][0.0582792,8.67936,1.36978][-0.866142,-0.496063,-0.0472441][0.366592,0.536676,0][0.0958556,8.6142,1.37175][-0.866142,-0.496063,-0.0472441][0.37613,0.536676,0][0.0958556,8.6142,1.37175][-0.866142,-0.496063,-0.0472441][0.37613,0.536676,0][0.087978,8.6142,1.52206][-0.866142,-0.496063,-0.0472441][0.37613,0.622735,0][0.0504016,8.67936,1.52009][-0.866142,-0.496063,-0.0472441][0.366592,0.622735,0][0.163133,8.74454,1.526][0,1,0][0.347516,0.622735,0][0.171011,8.74454,1.37569][0,1,0][0.347516,0.536676,0][0.0958556,8.74454,1.37175][0,1,0][0.357054,0.536676,0][0.0958556,8.74454,1.37175][0,1,0][0.357054,0.536676,0][0.087978,8.74454,1.52206][0,1,0][0.357054,0.622735,0][0.163133,8.74454,1.526][0,1,0][0.347516,0.622735,0][0.520486,8.74454,1.54473][0,1,0][0.347516,0.622735,0][0.528364,8.74454,1.39441][0,1,0][0.347516,0.536676,0][0.45321,8.74454,1.39047][0,1,0][0.357054,0.536676,0][0.45321,8.74454,1.39047][0,1,0][0.357054,0.536676,0][0.445332,8.74454,1.54079][0,1,0][0.357054,0.622735,0][0.520486,8.74454,1.54473][0,1,0][0.347516,0.622735,0][0.087978,9.0124,1.52206][-0.866142,0.496063,-0.0472441][0.357054,0.622735,0][0.0958556,9.0124,1.37175][-0.866142,0.496063,-0.0472441][0.357054,0.536676,0][0.0582792,8.94724,1.36978][-0.866142,0.496063,-0.0472441][0.366592,0.536676,0][0.0582792,8.94724,1.36978][-0.866142,0.496063,-0.0472441][0.366592,0.536676,0][0.0504016,8.94724,1.52009][-0.866142,0.496063,-0.0472441][0.366592,0.622735,0][0.087978,9.0124,1.52206][-0.866142,0.496063,-0.0472441][0.357054,0.622735,0][-0.892066,8.4773,-1.61103][0.708661,-0.708661,0.0393701][0.860765,0.193903,0][-0.894202,8.4773,-1.57028][0.708661,-0.708661,0.0393701][0.860765,0.186722,0][-0.92612,8.44534,-1.57195][0.708661,-0.708661,0.0393701][0.876949,0.186722,0][-0.92612,8.44534,-1.57195][0.708661,-0.708661,0.0393701][0.876949,0.186722,0][-0.923984,8.44534,-1.61271][0.708661,-0.708661,0.0393701][0.876949,0.193903,0][-0.892066,8.4773,-1.61103][0.708661,-0.708661,0.0393701][0.860765,0.193903,0][0.0504016,8.94724,1.52009][-0.866142,-0.496063,-0.0472441][0.366592,0.622735,0][0.0582792,8.94724,1.36978][-0.866142,-0.496063,-0.0472441][0.366592,0.536676,0][0.0958556,8.88206,1.37175][-0.866142,-0.496063,-0.0472441][0.37613,0.536676,0][0.0958556,8.88206,1.37175][-0.866142,-0.496063,-0.0472441][0.37613,0.536676,0][0.087978,8.88206,1.52206][-0.866142,-0.496063,-0.0472441][0.37613,0.622735,0][0.0504016,8.94724,1.52009][-0.866142,-0.496063,-0.0472441][0.366592,0.622735,0][0.407756,8.41142,1.53882][-0.866142,-0.496063,-0.0472441][0.366592,0.622735,0][0.415632,8.41142,1.38851][-0.866142,-0.496063,-0.0472441][0.366592,0.536676,0][0.45321,8.34626,1.39047][-0.866142,-0.496063,-0.0472441][0.37613,0.536676,0][0.45321,8.34626,1.39047][-0.866142,-0.496063,-0.0472441][0.37613,0.536676,0][0.445332,8.34626,1.54079][-0.866142,-0.496063,-0.0472441][0.37613,0.622735,0][0.407756,8.41142,1.53882][-0.866142,-0.496063,-0.0472441][0.366592,0.622735,0][0.89854,9.2742,1.45019][-0.0551181,0,1][0.359577,0.259642,0][0.887926,9.2742,1.65271][-0.0551181,0,1][0.338606,0.259727,0][-0.271016,9.2742,1.59197][-0.0551181,0,1][0.338119,0.139717,0][-0.271016,9.2742,1.59197][-0.0551181,0,1][0.338119,0.139717,0][-0.260404,9.2742,1.38946][-0.0551181,0,1][0.35909,0.139632,0][0.89854,9.2742,1.45019][-0.0551181,0,1][0.359577,0.259642,0][0.087978,8.74454,1.52206][-0.866142,0.496063,-0.0472441][0.357054,0.622735,0][0.0958556,8.74454,1.37175][-0.866142,0.496063,-0.0472441][0.357054,0.536676,0][0.0582792,8.67936,1.36978][-0.866142,0.496063,-0.0472441][0.366592,0.536676,0][0.0582792,8.67936,1.36978][-0.866142,0.496063,-0.0472441][0.366592,0.536676,0][0.0504016,8.67936,1.52009][-0.866142,0.496063,-0.0472441][0.366592,0.622735,0][0.087978,8.74454,1.52206][-0.866142,0.496063,-0.0472441][0.357054,0.622735,0][0.163133,8.4766,1.526][0,1,0][0.347516,0.622735,0][0.171011,8.4766,1.37569][0,1,0][0.347516,0.536676,0][0.0958556,8.4766,1.37175][0,1,0][0.357054,0.536676,0][0.0958556,8.4766,1.37175][0,1,0][0.357054,0.536676,0][0.087978,8.4766,1.52206][0,1,0][0.357054,0.622735,0][0.163133,8.4766,1.526][0,1,0][0.347516,0.622735,0][0.520486,8.4766,1.54473][0,1,0][0.347516,0.622735,0][0.528364,8.4766,1.39441][0,1,0][0.347516,0.536676,0][0.45321,8.4766,1.39047][0,1,0][0.357054,0.536676,0][0.45321,8.4766,1.39047][0,1,0][0.357054,0.536676,0][0.445332,8.4766,1.54079][0,1,0][0.357054,0.622735,0][0.520486,8.4766,1.54473][0,1,0][0.347516,0.622735,0][0.407756,8.67936,1.53882][-0.866142,-0.496063,-0.0472441][0.366592,0.622735,0][0.415632,8.67936,1.38851][-0.866142,-0.496063,-0.0472441][0.366592,0.536676,0][0.45321,8.6142,1.39047][-0.866142,-0.496063,-0.0472441][0.37613,0.536676,0][0.45321,8.6142,1.39047][-0.866142,-0.496063,-0.0472441][0.37613,0.536676,0][0.445332,8.6142,1.54079][-0.866142,-0.496063,-0.0472441][0.37613,0.622735,0][0.407756,8.67936,1.53882][-0.866142,-0.496063,-0.0472441][0.366592,0.622735,0][0.087978,8.4766,1.52206][-0.866142,0.496063,-0.0472441][0.357054,0.622735,0][0.0958556,8.4766,1.37175][-0.866142,0.496063,-0.0472441][0.357054,0.536676,0][0.0582792,8.41142,1.36978][-0.866142,0.496063,-0.0472441][0.366592,0.536676,0][0.0582792,8.41142,1.36978][-0.866142,0.496063,-0.0472441][0.366592,0.536676,0][0.0504016,8.41142,1.52009][-0.866142,0.496063,-0.0472441][0.366592,0.622735,0][0.087978,8.4766,1.52206][-0.866142,0.496063,-0.0472441][0.357054,0.622735,0][0.445332,9.0124,1.54079][-0.866142,0.496063,-0.0472441][0.357054,0.622735,0][0.45321,9.0124,1.39047][-0.866142,0.496063,-0.0472441][0.357054,0.536676,0][0.415632,8.94724,1.38851][-0.866142,0.496063,-0.0472441][0.366592,0.536676,0][0.415632,8.94724,1.38851][-0.866142,0.496063,-0.0472441][0.366592,0.536676,0][0.407756,8.94724,1.53882][-0.866142,0.496063,-0.0472441][0.366592,0.622735,0][0.445332,9.0124,1.54079][-0.866142,0.496063,-0.0472441][0.357054,0.622735,0][0.407756,8.94724,1.53882][-0.866142,-0.496063,-0.0472441][0.366592,0.622735,0][0.415632,8.94724,1.38851][-0.866142,-0.496063,-0.0472441][0.366592,0.536676,0][0.45321,8.88206,1.39047][-0.866142,-0.496063,-0.0472441][0.37613,0.536676,0][0.45321,8.88206,1.39047][-0.866142,-0.496063,-0.0472441][0.37613,0.536676,0][0.445332,8.88206,1.54079][-0.866142,-0.496063,-0.0472441][0.37613,0.622735,0][0.407756,8.94724,1.53882][-0.866142,-0.496063,-0.0472441][0.366592,0.622735,0][-0.880384,8.52096,-1.61042][0.968504,-0.259843,0.0472441][0.84458,0.193903,0][-0.88252,8.52096,-1.56967][0.968504,-0.259843,0.0472441][0.84458,0.186722,0][-0.894202,8.4773,-1.57028][0.968504,-0.259843,0.0472441][0.860765,0.186722,0][-0.894202,8.4773,-1.57028][0.968504,-0.259843,0.0472441][0.860765,0.186722,0][-0.892066,8.4773,-1.61103][0.968504,-0.259843,0.0472441][0.860765,0.193903,0][-0.880384,8.52096,-1.61042][0.968504,-0.259843,0.0472441][0.84458,0.193903,0][-0.260404,8.24788,1.38946][-0.0551181,0,1][0.367219,0.14359,0][-0.271016,8.24788,1.59197][-0.0551181,0,1][0.38819,0.143505,0][0.887644,8.24788,1.65269][-0.0551181,0,1][0.388677,0.263485,0][0.887644,8.24788,1.65269][-0.0551181,0,1][0.388677,0.263485,0][0.898256,8.24788,1.45018][-0.0551181,0,1][0.367706,0.26357,0][-0.260404,8.24788,1.38946][-0.0551181,0,1][0.367219,0.14359,0][0.445332,8.74454,1.54079][-0.866142,0.496063,-0.0472441][0.357054,0.622735,0][0.45321,8.74454,1.39047][-0.866142,0.496063,-0.0472441][0.357054,0.536676,0][0.415632,8.67936,1.38851][-0.866142,0.496063,-0.0472441][0.366592,0.536676,0][0.415632,8.67936,1.38851][-0.866142,0.496063,-0.0472441][0.366592,0.536676,0][0.407756,8.67936,1.53882][-0.866142,0.496063,-0.0472441][0.366592,0.622735,0][0.445332,8.74454,1.54079][-0.866142,0.496063,-0.0472441][0.357054,0.622735,0][-1.17542,8.8913,-1.51772][0.968504,0,-0.244094][0.393759,0.078529,0][-1.19988,8.86296,-1.61543][0.968504,0,-0.244094][0.404623,0.075753,0][-1.19988,10.7427,-1.61543][0.968504,0,-0.244094][0.404623,0.259975,0][-1.19988,10.7427,-1.61543][0.968504,0,-0.244094][0.404623,0.259975,0][-1.17542,10.7143,-1.51772][0.968504,0,-0.244094][0.393759,0.257199,0][-1.17542,8.8913,-1.51772][0.968504,0,-0.244094][0.393759,0.078529,0][0.445332,8.4766,1.54079][-0.866142,0.496063,-0.0472441][0.357054,0.622735,0][0.45321,8.4766,1.39047][-0.866142,0.496063,-0.0472441][0.357054,0.536676,0][0.415632,8.41142,1.38851][-0.866142,0.496063,-0.0472441][0.366592,0.536676,0][0.415632,8.41142,1.38851][-0.866142,0.496063,-0.0472441][0.366592,0.536676,0][0.407756,8.41142,1.53882][-0.866142,0.496063,-0.0472441][0.366592,0.622735,0][0.445332,8.4766,1.54079][-0.866142,0.496063,-0.0472441][0.357054,0.622735,0][-0.894202,8.4773,-1.57028][-0.0551181,0,1][0.936071,0.154114,0][-0.88252,8.52096,-1.56967][-0.0551181,0,1][0.942411,0.177774,0][-0.96971,8.52096,-1.57424][-0.0551181,0,1][0.895092,0.175881,0][-0.92612,8.44534,-1.57195][-0.0551181,0,1][0.918751,0.136795,0][-0.894202,8.4773,-1.57028][-0.0551181,0,1][0.936071,0.154114,0][-0.96971,8.52096,-1.57424][-0.0551181,0,1][0.895092,0.175881,0][-0.96971,8.43364,-1.57424][-0.0551181,0,1][0.895092,0.130455,0][-0.92612,8.44534,-1.57195][-0.0551181,0,1][0.918751,0.136795,0][-0.96971,8.52096,-1.57424][-0.0551181,0,1][0.895092,0.175881,0][-1.01331,8.44534,-1.57652][-0.0551181,0,1][0.871433,0.136795,0][-0.96971,8.43364,-1.57424][-0.0551181,0,1][0.895092,0.130455,0][-0.96971,8.52096,-1.57424][-0.0551181,0,1][0.895092,0.175881,0][-1.04523,8.4773,-1.5782][-0.0551181,0,1][0.854113,0.154114,0][-1.01331,8.44534,-1.57652][-0.0551181,0,1][0.871433,0.136795,0][-0.96971,8.52096,-1.57424][-0.0551181,0,1][0.895092,0.175881,0][-1.05691,8.52096,-1.57881][-0.0551181,0,1][0.847773,0.177774,0][-1.04523,8.4773,-1.5782][-0.0551181,0,1][0.854113,0.154114,0][-0.96971,8.52096,-1.57424][-0.0551181,0,1][0.895092,0.175881,0][1.36216,10.7427,-1.48116][-0.937008,0,-0.346457][0.41218,0.259975,0][1.36216,8.86296,-1.48116][-0.937008,0,-0.346457][0.41218,0.075753,0][1.32763,8.8913,-1.38654][-0.937008,0,-0.346457][0.423044,0.078529,0][1.32763,8.8913,-1.38654][-0.937008,0,-0.346457][0.423044,0.078529,0][1.32763,10.7143,-1.38654][-0.937008,0,-0.346457][0.423044,0.257199,0][1.36216,10.7427,-1.48116][-0.937008,0,-0.346457][0.41218,0.259975,0][0.898256,8.24788,1.45018][-0.0551181,0,1][0.972949,0.938626,0][0.887644,8.24788,1.65269][-0.0551181,0,1][0.97304,0.959597,0][0.887926,9.2742,1.65271][-0.0551181,0,1][0.866908,0.960056,0][0.887926,9.2742,1.65271][-0.0551181,0,1][0.866908,0.960056,0][0.89854,9.2742,1.45019][-0.0551181,0,1][0.866817,0.939086,0][0.898256,8.24788,1.45018][-0.0551181,0,1][0.972949,0.938626,0][-1.6753,10.5814,-0.239494][-0.0314961,-0.818898,0.574803][0.783475,0.283231,0][-1.74609,10.3873,-0.520654][-0.0314961,-0.818898,0.574803][0.830298,0.306394,0][-1.64668,10.3873,-0.515442][-0.0314961,-0.818898,0.574803][0.818432,0.309894,0][1.69117,10.5814,-0.0630656][-0.0314961,-0.818898,0.574803][0.783475,0.283231,0][1.69155,10.3873,-0.340494][-0.0314961,-0.818898,0.574803][0.818432,0.309894,0][1.79095,10.3873,-0.335284][-0.0314961,-0.818898,0.574803][0.830298,0.306394,0][-0.561642,10.7324,-1.58198][0,-0.992126,-0.125984][0.975467,0.718605,0][-0.551882,10.7205,-1.48504][0,-0.992126,-0.110236][0.963934,0.720147,0][-1.17542,10.7143,-1.51772][0.00787402,-0.976378,-0.204724][0.963933,0.655179,0][-1.17542,10.7143,-1.51772][0.00787402,-0.976378,-0.204724][0.963933,0.655179,0][-1.19988,10.7427,-1.61543][0.00787402,-0.976378,-0.204724][0.975467,0.652106,0][-0.561642,10.7324,-1.58198][0,-0.992126,-0.125984][0.975467,0.718605,0][-0.551882,10.7205,-1.48504][0,-0.992126,-0.110236][0.963934,0.720147,0][-0.561642,10.7324,-1.58198][0,-0.992126,-0.125984][0.975467,0.718605,0][0.0811428,10.7221,-1.5483][0,-1,-0.0393701][0.975467,0.785578,0][0.0811428,10.7221,-1.5483][0,-1,-0.0393701][0.975467,0.785578,0][0.0761028,10.7267,-1.45213][0,-1,-0.0393701][0.963933,0.785578,0][-0.551882,10.7205,-1.48504][0,-0.992126,-0.110236][0.963934,0.720147,0][0.704086,10.7205,-1.41922][0.00787402,-0.992126,-0.110236][0.963933,0.851008,0][0.0761028,10.7267,-1.45213][0,-1,-0.0393701][0.963933,0.785578,0][0.0811428,10.7221,-1.5483][0,-1,-0.0393701][0.975467,0.785578,0][0.0811428,10.7221,-1.5483][0,-1,-0.0393701][0.975467,0.785578,0][0.723926,10.7324,-1.51461][0.00787402,-0.992126,-0.125984][0.975467,0.85255,0][0.704086,10.7205,-1.41922][0.00787402,-0.992126,-0.110236][0.963933,0.851008,0][1.32763,10.7143,-1.38654][0.015748,-0.976378,-0.204724][0.963933,0.915976,0][0.704086,10.7205,-1.41922][0.00787402,-0.992126,-0.110236][0.963933,0.851008,0][0.723926,10.7324,-1.51461][0.00787402,-0.992126,-0.125984][0.975467,0.85255,0][0.723926,10.7324,-1.51461][0.00787402,-0.992126,-0.125984][0.975467,0.85255,0][1.36216,10.7427,-1.48116][0.015748,-0.976378,-0.204724][0.975467,0.919049,0][1.32763,10.7143,-1.38654][0.015748,-0.976378,-0.204724][0.963933,0.915976,0]