version 1.00
156
[0.904986,-0.604768,1.75645][-0.330709,0.314961,0.889764][0.022302,0.798292,0][1.27287,-0.741148,1.63239][-0.141732,-0.669291,0.732283][0.01025,0.764375,0][1.04042,0.114778,1.65733][0.795276,0.606299,0.015748][0.084572,0.78147,0][-1.51325,-0.741148,1.39205][-0.732283,-0.669291,-0.141732][0.762025,0.259938,0][-1.14031,-0.605898,1.52808][-0.566929,0.818898,0][0.762025,0.242636,0][-1.53819,0.114778,1.1596][0.811024,0.519685,-0.275591][0.825456,0.250797,0][-1.63731,-0.604768,1.02417][0.440945,0.897638,0.0393701][0.50214,0.178686,0][-1.51325,-0.741148,1.39205][-0.732283,-0.669291,-0.141732][0.490089,0.144768,0][-1.53819,0.114778,1.1596][0.811024,0.519685,-0.275591][0.56441,0.161864,0][-0.517828,-0.604768,1.91683][0.346457,0.76378,-0.543307][0.15375,0.261816,0][-0.592686,-0.760746,1.9908][-0.937008,0.125984,0.330709][0.15375,0.244514,0][-0.169958,-0.741148,2.08924][-0.401575,-0.771654,0.496063][0.18703,0.249764,0][-0.517828,-0.604768,1.91683][0.346457,0.76378,-0.543307][0.397503,0.037788,0][-0.91094,-0.741148,1.87425][-0.771654,-0.582677,0.244094][0.407098,0.005,0][-0.592686,-0.760746,1.9908][-0.937008,0.125984,0.330709][0.47571,0.02409,0][-0.424334,0.502026,-1.87566][-0.897638,0.110236,0.425197][0.328753,0.953008,0][0.0812944,0.803838,-1.8706][0.488189,0.771654,0.401575][0.337867,0.943193,0][-0.00731962,0.58443,-2.09676][-0.0629921,0.614173,-0.787402][0.34634,0.953015,0][0.0812944,0.803838,-1.8706][0.488189,0.771654,0.401575][0.328753,0.964277,0][0.417098,0.392982,-1.90513][0.874016,0.488189,0.0629921][0.34195,0.964284,0][-0.00731962,0.58443,-2.09676][-0.0629921,0.614173,-0.787402][0.340157,0.977335,0][0.904986,-0.604768,1.75645][-0.330709,0.314961,0.889764][0.022302,0.798292,0][0.904352,-0.760746,1.86169][0.488189,-0.834646,0.251969][0.005,0.798292,0][1.27287,-0.741148,1.63239][-0.141732,-0.669291,0.732283][0.01025,0.764375,0][0.904986,-0.604768,1.75645][-0.330709,0.314961,0.889764][0.224374,0.269402,0][0.596896,-0.741148,2.00432][-0.362205,-0.598425,0.716535][0.191405,0.260451,0][0.904352,-0.760746,1.86169][0.488189,-0.834646,0.251969][0.209145,0.191478,0][1.27287,-0.741148,1.63239][-0.141732,-0.669291,0.732283][0.377641,0.732743,0][1.40889,-0.605898,1.25945][0,0.818898,0.566929][0.377641,0.715441,0][1.04042,0.114778,1.65733][0.795276,0.606299,0.015748][0.441072,0.723602,0][-1.63731,-0.604768,1.02417][0.440945,0.897638,0.0393701][0.50214,0.178686,0][-1.74255,-0.760746,1.02353][-0.897638,0.125984,-0.425197][0.484839,0.178686,0][-1.51325,-0.741148,1.39205][-0.732283,-0.669291,-0.141732][0.490089,0.144768,0][-0.424334,0.502026,-1.87566][-0.897638,0.110236,0.425197][0.172943,0.121649,0][-0.00731962,0.58443,-2.09676][-0.0629921,0.614173,-0.787402][0.186698,0.110564,0][-0.212168,-0.022108,-2.05204][-0.724409,-0.110236,-0.685039][0.187085,0.138451,0][-0.169958,-0.741148,2.08924][-0.401575,-0.771654,0.496063][0.408916,0.292246,0][0.192772,-0.803838,1.94024][-0.448819,-0.448819,-0.771654][0.403813,0.26336,0][0.18104,-0.636072,2.09676][-0.795276,0.385827,0.464567][0.480046,0.288716,0][-1.51325,-0.741148,1.39205][-0.732283,-0.669291,-0.141732][0.32554,0.395125,0][-1.15139,-0.803838,1.54319][0.173228,-0.433071,-0.88189][0.342357,0.371091,0][-1.2627,-0.644064,1.63787][-0.771654,0.566929,-0.299213][0.378333,0.442926,0][0.18104,-0.636072,2.09676][-0.795276,0.385827,0.464567][0.596729,0.226953,0][0.192772,-0.803838,1.94024][-0.448819,-0.448819,-0.771654][0.579427,0.226953,0][0.596896,-0.741148,2.00432][-0.362205,-0.598425,0.716535][0.584677,0.193702,0][-1.63731,-0.604768,1.02417][0.440945,0.897638,0.0393701][0.307062,0.192358,0][-1.88517,-0.741148,0.716078][-0.716535,-0.598425,-0.362205][0.298111,0.225328,0][-1.74255,-0.760746,1.02353][-0.897638,0.125984,-0.425197][0.229138,0.207587,0][0.890108,-0.370252,-1.87538][0.677165,0.0787402,-0.732283][0.473269,0.892778,0][0.54827,-0.160216,-1.86501][-0.606299,0.110236,-0.787402][0.463527,0.892777,0][0.80752,-0.033618,-1.71148][-0.00787402,0.913386,0.409449][0.468397,0.88693,0][1.63727,-0.604768,-0.785842][-0.440945,0.897638,-0.0393701][0.350472,0.60959,0][1.51321,-0.741148,-1.15373][0.732283,-0.669291,0.141732][0.33842,0.575673,0][1.53815,0.114778,-0.921278][-0.811024,0.519685,0.275591][0.412742,0.592768,0][-1.2627,-0.644064,1.63787][-0.771654,0.566929,-0.299213][0.924899,0.038917,0][-1.15139,-0.803838,1.54319][0.173228,-0.433071,-0.88189][0.907597,0.038917,0][-0.91094,-0.741148,1.87425][-0.771654,-0.582677,0.244094][0.912847,0.005,0][1.51869,-0.644064,1.38185][-0.299213,0.566929,0.771654][0.596729,0.178686,0][1.424,-0.803838,1.27053][0.448819,-0.669291,-0.590551][0.579427,0.178686,0][1.75507,-0.741148,1.03008][0.244094,-0.582677,0.771654][0.584677,0.144768,0][1.79765,-0.604768,0.63697][-0.543307,0.76378,-0.346457][0.11689,0.748721,0][1.87162,-0.760746,0.711828][0.330709,0.125984,0.937008][0.099588,0.748721,0][1.97006,-0.741148,0.2891][0.496063,-0.771654,0.401575][0.104839,0.715441,0][1.79765,-0.604768,0.63697][-0.543307,0.76378,-0.346457][0.154862,0.162382,0][1.75507,-0.741148,1.03008][0.244094,-0.582677,0.771654][0.18765,0.171978,0][1.87162,-0.760746,0.711828][0.330709,0.125984,0.937008][0.168561,0.240589,0][-0.212168,-0.022108,-2.05204][-0.724409,-0.110236,-0.685039][0.186727,0.795671,0][-0.00731962,0.58443,-2.09676][-0.0629921,0.614173,-0.787402][0.222113,0.796229,0][-0.00971962,-0.58734,-1.92877][0.488189,-0.874016,0.0787402][0.208576,0.809874,0][1.27287,-0.741148,1.63239][-0.141732,-0.669291,0.732283][0.395125,0.160544,0][1.424,-0.803838,1.27053][0.448819,-0.669291,-0.590551][0.371091,0.143728,0][1.51869,-0.644064,1.38185][-0.299213,0.566929,0.771654][0.442926,0.107751,0][1.04393,-0.262738,-1.60455][0.968504,-0.23622,0.0708661][0.168145,0.473903,0][0.890108,-0.370252,-1.87538][0.677165,0.0787402,-0.732283][0.168904,0.462693,0][0.80752,-0.033618,-1.71148][-0.00787402,0.913386,0.409449][0.177765,0.473256,0][-0.905418,-0.370252,-1.86911][-0.716535,-0.0472441,-0.692913][0.771815,0.67445,0][-0.875036,-0.040502,-1.6839][0.0787402,0.937008,-0.346457][0.776687,0.668602,0][-0.51322,-0.286162,-1.86173][0.590551,0.614173,-0.519685][0.781557,0.674449,0][-1.9701,-0.741148,-0.050776][-0.496063,-0.771654,-0.401575][0.193839,0.408916,0][-1.8211,-0.803838,0.311954][0.771654,-0.448819,-0.448819][0.222724,0.403813,0][-1.97762,-0.636072,0.300222][-0.464567,0.385827,-0.795276][0.197369,0.480046,0][-0.00971962,-0.58734,-1.92877][0.488189,-0.874016,0.0787402][0.346849,0.925369,0][-0.00731962,0.58443,-2.09676][-0.0629921,0.614173,-0.787402][0.328783,0.931931,0][0.417098,0.392982,-1.90513][0.874016,0.488189,0.0629921][0.328753,0.918515,0][-1.27291,-0.741148,-1.39406][0.141732,-0.669291,-0.732283][0.384513,0.683809,0][-1.40893,-0.605898,-1.02113][0,0.818898,-0.566929][0.384513,0.666507,0][-1.04046,0.114778,-1.41901][0.275591,0.519685,0.811024][0.447944,0.674668,0][-0.875036,-0.040502,-1.6839][0.0787402,0.937008,-0.346457][0.581422,0.760146,0][-0.905418,-0.370252,-1.86911][-0.716535,-0.0472441,-0.692913][0.592654,0.760442,0][-1.05734,-0.377282,-1.59721][-0.732283,-0.645669,0.212598][0.582466,0.769732,0][-1.79769,-0.604768,-0.398646][0.543307,0.76378,0.346457][0.603601,0.129114,0][-1.87166,-0.760746,-0.473504][-0.330709,0.125984,-0.937008][0.586299,0.129114,0][-1.9701,-0.741148,-0.050776][-0.496063,-0.771654,-0.401575][0.591549,0.095834,0][-0.905024,-0.604768,-1.51813][-0.0393701,0.897638,0.440945][0.022302,0.749358,0][-1.27291,-0.741148,-1.39406][0.141732,-0.669291,-0.732283][0.01025,0.715441,0][-1.04046,0.114778,-1.41901][0.275591,0.519685,0.811024][0.084572,0.732536,0][-1.79769,-0.604768,-0.398646][0.543307,0.76378,0.346457][0.037788,0.083378,0][-1.75511,-0.741148,-0.791758][-0.244094,-0.582677,-0.771654][0.005,0.073783,0][-1.87166,-0.760746,-0.473504][-0.330709,0.125984,-0.937008][0.02409,0.005171,0][-1.97762,-0.636072,0.300222][-0.464567,0.385827,-0.795276][0.50214,0.275887,0][-1.8211,-0.803838,0.311954][0.771654,-0.448819,-0.448819][0.484839,0.275887,0][-1.88517,-0.741148,0.716078][-0.716535,-0.598425,-0.362205][0.490089,0.242636,0][1.97758,-0.636072,-0.061898][0.464567,0.385827,0.795276][0.691317,0.178019,0][1.82106,-0.803838,-0.07363][-0.771654,-0.448819,0.448819][0.674015,0.178019,0][1.88513,-0.741148,-0.477754][0.716535,-0.598425,0.362205][0.679265,0.144768,0][1.63727,-0.604768,-0.785842][-0.440945,0.897638,-0.0393701][0.075624,0.082989,0][1.88513,-0.741148,-0.477754][0.716535,-0.598425,0.362205][0.042655,0.074038,0][1.74251,-0.760746,-0.785208][0.897638,0.125984,0.425197][0.060395,0.00506502,0][1.63727,-0.604768,-0.785842][-0.440945,0.897638,-0.0393701][0.350472,0.60959,0][1.74251,-0.760746,-0.785208][0.897638,0.125984,0.425197][0.33317,0.60959,0][1.51321,-0.741148,-1.15373][0.732283,-0.669291,0.141732][0.33842,0.575673,0][1.97006,-0.741148,0.2891][0.496063,-0.771654,0.401575][0.292246,0.077169,0][1.82106,-0.803838,-0.07363][-0.771654,-0.448819,0.448819][0.26336,0.082271,0][1.97758,-0.636072,-0.061898][0.464567,0.385827,0.795276][0.288716,0.00603801,0][0.54827,-0.160216,-1.86501][-0.606299,0.110236,-0.787402][0.484839,0.748343,0][0.890108,-0.370252,-1.87538][0.677165,0.0787402,-0.732283][0.491139,0.736986,0][0.604628,-0.57395,-1.78472][-0.897638,-0.362205,-0.259843][0.498624,0.748565,0][0.312278,-0.581936,1.8987][-0.622047,0.275591,-0.732283][0.192894,0.277689,0][0.596896,-0.741148,2.00432][-0.362205,-0.598425,0.716535][0.191405,0.260451,0][0.904986,-0.604768,1.75645][-0.330709,0.314961,0.889764][0.224374,0.269402,0][1.51321,-0.741148,-1.15373][0.732283,-0.669291,0.141732][0.563286,0.403116,0][1.14027,-0.605898,-1.28975][0.566929,0.818898,0][0.563286,0.385814,0][1.53815,0.114778,-0.921278][-0.811024,0.519685,0.275591][0.626718,0.393975,0][-1.27291,-0.741148,-1.39406][0.141732,-0.669291,-0.732283][0.09096,0.32554,0][-1.42404,-0.803838,-1.03221][0.88189,-0.433071,0.173228][0.114994,0.342357,0][-1.51873,-0.644064,-1.14352][0.299213,0.566929,-0.771654][0.043159,0.378333,0][-0.905024,-0.604768,-1.51813][-0.0393701,0.897638,0.440945][0.022302,0.749358,0][-0.90439,-0.760746,-1.62337][0.425197,0.125984,-0.897638][0.005,0.749358,0][-1.27291,-0.741148,-1.39406][0.141732,-0.669291,-0.732283][0.01025,0.715441,0][-0.905024,-0.604768,-1.51813][-0.0393701,0.897638,0.440945][0.043609,0.397524,0][-0.596936,-0.741148,-1.76599][0.362205,-0.598425,-0.716535][0.076578,0.406474,0][-0.90439,-0.760746,-1.62337][0.425197,0.125984,-0.897638][0.058838,0.475447,0][-1.51873,-0.644064,-1.14352][0.299213,0.566929,-0.771654][0.50214,0.22762,0][-1.42404,-0.803838,-1.03221][0.88189,-0.433071,0.173228][0.484839,0.22762,0][-1.75511,-0.741148,-0.791758][-0.244094,-0.582677,-0.771654][0.490089,0.193702,0][1.26266,-0.644064,-1.39955][0.771654,0.566929,0.299213][0.830311,0.038917,0][1.15135,-0.803838,-1.30486][-0.173228,-0.433071,0.88189][0.813009,0.038917,0][0.9109,-0.741148,-1.63593][0.771654,-0.582677,-0.244094][0.818259,0.005,0][0.517788,-0.604768,-1.67851][-0.346457,0.76378,0.543307][0.123763,0.699787,0][0.592646,-0.760746,-1.75247][0.937008,0.125984,-0.330709][0.106461,0.699787,0][0.169918,-0.74115,-1.85092][0.401575,-0.771654,-0.496063][0.111711,0.666507,0][0.912032,-0.559466,-1.65865][0.354331,-0.889764,-0.283465][0.978984,0.523838,0][0.890108,-0.370252,-1.87538][0.677165,0.0787402,-0.732283][0.967752,0.523541,0][1.04393,-0.262738,-1.60455][0.968504,-0.23622,0.0708661][0.97794,0.514252,0][0.517788,-0.604768,-1.67851][-0.346457,0.76378,0.543307][0.467249,0.389983,0][0.9109,-0.741148,-1.63593][0.771654,-0.582677,-0.244094][0.457653,0.422771,0][0.592646,-0.760746,-1.75247][0.937008,0.125984,-0.330709][0.389042,0.403682,0][-0.200514,-0.61799,1.9209][-0.858268,0.472441,0.19685][0.005067,0.668165,0][-0.169958,-0.741148,2.08924][-0.401575,-0.771654,0.496063][0.022289,0.666507,0][0.18104,-0.636072,2.09676][-0.795276,0.385827,0.464567][0.023724,0.700057,0][1.51321,-0.741148,-1.15373][0.732283,-0.669291,0.141732][0.160544,0.09096,0][1.15135,-0.803838,-1.30486][-0.173228,-0.433071,0.88189][0.143728,0.114994,0][1.26266,-0.644064,-1.39955][0.771654,0.566929,0.299213][0.107751,0.043159,0][-1.14031,-0.605898,1.52808][-0.566929,0.818898,0][0.389835,0.00615102,0][-0.91094,-0.741148,1.87425][-0.771654,-0.582677,0.244094][0.407098,0.005,0][-0.517828,-0.604768,1.91683][0.346457,0.76378,-0.543307][0.397503,0.037788,0][0.169918,-0.74115,-1.85092][0.401575,-0.771654,-0.496063][0.077169,0.193839,0][-0.192812,-0.803838,-1.70192][0.448819,-0.448819,0.771654][0.082271,0.222724,0][-0.18108,-0.636072,-1.85844][0.795276,0.385827,-0.464567][0.006038,0.197369,0][-1.77956,-0.581936,0.43146][0.732283,0.275591,-0.622047][0.315349,0.223839,0][-1.88517,-0.741148,0.716078][-0.716535,-0.598425,-0.362205][0.298111,0.225328,0][-1.63731,-0.604768,1.02417][0.440945,0.897638,0.0393701][0.307062,0.192358,0][-0.18108,-0.636072,-1.85844][0.795276,0.385827,-0.464567][0.022302,0.84656,0][-0.192812,-0.803838,-1.70192][0.448819,-0.448819,0.771654][0.005,0.84656,0][-0.596936,-0.741148,-1.76599][0.362205,-0.598425,-0.716535][0.01025,0.813309,0][-0.51322,-0.286162,-1.86173][0.590551,0.614173,-0.519685][0.941504,0.52384,0][-0.778872,-0.616658,-1.71372][-0.330709,-0.897638,0.299213][0.942528,0.514252,0][-0.905418,-0.370252,-1.86911][-0.716535,-0.0472441,-0.692913][0.952735,0.52352,0][-0.517828,-0.604768,1.91683][0.346457,0.76378,-0.543307][0.15375,0.261816,0][-0.169958,-0.741148,2.08924][-0.401575,-0.771654,0.496063][0.18703,0.249764,0][-0.200514,-0.61799,1.9209][-0.858268,0.472441,0.19685][0.171507,0.324086,0][1.40889,-0.605898,1.25945][0,0.818898,0.566929][0.186499,0.154714,0][1.75507,-0.741148,1.03008][0.244094,-0.582677,0.771654][0.18765,0.171978,0][1.79765,-0.604768,0.63697][-0.543307,0.76378,-0.346457][0.154862,0.162382,0][0.604628,-0.57395,-1.78472][-0.897638,-0.362205,-0.259843][0.235322,0.144302,0][0.890108,-0.370252,-1.87538][0.677165,0.0787402,-0.732283][0.235402,0.13616,0][0.912032,-0.559466,-1.65865][0.354331,-0.889764,-0.283465][0.244779,0.144395,0][1.80171,-0.61799,0.319656][0.19685,0.472441,0.858268][0.715369,0.00665802,0][1.97006,-0.741148,0.2891][0.496063,-0.771654,0.401575][0.732591,0.005,0][1.97758,-0.636072,-0.061898][0.464567,0.385827,0.795276][0.734026,0.03855,0][-1.05734,-0.377282,-1.59721][-0.732283,-0.645669,0.212598][0.620636,0.723513,0][-0.905418,-0.370252,-1.86911][-0.716535,-0.0472441,-0.692913][0.609426,0.722754,0][-0.778872,-0.616658,-1.71372][-0.330709,-0.897638,0.299213][0.619989,0.713893,0][1.77952,-0.581936,-0.193136][-0.732283,0.275591,0.622047][0.044144,0.091275,0][1.88513,-0.741148,-0.477754][0.716535,-0.598425,0.362205][0.042655,0.074038,0][1.63727,-0.604768,-0.785842][-0.440945,0.897638,-0.0393701][0.075624,0.082989,0][-1.79769,-0.604768,-0.398646][0.543307,0.76378,0.346457][0.603601,0.129114,0][-1.9701,-0.741148,-0.050776][-0.496063,-0.771654,-0.401575][0.591549,0.095834,0][-1.80175,-0.61799,-0.081332][-0.19685,0.472441,-0.858268][0.665871,0.111357,0][-1.80175,-0.61799,-0.081332][-0.19685,0.472441,-0.858268][0.321841,0.607932,0][-1.9701,-0.741148,-0.050776][-0.496063,-0.771654,-0.401575][0.304619,0.60959,0][-1.97762,-0.636072,0.300222][-0.464567,0.385827,-0.795276][0.303184,0.57604,0][0.18104,-0.636072,2.09676][-0.795276,0.385827,0.464567][0.596729,0.226953,0][0.596896,-0.741148,2.00432][-0.362205,-0.598425,0.716535][0.584677,0.193702,0][0.312278,-0.581936,1.8987][-0.622047,0.275591,-0.732283][0.658999,0.211741,0][1.79765,-0.604768,0.63697][-0.543307,0.76378,-0.346457][0.11689,0.748721,0][1.97006,-0.741148,0.2891][0.496063,-0.771654,0.401575][0.104839,0.715441,0][1.80171,-0.61799,0.319656][0.19685,0.472441,0.858268][0.17916,0.730963,0][-1.40893,-0.605898,-1.02113][0,0.818898,-0.566929][0.006151,0.091046,0][-1.75511,-0.741148,-0.791758][-0.244094,-0.582677,-0.771654][0.005,0.073783,0][-1.79769,-0.604768,-0.398646][0.543307,0.76378,0.346457][0.037788,0.083378,0][-1.97762,-0.636072,0.300222][-0.464567,0.385827,-0.795276][0.50214,0.275887,0][-1.88517,-0.741148,0.716078][-0.716535,-0.598425,-0.362205][0.490089,0.242636,0][-1.77956,-0.581936,0.43146][0.732283,0.275591,-0.622047][0.56441,0.260675,0][-0.312318,-0.581936,-1.66038][0.622047,0.275591,0.732283][0.075089,0.389237,0][-0.596936,-0.741148,-1.76599][0.362205,-0.598425,-0.716535][0.076578,0.406474,0][-0.905024,-0.604768,-1.51813][-0.0393701,0.897638,0.440945][0.043609,0.397524,0][1.14027,-0.605898,-1.28975][0.566929,0.818898,0][0.474917,0.42162,0][0.9109,-0.741148,-1.63593][0.771654,-0.582677,-0.244094][0.457653,0.422771,0][0.517788,-0.604768,-1.67851][-0.346457,0.76378,0.543307][0.467249,0.389983,0][0.192772,-0.803838,1.94024][-0.448819,-0.448819,-0.771654][0.403813,0.26336,0][-0.169958,-0.741148,2.08924][-0.401575,-0.771654,0.496063][0.408916,0.292246,0][-0.592686,-0.760746,1.9908][-0.937008,0.125984,0.330709][0.397289,0.324914,0][0.200474,-0.61799,-1.68257][0.858268,0.472441,-0.19685][0.571216,0.128093,0][0.169918,-0.74115,-1.85092][0.401575,-0.771654,-0.496063][0.553994,0.129751,0][-0.18108,-0.636072,-1.85844][0.795276,0.385827,-0.464567][0.552559,0.096202,0][1.424,-0.803838,1.27053][0.448819,-0.669291,-0.590551][0.371091,0.143728,0][1.27287,-0.741148,1.63239][-0.141732,-0.669291,0.732283][0.395125,0.160544,0][0.904352,-0.760746,1.86169][0.488189,-0.834646,0.251969][0.410003,0.191865,0][-1.15139,-0.803838,1.54319][0.173228,-0.433071,-0.88189][0.342357,0.371091,0][-1.51325,-0.741148,1.39205][-0.732283,-0.669291,-0.141732][0.32554,0.395125,0][-1.74255,-0.760746,1.02353][-0.897638,0.125984,-0.425197][0.294219,0.410003,0][0.517788,-0.604768,-1.67851][-0.346457,0.76378,0.543307][0.123763,0.699787,0][0.169918,-0.74115,-1.85092][0.401575,-0.771654,-0.496063][0.111711,0.666507,0][0.200474,-0.61799,-1.68257][0.858268,0.472441,-0.19685][0.186033,0.682029,0][1.82106,-0.803838,-0.07363][-0.771654,-0.448819,0.448819][0.26336,0.082271,0][1.97006,-0.741148,0.2891][0.496063,-0.771654,0.401575][0.292246,0.077169,0][1.87162,-0.760746,0.711828][0.330709,0.125984,0.937008][0.324914,0.088795,0][-1.8211,-0.803838,0.311954][0.771654,-0.448819,-0.448819][0.222724,0.403813,0][-1.9701,-0.741148,-0.050776][-0.496063,-0.771654,-0.401575][0.193839,0.408916,0][-1.87166,-0.760746,-0.473504][-0.330709,0.125984,-0.937008][0.161171,0.397289,0][1.97758,-0.636072,-0.061898][0.464567,0.385827,0.795276][0.691317,0.178019,0][1.88513,-0.741148,-0.477754][0.716535,-0.598425,0.362205][0.679265,0.144768,0][1.77952,-0.581936,-0.193136][-0.732283,0.275591,0.622047][0.753587,0.162807,0][1.15135,-0.803838,-1.30486][-0.173228,-0.433071,0.88189][0.143728,0.114994,0][1.51321,-0.741148,-1.15373][0.732283,-0.669291,0.141732][0.160544,0.09096,0][1.74251,-0.760746,-0.785208][0.897638,0.125984,0.425197][0.191865,0.076081,0][-0.18108,-0.636072,-1.85844][0.795276,0.385827,-0.464567][0.022302,0.84656,0][-0.596936,-0.741148,-1.76599][0.362205,-0.598425,-0.716535][0.01025,0.813309,0][-0.312318,-0.581936,-1.66038][0.622047,0.275591,0.732283][0.084572,0.831348,0][-0.91094,-0.741148,1.87425][-0.771654,-0.582677,0.244094][0.37746,0.351977,0][-1.15139,-0.803838,1.54319][0.173228,-0.433071,-0.88189][0.342357,0.371091,0][0.192772,-0.803838,1.94024][-0.448819,-0.448819,-0.771654][0.403813,0.26336,0][-1.42404,-0.803838,-1.03221][0.88189,-0.433071,0.173228][0.114994,0.342357,0][-1.27291,-0.741148,-1.39406][0.141732,-0.669291,-0.732283][0.09096,0.32554,0][-0.90439,-0.760746,-1.62337][0.425197,0.125984,-0.897638][0.076081,0.294219,0][0.596896,-0.741148,2.00432][-0.362205,-0.598425,0.716535][0.415119,0.225023,0][0.192772,-0.803838,1.94024][-0.448819,-0.448819,-0.771654][0.403813,0.26336,0][1.424,-0.803838,1.27053][0.448819,-0.669291,-0.590551][0.371091,0.143728,0][-0.192812,-0.803838,-1.70192][0.448819,-0.448819,0.771654][0.082271,0.222724,0][0.169918,-0.74115,-1.85092][0.401575,-0.771654,-0.496063][0.077169,0.193839,0][0.592646,-0.760746,-1.75247][0.937008,0.125984,-0.330709][0.088795,0.161171,0][-1.88517,-0.741148,0.716078][-0.716535,-0.598425,-0.362205][0.261061,0.415119,0][-1.8211,-0.803838,0.311954][0.771654,-0.448819,-0.448819][0.222724,0.403813,0][-1.15139,-0.803838,1.54319][0.173228,-0.433071,-0.88189][0.342357,0.371091,0][1.75507,-0.741148,1.03008][0.244094,-0.582677,0.771654][0.351977,0.108625,0][1.424,-0.803838,1.27053][0.448819,-0.669291,-0.590551][0.371091,0.143728,0][1.82106,-0.803838,-0.07363][-0.771654,-0.448819,0.448819][0.26336,0.082271,0][-1.75511,-0.741148,-0.791758][-0.244094,-0.582677,-0.771654][0.134107,0.37746,0][-1.42404,-0.803838,-1.03221][0.88189,-0.433071,0.173228][0.114994,0.342357,0][-1.8211,-0.803838,0.311954][0.771654,-0.448819,-0.448819][0.222724,0.403813,0][1.88513,-0.741148,-0.477754][0.716535,-0.598425,0.362205][0.225023,0.070966,0][1.82106,-0.803838,-0.07363][-0.771654,-0.448819,0.448819][0.26336,0.082271,0][1.15135,-0.803838,-1.30486][-0.173228,-0.433071,0.88189][0.143728,0.114994,0][-0.596936,-0.741148,-1.76599][0.362205,-0.598425,-0.716535][0.070966,0.261061,0][-0.192812,-0.803838,-1.70192][0.448819,-0.448819,0.771654][0.082271,0.222724,0][-1.42404,-0.803838,-1.03221][0.88189,-0.433071,0.173228][0.114994,0.342357,0][0.9109,-0.741148,-1.63593][0.771654,-0.582677,-0.244094][0.108625,0.134107,0][1.15135,-0.803838,-1.30486][-0.173228,-0.433071,0.88189][0.143728,0.114994,0][-0.192812,-0.803838,-1.70192][0.448819,-0.448819,0.771654][0.082271,0.222724,0][-1.2627,-0.644064,1.63787][-0.771654,0.566929,-0.299213][0.924899,0.038917,0][-0.91094,-0.741148,1.87425][-0.771654,-0.582677,0.244094][0.912847,0.005,0][-1.14031,-0.605898,1.52808][-0.566929,0.818898,0][0.987169,0.022095,0][0.18104,-0.636072,2.09676][-0.795276,0.385827,0.464567][0.023724,0.700057,0][0.312278,-0.581936,1.8987][-0.622047,0.275591,-0.732283][0.005,0.698691,0][-0.200514,-0.61799,1.9209][-0.858268,0.472441,0.19685][0.005067,0.668165,0][-1.51873,-0.644064,-1.14352][0.299213,0.566929,-0.771654][0.50214,0.22762,0][-1.75511,-0.741148,-0.791758][-0.244094,-0.582677,-0.771654][0.490089,0.193702,0][-1.40893,-0.605898,-1.02113][0,0.818898,-0.566929][0.56441,0.210798,0][1.51869,-0.644064,1.38185][-0.299213,0.566929,0.771654][0.596729,0.178686,0][1.75507,-0.741148,1.03008][0.244094,-0.582677,0.771654][0.584677,0.144768,0][1.40889,-0.605898,1.25945][0,0.818898,0.566929][0.658999,0.161864,0][1.40889,-0.605898,1.25945][0,0.818898,0.566929][0.191591,0.17707,0][1.27287,-0.741148,1.63239][-0.141732,-0.669291,0.732283][0.209321,0.15375,0][1.51869,-0.644064,1.38185][-0.299213,0.566929,0.771654][0.209113,0.187541,0][1.97758,-0.636072,-0.061898][0.464567,0.385827,0.795276][0.734026,0.03855,0][1.77952,-0.581936,-0.193136][-0.732283,0.275591,0.622047][0.715302,0.037184,0][1.80171,-0.61799,0.319656][0.19685,0.472441,0.858268][0.715369,0.00665802,0][-1.97762,-0.636072,0.300222][-0.464567,0.385827,-0.795276][0.303184,0.57604,0][-1.77956,-0.581936,0.43146][0.732283,0.275591,-0.622047][0.321908,0.577406,0][-1.80175,-0.61799,-0.081332][-0.19685,0.472441,-0.858268][0.321841,0.607932,0][1.26266,-0.644064,-1.39955][0.771654,0.566929,0.299213][0.830311,0.038917,0][0.9109,-0.741148,-1.63593][0.771654,-0.582677,-0.244094][0.818259,0.005,0][1.14027,-0.605898,-1.28975][0.566929,0.818898,0][0.892581,0.022095,0][-0.18108,-0.636072,-1.85844][0.795276,0.385827,-0.464567][0.552559,0.096202,0][-0.312318,-0.581936,-1.66038][0.622047,0.275591,0.732283][0.571283,0.097568,0][0.200474,-0.61799,-1.68257][0.858268,0.472441,-0.19685][0.571216,0.128093,0][1.14027,-0.605898,-1.28975][0.566929,0.818898,0][0.01559,0.389057,0][1.51321,-0.741148,-1.15373][0.732283,-0.669291,0.141732][0.038909,0.406787,0][1.26266,-0.644064,-1.39955][0.771654,0.566929,0.299213][0.005118,0.406579,0][-1.14031,-0.605898,1.52808][-0.566929,0.818898,0][0.475515,0.053244,0][-1.51325,-0.741148,1.39205][-0.732283,-0.669291,-0.141732][0.457784,0.076564,0][-1.2627,-0.644064,1.63787][-0.771654,0.566929,-0.299213][0.457991,0.042773,0][1.82106,-0.803838,-0.07363][-0.771654,-0.448819,0.448819][0.26336,0.082271,0][1.87162,-0.760746,0.711828][0.330709,0.125984,0.937008][0.324914,0.088795,0][1.75507,-0.741148,1.03008][0.244094,-0.582677,0.771654][0.351977,0.108625,0][1.15135,-0.803838,-1.30486][-0.173228,-0.433071,0.88189][0.143728,0.114994,0][1.74251,-0.760746,-0.785208][0.897638,0.125984,0.425197][0.191865,0.076081,0][1.88513,-0.741148,-0.477754][0.716535,-0.598425,0.362205][0.225023,0.070966,0][1.424,-0.803838,1.27053][0.448819,-0.669291,-0.590551][0.371091,0.143728,0][0.904352,-0.760746,1.86169][0.488189,-0.834646,0.251969][0.410003,0.191865,0][0.596896,-0.741148,2.00432][-0.362205,-0.598425,0.716535][0.415119,0.225023,0][-0.192812,-0.803838,-1.70192][0.448819,-0.448819,0.771654][0.082271,0.222724,0][0.592646,-0.760746,-1.75247][0.937008,0.125984,-0.330709][0.088795,0.161171,0][0.9109,-0.741148,-1.63593][0.771654,-0.582677,-0.244094][0.108625,0.134107,0][0.192772,-0.803838,1.94024][-0.448819,-0.448819,-0.771654][0.403813,0.26336,0][-0.592686,-0.760746,1.9908][-0.937008,0.125984,0.330709][0.397289,0.324914,0][-0.91094,-0.741148,1.87425][-0.771654,-0.582677,0.244094][0.37746,0.351977,0][-1.42404,-0.803838,-1.03221][0.88189,-0.433071,0.173228][0.114994,0.342357,0][-0.90439,-0.760746,-1.62337][0.425197,0.125984,-0.897638][0.076081,0.294219,0][-0.596936,-0.741148,-1.76599][0.362205,-0.598425,-0.716535][0.070966,0.261061,0][-1.40893,-0.605898,-1.02113][0,0.818898,-0.566929][0.475515,0.437115,0][-1.27291,-0.741148,-1.39406][0.141732,-0.669291,-0.732283][0.457784,0.460435,0][-1.51873,-0.644064,-1.14352][0.299213,0.566929,-0.771654][0.457992,0.426643,0][-1.15139,-0.803838,1.54319][0.173228,-0.433071,-0.88189][0.342357,0.371091,0][-1.74255,-0.760746,1.02353][-0.897638,0.125984,-0.425197][0.294219,0.410003,0][-1.88517,-0.741148,0.716078][-0.716535,-0.598425,-0.362205][0.261061,0.415119,0][-1.8211,-0.803838,0.311954][0.771654,-0.448819,-0.448819][0.222724,0.403813,0][-1.87166,-0.760746,-0.473504][-0.330709,0.125984,-0.937008][0.161171,0.397289,0][-1.75511,-0.741148,-0.791758][-0.244094,-0.582677,-0.771654][0.134107,0.37746,0][-0.00971962,-0.58734,-1.92877][0.488189,-0.874016,0.0787402][0.412863,0.177915,0][-0.424334,0.502026,-1.87566][-0.897638,0.110236,0.425197][0.435886,0.168145,0][-0.212168,-0.022108,-2.05204][-0.724409,-0.110236,-0.685039][0.442309,0.178093,0][-0.00498962,0.327938,-1.49997][-0.0314961,-0.314961,0.944882][0.11815,0.223803,0][0.0812944,0.803838,-1.8706][0.488189,0.771654,0.401575][0.110564,0.202944,0][-0.424334,0.502026,-1.87566][-0.897638,0.110236,0.425197][0.116513,0.177742,0][-0.00498962,0.327938,-1.49997][-0.0314961,-0.314961,0.944882][0.547633,0.527114,0][0.417098,0.392982,-1.90513][0.874016,0.488189,0.0629921][0.523845,0.527311,0][0.0812944,0.803838,-1.8706][0.488189,0.771654,0.401575][0.52575,0.514252,0][-0.875036,-0.040502,-1.6839][0.0787402,0.937008,-0.346457][0.684229,0.523894,0][-0.674424,-0.319952,-1.46439][0.559055,-0.244094,0.787402][0.663835,0.521135,0][-0.51322,-0.286162,-1.86173][0.590551,0.614173,-0.519685][0.684178,0.514252,0][-0.875036,-0.040502,-1.6839][0.0787402,0.937008,-0.346457][0.505418,0.627064,0][-1.05734,-0.377282,-1.59721][-0.732283,-0.645669,0.212598][0.504131,0.63662,0][-0.674424,-0.319952,-1.46439][0.559055,-0.244094,0.787402][0.484839,0.627185,0][1.04393,-0.262738,-1.60455][0.968504,-0.23622,0.0708661][0.920509,0.353496,0][0.80752,-0.033618,-1.71148][-0.00787402,0.913386,0.409449][0.919312,0.363063,0][0.661948,-0.319952,-1.46905][-0.173228,-0.173228,0.968504][0.899932,0.35381,0][0.80752,-0.033618,-1.71148][-0.00787402,0.913386,0.409449][0.792006,0.300475,0][0.54827,-0.160216,-1.86501][-0.606299,0.110236,-0.787402][0.793171,0.290904,0][0.661948,-0.319952,-1.46905][-0.173228,-0.173228,0.968504][0.812583,0.300091,0][0.912032,-0.559466,-1.65865][0.354331,-0.889764,-0.283465][0.344032,0.832985,0][1.04393,-0.262738,-1.60455][0.968504,-0.23622,0.0708661][0.345319,0.82343,0][0.661948,-0.319952,-1.46905][-0.173228,-0.173228,0.968504][0.364612,0.832865,0][0.54827,-0.160216,-1.86501][-0.606299,0.110236,-0.787402][0.644124,0.574693,0][0.604628,-0.57395,-1.78472][-0.897638,-0.362205,-0.259843][0.643405,0.58415,0][0.661948,-0.319952,-1.46905][-0.173228,-0.173228,0.968504][0.625188,0.574693,0][-1.05734,-0.377282,-1.59721][-0.732283,-0.645669,0.212598][0.358112,0.928082,0][-0.778872,-0.616658,-1.71372][-0.330709,-0.897638,0.299213][0.359309,0.918515,0][-0.674424,-0.319952,-1.46439][0.559055,-0.244094,0.787402][0.37869,0.927768,0][-0.51322,-0.286162,-1.86173][0.590551,0.614173,-0.519685][0.57476,0.584334,0][-0.674424,-0.319952,-1.46439][0.559055,-0.244094,0.787402][0.554357,0.581645,0][-0.778872,-0.616658,-1.71372][-0.330709,-0.897638,0.299213][0.574677,0.574693,0][-0.00498962,0.327938,-1.49997][-0.0314961,-0.314961,0.944882][0.192987,0.542745,0][-0.424334,0.502026,-1.87566][-0.897638,0.110236,0.425197][0.176795,0.525041,0][-0.00971962,-0.58734,-1.92877][0.488189,-0.874016,0.0787402][0.191703,0.504959,0][0.604628,-0.57395,-1.78472][-0.897638,-0.362205,-0.259843][0.884915,0.353496,0][0.912032,-0.559466,-1.65865][0.354331,-0.889764,-0.283465][0.88375,0.363067,0][0.661948,-0.319952,-1.46905][-0.173228,-0.173228,0.968504][0.864338,0.35388,0][-0.00498962,0.327938,-1.49997][-0.0314961,-0.314961,0.944882][0.270129,0.100968,0][-0.00971962,-0.58734,-1.92877][0.488189,-0.874016,0.0787402][0.270156,0.138811,0][0.417098,0.392982,-1.90513][0.874016,0.488189,0.0629921][0.254516,0.119294,0][0.517788,-0.604768,-1.67851][-0.346457,0.76378,0.543307][0.560116,0.06727,0][-0.192812,-0.803838,-1.70192][0.448819,-0.448819,0.771654][0.609694,0.084572,0][1.15135,-0.803838,-1.30486][-0.173228,-0.433071,0.88189][0.504169,0.084572,0][-0.905024,-0.604768,-1.51813][-0.0393701,0.897638,0.440945][0.678696,0.06727,0][-1.42404,-0.803838,-1.03221][0.88189,-0.433071,0.173228][0.693646,0.084572,0][-0.192812,-0.803838,-1.70192][0.448819,-0.448819,0.771654][0.609694,0.084572,0][1.63727,-0.604768,-0.785842][-0.440945,0.897638,-0.0393701][0.198857,0.547109,0][1.15135,-0.803838,-1.30486][-0.173228,-0.433071,0.88189][0.213807,0.56441,0][1.82106,-0.803838,-0.07363][-0.771654,-0.448819,0.448819][0.129856,0.56441,0][-1.79769,-0.604768,-0.398646][0.543307,0.76378,0.346457][0.080277,0.637943,0][-1.8211,-0.803838,0.311954][0.771654,-0.448819,-0.448819][0.129856,0.655244,0][-1.42404,-0.803838,-1.03221][0.88189,-0.433071,0.173228][0.024331,0.655244,0][-0.192812,-0.803838,-1.70192][0.448819,-0.448819,0.771654][0.609694,0.084572,0][-0.312318,-0.581936,-1.66038][0.622047,0.275591,0.732283][0.630738,0.06727,0][-0.905024,-0.604768,-1.51813][-0.0393701,0.897638,0.440945][0.678696,0.06727,0][-0.192812,-0.803838,-1.70192][0.448819,-0.448819,0.771654][0.609694,0.084572,0][0.200474,-0.61799,-1.68257][0.858268,0.472441,-0.19685][0.590093,0.067367,0][-0.312318,-0.581936,-1.66038][0.622047,0.275591,0.732283][0.630738,0.06727,0][-0.192812,-0.803838,-1.70192][0.448819,-0.448819,0.771654][0.609694,0.084572,0][0.517788,-0.604768,-1.67851][-0.346457,0.76378,0.543307][0.560116,0.06727,0][0.200474,-0.61799,-1.68257][0.858268,0.472441,-0.19685][0.590093,0.067367,0][1.79765,-0.604768,0.63697][-0.543307,0.76378,-0.346457][0.080277,0.547109,0][1.82106,-0.803838,-0.07363][-0.771654,-0.448819,0.448819][0.129856,0.56441,0][1.424,-0.803838,1.27053][0.448819,-0.669291,-0.590551][0.024331,0.56441,0][1.15135,-0.803838,-1.30486][-0.173228,-0.433071,0.88189][0.504169,0.084572,0][1.14027,-0.605898,-1.28975][0.566929,0.818898,0][0.506643,0.06727,0][0.517788,-0.604768,-1.67851][-0.346457,0.76378,0.543307][0.560116,0.06727,0][-1.63731,-0.604768,1.02417][0.440945,0.897638,0.0393701][0.198857,0.637943,0][-1.15139,-0.803838,1.54319][0.173228,-0.433071,-0.88189][0.213807,0.655244,0][-1.8211,-0.803838,0.311954][0.771654,-0.448819,-0.448819][0.129856,0.655244,0][1.15135,-0.803838,-1.30486][-0.173228,-0.433071,0.88189][0.213807,0.56441,0][1.63727,-0.604768,-0.785842][-0.440945,0.897638,-0.0393701][0.198857,0.547109,0][1.14027,-0.605898,-1.28975][0.566929,0.818898,0][0.224201,0.547109,0][1.14027,-0.605898,-1.28975][0.566929,0.818898,0][0.224201,0.547109,0][1.63727,-0.604768,-0.785842][-0.440945,0.897638,-0.0393701][0.198857,0.547109,0][1.53815,0.114778,-0.921278][-0.811024,0.519685,0.275591][0.215043,0.484839,0][-1.42404,-0.803838,-1.03221][0.88189,-0.433071,0.173228][0.693646,0.084572,0][-0.905024,-0.604768,-1.51813][-0.0393701,0.897638,0.440945][0.678696,0.06727,0][-1.40893,-0.605898,-1.02113][0,0.818898,-0.566929][0.70404,0.06727,0][-1.40893,-0.605898,-1.02113][0,0.818898,-0.566929][0.70404,0.06727,0][-0.905024,-0.604768,-1.51813][-0.0393701,0.897638,0.440945][0.678696,0.06727,0][-1.04046,0.114778,-1.41901][0.275591,0.519685,0.811024][0.694881,0.005,0][-1.42404,-0.803838,-1.03221][0.88189,-0.433071,0.173228][0.024331,0.655244,0][-1.40893,-0.605898,-1.02113][0,0.818898,-0.566929][0.026805,0.637943,0][-1.79769,-0.604768,-0.398646][0.543307,0.76378,0.346457][0.080277,0.637943,0][0.904986,-0.604768,1.75645][-0.330709,0.314961,0.889764][0.429321,0.547109,0][1.424,-0.803838,1.27053][0.448819,-0.669291,-0.590551][0.444271,0.56441,0][0.192772,-0.803838,1.94024][-0.448819,-0.448819,-0.771654][0.360319,0.56441,0][-0.517828,-0.604768,1.91683][0.346457,0.76378,-0.543307][0.310741,0.547109,0][0.192772,-0.803838,1.94024][-0.448819,-0.448819,-0.771654][0.360319,0.56441,0][-1.15139,-0.803838,1.54319][0.173228,-0.433071,-0.88189][0.254795,0.56441,0][1.82106,-0.803838,-0.07363][-0.771654,-0.448819,0.448819][0.129856,0.56441,0][1.77952,-0.581936,-0.193136][-0.732283,0.275591,0.622047][0.1509,0.547109,0][1.63727,-0.604768,-0.785842][-0.440945,0.897638,-0.0393701][0.198857,0.547109,0][1.82106,-0.803838,-0.07363][-0.771654,-0.448819,0.448819][0.129856,0.56441,0][1.80171,-0.61799,0.319656][0.19685,0.472441,0.858268][0.110254,0.547206,0][1.77952,-0.581936,-0.193136][-0.732283,0.275591,0.622047][0.1509,0.547109,0][1.82106,-0.803838,-0.07363][-0.771654,-0.448819,0.448819][0.129856,0.56441,0][1.79765,-0.604768,0.63697][-0.543307,0.76378,-0.346457][0.080277,0.547109,0][1.80171,-0.61799,0.319656][0.19685,0.472441,0.858268][0.110254,0.547206,0][-1.8211,-0.803838,0.311954][0.771654,-0.448819,-0.448819][0.129856,0.655244,0][-1.79769,-0.604768,-0.398646][0.543307,0.76378,0.346457][0.080277,0.637943,0][-1.80175,-0.61799,-0.081332][-0.19685,0.472441,-0.858268][0.110254,0.63804,0][-1.8211,-0.803838,0.311954][0.771654,-0.448819,-0.448819][0.129856,0.655244,0][-1.77956,-0.581936,0.43146][0.732283,0.275591,-0.622047][0.1509,0.637943,0][-1.63731,-0.604768,1.02417][0.440945,0.897638,0.0393701][0.198857,0.637943,0][-1.8211,-0.803838,0.311954][0.771654,-0.448819,-0.448819][0.129856,0.655244,0][-1.80175,-0.61799,-0.081332][-0.19685,0.472441,-0.858268][0.110254,0.63804,0][-1.77956,-0.581936,0.43146][0.732283,0.275591,-0.622047][0.1509,0.637943,0][1.424,-0.803838,1.27053][0.448819,-0.669291,-0.590551][0.024331,0.56441,0][1.40889,-0.605898,1.25945][0,0.818898,0.566929][0.026805,0.547109,0][1.79765,-0.604768,0.63697][-0.543307,0.76378,-0.346457][0.080277,0.547109,0][1.424,-0.803838,1.27053][0.448819,-0.669291,-0.590551][0.444271,0.56441,0][0.904986,-0.604768,1.75645][-0.330709,0.314961,0.889764][0.429321,0.547109,0][1.40889,-0.605898,1.25945][0,0.818898,0.566929][0.454665,0.547109,0][1.40889,-0.605898,1.25945][0,0.818898,0.566929][0.454665,0.547109,0][0.904986,-0.604768,1.75645][-0.330709,0.314961,0.889764][0.429321,0.547109,0][1.04042,0.114778,1.65733][0.795276,0.606299,0.015748][0.445507,0.484839,0][-1.15139,-0.803838,1.54319][0.173228,-0.433071,-0.88189][0.213807,0.655244,0][-1.63731,-0.604768,1.02417][0.440945,0.897638,0.0393701][0.198857,0.637943,0][-1.14031,-0.605898,1.52808][-0.566929,0.818898,0][0.224201,0.637943,0][-1.14031,-0.605898,1.52808][-0.566929,0.818898,0][0.224201,0.637943,0][-1.63731,-0.604768,1.02417][0.440945,0.897638,0.0393701][0.198857,0.637943,0][-1.53819,0.114778,1.1596][0.811024,0.519685,-0.275591][0.215043,0.575673,0][-1.15139,-0.803838,1.54319][0.173228,-0.433071,-0.88189][0.254795,0.56441,0][-1.14031,-0.605898,1.52808][-0.566929,0.818898,0][0.257269,0.547109,0][-0.517828,-0.604768,1.91683][0.346457,0.76378,-0.543307][0.310741,0.547109,0][0.192772,-0.803838,1.94024][-0.448819,-0.448819,-0.771654][0.360319,0.56441,0][0.312278,-0.581936,1.8987][-0.622047,0.275591,-0.732283][0.381364,0.547109,0][0.904986,-0.604768,1.75645][-0.330709,0.314961,0.889764][0.429321,0.547109,0][0.192772,-0.803838,1.94024][-0.448819,-0.448819,-0.771654][0.360319,0.56441,0][-0.200514,-0.61799,1.9209][-0.858268,0.472441,0.19685][0.340718,0.547206,0][0.312278,-0.581936,1.8987][-0.622047,0.275591,-0.732283][0.381364,0.547109,0][0.192772,-0.803838,1.94024][-0.448819,-0.448819,-0.771654][0.360319,0.56441,0][-0.517828,-0.604768,1.91683][0.346457,0.76378,-0.543307][0.310741,0.547109,0][-0.200514,-0.61799,1.9209][-0.858268,0.472441,0.19685][0.340718,0.547206,0]