version 1.00
322
[1.74117,-0.912272,0.877916][-0.0944882,-0.740157,0.669291][13.9451,-13.057,0][1.74137,-0.723984,0.935342][0.00787402,0.976378,0.204724][13.9415,-13.0452,0][1.52876,-0.772166,1.24898][0.787402,-0.440945,0.440945][13.9219,-13.0483,0][1.52876,-0.772166,1.24898][0.787402,-0.440945,0.440945][13.9219,-13.0483,0][1.74137,-0.723984,0.935342][0.00787402,0.976378,0.204724][13.9415,-13.0452,0][1.54979,-0.025911,1.22735][-0.80315,0.519685,-0.283465][13.9233,-13.0016,0][1.96005,-0.70447,0.171454][0.0393701,-0.929134,-0.354331][13.9893,-13.044,0][1.96028,-0.518484,0.235936][-0.0866142,0.952756,0.299213][13.9853,-13.0324,0][1.88706,-0.634902,0.593896][0.937008,-0.330709,0.0866142][13.9629,-13.0397,0][1.88706,-0.634902,0.593896][0.937008,-0.330709,0.0866142][13.9629,-13.0397,0][1.96028,-0.518484,0.235936][-0.0866142,0.952756,0.299213][13.9853,-13.0324,0][1.82443,0.120363,0.614424][-0.905512,0.425197,0.0708661][13.9616,-12.9925,0][1.88057,-0.46128,-0.55274][0.149606,-0.984252,0.102362][14.0345,-13.0288,0][1.88079,-0.274462,-0.4907][-0.15748,0.944882,0.291339][14.0307,-13.0172,0][1.95816,-0.392092,-0.128696][0.976378,-0.0472441,-0.19685][14.008,-13.0245,0][1.95816,-0.392092,-0.128696][0.976378,-0.0472441,-0.19685][14.008,-13.0245,0][1.95794,-0.578088,-0.193152][0.976378,0.125984,-0.165354][14.0121,-13.0361,0][1.88057,-0.46128,-0.55274][0.149606,-0.984252,0.102362][14.0345,-13.0288,0][1.95816,-0.392092,-0.128696][0.976378,-0.0472441,-0.19685][14.008,-13.0245,0][1.88079,-0.274462,-0.4907][-0.15748,0.944882,0.291339][14.0307,-13.0172,0][1.82009,0.341908,-0.07603][-0.850394,0.314961,0.417323][14.0048,-12.9786,0][1.51472,-0.322332,-1.21571][0.110236,-0.968504,-0.228346][14.076,-13.0201,0][1.51489,-0.132033,-1.16535][-0.23622,0.944882,0.220472][14.0728,-13.0083,0][1.73112,-0.183141,-0.840108][0.84252,0.0866142,-0.535433][14.0525,-13.0114,0][1.73112,-0.183141,-0.840108][0.84252,0.0866142,-0.535433][14.0525,-13.0114,0][1.73092,-0.37147,-0.897404][0.818898,0.307087,-0.488189][14.0561,-13.0232,0][1.51472,-0.322332,-1.21571][0.110236,-0.968504,-0.228346][14.076,-13.0201,0][1.73112,-0.183141,-0.840108][0.84252,0.0866142,-0.535433][14.0525,-13.0114,0][1.51489,-0.132033,-1.16535][-0.23622,0.944882,0.220472][14.0728,-13.0083,0][1.53953,0.511076,-0.765704][-0.661417,0.251969,0.708661][14.0479,-12.9681,0][0.871234,-0.028287,-1.86703][0.606299,-0.511811,-0.606299][14.1167,-13.0018,0][0.920424,0.24695,-1.81298][0.377953,0.677165,-0.637795][14.1133,-12.9846,0][1.02692,0.082451,-1.62915][0.96063,-0.259843,-0.125984][14.1018,-12.9948,0][1.02692,0.082451,-1.62915][0.96063,-0.259843,-0.125984][14.1018,-12.9948,0][0.920424,0.24695,-1.81298][0.377953,0.677165,-0.637795][14.1133,-12.9846,0][0.98318,0.295786,-1.62545][0.92126,0.244094,0.307087][14.1016,-12.9815,0][0.346604,0.86796,-1.90602][0.677165,0.677165,-0.299213][14.1191,-12.9458,0][0.403808,0.615104,-1.9154][0.850394,-0.299213,0.440945][14.1197,-12.9616,0][0.249802,0.61153,-2.12348][0.582677,-0.165354,-0.795276][14.1327,-12.9618,0][0.248406,0.023181,-1.9715][0.944882,-0.0866142,0.322835][14.1232,-12.9986,0][0.105028,0.050959,-2.15638][0.503937,-0.488189,-0.708661][14.1348,-12.9968,0][0.249802,0.61153,-2.12348][0.582677,-0.165354,-0.795276][14.1327,-12.9618,0][0.808984,-0.216554,-1.77735][-0.204724,-0.968504,-0.141732][14.1111,-13.0135,0][0.871234,-0.028287,-1.86703][0.606299,-0.511811,-0.606299][14.1167,-13.0018,0][1.02692,0.082451,-1.62915][0.96063,-0.259843,-0.125984][14.1018,-12.9948,0][0.403808,0.615104,-1.9154][0.850394,-0.299213,0.440945][14.1197,-12.9616,0][0.248406,0.023181,-1.9715][0.944882,-0.0866142,0.322835][14.1232,-12.9986,0][0.249802,0.61153,-2.12348][0.582677,-0.165354,-0.795276][14.1327,-12.9618,0][0.248406,0.023181,-1.9715][0.944882,-0.0866142,0.322835][14.1232,-12.9986,0][-0.006186,-0.399956,-1.99873][-0.692913,-0.582677,0.433071][14.1249,-13.025,0][0.105028,0.050959,-2.15638][0.503937,-0.488189,-0.708661][14.1348,-12.9968,0][-0.560764,-0.460812,1.87819][-0.165354,0.220472,0.96063][13.8826,-13.0288,0][-0.56083,-0.26488,1.8592][-0.181102,0.0551181,0.984252][13.8838,-13.0166,0][-1.04013,0.152583,2.45234][0.0472441,0.984252,-0.149606][13.8467,-12.9905,0][1.51489,-0.132033,-1.16535][-0.23622,0.944882,0.220472][14.0728,-13.0083,0][1.51472,-0.322332,-1.21571][0.110236,-0.968504,-0.228346][14.076,-13.0201,0][1.93922,0.321092,-1.74245][-0.0393701,0.937008,0.338583][14.1089,-12.9799,0][0.204054,-0.708446,1.95683][0.212598,0.0314961,0.976378][13.8777,-13.0443,0][0.204076,-0.511708,1.96344][0.181102,-0.165354,0.968504][13.8773,-13.032,0][0.016952,-0.297366,2.7584][0.0866142,0.992126,0.11811][13.8276,-13.0186,0][0.918266,-0.175797,-1.68893][-0.322835,0.937008,0.141732][14.1056,-13.011,0][0.91816,-0.370214,-1.71979][0.188976,-0.984252,-0.0551181][14.1075,-13.0231,0][1.04013,0.152583,-2.45228][-0.0472441,0.984252,0.149606][14.1533,-12.9905,0][0.937704,-0.916694,1.70902][-0.220472,-0.968504,-0.0866142][13.8932,-13.0573,0][0.937812,-0.72232,1.74013][0.141732,0.984252,0.0629921][13.8912,-13.0451,0][1.07052,-0.756618,2.56262][0.133858,-0.905512,0.393701][13.8398,-13.0473,0][0.181858,-0.382964,-1.95272][-0.354331,0.929134,0.0866142][14.122,-13.0239,0][0.181836,-0.579712,-1.95904][0.212598,-0.976378,-0.00787402][14.1224,-13.0362,0][-0.016952,-0.297364,-2.75834][-0.0866142,0.992126,-0.11811][14.1724,-13.0186,0][1.43568,-0.920534,1.07138][-0.929134,-0.362205,0.0314961][13.933,-13.0575,0][1.52876,-0.772166,1.24898][0.787402,-0.440945,0.440945][13.9219,-13.0483,0][1.96081,-0.947932,1.94548][0.173228,0.834646,0.519685][13.8784,-13.0592,0][-0.582138,-0.630998,-1.89067][-0.283465,0.96063,0.0314961][14.1182,-13.0394,0][-0.58207,-0.826906,-1.8714][0.787402,-0.480315,-0.385827][14.117,-13.0517,0][-1.07052,-0.756618,-2.56256][-0.173228,0.92126,-0.346457][14.1602,-13.0473,0][1.15018,-0.346522,-1.3212][0.165354,-0.370079,0.913386][14.0826,-13.0217,0][1.24041,-0.129277,-1.45308][0.559055,0.15748,-0.818898][14.0908,-13.0081,0][1.02681,0.53008,-1.36345][-0.362205,0.267717,0.897638][14.0852,-12.9669,0][-0.918266,-0.175797,1.68899][0.322835,0.937008,-0.141732][13.8944,-13.011,0][-0.826426,-0.226928,1.52374][0.0787402,0.992126,0.0629921][13.9048,-13.0142,0][-1.02681,0.53008,1.36352][0.362205,0.267717,-0.897638][13.9148,-12.9669,0][0.544976,-0.452814,-1.68127][0.566929,-0.165354,0.80315][14.1051,-13.0283,0][0.56083,-0.26488,-1.85913][0.181102,0.0551181,-0.984252][14.1162,-13.0166,0][0.35797,0.385438,-1.76221][-0.015748,0.362205,0.929134][14.1101,-12.9759,0][-0.181858,-0.382964,1.95278][0.354331,0.929134,-0.0866142][13.878,-13.0239,0][-0.163672,-0.394904,1.75768][0.212598,0.968504,0.15748][13.8901,-13.0247,0][-0.35797,0.385438,1.76227][0.015748,0.362205,-0.929134][13.8899,-12.9759,0][-0.183668,-0.49919,-1.76722][0.141732,-0.0551181,0.992126][14.1105,-13.0312,0][-0.204076,-0.511708,-1.96337][-0.181102,-0.165354,-0.968504][14.1227,-13.032,0][-0.367222,0.160557,-1.8737][0.299213,0.480315,0.826772][14.1171,-12.99,0][0.582138,-0.630998,1.89073][0.283465,0.96063,-0.0314961][13.8818,-13.0394,0][0.52393,-0.595862,1.70321][0.291339,0.952756,0.0708661][13.8936,-13.0372,0][0.367222,0.160557,1.87376][-0.299213,0.480315,-0.826772][13.8829,-12.99,0][-0.844044,-0.66996,-1.56979][0.535433,0.322835,0.779528][14.0981,-13.0419,0][-0.937812,-0.72232,-1.74006][-0.527559,-0.299213,-0.795276][14.1088,-13.0451,0][-1.03769,-0.010231,-1.67711][0.590551,0.543307,0.598425][14.1048,-13.0006,0][1.25744,-0.771762,1.52185][0.149606,0.984252,0.0708661][13.9049,-13.0482,0][1.13172,-0.710212,1.37559][0.259843,0.937008,0.23622][13.914,-13.0444,0][1.03769,-0.010231,1.67718][0.527559,0.299213,0.795276][13.8952,-13.0006,0][-0.663618,-0.111591,-1.96056][-0.0708661,0.80315,-0.590551][14.1225,-13.007,0][-0.674248,-0.342972,-1.6287][0.496063,-0.0866142,0.866142][14.1018,-13.0214,0][-0.496828,-0.37283,-1.97922][0.740157,0.385827,-0.551181][14.1237,-13.0233,0][0.107322,0.328598,-1.71745][0.204724,-0.259843,0.944882][14.1073,-12.9795,0][0.248406,0.023181,-1.9715][0.944882,-0.0866142,0.322835][14.1232,-12.9986,0][0.403808,0.615104,-1.9154][0.850394,-0.299213,0.440945][14.1197,-12.9616,0][-0.496828,-0.37283,-1.97922][0.740157,0.385827,-0.551181][14.1237,-13.0233,0][-0.674248,-0.342972,-1.6287][0.496063,-0.0866142,0.866142][14.1018,-13.0214,0][-0.786548,-0.703382,-1.83843][-0.267717,-0.944882,0.204724][14.1149,-13.044,0][-0.56083,-0.26488,1.8592][-0.181102,0.0551181,0.984252][13.8838,-13.0166,0][-0.544976,-0.452814,1.68134][-0.566929,-0.165354,-0.80315][13.8949,-13.0283,0][-0.826426,-0.226928,1.52374][0.0787402,0.992126,0.0629921][13.9048,-13.0142,0][-1.24041,-0.129277,1.45314][-0.559055,0.15748,0.818898][13.9092,-13.0081,0][-1.15018,-0.346522,1.32126][-0.165354,-0.370079,-0.913386][13.9174,-13.0217,0][-1.36337,-0.191105,1.05588][-0.0629921,0.992126,-0.110236][13.934,-13.0119,0][-1.43568,-0.920534,-1.07132][0.929134,-0.362205,-0.0314961][14.067,-13.0575,0][-1.13172,-0.710212,-1.37552][-0.259843,0.937008,-0.23622][14.086,-13.0444,0][-1.37592,-0.710724,-1.13122][0.818898,0,0.574803][14.0707,-13.0444,0][-1.69837,-0.599466,-0.539552][0.968504,-0.0314961,0.23622][14.0337,-13.0375,0][-1.75374,-0.788838,-0.445556][0.700787,-0.598425,-0.385827][14.0278,-13.0493,0][-1.43568,-0.920534,-1.07132][0.929134,-0.362205,-0.0314961][14.067,-13.0575,0][-1.43568,-0.920534,-1.07132][0.929134,-0.362205,-0.0314961][14.067,-13.0575,0][-1.37592,-0.710724,-1.13122][0.818898,0,0.574803][14.0707,-13.0444,0][-1.56725,-0.671752,-0.848726][-0.110236,0.952756,-0.291339][14.053,-13.042,0][-1.56725,-0.671752,-0.848726][-0.110236,0.952756,-0.291339][14.053,-13.042,0][-1.37592,-0.710724,-1.13122][0.818898,0,0.574803][14.0707,-13.0444,0][-1.54979,-0.025911,-1.22729][0.80315,0.519685,0.283465][14.0767,-13.0016,0][-1.43568,-0.920534,-1.07132][0.929134,-0.362205,-0.0314961][14.067,-13.0575,0][-1.56725,-0.671752,-0.848726][-0.110236,0.952756,-0.291339][14.053,-13.042,0][-1.69837,-0.599466,-0.539552][0.968504,-0.0314961,0.23622][14.0337,-13.0375,0][-1.75374,-0.788838,-0.445556][0.700787,-0.598425,-0.385827][14.0278,-13.0493,0][-1.69837,-0.599466,-0.539552][0.968504,-0.0314961,0.23622][14.0337,-13.0375,0][-1.76426,-0.504872,-0.214256][-0.0629921,0.929134,-0.354331][14.0134,-13.0316,0][-1.76426,-0.504872,-0.214256][-0.0629921,0.929134,-0.354331][14.0134,-13.0316,0][-1.69837,-0.599466,-0.539552][0.968504,-0.0314961,0.23622][14.0337,-13.0375,0][-1.82443,0.120363,-0.61436][0.905512,0.425197,-0.0708661][14.0384,-12.9925,0][-1.70046,-0.478398,0.544588][0.937008,-0.228346,-0.259843][13.966,-13.0299,0][-1.76234,-0.40213,0.117526][0.984252,0.0314961,-0.181102][13.9927,-13.0251,0][-1.69269,-0.306552,0.446488][0.015748,0.952756,-0.299213][13.9721,-13.0192,0][-1.69269,-0.306552,0.446488][0.015748,0.952756,-0.299213][13.9721,-13.0192,0][-1.76234,-0.40213,0.117526][0.984252,0.0314961,-0.181102][13.9927,-13.0251,0][-1.82009,0.341908,0.076094][0.850394,0.314961,-0.417323][13.9952,-12.9786,0][-1.76234,-0.40213,0.117526][0.984252,0.0314961,-0.181102][13.9927,-13.0251,0][-1.70046,-0.478398,0.544588][0.937008,-0.228346,-0.259843][13.966,-13.0299,0][-1.75374,-0.788838,-0.445556][0.700787,-0.598425,-0.385827][14.0278,-13.0493,0][-1.75374,-0.788838,-0.445556][0.700787,-0.598425,-0.385827][14.0278,-13.0493,0][-1.76426,-0.504872,-0.214256][-0.0629921,0.929134,-0.354331][14.0134,-13.0316,0][-1.76234,-0.40213,0.117526][0.984252,0.0314961,-0.181102][13.9927,-13.0251,0][-1.70046,-0.478398,0.544588][0.937008,-0.228346,-0.259843][13.966,-13.0299,0][-1.69269,-0.306552,0.446488][0.015748,0.952756,-0.299213][13.9721,-13.0192,0][-1.55798,-0.23245,0.762872][0.826772,-0.125984,-0.543307][13.9523,-13.0145,0][-1.36337,-0.191105,1.05588][-0.0629921,0.992126,-0.110236][13.934,-13.0119,0][-1.15018,-0.346522,1.32126][-0.165354,-0.370079,-0.913386][13.9174,-13.0217,0][-1.70046,-0.478398,0.544588][0.937008,-0.228346,-0.259843][13.966,-13.0299,0][-1.70046,-0.478398,0.544588][0.937008,-0.228346,-0.259843][13.966,-13.0299,0][-1.55798,-0.23245,0.762872][0.826772,-0.125984,-0.543307][13.9523,-13.0145,0][-1.36337,-0.191105,1.05588][-0.0629921,0.992126,-0.110236][13.934,-13.0119,0][-1.36337,-0.191105,1.05588][-0.0629921,0.992126,-0.110236][13.934,-13.0119,0][-1.55798,-0.23245,0.762872][0.826772,-0.125984,-0.543307][13.9523,-13.0145,0][-1.53953,0.511076,0.765768][0.661417,0.251969,-0.708661][13.9521,-12.9681,0][0.099596,0.964152,-1.9722][0.464567,0.874016,0.149606][13.9938,-13.1233,0][0.080668,0.774058,-2.15882][-0.0314961,0.645669,-0.76378][13.995,-13.1349,0][-0.187442,0.627324,-2.21986][-0.023622,0.181102,-0.984252][14.0117,-13.1387,0][0.98318,0.295786,-1.62545][0.92126,0.244094,0.307087][13.9386,-13.1016,0][0.920424,0.24695,-1.81298][0.377953,0.677165,-0.637795][13.9425,-13.1133,0][0.8218,0.36636,-1.69005][-0.0314961,0.80315,0.590551][13.9486,-13.1056,0][0.8218,0.36636,-1.69005][-0.0314961,0.80315,0.590551][13.9486,-13.1056,0][0.920424,0.24695,-1.81298][0.377953,0.677165,-0.637795][13.9425,-13.1133,0][0.5257,0.180815,-1.86928][-0.503937,0.480315,-0.724409][13.9671,-13.1168,0][0.920424,0.24695,-1.81298][0.377953,0.677165,-0.637795][13.9425,-13.1133,0][0.673786,0.130765,-1.94133][0.259843,0.409449,-0.874016][13.9579,-13.1213,0][0.5257,0.180815,-1.86928][-0.503937,0.480315,-0.724409][13.9671,-13.1168,0][-0.663618,-0.111591,-1.96056][-0.0708661,0.80315,-0.590551][14.0415,-13.1225,0][-0.88704,-0.30717,-2.00366][-0.283465,0.527559,-0.80315][14.0554,-13.1252,0][-1.01837,-0.300488,-1.8179][-0.992126,-0.023622,0.133858][14.0636,-13.1136,0][1.52876,-0.772166,1.24898][0.787402,-0.440945,0.440945][13.9045,-12.9219,0][1.37592,-0.710724,1.13128][-0.818898,0,-0.574803][13.914,-12.9293,0][1.13172,-0.710212,1.37559][0.259843,0.937008,0.23622][13.9293,-12.914,0][1.13172,-0.710212,1.37559][0.259843,0.937008,0.23622][13.9293,-12.914,0][1.25744,-0.771762,1.52185][0.149606,0.984252,0.0708661][13.9214,-12.9049,0][1.52876,-0.772166,1.24898][0.787402,-0.440945,0.440945][13.9045,-12.9219,0][1.88706,-0.634902,0.593896][0.937008,-0.330709,0.0866142][13.8821,-12.9629,0][1.69837,-0.599466,0.539616][-0.968504,-0.0314961,-0.23622][13.8939,-12.9663,0][1.56725,-0.671752,0.84879][0.110236,0.952756,0.291339][13.902,-12.947,0][-1.52876,-0.772166,-1.24891][-0.787402,-0.440945,-0.440945][14.0955,-13.0781,0][-1.37592,-0.710724,-1.13122][0.818898,0,0.574803][14.086,-13.0707,0][-1.13172,-0.710212,-1.37552][-0.259843,0.937008,-0.23622][14.0707,-13.086,0][-1.13172,-0.710212,-1.37552][-0.259843,0.937008,-0.23622][14.0707,-13.086,0][-1.25744,-0.771762,-1.52179][-0.149606,0.984252,-0.0708661][14.0786,-13.0951,0][-1.52876,-0.772166,-1.24891][-0.787402,-0.440945,-0.440945][14.0955,-13.0781,0][1.52876,-0.772166,1.24898][0.787402,-0.440945,0.440945][13.9045,-12.9219,0][1.25744,-0.771762,1.52185][0.149606,0.984252,0.0708661][13.9214,-12.9049,0][1.96081,-0.947932,1.94548][0.173228,0.834646,0.519685][13.8774,-12.8784,0][1.56725,-0.671752,0.84879][0.110236,0.952756,0.291339][13.902,-12.947,0][1.74137,-0.723984,0.935342][0.00787402,0.976378,0.204724][13.8912,-12.9415,0][1.88706,-0.634902,0.593896][0.937008,-0.330709,0.0866142][13.8821,-12.9629,0][1.88706,-0.634902,0.593896][0.937008,-0.330709,0.0866142][13.8821,-12.9629,0][1.74137,-0.723984,0.935342][0.00787402,0.976378,0.204724][13.8912,-12.9415,0][2.5529,-0.767686,1.08963][0.181102,0.811024,0.559055][13.8404,-12.9319,0][1.95816,-0.392092,-0.128696][0.976378,-0.0472441,-0.19685][13.8776,-13.008,0][1.76234,-0.40213,-0.117462][-0.984252,0.0314961,0.181102][13.8899,-13.0073,0][1.76426,-0.504872,0.21432][0.0629921,0.929134,0.354331][13.8897,-12.9866,0][1.76426,-0.504872,0.21432][0.0629921,0.929134,0.354331][13.8897,-12.9866,0][1.96028,-0.518484,0.235936][-0.0866142,0.952756,0.299213][13.8775,-12.9853,0][1.95816,-0.392092,-0.128696][0.976378,-0.0472441,-0.19685][13.8776,-13.008,0][-1.88706,-0.634902,-0.593832][-0.937008,-0.330709,-0.0866142][14.1179,-13.0371,0][-1.69837,-0.599466,-0.539552][0.968504,-0.0314961,0.23622][14.1061,-13.0337,0][-1.56725,-0.671752,-0.848726][-0.110236,0.952756,-0.291339][14.098,-13.053,0][0.204076,-0.511708,1.96344][0.181102,-0.165354,0.968504][13.9872,-12.8773,0][0.183668,-0.49919,1.76729][-0.141732,-0.0551181,-0.992126][13.9885,-12.8895,0][-0.163672,-0.394904,1.75768][0.212598,0.968504,0.15748][14.0102,-12.8901,0][0.937812,-0.72232,1.74013][0.141732,0.984252,0.0629921][13.9414,-12.8912,0][0.844044,-0.66996,1.56985][0.23622,0.96063,0.165354][13.9472,-12.9019,0][0.52393,-0.595862,1.70321][0.291339,0.952756,0.0708661][13.9673,-12.8936,0][0.52393,-0.595862,1.70321][0.291339,0.952756,0.0708661][13.9673,-12.8936,0][0.582138,-0.630998,1.89073][0.283465,0.96063,-0.0314961][13.9636,-12.8818,0][0.937812,-0.72232,1.74013][0.141732,0.984252,0.0629921][13.9414,-12.8912,0][0.937812,-0.72232,1.74013][0.141732,0.984252,0.0629921][13.9414,-12.8912,0][0.582138,-0.630998,1.89073][0.283465,0.96063,-0.0314961][13.9636,-12.8818,0][1.07052,-0.756618,2.56262][0.133858,-0.905512,0.393701][13.9331,-12.8398,0][-1.52876,-0.772166,-1.24891][-0.787402,-0.440945,-0.440945][14.0955,-13.0781,0][-1.25744,-0.771762,-1.52179][-0.149606,0.984252,-0.0708661][14.0786,-13.0951,0][-1.96081,-0.947932,-1.94541][-0.173228,0.834646,-0.519685][14.1226,-13.1216,0][-0.204076,-0.511708,-1.96337][-0.181102,-0.165354,-0.968504][14.0128,-13.1227,0][-0.183668,-0.49919,-1.76722][0.141732,-0.0551181,0.992126][14.0115,-13.1105,0][0.163672,-0.394904,-1.75762][-0.212598,0.968504,-0.15748][13.9898,-13.1099,0][-0.937812,-0.72232,-1.74006][-0.527559,-0.299213,-0.795276][14.0586,-13.1088,0][-0.844044,-0.66996,-1.56979][0.535433,0.322835,0.779528][14.0528,-13.0981,0][-0.52393,-0.595862,-1.70314][-0.291339,0.952756,-0.0708661][14.0327,-13.1064,0][-0.52393,-0.595862,-1.70314][-0.291339,0.952756,-0.0708661][14.0327,-13.1064,0][-0.582138,-0.630998,-1.89067][-0.283465,0.96063,0.0314961][14.0364,-13.1182,0][-0.937812,-0.72232,-1.74006][-0.527559,-0.299213,-0.795276][14.0586,-13.1088,0][-0.937812,-0.72232,-1.74006][-0.527559,-0.299213,-0.795276][14.0586,-13.1088,0][-0.582138,-0.630998,-1.89067][-0.283465,0.96063,0.0314961][14.0364,-13.1182,0][-1.07052,-0.756618,-2.56256][-0.173228,0.92126,-0.346457][14.0669,-13.1602,0][0.163672,-0.394904,-1.75762][-0.212598,0.968504,-0.15748][13.9898,-13.1099,0][0.181858,-0.382964,-1.95272][-0.354331,0.929134,0.0866142][13.9886,-13.122,0][-0.204076,-0.511708,-1.96337][-0.181102,-0.165354,-0.968504][14.0128,-13.1227,0][-1.56725,-0.671752,-0.848726][-0.110236,0.952756,-0.291339][14.098,-13.053,0][-1.74137,-0.723986,-0.935278][-0.00787402,0.976378,-0.204724][14.1088,-13.0585,0][-1.88706,-0.634902,-0.593832][-0.937008,-0.330709,-0.0866142][14.1179,-13.0371,0][-1.88706,-0.634902,-0.593832][-0.937008,-0.330709,-0.0866142][14.1179,-13.0371,0][-1.74137,-0.723986,-0.935278][-0.00787402,0.976378,-0.204724][14.1088,-13.0585,0][-2.5529,-0.767686,-1.08957][-0.181102,0.811024,-0.559055][14.1596,-13.0681,0][-0.163672,-0.394904,1.75768][0.212598,0.968504,0.15748][14.0102,-12.8901,0][-0.181858,-0.382964,1.95278][0.354331,0.929134,-0.0866142][14.0114,-12.878,0][0.204076,-0.511708,1.96344][0.181102,-0.165354,0.968504][13.9872,-12.8773,0][-1.95816,-0.392092,0.12876][-0.976378,-0.0472441,0.19685][14.1224,-12.992,0][-1.76234,-0.40213,0.117526][0.984252,0.0314961,-0.181102][14.1101,-12.9927,0][-1.76426,-0.504872,-0.214256][-0.0629921,0.929134,-0.354331][14.1103,-13.0134,0][-1.76426,-0.504872,-0.214256][-0.0629921,0.929134,-0.354331][14.1103,-13.0134,0][-1.96028,-0.518484,-0.235872][0.0866142,0.952756,-0.299213][14.1225,-13.0147,0][-1.95816,-0.392092,0.12876][-0.976378,-0.0472441,0.19685][14.1224,-12.992,0][0.826426,-0.226928,-1.52368][-0.0787402,0.992126,-0.0629921][13.9483,-13.0952,0][0.918266,-0.175797,-1.68893][-0.322835,0.937008,0.141732][13.9426,-13.1056,0][0.56083,-0.26488,-1.85913][0.181102,0.0551181,-0.984252][13.9649,-13.1162,0][1.95816,-0.392092,-0.128696][0.976378,-0.0472441,-0.19685][13.8776,-13.008,0][1.96028,-0.518484,0.235936][-0.0866142,0.952756,0.299213][13.8775,-12.9853,0][2.75714,-0.329874,0.14242][0.110236,0.889764,0.448819][13.8277,-12.9911,0][-0.826426,-0.226928,1.52374][0.0787402,0.992126,0.0629921][14.0517,-12.9048,0][-0.918266,-0.175797,1.68899][0.322835,0.937008,-0.141732][14.0574,-12.8944,0][-0.56083,-0.26488,1.8592][-0.181102,0.0551181,0.984252][14.0351,-12.8838,0][-0.204076,-0.511708,-1.96337][-0.181102,-0.165354,-0.968504][14.0128,-13.1227,0][0.181858,-0.382964,-1.95272][-0.354331,0.929134,0.0866142][13.9886,-13.122,0][-0.016952,-0.297364,-2.75834][-0.0866142,0.992126,-0.11811][14.0011,-13.1724,0][-1.73112,-0.183141,0.840172][-0.84252,0.0866142,0.535433][14.1082,-12.9475,0][-1.55798,-0.23245,0.762872][0.826772,-0.125984,-0.543307][14.0974,-12.9523,0][-1.69269,-0.306552,0.446488][0.015748,0.952756,-0.299213][14.1058,-12.9721,0][-1.69269,-0.306552,0.446488][0.015748,0.952756,-0.299213][14.1058,-12.9721,0][-1.88079,-0.274462,0.490764][0.15748,0.944882,-0.291339][14.1175,-12.9693,0][-1.73112,-0.183141,0.840172][-0.84252,0.0866142,0.535433][14.1082,-12.9475,0][-1.36337,-0.191105,1.05588][-0.0629921,0.992126,-0.110236][14.0852,-12.934,0][-1.51489,-0.132033,1.16542][0.23622,0.944882,-0.220472][14.0947,-12.9272,0][-1.24041,-0.129277,1.45314][-0.559055,0.15748,0.818898][14.0775,-12.9092,0][1.73112,-0.183141,-0.840108][0.84252,0.0866142,-0.535433][13.8918,-13.0525,0][1.55798,-0.23245,-0.762808][-0.826772,-0.125984,0.543307][13.9026,-13.0477,0][1.69269,-0.306552,-0.446424][-0.015748,0.952756,0.299213][13.8942,-13.0279,0][1.69269,-0.306552,-0.446424][-0.015748,0.952756,0.299213][13.8942,-13.0279,0][1.88079,-0.274462,-0.4907][-0.15748,0.944882,0.291339][13.8825,-13.0307,0][1.73112,-0.183141,-0.840108][0.84252,0.0866142,-0.535433][13.8918,-13.0525,0][1.73112,-0.183141,-0.840108][0.84252,0.0866142,-0.535433][13.8918,-13.0525,0][1.88079,-0.274462,-0.4907][-0.15748,0.944882,0.291339][13.8825,-13.0307,0][2.54208,0.117651,-0.825786][0,0.905512,0.417323][13.8411,-13.0516,0][0.204076,-0.511708,1.96344][0.181102,-0.165354,0.968504][13.9872,-12.8773,0][-0.181858,-0.382964,1.95278][0.354331,0.929134,-0.0866142][14.0114,-12.878,0][0.016952,-0.297366,2.7584][0.0866142,0.992126,0.11811][13.9989,-12.8276,0][-1.95816,-0.392092,0.12876][-0.976378,-0.0472441,0.19685][14.1224,-12.992,0][-1.96028,-0.518484,-0.235872][0.0866142,0.952756,-0.299213][14.1225,-13.0147,0][-2.75714,-0.329874,-0.142356][-0.110236,0.889764,-0.448819][14.1723,-13.0089,0][-0.663618,-0.111591,-1.96056][-0.0708661,0.80315,-0.590551][14.0415,-13.1225,0][-1.01837,-0.300488,-1.8179][-0.992126,-0.023622,0.133858][14.0636,-13.1136,0][-0.674248,-0.342972,-1.6287][0.496063,-0.0866142,0.866142][14.0421,-13.1018,0][0.56083,-0.26488,-1.85913][0.181102,0.0551181,-0.984252][13.9649,-13.1162,0][0.918266,-0.175797,-1.68893][-0.322835,0.937008,0.141732][13.9426,-13.1056,0][1.04013,0.152583,-2.45228][-0.0472441,0.984252,0.149606][13.935,-13.1533,0][1.36337,-0.191105,-1.05581][0.0629921,0.992126,0.110236][13.9148,-13.066,0][1.51489,-0.132033,-1.16535][-0.23622,0.944882,0.220472][13.9053,-13.0728,0][1.24041,-0.129277,-1.45308][0.559055,0.15748,-0.818898][13.9225,-13.0908,0][1.24041,-0.129277,-1.45308][0.559055,0.15748,-0.818898][13.9225,-13.0908,0][1.51489,-0.132033,-1.16535][-0.23622,0.944882,0.220472][13.9053,-13.0728,0][1.93922,0.321092,-1.74245][-0.0393701,0.937008,0.338583][13.8788,-13.1089,0][-0.56083,-0.26488,1.8592][-0.181102,0.0551181,0.984252][14.0351,-12.8838,0][-0.918266,-0.175797,1.68899][0.322835,0.937008,-0.141732][14.0574,-12.8944,0][-1.04013,0.152583,2.45234][0.0472441,0.984252,-0.149606][14.065,-12.8467,0][-1.73112,-0.183141,0.840172][-0.84252,0.0866142,0.535433][14.1082,-12.9475,0][-1.88079,-0.274462,0.490764][0.15748,0.944882,-0.291339][14.1175,-12.9693,0][-2.54208,0.117653,0.82585][0,0.905512,-0.417323][14.1589,-12.9484,0][-1.24041,-0.129277,1.45314][-0.559055,0.15748,0.818898][14.0775,-12.9092,0][-1.51489,-0.132033,1.16542][0.23622,0.944882,-0.220472][14.0947,-12.9272,0][-1.93922,0.321092,1.74251][0.0393701,0.937008,-0.338583][14.1212,-12.8911,0][0.582072,-0.826906,1.87146][-0.787402,-0.480315,0.385827][14.0364,-13.0517,0][0.582138,-0.630998,1.89073][0.283465,0.96063,-0.0314961][14.0364,-13.0394,0][0.204076,-0.511708,1.96344][0.181102,-0.165354,0.968504][14.0128,-13.032,0][0.204076,-0.511708,1.96344][0.181102,-0.165354,0.968504][14.0128,-13.032,0][0.204054,-0.708446,1.95683][0.212598,0.0314961,0.976378][14.0128,-13.0443,0][0.582072,-0.826906,1.87146][-0.787402,-0.480315,0.385827][14.0364,-13.0517,0][1.25729,-0.964154,1.48019][0.0551181,-0.653543,0.755906][14.0786,-13.0603,0][1.25744,-0.771762,1.52185][0.149606,0.984252,0.0708661][14.0786,-13.0482,0][0.937812,-0.72232,1.74013][0.141732,0.984252,0.0629921][14.0586,-13.0451,0][0.937812,-0.72232,1.74013][0.141732,0.984252,0.0629921][14.0586,-13.0451,0][0.937704,-0.916694,1.70902][-0.220472,-0.968504,-0.0866142][14.0586,-13.0573,0][1.25729,-0.964154,1.48019][0.0551181,-0.653543,0.755906][14.0786,-13.0603,0][0.204076,-0.511708,1.96344][0.181102,-0.165354,0.968504][14.0128,-13.032,0][0.582138,-0.630998,1.89073][0.283465,0.96063,-0.0314961][14.0364,-13.0394,0][0.367222,0.160557,1.87376][-0.299213,0.480315,-0.826772][14.023,-12.99,0][0.937812,-0.72232,1.74013][0.141732,0.984252,0.0629921][14.0586,-13.0451,0][1.25744,-0.771762,1.52185][0.149606,0.984252,0.0708661][14.0786,-13.0482,0][1.03769,-0.010231,1.67718][0.527559,0.299213,0.795276][14.0649,-13.0006,0][-0.181836,-0.579712,1.95911][-0.212598,-0.976378,0.00787402][13.9886,-13.0362,0][-0.181858,-0.382964,1.95278][0.354331,0.929134,-0.0866142][13.9886,-13.0239,0][-0.56083,-0.26488,1.8592][-0.181102,0.0551181,0.984252][13.9649,-13.0166,0][-0.56083,-0.26488,1.8592][-0.181102,0.0551181,0.984252][13.9649,-13.0166,0][-0.181858,-0.382964,1.95278][0.354331,0.929134,-0.0866142][13.9886,-13.0239,0][-0.35797,0.385438,1.76227][0.015748,0.362205,-0.929134][13.9776,-12.9759,0][-0.56083,-0.26488,1.8592][-0.181102,0.0551181,0.984252][13.9649,-13.0166,0][-0.560764,-0.460812,1.87819][-0.165354,0.220472,0.96063][13.965,-13.0288,0][-0.181836,-0.579712,1.95911][-0.212598,-0.976378,0.00787402][13.9886,-13.0362,0][-0.91816,-0.370214,1.71985][-0.188976,-0.984252,0.0551181][13.9426,-13.0231,0][-0.918266,-0.175797,1.68899][0.322835,0.937008,-0.141732][13.9426,-13.011,0][-1.24041,-0.129277,1.45314][-0.559055,0.15748,0.818898][13.9225,-13.0081,0][-1.24041,-0.129277,1.45314][-0.559055,0.15748,0.818898][13.9225,-13.0081,0][-1.24027,-0.321716,1.49459][-0.527559,0.322835,0.787402][13.9225,-13.0201,0][-0.91816,-0.370214,1.71985][-0.188976,-0.984252,0.0551181][13.9426,-13.0231,0][-1.24041,-0.129277,1.45314][-0.559055,0.15748,0.818898][13.9225,-13.0081,0][-0.918266,-0.175797,1.68899][0.322835,0.937008,-0.141732][13.9426,-13.011,0][-1.02681,0.53008,1.36352][0.362205,0.267717,-0.897638][13.9358,-12.9669,0][-1.73092,-0.37147,0.897468][-0.818898,0.307087,0.488189][13.8918,-13.0232,0][-1.73112,-0.183141,0.840172][-0.84252,0.0866142,0.535433][13.8918,-13.0114,0][-2.54208,0.117653,0.82585][0,0.905512,-0.417323][13.8411,-12.9926,0][-1.24027,-0.321716,1.49459][-0.527559,0.322835,0.787402][13.9225,-13.0201,0][-1.24041,-0.129277,1.45314][-0.559055,0.15748,0.818898][13.9225,-13.0081,0][-1.93922,0.321092,1.74251][0.0393701,0.937008,-0.338583][13.8788,-12.9799,0][1.74137,-0.723984,0.935342][0.00787402,0.976378,0.204724][14.1088,-13.0452,0][1.74117,-0.912272,0.877916][-0.0944882,-0.740157,0.669291][14.1088,-13.057,0][2.5529,-0.767686,1.08963][0.181102,0.811024,0.559055][14.1596,-13.048,0][-1.95794,-0.578088,0.193216][-0.976378,0.125984,0.165354][13.8776,-13.0361,0][-1.95816,-0.392092,0.12876][-0.976378,-0.0472441,0.19685][13.8776,-13.0245,0][-2.75714,-0.329874,-0.142356][-0.110236,0.889764,-0.448819][13.8277,-13.0206,0][1.96028,-0.518484,0.235936][-0.0866142,0.952756,0.299213][14.1225,-13.0324,0][1.96005,-0.70447,0.171454][0.0393701,-0.929134,-0.354331][14.1225,-13.044,0][2.75714,-0.329874,0.14242][0.110236,0.889764,0.448819][14.1723,-13.0206,0][1.25744,-0.771762,1.52185][0.149606,0.984252,0.0708661][14.0786,-13.0482,0][1.25729,-0.964154,1.48019][0.0551181,-0.653543,0.755906][14.0786,-13.0603,0][1.96081,-0.947932,1.94548][0.173228,0.834646,0.519685][14.1226,-13.0592,0][1.88079,-0.274462,-0.4907][-0.15748,0.944882,0.291339][14.1175,-13.0172,0][1.88057,-0.46128,-0.55274][0.149606,-0.984252,0.102362][14.1175,-13.0288,0][2.54208,0.117651,-0.825786][0,0.905512,0.417323][14.1589,-12.9926,0][-1.75374,-0.788838,-0.445556][0.700787,-0.598425,-0.385827][13.8904,-13.0493,0][-1.88706,-0.634902,-0.593832][-0.937008,-0.330709,-0.0866142][13.8821,-13.0397,0][-2.5529,-0.767686,-1.08957][-0.181102,0.811024,-0.559055][13.8404,-13.048,0][1.69837,-0.599466,0.539616][-0.968504,-0.0314961,-0.23622][14.1061,-13.0375,0][1.88706,-0.634902,0.593896][0.937008,-0.330709,0.0866142][14.1179,-13.0397,0][1.82443,0.120363,0.614424][-0.905512,0.425197,0.0708661][14.114,-12.9925,0][1.37592,-0.710724,1.13128][-0.818898,0,-0.574803][14.086,-13.0444,0][1.52876,-0.772166,1.24898][0.787402,-0.440945,0.440945][14.0955,-13.0483,0][1.54979,-0.025911,1.22735][-0.80315,0.519685,-0.283465][14.0969,-13.0016,0][1.76234,-0.40213,-0.117462][-0.984252,0.0314961,0.181102][14.1101,-13.0251,0][1.95816,-0.392092,-0.128696][0.976378,-0.0472441,-0.19685][14.1224,-13.0245,0][1.82009,0.341908,-0.07603][-0.850394,0.314961,0.417323][14.1138,-12.9786,0][-1.74137,-0.723986,-0.935278][-0.00787402,0.976378,-0.204724][13.8912,-13.0452,0][-1.56725,-0.671752,-0.848726][-0.110236,0.952756,-0.291339][13.902,-13.042,0][-1.54979,-0.025911,-1.22729][0.80315,0.519685,0.283465][13.9031,-13.0016,0][-1.96028,-0.518484,-0.235872][0.0866142,0.952756,-0.299213][13.8775,-13.0324,0][-1.76426,-0.504872,-0.214256][-0.0629921,0.929134,-0.354331][13.8897,-13.0316,0][-1.82443,0.120363,-0.61436][0.905512,0.425197,-0.0708661][13.886,-12.9925,0][1.55798,-0.23245,-0.762808][-0.826772,-0.125984,0.543307][14.0974,-13.0145,0][1.73112,-0.183141,-0.840108][0.84252,0.0866142,-0.535433][14.1082,-13.0114,0][1.53953,0.511076,-0.765704][-0.661417,0.251969,0.708661][14.0962,-12.9681,0][-1.88079,-0.274462,0.490764][0.15748,0.944882,-0.291339][13.8825,-13.0172,0][-1.69269,-0.306552,0.446488][0.015748,0.952756,-0.299213][13.8942,-13.0192,0][-1.82009,0.341908,0.076094][0.850394,0.314961,-0.417323][13.8862,-12.9786,0][-1.51489,-0.132033,1.16542][0.23622,0.944882,-0.220472][13.9053,-13.0083,0][-1.36337,-0.191105,1.05588][-0.0629921,0.992126,-0.110236][13.9148,-13.0119,0][-1.53953,0.511076,0.765768][0.661417,0.251969,-0.708661][13.9038,-12.9681,0][-0.161162,0.856426,-2.01992][-0.811024,0.566929,-0.11811][13.9899,-12.9465,0][-0.025076,0.512484,-1.62969][-0.322835,0.574803,0.755906][13.9984,-12.968,0][0.099596,0.964152,-1.9722][0.464567,0.874016,0.149606][14.0062,-12.9397,0][-0.025076,0.512484,-1.62969][-0.322835,0.574803,0.755906][13.9984,-12.968,0][0.346604,0.86796,-1.90602][0.677165,0.677165,-0.299213][14.0217,-12.9458,0][0.099596,0.964152,-1.9722][0.464567,0.874016,0.149606][14.0062,-12.9397,0][-1.01837,-0.300488,-1.8179][-0.992126,-0.023622,0.133858][13.9364,-13.0188,0][-0.998458,-0.620916,-1.77057][-0.338583,-0.889764,0.307087][13.9376,-13.0388,0][-0.674248,-0.342972,-1.6287][0.496063,-0.0866142,0.866142][13.9579,-13.0214,0][0.808984,-0.216554,-1.77735][-0.204724,-0.968504,-0.141732][14.0506,-13.0135,0][1.02692,0.082451,-1.62915][0.96063,-0.259843,-0.125984][14.0642,-12.9948,0][0.662306,0.012933,-1.52417][-0.267717,-0.448819,0.850394][14.0414,-12.9992,0][1.02692,0.082451,-1.62915][0.96063,-0.259843,-0.125984][14.0642,-12.9948,0][0.98318,0.295786,-1.62545][0.92126,0.244094,0.307087][14.0614,-12.9815,0][0.662306,0.012933,-1.52417][-0.267717,-0.448819,0.850394][14.0414,-12.9992,0][0.98318,0.295786,-1.62545][0.92126,0.244094,0.307087][14.0614,-12.9815,0][0.8218,0.36636,-1.69005][-0.0314961,0.80315,0.590551][14.0514,-12.9771,0][0.662306,0.012933,-1.52417][-0.267717,-0.448819,0.850394][14.0414,-12.9992,0][0.403808,0.615104,-1.9154][0.850394,-0.299213,0.440945][14.0252,-12.9616,0][0.346604,0.86796,-1.90602][0.677165,0.677165,-0.299213][14.0217,-12.9458,0][-0.025076,0.512484,-1.62969][-0.322835,0.574803,0.755906][13.9984,-12.968,0][-0.416766,0.309242,-2.05736][-0.944882,-0.149606,0.299213][13.974,-12.9807,0][-0.26343,-0.139491,-2.02028][-0.606299,-0.653543,0.448819][13.9835,-13.0087,0][-0.025076,0.512484,-1.62969][-0.322835,0.574803,0.755906][13.9984,-12.968,0][0.107322,0.328598,-1.71745][0.204724,-0.259843,0.944882][14.0067,-12.9795,0][0.403808,0.615104,-1.9154][0.850394,-0.299213,0.440945][14.0252,-12.9616,0][-0.025076,0.512484,-1.62969][-0.322835,0.574803,0.755906][13.9984,-12.968,0][-0.998458,-0.620916,-1.77057][-0.338583,-0.889764,0.307087][13.9376,-13.0388,0][-0.786548,-0.703382,-1.83843][-0.267717,-0.944882,0.204724][13.9508,-13.044,0][-0.674248,-0.342972,-1.6287][0.496063,-0.0866142,0.866142][13.9579,-13.0214,0][0.107322,0.328598,-1.71745][0.204724,-0.259843,0.944882][14.0067,-12.9795,0][-0.006186,-0.399956,-1.99873][-0.692913,-0.582677,0.433071][13.9996,-13.025,0][0.248406,0.023181,-1.9715][0.944882,-0.0866142,0.322835][14.0155,-12.9986,0][-0.025076,0.512484,-1.62969][-0.322835,0.574803,0.755906][13.9984,-12.968,0][-0.26343,-0.139491,-2.02028][-0.606299,-0.653543,0.448819][13.9835,-13.0087,0][-0.006186,-0.399956,-1.99873][-0.692913,-0.582677,0.433071][13.9996,-13.025,0][0.163672,-0.394904,-1.75762][-0.212598,0.968504,-0.15748][14.0102,-13.0247,0][-0.399924,-0.764536,-1.76774][0.346457,-0.0866142,0.937008][13.975,-13.0478,0][0.544976,-0.452814,-1.68127][0.566929,-0.165354,0.80315][14.0341,-13.0283,0][-0.399924,-0.764536,-1.76774][0.346457,-0.0866142,0.937008][13.975,-13.0478,0][0.163672,-0.394904,-1.75762][-0.212598,0.968504,-0.15748][14.0102,-13.0247,0][-0.183668,-0.49919,-1.76722][0.141732,-0.0551181,0.992126][13.9885,-13.0312,0][0.163672,-0.394904,-1.75762][-0.212598,0.968504,-0.15748][14.0102,-13.0247,0][0.544976,-0.452814,-1.68127][0.566929,-0.165354,0.80315][14.0341,-13.0283,0][0.35797,0.385438,-1.76221][-0.015748,0.362205,0.929134][14.0224,-12.9759,0][0.826426,-0.226928,-1.52368][-0.0787402,0.992126,-0.0629921][14.0517,-13.0142,0][0.544976,-0.452814,-1.68127][0.566929,-0.165354,0.80315][14.0341,-13.0283,0][1.15018,-0.346522,-1.3212][0.165354,-0.370079,0.913386][14.0719,-13.0217,0][-0.399924,-0.764536,-1.76774][0.346457,-0.0866142,0.937008][13.975,-13.0478,0][-0.52393,-0.595862,-1.70314][-0.291339,0.952756,-0.0708661][13.9673,-13.0372,0][-0.844044,-0.66996,-1.56979][0.535433,0.322835,0.779528][13.9472,-13.0419,0][0.826426,-0.226928,-1.52368][-0.0787402,0.992126,-0.0629921][14.0517,-13.0142,0][1.15018,-0.346522,-1.3212][0.165354,-0.370079,0.913386][14.0719,-13.0217,0][1.02681,0.53008,-1.36345][-0.362205,0.267717,0.897638][14.0642,-12.9669,0][-0.399924,-0.764536,-1.76774][0.346457,-0.0866142,0.937008][13.975,-13.0478,0][-0.183668,-0.49919,-1.76722][0.141732,-0.0551181,0.992126][13.9885,-13.0312,0][-0.52393,-0.595862,-1.70314][-0.291339,0.952756,-0.0708661][13.9673,-13.0372,0][-0.52393,-0.595862,-1.70314][-0.291339,0.952756,-0.0708661][13.9673,-13.0372,0][-0.183668,-0.49919,-1.76722][0.141732,-0.0551181,0.992126][13.9885,-13.0312,0][-0.367222,0.160557,-1.8737][0.299213,0.480315,0.826772][13.977,-12.99,0][-1.13172,-0.710212,-1.37552][-0.259843,0.937008,-0.23622][13.9293,-13.0444,0][-1.43568,-0.920534,-1.07132][0.929134,-0.362205,-0.0314961][13.9103,-13.0575,0][-0.399924,-0.764536,-1.76774][0.346457,-0.0866142,0.937008][13.975,-13.0478,0][-0.399924,-0.764536,-1.76774][0.346457,-0.0866142,0.937008][13.975,-13.0478,0][-0.844044,-0.66996,-1.56979][0.535433,0.322835,0.779528][13.9472,-13.0419,0][-1.13172,-0.710212,-1.37552][-0.259843,0.937008,-0.23622][13.9293,-13.0444,0][-1.13172,-0.710212,-1.37552][-0.259843,0.937008,-0.23622][13.9293,-13.0444,0][-0.844044,-0.66996,-1.56979][0.535433,0.322835,0.779528][13.9472,-13.0419,0][-1.03769,-0.010231,-1.67711][0.590551,0.543307,0.598425][13.9351,-13.0006,0][-0.025076,0.512484,-1.62969][-0.322835,0.574803,0.755906][13.9984,-12.968,0][-0.006186,-0.399956,-1.99873][-0.692913,-0.582677,0.433071][13.9996,-13.025,0][0.107322,0.328598,-1.71745][0.204724,-0.259843,0.944882][14.0067,-12.9795,0][-1.51472,-0.322332,1.21578][-0.110236,-0.968504,0.228346][14.076,-13.0201,0][-1.51489,-0.132033,1.16542][0.23622,0.944882,-0.220472][14.0728,-13.0083,0][-1.73112,-0.183141,0.840172][-0.84252,0.0866142,0.535433][14.0525,-13.0114,0][-1.73112,-0.183141,0.840172][-0.84252,0.0866142,0.535433][14.0525,-13.0114,0][-1.73092,-0.37147,0.897468][-0.818898,0.307087,0.488189][14.0561,-13.0232,0][-1.51472,-0.322332,1.21578][-0.110236,-0.968504,0.228346][14.076,-13.0201,0][-1.73112,-0.183141,0.840172][-0.84252,0.0866142,0.535433][14.0525,-13.0114,0][-1.51489,-0.132033,1.16542][0.23622,0.944882,-0.220472][14.0728,-13.0083,0][-1.53953,0.511076,0.765768][0.661417,0.251969,-0.708661][14.0479,-12.9681,0][-1.88057,-0.46128,0.552804][-0.149606,-0.984252,-0.102362][14.0345,-13.0288,0][-1.88079,-0.274462,0.490764][0.15748,0.944882,-0.291339][14.0307,-13.0172,0][-1.95816,-0.392092,0.12876][-0.976378,-0.0472441,0.19685][14.008,-13.0245,0][-1.95816,-0.392092,0.12876][-0.976378,-0.0472441,0.19685][14.008,-13.0245,0][-1.95794,-0.578088,0.193216][-0.976378,0.125984,0.165354][14.0121,-13.0361,0][-1.88057,-0.46128,0.552804][-0.149606,-0.984252,-0.102362][14.0345,-13.0288,0][-1.95816,-0.392092,0.12876][-0.976378,-0.0472441,0.19685][14.008,-13.0245,0][-1.88079,-0.274462,0.490764][0.15748,0.944882,-0.291339][14.0307,-13.0172,0][-1.82009,0.341908,0.076094][0.850394,0.314961,-0.417323][14.0048,-12.9786,0][-1.96005,-0.70447,-0.17139][-0.0393701,-0.929134,0.354331][13.9893,-13.044,0][-1.96028,-0.518484,-0.235872][0.0866142,0.952756,-0.299213][13.9853,-13.0324,0][-1.88706,-0.634902,-0.593832][-0.937008,-0.330709,-0.0866142][13.9629,-13.0397,0][-1.88706,-0.634902,-0.593832][-0.937008,-0.330709,-0.0866142][13.9629,-13.0397,0][-1.96028,-0.518484,-0.235872][0.0866142,0.952756,-0.299213][13.9853,-13.0324,0][-1.82443,0.120363,-0.61436][0.905512,0.425197,-0.0708661][13.9616,-12.9925,0][-1.74117,-0.912272,-0.877852][0.0944882,-0.740157,-0.669291][13.9451,-13.057,0][-1.74137,-0.723986,-0.935278][-0.00787402,0.976378,-0.204724][13.9415,-13.0452,0][-1.52876,-0.772166,-1.24891][-0.787402,-0.440945,-0.440945][13.9219,-13.0483,0][-1.52876,-0.772166,-1.24891][-0.787402,-0.440945,-0.440945][13.9219,-13.0483,0][-1.74137,-0.723986,-0.935278][-0.00787402,0.976378,-0.204724][13.9415,-13.0452,0][-1.54979,-0.025911,-1.22729][0.80315,0.519685,0.283465][13.9233,-13.0016,0][-0.925124,-0.57979,-1.96269][-0.724409,-0.291339,-0.622047][13.8773,-13.0362,0][-1.01837,-0.300488,-1.8179][-0.992126,-0.023622,0.133858][13.8864,-13.0188,0][-0.88704,-0.30717,-2.00366][-0.283465,0.527559,-0.80315][13.8748,-13.0192,0][-1.01837,-0.300488,-1.8179][-0.992126,-0.023622,0.133858][13.8864,-13.0188,0][-0.925124,-0.57979,-1.96269][-0.724409,-0.291339,-0.622047][13.8773,-13.0362,0][-0.998458,-0.620916,-1.77057][-0.338583,-0.889764,0.307087][13.8893,-13.0388,0][-0.26343,-0.139491,-2.02028][-0.606299,-0.653543,0.448819][13.8737,-13.0087,0][-0.416766,0.309242,-2.05736][-0.944882,-0.149606,0.299213][13.8714,-12.9807,0][-0.217924,0.071747,-2.19754][-0.448819,-0.480315,-0.755906][13.8627,-12.9955,0][0.582138,-0.630998,1.89073][0.283465,0.96063,-0.0314961][14.1182,-13.0394,0][0.582072,-0.826906,1.87146][-0.787402,-0.480315,0.385827][14.117,-13.0517,0][1.07052,-0.756618,2.56262][0.133858,-0.905512,0.393701][14.1602,-13.0473,0][-1.43568,-0.920534,-1.07132][0.929134,-0.362205,-0.0314961][13.933,-13.0575,0][-1.52876,-0.772166,-1.24891][-0.787402,-0.440945,-0.440945][13.9219,-13.0483,0][-1.96081,-0.947932,-1.94541][-0.173228,0.834646,-0.519685][13.8784,-13.0592,0][-0.181858,-0.382964,1.95278][0.354331,0.929134,-0.0866142][14.122,-13.0239,0][-0.181836,-0.579712,1.95911][-0.212598,-0.976378,0.00787402][14.1224,-13.0362,0][0.016952,-0.297366,2.7584][0.0866142,0.992126,0.11811][14.1724,-13.0186,0][-0.937702,-0.916694,-1.70896][-0.559055,-0.15748,-0.818898][13.8932,-13.0573,0][-0.937812,-0.72232,-1.74006][-0.527559,-0.299213,-0.795276][13.8912,-13.0451,0][-1.07052,-0.756618,-2.56256][-0.173228,0.92126,-0.346457][13.8398,-13.0473,0][-0.918266,-0.175797,1.68899][0.322835,0.937008,-0.141732][14.1056,-13.011,0][-0.91816,-0.370214,1.71985][-0.188976,-0.984252,0.0551181][14.1075,-13.0231,0][-1.04013,0.152583,2.45234][0.0472441,0.984252,-0.149606][14.1533,-12.9905,0][-0.204052,-0.708446,-1.95676][-0.212598,0.0314961,-0.976378][13.8777,-13.0443,0][-0.204076,-0.511708,-1.96337][-0.181102,-0.165354,-0.968504][13.8773,-13.032,0][-0.016952,-0.297364,-2.75834][-0.0866142,0.992126,-0.11811][13.8276,-13.0186,0][-1.51489,-0.132033,1.16542][0.23622,0.944882,-0.220472][14.0728,-13.0083,0][-1.51472,-0.322332,1.21578][-0.110236,-0.968504,0.228346][14.076,-13.0201,0][-1.93922,0.321092,1.74251][0.0393701,0.937008,-0.338583][14.1089,-12.9799,0][0.560764,-0.460812,-1.87812][0.165354,0.220472,-0.96063][13.8826,-13.0288,0][0.56083,-0.26488,-1.85913][0.181102,0.0551181,-0.984252][13.8838,-13.0166,0][1.04013,0.152583,-2.45228][-0.0472441,0.984252,0.149606][13.8467,-12.9905,0][0.844044,-0.66996,1.56985][0.23622,0.96063,0.165354][14.0981,-13.0419,0][0.937812,-0.72232,1.74013][0.141732,0.984252,0.0629921][14.1088,-13.0451,0][1.03769,-0.010231,1.67718][0.527559,0.299213,0.795276][14.1048,-13.0006,0][-1.25744,-0.771762,-1.52179][-0.149606,0.984252,-0.0708661][13.9049,-13.0482,0][-1.13172,-0.710212,-1.37552][-0.259843,0.937008,-0.23622][13.914,-13.0444,0][-1.03769,-0.010231,-1.67711][0.590551,0.543307,0.598425][13.8952,-13.0006,0][-0.582138,-0.630998,-1.89067][-0.283465,0.96063,0.0314961][13.8818,-13.0394,0][-0.52393,-0.595862,-1.70314][-0.291339,0.952756,-0.0708661][13.8936,-13.0372,0][-0.367222,0.160557,-1.8737][0.299213,0.480315,0.826772][13.8829,-12.99,0][0.183668,-0.49919,1.76729][-0.141732,-0.0551181,-0.992126][14.1105,-13.0312,0][0.204076,-0.511708,1.96344][0.181102,-0.165354,0.968504][14.1227,-13.032,0][0.367222,0.160557,1.87376][-0.299213,0.480315,-0.826772][14.1171,-12.99,0][0.181858,-0.382964,-1.95272][-0.354331,0.929134,0.0866142][13.878,-13.0239,0][0.163672,-0.394904,-1.75762][-0.212598,0.968504,-0.15748][13.8901,-13.0247,0][0.35797,0.385438,-1.76221][-0.015748,0.362205,0.929134][13.8899,-12.9759,0][-0.544976,-0.452814,1.68134][-0.566929,-0.165354,-0.80315][14.1051,-13.0283,0][-0.56083,-0.26488,1.8592][-0.181102,0.0551181,0.984252][14.1162,-13.0166,0][-0.35797,0.385438,1.76227][0.015748,0.362205,-0.929134][14.1101,-12.9759,0][0.918266,-0.175797,-1.68893][-0.322835,0.937008,0.141732][13.8944,-13.011,0][0.826426,-0.226928,-1.52368][-0.0787402,0.992126,-0.0629921][13.9048,-13.0142,0][1.02681,0.53008,-1.36345][-0.362205,0.267717,0.897638][13.9148,-12.9669,0][-1.15018,-0.346522,1.32126][-0.165354,-0.370079,-0.913386][14.0826,-13.0217,0][-1.24041,-0.129277,1.45314][-0.559055,0.15748,0.818898][14.0908,-13.0081,0][-1.02681,0.53008,1.36352][0.362205,0.267717,-0.897638][14.0852,-12.9669,0][-0.025076,0.512484,-1.62969][-0.322835,0.574803,0.755906][13.8981,-12.968,0][-0.161162,0.856426,-2.01992][-0.811024,0.566929,-0.11811][13.8738,-12.9465,0][-0.358518,0.632996,-2.0691][-0.897638,0.125984,-0.417323][13.8707,-12.9604,0][-0.025076,0.512484,-1.62969][-0.322835,0.574803,0.755906][13.8981,-12.968,0][-0.358518,0.632996,-2.0691][-0.897638,0.125984,-0.417323][13.8707,-12.9604,0][-0.416766,0.309242,-2.05736][-0.944882,-0.149606,0.299213][13.8714,-12.9807,0][0.8218,0.36636,-1.69005][-0.0314961,0.80315,0.590551][13.8944,-12.9771,0][0.5257,0.180815,-1.86928][-0.503937,0.480315,-0.724409][13.8832,-12.9887,0][0.662306,0.012933,-1.52417][-0.267717,-0.448819,0.850394][13.9047,-12.9992,0][0.5257,0.180815,-1.86928][-0.503937,0.480315,-0.724409][13.8832,-12.9887,0][0.55275,-0.149431,-1.89713][-0.889764,-0.440945,-0.141732][13.8814,-13.0093,0][0.662306,0.012933,-1.52417][-0.267717,-0.448819,0.850394][13.9047,-12.9992,0][0.56083,-0.26488,-1.85913][0.181102,0.0551181,-0.984252][13.8838,-13.0166,0][0.544976,-0.452814,-1.68127][0.566929,-0.165354,0.80315][13.8949,-13.0283,0][0.826426,-0.226928,-1.52368][-0.0787402,0.992126,-0.0629921][13.9048,-13.0142,0][1.24041,-0.129277,-1.45308][0.559055,0.15748,-0.818898][13.9092,-13.0081,0][1.15018,-0.346522,-1.3212][0.165354,-0.370079,0.913386][13.9174,-13.0217,0][1.36337,-0.191105,-1.05581][0.0629921,0.992126,0.110236][13.934,-13.0119,0][1.36337,-0.191105,-1.05581][0.0629921,0.992126,0.110236][13.934,-13.0119,0][1.15018,-0.346522,-1.3212][0.165354,-0.370079,0.913386][13.9174,-13.0217,0][1.70046,-0.478398,-0.544524][-0.937008,-0.228346,0.259843][13.966,-13.0299,0][1.70046,-0.478398,-0.544524][-0.937008,-0.228346,0.259843][13.966,-13.0299,0][1.55798,-0.23245,-0.762808][-0.826772,-0.125984,0.543307][13.9523,-13.0145,0][1.36337,-0.191105,-1.05581][0.0629921,0.992126,0.110236][13.934,-13.0119,0][1.36337,-0.191105,-1.05581][0.0629921,0.992126,0.110236][13.934,-13.0119,0][1.55798,-0.23245,-0.762808][-0.826772,-0.125984,0.543307][13.9523,-13.0145,0][1.53953,0.511076,-0.765704][-0.661417,0.251969,0.708661][13.9521,-12.9681,0][1.70046,-0.478398,-0.544524][-0.937008,-0.228346,0.259843][13.966,-13.0299,0][1.69269,-0.306552,-0.446424][-0.015748,0.952756,0.299213][13.9721,-13.0192,0][1.55798,-0.23245,-0.762808][-0.826772,-0.125984,0.543307][13.9523,-13.0145,0][1.70046,-0.478398,-0.544524][-0.937008,-0.228346,0.259843][13.966,-13.0299,0][1.76234,-0.40213,-0.117462][-0.984252,0.0314961,0.181102][13.9927,-13.0251,0][1.69269,-0.306552,-0.446424][-0.015748,0.952756,0.299213][13.9721,-13.0192,0][1.69269,-0.306552,-0.446424][-0.015748,0.952756,0.299213][13.9721,-13.0192,0][1.76234,-0.40213,-0.117462][-0.984252,0.0314961,0.181102][13.9927,-13.0251,0][1.82009,0.341908,-0.07603][-0.850394,0.314961,0.417323][13.9952,-12.9786,0][1.76234,-0.40213,-0.117462][-0.984252,0.0314961,0.181102][13.9927,-13.0251,0][1.70046,-0.478398,-0.544524][-0.937008,-0.228346,0.259843][13.966,-13.0299,0][1.75374,-0.788838,0.44562][-0.700787,-0.598425,0.385827][14.0278,-13.0493,0][1.75374,-0.788838,0.44562][-0.700787,-0.598425,0.385827][14.0278,-13.0493,0][1.76426,-0.504872,0.21432][0.0629921,0.929134,0.354331][14.0134,-13.0316,0][1.76234,-0.40213,-0.117462][-0.984252,0.0314961,0.181102][13.9927,-13.0251,0][1.75374,-0.788838,0.44562][-0.700787,-0.598425,0.385827][14.0278,-13.0493,0][1.69837,-0.599466,0.539616][-0.968504,-0.0314961,-0.23622][14.0337,-13.0375,0][1.76426,-0.504872,0.21432][0.0629921,0.929134,0.354331][14.0134,-13.0316,0][1.76426,-0.504872,0.21432][0.0629921,0.929134,0.354331][14.0134,-13.0316,0][1.69837,-0.599466,0.539616][-0.968504,-0.0314961,-0.23622][14.0337,-13.0375,0][1.82443,0.120363,0.614424][-0.905512,0.425197,0.0708661][14.0384,-12.9925,0][1.69837,-0.599466,0.539616][-0.968504,-0.0314961,-0.23622][14.0337,-13.0375,0][1.75374,-0.788838,0.44562][-0.700787,-0.598425,0.385827][14.0278,-13.0493,0][1.43568,-0.920534,1.07138][-0.929134,-0.362205,0.0314961][14.067,-13.0575,0][1.43568,-0.920534,1.07138][-0.929134,-0.362205,0.0314961][14.067,-13.0575,0][1.56725,-0.671752,0.84879][0.110236,0.952756,0.291339][14.053,-13.042,0][1.69837,-0.599466,0.539616][-0.968504,-0.0314961,-0.23622][14.0337,-13.0375,0][1.43568,-0.920534,1.07138][-0.929134,-0.362205,0.0314961][14.067,-13.0575,0][1.37592,-0.710724,1.13128][-0.818898,0,-0.574803][14.0707,-13.0444,0][1.56725,-0.671752,0.84879][0.110236,0.952756,0.291339][14.053,-13.042,0][1.56725,-0.671752,0.84879][0.110236,0.952756,0.291339][14.053,-13.042,0][1.37592,-0.710724,1.13128][-0.818898,0,-0.574803][14.0707,-13.0444,0][1.54979,-0.025911,1.22735][-0.80315,0.519685,-0.283465][14.0767,-13.0016,0][1.43568,-0.920534,1.07138][-0.929134,-0.362205,0.0314961][14.067,-13.0575,0][1.13172,-0.710212,1.37559][0.259843,0.937008,0.23622][14.086,-13.0444,0][1.37592,-0.710724,1.13128][-0.818898,0,-0.574803][14.0707,-13.0444,0][1.52876,-0.772166,1.24898][0.787402,-0.440945,0.440945][14.0955,-12.9219,0][1.43568,-0.920534,1.07138][-0.929134,-0.362205,0.0314961][14.0897,-12.933,0][1.74117,-0.912272,0.877916][-0.0944882,-0.740157,0.669291][14.1088,-12.9451,0][1.88706,-0.634902,0.593896][0.937008,-0.330709,0.0866142][14.1179,-12.9629,0][1.75374,-0.788838,0.44562][-0.700787,-0.598425,0.385827][14.1096,-12.9722,0][1.96005,-0.70447,0.171454][0.0393701,-0.929134,-0.354331][14.1225,-12.9893,0][-1.51472,-0.322332,1.21578][-0.110236,-0.968504,0.228346][13.9053,-12.924,0][-1.24027,-0.321716,1.49459][-0.527559,0.322835,0.787402][13.9225,-12.9066,0][-1.93922,0.321092,1.74251][0.0393701,0.937008,-0.338583][13.8788,-12.8911,0][-1.88706,-0.634902,-0.593832][-0.937008,-0.330709,-0.0866142][13.8821,-13.0371,0][-1.75374,-0.788838,-0.445556][0.700787,-0.598425,-0.385827][13.8904,-13.0278,0][-1.96005,-0.70447,-0.17139][-0.0393701,-0.929134,0.354331][13.8775,-13.0107,0][-0.91816,-0.370214,1.71985][-0.188976,-0.984252,0.0551181][13.9426,-12.8925,0][-0.560764,-0.460812,1.87819][-0.165354,0.220472,0.96063][13.965,-12.8826,0][-1.04013,0.152583,2.45234][0.0472441,0.984252,-0.149606][13.935,-12.8467,0][-1.88057,-0.46128,0.552804][-0.149606,-0.984252,-0.102362][13.8825,-12.9655,0][-1.73092,-0.37147,0.897468][-0.818898,0.307087,0.488189][13.8918,-12.9439,0][-2.54208,0.117653,0.82585][0,0.905512,-0.417323][13.8411,-12.9484,0][-1.52876,-0.772166,-1.24891][-0.787402,-0.440945,-0.440945][13.9045,-13.0781,0][-1.43568,-0.920534,-1.07132][0.929134,-0.362205,-0.0314961][13.9103,-13.067,0][-1.74117,-0.912272,-0.877852][0.0944882,-0.740157,-0.669291][13.8912,-13.0549,0][-0.998458,-0.620916,-1.77057][-0.338583,-0.889764,0.307087][13.9376,-13.1107,0][-0.925124,-0.57979,-1.96269][-0.724409,-0.291339,-0.622047][13.9422,-13.1227,0][-0.786548,-0.703382,-1.83843][-0.267717,-0.944882,0.204724][13.9508,-13.1149,0][1.51472,-0.322332,-1.21571][0.110236,-0.968504,-0.228346][14.0947,-13.076,0][1.24027,-0.321716,-1.49453][0.527559,0.322835,-0.787402][14.0775,-13.0934,0][1.93922,0.321092,-1.74245][-0.0393701,0.937008,0.338583][14.1212,-13.1089,0][-1.96005,-0.70447,-0.17139][-0.0393701,-0.929134,0.354331][13.8775,-13.0107,0][-1.95794,-0.578088,0.193216][-0.976378,0.125984,0.165354][13.8776,-12.9879,0][-2.75714,-0.329874,-0.142356][-0.110236,0.889764,-0.448819][13.8277,-13.0089,0][-0.181836,-0.579712,1.95911][-0.212598,-0.976378,0.00787402][13.9886,-12.8776,0][0.204054,-0.708446,1.95683][0.212598,0.0314961,0.976378][14.0128,-12.8777,0][0.016952,-0.297366,2.7584][0.0866142,0.992126,0.11811][14.0011,-12.8276,0][1.88057,-0.46128,-0.55274][0.149606,-0.984252,0.102362][14.1175,-13.0345,0][1.73092,-0.37147,-0.897404][0.818898,0.307087,-0.488189][14.1082,-13.0561,0][2.54208,0.117651,-0.825786][0,0.905512,0.417323][14.1589,-13.0516,0][0.91816,-0.370214,-1.71979][0.188976,-0.984252,-0.0551181][14.0574,-13.1075,0][0.560764,-0.460812,-1.87812][0.165354,0.220472,-0.96063][14.035,-13.1174,0][1.04013,0.152583,-2.45228][-0.0472441,0.984252,0.149606][14.065,-13.1533,0][1.96005,-0.70447,0.171454][0.0393701,-0.929134,-0.354331][14.1225,-12.9893,0][1.95794,-0.578088,-0.193152][0.976378,0.125984,-0.165354][14.1224,-13.0121,0][2.75714,-0.329874,0.14242][0.110236,0.889764,0.448819][14.1723,-12.9911,0][0.181836,-0.579712,-1.95904][0.212598,-0.976378,-0.00787402][14.0114,-13.1224,0][-0.204052,-0.708446,-1.95676][-0.212598,0.0314961,-0.976378][13.9872,-13.1223,0][-0.016952,-0.297364,-2.75834][-0.0866142,0.992126,-0.11811][13.9989,-13.1724,0][0.582072,-0.826906,1.87146][-0.787402,-0.480315,0.385827][14.0364,-12.883,0][0.937704,-0.916694,1.70902][-0.220472,-0.968504,-0.0866142][14.0586,-12.8932,0][1.07052,-0.756618,2.56262][0.133858,-0.905512,0.393701][14.0669,-12.8398,0][-1.74117,-0.912272,-0.877852][0.0944882,-0.740157,-0.669291][13.8912,-13.0549,0][-1.75374,-0.788838,-0.445556][0.700787,-0.598425,-0.385827][13.8904,-13.0278,0][-2.5529,-0.767686,-1.08957][-0.181102,0.811024,-0.559055][13.8404,-13.0681,0][-0.496828,-0.37283,-1.97922][0.740157,0.385827,-0.551181][13.9689,-13.1237,0][-0.786548,-0.703382,-1.83843][-0.267717,-0.944882,0.204724][13.9508,-13.1149,0][-0.684522,-0.448018,-2.0483][-0.015748,-0.496063,-0.866142][13.9572,-13.128,0][-0.58207,-0.826906,-1.8714][0.787402,-0.480315,-0.385827][13.9636,-13.117,0][-0.937702,-0.916694,-1.70896][-0.559055,-0.15748,-0.818898][13.9414,-13.1068,0][-1.07052,-0.756618,-2.56256][-0.173228,0.92126,-0.346457][13.9331,-13.1602,0][-1.73092,-0.37147,0.897468][-0.818898,0.307087,0.488189][13.8918,-12.9439,0][-1.70046,-0.478398,0.544588][0.937008,-0.228346,-0.259843][13.8937,-12.966,0][-1.15018,-0.346522,1.32126][-0.165354,-0.370079,-0.913386][13.9281,-12.9174,0][-1.25729,-0.964154,-1.48013][-0.0551181,-0.653543,-0.755906][13.9214,-13.0925,0][-1.43568,-0.920534,-1.07132][0.929134,-0.362205,-0.0314961][13.9103,-13.067,0][-1.96081,-0.947932,-1.94541][-0.173228,0.834646,-0.519685][13.8774,-13.1216,0][1.74117,-0.912272,0.877916][-0.0944882,-0.740157,0.669291][14.1088,-12.9451,0][1.75374,-0.788838,0.44562][-0.700787,-0.598425,0.385827][14.1096,-12.9722,0][2.5529,-0.767686,1.08963][0.181102,0.811024,0.559055][14.1596,-12.9319,0][1.25729,-0.964154,1.48019][0.0551181,-0.653543,0.755906][14.0786,-12.9075,0][1.43568,-0.920534,1.07138][-0.929134,-0.362205,0.0314961][14.0897,-12.933,0][1.96081,-0.947932,1.94548][0.173228,0.834646,0.519685][14.1226,-12.8784,0][-1.15018,-0.346522,1.32126][-0.165354,-0.370079,-0.913386][13.9281,-12.9174,0][-1.51472,-0.322332,1.21578][-0.110236,-0.968504,0.228346][13.9053,-12.924,0][-1.73092,-0.37147,0.897468][-0.818898,0.307087,0.488189][13.8918,-12.9439,0][-1.70046,-0.478398,0.544588][0.937008,-0.228346,-0.259843][13.8937,-12.966,0][-1.88057,-0.46128,0.552804][-0.149606,-0.984252,-0.102362][13.8825,-12.9655,0][-1.95794,-0.578088,0.193216][-0.976378,0.125984,0.165354][13.8776,-12.9879,0][-1.70046,-0.478398,0.544588][0.937008,-0.228346,-0.259843][13.8937,-12.966,0][-1.95794,-0.578088,0.193216][-0.976378,0.125984,0.165354][13.8776,-12.9879,0][-1.96005,-0.70447,-0.17139][-0.0393701,-0.929134,0.354331][13.8775,-13.0107,0][-1.70046,-0.478398,0.544588][0.937008,-0.228346,-0.259843][13.8937,-12.966,0][-1.73092,-0.37147,0.897468][-0.818898,0.307087,0.488189][13.8918,-12.9439,0][-1.88057,-0.46128,0.552804][-0.149606,-0.984252,-0.102362][13.8825,-12.9655,0][1.73092,-0.37147,-0.897404][0.818898,0.307087,-0.488189][14.1082,-13.0561,0][1.70046,-0.478398,-0.544524][-0.937008,-0.228346,0.259843][14.1063,-13.034,0][1.15018,-0.346522,-1.3212][0.165354,-0.370079,0.913386][14.0719,-13.0826,0][-0.544976,-0.452814,1.68134][-0.566929,-0.165354,-0.80315][13.9659,-12.8949,0][-0.91816,-0.370214,1.71985][-0.188976,-0.984252,0.0551181][13.9426,-12.8925,0][-1.24027,-0.321716,1.49459][-0.527559,0.322835,0.787402][13.9225,-12.9066,0][1.15018,-0.346522,-1.3212][0.165354,-0.370079,0.913386][14.0719,-13.0826,0][1.51472,-0.322332,-1.21571][0.110236,-0.968504,-0.228346][14.0947,-13.076,0][1.73092,-0.37147,-0.897404][0.818898,0.307087,-0.488189][14.1082,-13.0561,0][-1.96005,-0.70447,-0.17139][-0.0393701,-0.929134,0.354331][13.8775,-13.0107,0][-1.75374,-0.788838,-0.445556][0.700787,-0.598425,-0.385827][13.8904,-13.0278,0][-1.70046,-0.478398,0.544588][0.937008,-0.228346,-0.259843][13.8937,-12.966,0][0.544976,-0.452814,-1.68127][0.566929,-0.165354,0.80315][14.0341,-13.1051,0][0.91816,-0.370214,-1.71979][0.188976,-0.984252,-0.0551181][14.0574,-13.1075,0][1.24027,-0.321716,-1.49453][0.527559,0.322835,-0.787402][14.0775,-13.0934,0][1.70046,-0.478398,-0.544524][-0.937008,-0.228346,0.259843][14.1063,-13.034,0][1.88057,-0.46128,-0.55274][0.149606,-0.984252,0.102362][14.1175,-13.0345,0][1.95794,-0.578088,-0.193152][0.976378,0.125984,-0.165354][14.1224,-13.0121,0][1.70046,-0.478398,-0.544524][-0.937008,-0.228346,0.259843][14.1063,-13.034,0][1.95794,-0.578088,-0.193152][0.976378,0.125984,-0.165354][14.1224,-13.0121,0][1.96005,-0.70447,0.171454][0.0393701,-0.929134,-0.354331][14.1225,-12.9893,0][1.70046,-0.478398,-0.544524][-0.937008,-0.228346,0.259843][14.1063,-13.034,0][1.73092,-0.37147,-0.897404][0.818898,0.307087,-0.488189][14.1082,-13.0561,0][1.88057,-0.46128,-0.55274][0.149606,-0.984252,0.102362][14.1175,-13.0345,0][0.399924,-0.764536,1.76781][-0.858268,-0.496063,-0.110236][14.025,-12.8895,0][-0.181836,-0.579712,1.95911][-0.212598,-0.976378,0.00787402][13.9886,-12.8776,0][-0.560764,-0.460812,1.87819][-0.165354,0.220472,0.96063][13.965,-12.8826,0][-1.24027,-0.321716,1.49459][-0.527559,0.322835,0.787402][13.9225,-12.9066,0][-1.15018,-0.346522,1.32126][-0.165354,-0.370079,-0.913386][13.9281,-12.9174,0][-0.544976,-0.452814,1.68134][-0.566929,-0.165354,-0.80315][13.9659,-12.8949,0][-0.399924,-0.764536,-1.76774][0.346457,-0.0866142,0.937008][13.975,-13.1105,0][0.181836,-0.579712,-1.95904][0.212598,-0.976378,-0.00787402][14.0114,-13.1224,0][0.560764,-0.460812,-1.87812][0.165354,0.220472,-0.96063][14.035,-13.1174,0][-1.15018,-0.346522,1.32126][-0.165354,-0.370079,-0.913386][13.9281,-12.9174,0][-1.24027,-0.321716,1.49459][-0.527559,0.322835,0.787402][13.9225,-12.9066,0][-1.51472,-0.322332,1.21578][-0.110236,-0.968504,0.228346][13.9053,-12.924,0][1.24027,-0.321716,-1.49453][0.527559,0.322835,-0.787402][14.0775,-13.0934,0][1.15018,-0.346522,-1.3212][0.165354,-0.370079,0.913386][14.0719,-13.0826,0][0.544976,-0.452814,-1.68127][0.566929,-0.165354,0.80315][14.0341,-13.1051,0][-0.399924,-0.764536,-1.76774][0.346457,-0.0866142,0.937008][13.975,-13.1105,0][-0.58207,-0.826906,-1.8714][0.787402,-0.480315,-0.385827][13.9636,-13.117,0][-0.204052,-0.708446,-1.95676][-0.212598,0.0314961,-0.976378][13.9872,-13.1223,0][0.399924,-0.764536,1.76781][-0.858268,-0.496063,-0.110236][14.025,-12.8895,0][0.582072,-0.826906,1.87146][-0.787402,-0.480315,0.385827][14.0364,-12.883,0][0.204054,-0.708446,1.95683][0.212598,0.0314961,0.976378][14.0128,-12.8777,0][-0.399924,-0.764536,-1.76774][0.346457,-0.0866142,0.937008][13.975,-13.1105,0][-0.204052,-0.708446,-1.95676][-0.212598,0.0314961,-0.976378][13.9872,-13.1223,0][0.181836,-0.579712,-1.95904][0.212598,-0.976378,-0.00787402][14.0114,-13.1224,0][1.15018,-0.346522,-1.3212][0.165354,-0.370079,0.913386][14.0719,-13.0826,0][1.24027,-0.321716,-1.49453][0.527559,0.322835,-0.787402][14.0775,-13.0934,0][1.51472,-0.322332,-1.21571][0.110236,-0.968504,-0.228346][14.0947,-13.076,0][0.560764,-0.460812,-1.87812][0.165354,0.220472,-0.96063][14.035,-13.1174,0][0.544976,-0.452814,-1.68127][0.566929,-0.165354,0.80315][14.0341,-13.1051,0][-0.399924,-0.764536,-1.76774][0.346457,-0.0866142,0.937008][13.975,-13.1105,0][0.399924,-0.764536,1.76781][-0.858268,-0.496063,-0.110236][14.025,-12.8895,0][0.204054,-0.708446,1.95683][0.212598,0.0314961,0.976378][14.0128,-12.8777,0][-0.181836,-0.579712,1.95911][-0.212598,-0.976378,0.00787402][13.9886,-12.8776,0][1.96005,-0.70447,0.171454][0.0393701,-0.929134,-0.354331][14.1225,-12.9893,0][1.75374,-0.788838,0.44562][-0.700787,-0.598425,0.385827][14.1096,-12.9722,0][1.70046,-0.478398,-0.544524][-0.937008,-0.228346,0.259843][14.1063,-13.034,0][-0.399924,-0.764536,-1.76774][0.346457,-0.0866142,0.937008][13.975,-13.1105,0][-0.937702,-0.916694,-1.70896][-0.559055,-0.15748,-0.818898][13.9414,-13.1068,0][-0.58207,-0.826906,-1.8714][0.787402,-0.480315,-0.385827][13.9636,-13.117,0][0.544976,-0.452814,-1.68127][0.566929,-0.165354,0.80315][14.0341,-13.1051,0][0.560764,-0.460812,-1.87812][0.165354,0.220472,-0.96063][14.035,-13.1174,0][0.91816,-0.370214,-1.71979][0.188976,-0.984252,-0.0551181][14.0574,-13.1075,0][-0.560764,-0.460812,1.87819][-0.165354,0.220472,0.96063][13.965,-12.8826,0][-0.544976,-0.452814,1.68134][-0.566929,-0.165354,-0.80315][13.9659,-12.8949,0][0.399924,-0.764536,1.76781][-0.858268,-0.496063,-0.110236][14.025,-12.8895,0][-0.544976,-0.452814,1.68134][-0.566929,-0.165354,-0.80315][13.9659,-12.8949,0][-0.560764,-0.460812,1.87819][-0.165354,0.220472,0.96063][13.965,-12.8826,0][-0.91816,-0.370214,1.71985][-0.188976,-0.984252,0.0551181][13.9426,-12.8925,0][-1.74117,-0.912272,-0.877852][0.0944882,-0.740157,-0.669291][13.8912,-13.0549,0][-1.43568,-0.920534,-1.07132][0.929134,-0.362205,-0.0314961][13.9103,-13.067,0][-1.75374,-0.788838,-0.445556][0.700787,-0.598425,-0.385827][13.8904,-13.0278,0][0.399924,-0.764536,1.76781][-0.858268,-0.496063,-0.110236][14.025,-12.8895,0][0.937704,-0.916694,1.70902][-0.220472,-0.968504,-0.0866142][14.0586,-12.8932,0][0.582072,-0.826906,1.87146][-0.787402,-0.480315,0.385827][14.0364,-12.883,0][-0.937702,-0.916694,-1.70896][-0.559055,-0.15748,-0.818898][13.9414,-13.1068,0][-0.399924,-0.764536,-1.76774][0.346457,-0.0866142,0.937008][13.975,-13.1105,0][-1.43568,-0.920534,-1.07132][0.929134,-0.362205,-0.0314961][13.9103,-13.067,0][1.74117,-0.912272,0.877916][-0.0944882,-0.740157,0.669291][14.1088,-12.9451,0][1.43568,-0.920534,1.07138][-0.929134,-0.362205,0.0314961][14.0897,-12.933,0][1.75374,-0.788838,0.44562][-0.700787,-0.598425,0.385827][14.1096,-12.9722,0][-1.43568,-0.920534,-1.07132][0.929134,-0.362205,-0.0314961][13.9103,-13.067,0][-1.25729,-0.964154,-1.48013][-0.0551181,-0.653543,-0.755906][13.9214,-13.0925,0][-0.937702,-0.916694,-1.70896][-0.559055,-0.15748,-0.818898][13.9414,-13.1068,0][0.937704,-0.916694,1.70902][-0.220472,-0.968504,-0.0866142][14.0586,-12.8932,0][0.399924,-0.764536,1.76781][-0.858268,-0.496063,-0.110236][14.025,-12.8895,0][1.43568,-0.920534,1.07138][-0.929134,-0.362205,0.0314961][14.0897,-12.933,0][1.43568,-0.920534,1.07138][-0.929134,-0.362205,0.0314961][14.0897,-12.933,0][1.25729,-0.964154,1.48019][0.0551181,-0.653543,0.755906][14.0786,-12.9075,0][0.937704,-0.916694,1.70902][-0.220472,-0.968504,-0.0866142][14.0586,-12.8932,0][0.55275,-0.149431,-1.89713][-0.889764,-0.440945,-0.141732][14.0345,-13.1186,0][0.808984,-0.216554,-1.77735][-0.204724,-0.968504,-0.141732][14.0506,-13.1111,0][0.662306,0.012933,-1.52417][-0.267717,-0.448819,0.850394][14.0414,-13.0953,0][-0.161162,0.856426,-2.01992][-0.811024,0.566929,-0.11811][14.0101,-12.9465,0][0.099596,0.964152,-1.9722][0.464567,0.874016,0.149606][13.9938,-12.9397,0][-0.187442,0.627324,-2.21986][-0.023622,0.181102,-0.984252][14.0117,-12.9608,0][0.099596,0.964152,-1.9722][0.464567,0.874016,0.149606][13.9938,-12.9397,0][0.346604,0.86796,-1.90602][0.677165,0.677165,-0.299213][13.9783,-12.9458,0][0.080668,0.774058,-2.15882][-0.0314961,0.645669,-0.76378][13.995,-12.9516,0][-0.684522,-0.448018,-2.0483][-0.015748,-0.496063,-0.866142][14.0428,-13.028,0][-0.925124,-0.57979,-1.96269][-0.724409,-0.291339,-0.622047][14.0578,-13.0362,0][-0.88704,-0.30717,-2.00366][-0.283465,0.527559,-0.80315][14.0554,-13.0192,0][-0.358518,0.632996,-2.0691][-0.897638,0.125984,-0.417323][14.0224,-12.9604,0][-0.161162,0.856426,-2.01992][-0.811024,0.566929,-0.11811][14.0101,-12.9465,0][-0.187442,0.627324,-2.21986][-0.023622,0.181102,-0.984252][14.0117,-12.9608,0][0.249802,0.61153,-2.12348][0.582677,-0.165354,-0.795276][13.9844,-12.9618,0][0.080668,0.774058,-2.15882][-0.0314961,0.645669,-0.76378][13.995,-12.9516,0][0.346604,0.86796,-1.90602][0.677165,0.677165,-0.299213][13.9783,-12.9458,0][-0.217924,0.071747,-2.19754][-0.448819,-0.480315,-0.755906][14.0136,-12.9955,0][0.249802,0.61153,-2.12348][0.582677,-0.165354,-0.795276][13.9844,-12.9618,0][0.105028,0.050959,-2.15638][0.503937,-0.488189,-0.708661][13.9934,-12.9968,0][-0.187442,0.627324,-2.21986][-0.023622,0.181102,-0.984252][14.0117,-12.9608,0][0.080668,0.774058,-2.15882][-0.0314961,0.645669,-0.76378][13.995,-12.9516,0][0.249802,0.61153,-2.12348][0.582677,-0.165354,-0.795276][13.9844,-12.9618,0][0.673786,0.130765,-1.94133][0.259843,0.409449,-0.874016][13.9579,-12.9918,0][0.920424,0.24695,-1.81298][0.377953,0.677165,-0.637795][13.9425,-12.9846,0][0.871234,-0.028287,-1.86703][0.606299,-0.511811,-0.606299][13.9455,-13.0018,0][-0.187442,0.627324,-2.21986][-0.023622,0.181102,-0.984252][14.0117,-12.9608,0][0.249802,0.61153,-2.12348][0.582677,-0.165354,-0.795276][13.9844,-12.9618,0][-0.217924,0.071747,-2.19754][-0.448819,-0.480315,-0.755906][14.0136,-12.9955,0][-1.25729,-0.964154,-1.48013][-0.0551181,-0.653543,-0.755906][14.0786,-13.0603,0][-1.25744,-0.771762,-1.52179][-0.149606,0.984252,-0.0708661][14.0786,-13.0482,0][-0.937812,-0.72232,-1.74006][-0.527559,-0.299213,-0.795276][14.0586,-13.0451,0][-0.937812,-0.72232,-1.74006][-0.527559,-0.299213,-0.795276][14.0586,-13.0451,0][-0.937702,-0.916694,-1.70896][-0.559055,-0.15748,-0.818898][14.0586,-13.0573,0][-1.25729,-0.964154,-1.48013][-0.0551181,-0.653543,-0.755906][14.0786,-13.0603,0][-0.937812,-0.72232,-1.74006][-0.527559,-0.299213,-0.795276][14.0586,-13.0451,0][-1.25744,-0.771762,-1.52179][-0.149606,0.984252,-0.0708661][14.0786,-13.0482,0][-1.03769,-0.010231,-1.67711][0.590551,0.543307,0.598425][14.0649,-13.0006,0][-0.88704,-0.30717,-2.00366][-0.283465,0.527559,-0.80315][14.0554,-13.0192,0][-0.663618,-0.111591,-1.96056][-0.0708661,0.80315,-0.590551][14.0415,-13.007,0][-0.684522,-0.448018,-2.0483][-0.015748,-0.496063,-0.866142][14.0428,-13.028,0][-0.416766,0.309242,-2.05736][-0.944882,-0.149606,0.299213][14.026,-12.9807,0][-0.187442,0.627324,-2.21986][-0.023622,0.181102,-0.984252][14.0117,-12.9608,0][-0.217924,0.071747,-2.19754][-0.448819,-0.480315,-0.755906][14.0136,-12.9955,0][-0.58207,-0.826906,-1.8714][0.787402,-0.480315,-0.385827][14.0364,-13.0517,0][-0.582138,-0.630998,-1.89067][-0.283465,0.96063,0.0314961][14.0364,-13.0394,0][-0.204076,-0.511708,-1.96337][-0.181102,-0.165354,-0.968504][14.0128,-13.032,0][0.91816,-0.370214,-1.71979][0.188976,-0.984252,-0.0551181][13.9426,-13.0231,0][0.918266,-0.175797,-1.68893][-0.322835,0.937008,0.141732][13.9426,-13.011,0][1.24041,-0.129277,-1.45308][0.559055,0.15748,-0.818898][13.9225,-13.0081,0][-0.204076,-0.511708,-1.96337][-0.181102,-0.165354,-0.968504][14.0128,-13.032,0][-0.204052,-0.708446,-1.95676][-0.212598,0.0314961,-0.976378][14.0128,-13.0443,0][-0.58207,-0.826906,-1.8714][0.787402,-0.480315,-0.385827][14.0364,-13.0517,0][1.24041,-0.129277,-1.45308][0.559055,0.15748,-0.818898][13.9225,-13.0081,0][1.24027,-0.321716,-1.49453][0.527559,0.322835,-0.787402][13.9225,-13.0201,0][0.91816,-0.370214,-1.71979][0.188976,-0.984252,-0.0551181][13.9426,-13.0231,0][-0.416766,0.309242,-2.05736][-0.944882,-0.149606,0.299213][14.026,-12.9807,0][-0.358518,0.632996,-2.0691][-0.897638,0.125984,-0.417323][14.0224,-12.9604,0][-0.187442,0.627324,-2.21986][-0.023622,0.181102,-0.984252][14.0117,-12.9608,0][-0.204076,-0.511708,-1.96337][-0.181102,-0.165354,-0.968504][14.0128,-13.032,0][-0.582138,-0.630998,-1.89067][-0.283465,0.96063,0.0314961][14.0364,-13.0394,0][-0.367222,0.160557,-1.8737][0.299213,0.480315,0.826772][14.023,-12.99,0][1.24041,-0.129277,-1.45308][0.559055,0.15748,-0.818898][13.9225,-13.0081,0][0.918266,-0.175797,-1.68893][-0.322835,0.937008,0.141732][13.9426,-13.011,0][1.02681,0.53008,-1.36345][-0.362205,0.267717,0.897638][13.9358,-12.9669,0][0.181836,-0.579712,-1.95904][0.212598,-0.976378,-0.00787402][13.9886,-13.0362,0][0.181858,-0.382964,-1.95272][-0.354331,0.929134,0.0866142][13.9886,-13.0239,0][0.56083,-0.26488,-1.85913][0.181102,0.0551181,-0.984252][13.9649,-13.0166,0][0.56083,-0.26488,-1.85913][0.181102,0.0551181,-0.984252][13.9649,-13.0166,0][0.560764,-0.460812,-1.87812][0.165354,0.220472,-0.96063][13.965,-13.0288,0][0.181836,-0.579712,-1.95904][0.212598,-0.976378,-0.00787402][13.9886,-13.0362,0][0.56083,-0.26488,-1.85913][0.181102,0.0551181,-0.984252][13.9649,-13.0166,0][0.181858,-0.382964,-1.95272][-0.354331,0.929134,0.0866142][13.9886,-13.0239,0][0.35797,0.385438,-1.76221][-0.015748,0.362205,0.929134][13.9776,-12.9759,0][-0.006186,-0.399956,-1.99873][-0.692913,-0.582677,0.433071][14.0004,-13.025,0][-0.217924,0.071747,-2.19754][-0.448819,-0.480315,-0.755906][14.0136,-12.9955,0][0.105028,0.050959,-2.15638][0.503937,-0.488189,-0.708661][13.9934,-12.9968,0][0.673786,0.130765,-1.94133][0.259843,0.409449,-0.874016][13.9579,-12.9918,0][0.871234,-0.028287,-1.86703][0.606299,-0.511811,-0.606299][13.9455,-13.0018,0][0.55275,-0.149431,-1.89713][-0.889764,-0.440945,-0.141732][13.9655,-13.0093,0][-0.684522,-0.448018,-2.0483][-0.015748,-0.496063,-0.866142][14.0428,-13.028,0][-0.663618,-0.111591,-1.96056][-0.0708661,0.80315,-0.590551][14.0415,-13.007,0][-0.496828,-0.37283,-1.97922][0.740157,0.385827,-0.551181][14.0311,-13.0233,0][0.55275,-0.149431,-1.89713][-0.889764,-0.440945,-0.141732][13.9655,-13.0093,0][0.871234,-0.028287,-1.86703][0.606299,-0.511811,-0.606299][13.9455,-13.0018,0][0.808984,-0.216554,-1.77735][-0.204724,-0.968504,-0.141732][13.9494,-13.0135,0][-0.684522,-0.448018,-2.0483][-0.015748,-0.496063,-0.866142][14.0428,-13.028,0][-0.786548,-0.703382,-1.83843][-0.267717,-0.944882,0.204724][14.0492,-13.044,0][-0.925124,-0.57979,-1.96269][-0.724409,-0.291339,-0.622047][14.0578,-13.0362,0][-0.006186,-0.399956,-1.99873][-0.692913,-0.582677,0.433071][14.0004,-13.025,0][-0.26343,-0.139491,-2.02028][-0.606299,-0.653543,0.448819][14.0165,-13.0087,0][-0.217924,0.071747,-2.19754][-0.448819,-0.480315,-0.755906][14.0136,-12.9955,0][0.5257,0.180815,-1.86928][-0.503937,0.480315,-0.724409][13.9671,-12.9887,0][0.673786,0.130765,-1.94133][0.259843,0.409449,-0.874016][13.9579,-12.9918,0][0.55275,-0.149431,-1.89713][-0.889764,-0.440945,-0.141732][13.9655,-13.0093,0][1.24027,-0.321716,-1.49453][0.527559,0.322835,-0.787402][13.9225,-13.0201,0][1.24041,-0.129277,-1.45308][0.559055,0.15748,-0.818898][13.9225,-13.0081,0][1.93922,0.321092,-1.74245][-0.0393701,0.937008,0.338583][13.8788,-12.9799,0][-1.88079,-0.274462,0.490764][0.15748,0.944882,-0.291339][14.1175,-13.0172,0][-1.88057,-0.46128,0.552804][-0.149606,-0.984252,-0.102362][14.1175,-13.0288,0][-2.54208,0.117653,0.82585][0,0.905512,-0.417323][14.1589,-12.9926,0][1.75374,-0.788838,0.44562][-0.700787,-0.598425,0.385827][13.8904,-13.0493,0][1.88706,-0.634902,0.593896][0.937008,-0.330709,0.0866142][13.8821,-13.0397,0][2.5529,-0.767686,1.08963][0.181102,0.811024,0.559055][13.8404,-13.048,0][-1.25744,-0.771762,-1.52179][-0.149606,0.984252,-0.0708661][14.0786,-13.0482,0][-1.25729,-0.964154,-1.48013][-0.0551181,-0.653543,-0.755906][14.0786,-13.0603,0][-1.96081,-0.947932,-1.94541][-0.173228,0.834646,-0.519685][14.1226,-13.0592,0][1.73092,-0.37147,-0.897404][0.818898,0.307087,-0.488189][13.8918,-13.0232,0][1.73112,-0.183141,-0.840108][0.84252,0.0866142,-0.535433][13.8918,-13.0114,0][2.54208,0.117651,-0.825786][0,0.905512,0.417323][13.8411,-12.9926,0][1.95794,-0.578088,-0.193152][0.976378,0.125984,-0.165354][13.8776,-13.0361,0][1.95816,-0.392092,-0.128696][0.976378,-0.0472441,-0.19685][13.8776,-13.0245,0][2.75714,-0.329874,0.14242][0.110236,0.889764,0.448819][13.8277,-13.0206,0][-1.74137,-0.723986,-0.935278][-0.00787402,0.976378,-0.204724][14.1088,-13.0452,0][-1.74117,-0.912272,-0.877852][0.0944882,-0.740157,-0.669291][14.1088,-13.057,0][-2.5529,-0.767686,-1.08957][-0.181102,0.811024,-0.559055][14.1596,-13.048,0][-1.96028,-0.518484,-0.235872][0.0866142,0.952756,-0.299213][14.1225,-13.0324,0][-1.96005,-0.70447,-0.17139][-0.0393701,-0.929134,0.354331][14.1225,-13.044,0][-2.75714,-0.329874,-0.142356][-0.110236,0.889764,-0.448819][14.1723,-13.0206,0][-1.37592,-0.710724,-1.13122][0.818898,0,0.574803][14.086,-13.0444,0][-1.52876,-0.772166,-1.24891][-0.787402,-0.440945,-0.440945][14.0955,-13.0483,0][-1.54979,-0.025911,-1.22729][0.80315,0.519685,0.283465][14.0969,-13.0016,0][1.74137,-0.723984,0.935342][0.00787402,0.976378,0.204724][13.8912,-13.0452,0][1.56725,-0.671752,0.84879][0.110236,0.952756,0.291339][13.902,-13.042,0][1.54979,-0.025911,1.22735][-0.80315,0.519685,-0.283465][13.9031,-13.0016,0][-1.69837,-0.599466,-0.539552][0.968504,-0.0314961,0.23622][14.1061,-13.0375,0][-1.88706,-0.634902,-0.593832][-0.937008,-0.330709,-0.0866142][14.1179,-13.0397,0][-1.82443,0.120363,-0.61436][0.905512,0.425197,-0.0708661][14.114,-12.9925,0][1.96028,-0.518484,0.235936][-0.0866142,0.952756,0.299213][13.8775,-13.0324,0][1.76426,-0.504872,0.21432][0.0629921,0.929134,0.354331][13.8897,-13.0316,0][1.82443,0.120363,0.614424][-0.905512,0.425197,0.0708661][13.886,-12.9925,0][1.51489,-0.132033,-1.16535][-0.23622,0.944882,0.220472][13.9053,-13.0083,0][1.36337,-0.191105,-1.05581][0.0629921,0.992126,0.110236][13.9148,-13.0119,0][1.53953,0.511076,-0.765704][-0.661417,0.251969,0.708661][13.9038,-12.9681,0][-1.76234,-0.40213,0.117526][0.984252,0.0314961,-0.181102][14.1101,-13.0251,0][-1.95816,-0.392092,0.12876][-0.976378,-0.0472441,0.19685][14.1224,-13.0245,0][-1.82009,0.341908,0.076094][0.850394,0.314961,-0.417323][14.1138,-12.9786,0][1.88079,-0.274462,-0.4907][-0.15748,0.944882,0.291339][13.8825,-13.0172,0][1.69269,-0.306552,-0.446424][-0.015748,0.952756,0.299213][13.8942,-13.0192,0][1.82009,0.341908,-0.07603][-0.850394,0.314961,0.417323][13.8862,-12.9786,0][-1.55798,-0.23245,0.762872][0.826772,-0.125984,-0.543307][14.0974,-13.0145,0][-1.73112,-0.183141,0.840172][-0.84252,0.0866142,0.535433][14.1082,-13.0114,0][-1.53953,0.511076,0.765768][0.661417,0.251969,-0.708661][14.0962,-12.9681,0][0.399924,-0.764536,1.76781][-0.858268,-0.496063,-0.110236][13.975,-13.0478,0][0.844044,-0.66996,1.56985][0.23622,0.96063,0.165354][13.9472,-13.0419,0][1.13172,-0.710212,1.37559][0.259843,0.937008,0.23622][13.9293,-13.0444,0][1.13172,-0.710212,1.37559][0.259843,0.937008,0.23622][13.9293,-13.0444,0][1.43568,-0.920534,1.07138][-0.929134,-0.362205,0.0314961][13.9103,-13.0575,0][0.399924,-0.764536,1.76781][-0.858268,-0.496063,-0.110236][13.975,-13.0478,0][-0.826426,-0.226928,1.52374][0.0787402,0.992126,0.0629921][14.0517,-13.0142,0][-0.544976,-0.452814,1.68134][-0.566929,-0.165354,-0.80315][14.0341,-13.0283,0][-1.15018,-0.346522,1.32126][-0.165354,-0.370079,-0.913386][14.0719,-13.0217,0][-0.826426,-0.226928,1.52374][0.0787402,0.992126,0.0629921][14.0517,-13.0142,0][-1.15018,-0.346522,1.32126][-0.165354,-0.370079,-0.913386][14.0719,-13.0217,0][-1.02681,0.53008,1.36352][0.362205,0.267717,-0.897638][14.0642,-12.9669,0][-0.163672,-0.394904,1.75768][0.212598,0.968504,0.15748][14.0102,-13.0247,0][0.399924,-0.764536,1.76781][-0.858268,-0.496063,-0.110236][13.975,-13.0478,0][-0.544976,-0.452814,1.68134][-0.566929,-0.165354,-0.80315][14.0341,-13.0283,0][0.399924,-0.764536,1.76781][-0.858268,-0.496063,-0.110236][13.975,-13.0478,0][0.52393,-0.595862,1.70321][0.291339,0.952756,0.0708661][13.9673,-13.0372,0][0.844044,-0.66996,1.56985][0.23622,0.96063,0.165354][13.9472,-13.0419,0][1.13172,-0.710212,1.37559][0.259843,0.937008,0.23622][13.9293,-13.0444,0][0.844044,-0.66996,1.56985][0.23622,0.96063,0.165354][13.9472,-13.0419,0][1.03769,-0.010231,1.67718][0.527559,0.299213,0.795276][13.9351,-13.0006,0][-0.163672,-0.394904,1.75768][0.212598,0.968504,0.15748][14.0102,-13.0247,0][-0.544976,-0.452814,1.68134][-0.566929,-0.165354,-0.80315][14.0341,-13.0283,0][-0.35797,0.385438,1.76227][0.015748,0.362205,-0.929134][14.0224,-12.9759,0][0.399924,-0.764536,1.76781][-0.858268,-0.496063,-0.110236][13.975,-13.0478,0][-0.163672,-0.394904,1.75768][0.212598,0.968504,0.15748][14.0102,-13.0247,0][0.183668,-0.49919,1.76729][-0.141732,-0.0551181,-0.992126][13.9885,-13.0312,0][0.399924,-0.764536,1.76781][-0.858268,-0.496063,-0.110236][13.975,-13.0478,0][0.183668,-0.49919,1.76729][-0.141732,-0.0551181,-0.992126][13.9885,-13.0312,0][0.52393,-0.595862,1.70321][0.291339,0.952756,0.0708661][13.9673,-13.0372,0][0.52393,-0.595862,1.70321][0.291339,0.952756,0.0708661][13.9673,-13.0372,0][0.183668,-0.49919,1.76729][-0.141732,-0.0551181,-0.992126][13.9885,-13.0312,0][0.367222,0.160557,1.87376][-0.299213,0.480315,-0.826772][13.977,-12.99,0]