version 1.00
200
[1.9579,0.604036,0.204056][0.629921,-0.15748,-0.76378][23.9872,-2.96225,0][1.88515,0.741148,0.596916][0.637795,0.606299,-0.480315][23.9627,-2.95368,0][1.81925,-0.114777,0.37261][-0.771654,-0.322835,0.551181][23.9767,-3.00717,0][1.63729,0.604766,0.905004][0.165354,-0.787402,-0.598425][23.9434,-2.9622,0][1.53286,0.76819,1.14647][0.992126,-0.0629921,0.133858][23.9283,-2.95199,0][1.53817,-0.114777,1.04044][-0.708661,-0.590551,0.385827][23.935,-3.00717,0][1.24015,0.604036,1.52873][0.992126,-0.125984,-0.0551181][23.9045,-2.96225,0][1.15137,0.803838,1.42402][0.023622,0.488189,-0.874016][23.911,-2.94976,0][0.91092,0.741148,1.75509][0.811024,0.590551,0.015748][23.8903,-2.95368,0][1.52873,0.604036,-1.24015][-0.0551181,-0.125984,-0.992126][24.0775,-2.96225,0][1.75509,0.741148,-0.91092][0.015748,0.590551,-0.811024][24.0569,-2.95368,0][1.54988,-0.114777,-1.02292][-0.15748,-0.322835,0.937008][24.0639,-3.00717,0][1.97008,0.741148,-0.169938][0.464567,0.496063,-0.740157][24.0106,-2.95368,0][1.77702,0.605334,0.173202][0.00787402,-0.952756,-0.299213][23.9892,-2.96217,0][1.82335,-0.114777,-0.351948][-0.779528,-0.519685,0.354331][24.022,-3.00717,0][1.79767,0.604768,-0.517806][-0.677165,-0.685039,0.251969][24.0324,-2.9622,0][1.97008,0.741148,-0.169938][0.464567,0.496063,-0.740157][24.0106,-2.95368,0][1.82335,-0.114777,-0.351948][-0.779528,-0.519685,0.354331][24.022,-3.00717,0][1.9579,0.604036,0.204056][0.629921,-0.15748,-0.76378][23.9872,-2.96225,0][1.82108,0.803838,0.192792][-0.661417,0.480315,-0.582677][23.988,-2.94976,0][1.88515,0.741148,0.596916][0.637795,0.606299,-0.480315][23.9627,-2.95368,0][1.14647,0.76819,-1.53286][0.133858,-0.0629921,-0.992126][24.0958,-2.95199,0][1.37902,0.605334,-1.13406][-0.212598,-0.944882,-0.244094][24.0709,-2.96217,0][1.04044,-0.114777,-1.53817][0.385827,-0.590551,0.708661][24.0961,-3.00717,0][0.875016,0.040501,-1.80306][-0.023622,-0.968504,-0.244094][24.1127,-2.99747,0][0.905398,0.370252,-1.98827][0.748031,0.0944882,-0.661417][24.1243,-2.97686,0][1.05732,0.377282,-1.71638][0.732283,0.645669,0.212598][24.1073,-2.97642,0][1.79767,0.604768,-0.517806][-0.677165,-0.685039,0.251969][24.0324,-2.9622,0][1.88695,0.800884,-0.560732][0.968504,0.0708661,-0.244094][24.035,-2.94994,0][1.97008,0.741148,-0.169938][0.464567,0.496063,-0.740157][24.0106,-2.95368,0][1.05732,0.377282,-1.71638][0.732283,0.645669,0.212598][24.1073,-2.97642,0][0.905398,0.370252,-1.98827][0.748031,0.0944882,-0.661417][24.1243,-2.97686,0][0.778852,0.616658,-1.83288][0.425197,0.858268,0.275591][24.1146,-2.96146,0][1.42402,0.803838,-1.15137][-0.874016,0.488189,-0.023622][24.072,-2.94976,0][1.52873,0.604036,-1.24015][-0.0551181,-0.125984,-0.992126][24.0775,-2.96225,0][1.96136,0.452252,-1.93924][-0.314961,-0.818898,-0.480315][24.1212,-2.97173,0][0.192792,0.803838,-1.82108][-0.582677,0.480315,0.661417][24.1138,-2.94976,0][0.204056,0.604036,-1.9579][-0.76378,-0.15748,-0.629921][24.1224,-2.96225,0][0.0156459,0.452252,-2.75814][-0.511811,-0.858268,-0.0708661][24.1724,-2.97173,0][-0.560732,0.800884,-1.88695][-0.244094,0.0708661,-0.968504][24.1179,-2.94994,0][-0.517806,0.604768,-1.79767][0.251969,-0.685039,0.677165][24.1124,-2.9622,0][-1.04104,0.452252,-2.55418][-0.401575,-0.913386,0.102362][24.1596,-2.97173,0][0.0592538,0.558308,-1.99651][0.527559,0.614173,0.590551][24.1248,-2.96511,0][0.424316,-0.502026,-1.99482][0.897638,-0.125984,0.417323][24.1247,-3.03138,0][0.21215,0.022107,-2.1712][0.748031,0.322835,-0.574803][24.1357,-2.99862,0][-0.173202,0.605332,1.77702][0.299213,-0.952756,0.00787402][23.8889,-2.96217,0][-0.204058,0.604032,1.9579][0.76378,-0.15748,0.629921][23.8776,-2.96225,0][-0.37261,-0.114777,1.81924][-0.551181,-0.322835,-0.771654][23.8863,-3.00717,0][1.13406,0.605334,1.37902][0.244094,-0.944882,-0.212598][23.9138,-2.96217,0][1.24015,0.604036,1.52873][0.992126,-0.125984,-0.0551181][23.9045,-2.96225,0][1.02292,-0.114777,1.54988][-0.937008,-0.322835,-0.15748][23.9031,-3.00717,0][-0.548288,0.160215,-1.98418][0.606299,-0.110236,-0.787402][24.124,-2.98999,0][-0.604648,0.573952,-1.90388][0.897638,0.362205,-0.259843][24.119,-2.96413,0][-0.661968,0.31995,-1.58821][0.173228,0.173228,0.968504][24.0993,-2.98,0][0.00496988,-0.32794,-1.61913][0.212598,0.220472,0.952756][24.1012,-3.0205,0][0.424316,-0.502026,-1.99482][0.897638,-0.125984,0.417323][24.1247,-3.03138,0][0.0592538,0.558308,-1.99651][0.527559,0.614173,0.590551][24.1248,-2.96511,0][-1.79767,0.604766,0.517806][0.677165,-0.685039,-0.251969][23.9676,-2.9622,0][-1.82108,0.803838,-0.192792][0.661417,0.480315,0.582677][24.012,-2.94976,0][-1.42402,0.803836,1.15137][-0.346457,0.464567,-0.811024][23.928,-2.94976,0][-0.91092,0.741148,-1.75509][-0.811024,0.590551,-0.015748][24.1097,-2.95368,0][-1.13406,0.605334,-1.37902][-0.244094,-0.944882,0.212598][24.0862,-2.96217,0][-1.02292,-0.114777,-1.54988][0.937008,-0.322835,0.15748][24.0969,-3.00717,0][-1.82108,0.803838,-0.192792][0.661417,0.480315,0.582677][24.012,-2.94976,0][-1.77702,0.605332,-0.173204][-0.00787402,-0.952756,0.299213][24.0108,-2.96217,0][-1.63729,0.604766,-0.905004][-0.165354,-0.787402,0.598425][24.0566,-2.9622,0][-1.88515,0.741148,-0.596916][-0.637795,0.606299,0.480315][24.0373,-2.95368,0][-1.77702,0.605332,-0.173204][-0.00787402,-0.952756,0.299213][24.0108,-2.96217,0][-1.81924,-0.114779,-0.37261][0.771654,-0.322835,-0.551181][24.0233,-3.00717,0][-1.82108,0.803838,-0.192792][0.661417,0.480315,0.582677][24.012,-2.94976,0][-1.79767,0.604766,0.517806][0.677165,-0.685039,-0.251969][23.9676,-2.9622,0][-1.77702,0.605332,-0.173204][-0.00787402,-0.952756,0.299213][24.0108,-2.96217,0][-1.77702,0.605332,-0.173204][-0.00787402,-0.952756,0.299213][24.0108,-2.96217,0][-1.79767,0.604766,0.517806][0.677165,-0.685039,-0.251969][23.9676,-2.9622,0][-1.82335,-0.114779,0.351948][0.779528,-0.519685,-0.354331][23.978,-3.00717,0][-1.42402,0.803836,1.15137][-0.346457,0.464567,-0.811024][23.928,-2.94976,0][-1.37902,0.605334,1.13406][0.212598,-0.944882,0.244094][23.9291,-2.96217,0][-1.79767,0.604766,0.517806][0.677165,-0.685039,-0.251969][23.9676,-2.9622,0][-1.42402,0.803836,1.15137][-0.346457,0.464567,-0.811024][23.928,-2.94976,0][-0.905006,0.604766,1.63729][0.393701,-0.716535,0.574803][23.8977,-2.9622,0][-1.37902,0.605334,1.13406][0.212598,-0.944882,0.244094][23.9291,-2.96217,0][-1.37902,0.605334,1.13406][0.212598,-0.944882,0.244094][23.9291,-2.96217,0][-0.905006,0.604766,1.63729][0.393701,-0.716535,0.574803][23.8977,-2.9622,0][-1.04044,-0.114777,1.53817][-0.826772,-0.559055,-0.0629921][23.9039,-3.00717,0][-0.604648,0.573952,-1.90388][0.897638,0.362205,-0.259843][24.0378,-3.11899,0][-0.890128,0.370252,-1.99454][-0.677165,-0.0787402,-0.732283][24.0556,-3.12466,0][-0.912052,0.559464,-1.77781][-0.354331,0.889764,-0.283465][24.057,-3.11111,0][-0.192792,0.803838,1.82108][0.582677,0.480315,-0.661417][24.012,-2.88618,0][0.169938,0.741148,1.97008][0.740157,0.496063,0.464567][23.9894,-2.87687,0][0.560732,0.800882,1.88695][0.244094,0.0708661,0.968504][23.965,-2.88207,0][1.82108,0.803838,0.192792][-0.661417,0.480315,-0.582677][23.8862,-2.98795,0][1.97008,0.741148,-0.169938][0.464567,0.496063,-0.740157][23.8769,-3.01062,0][1.88695,0.800884,-0.560732][0.968504,0.0708661,-0.244094][23.8821,-3.03505,0][-1.82108,0.803838,-0.192792][0.661417,0.480315,0.582677][24.1138,-3.01205,0][-1.97008,0.741148,0.169938][-0.464567,0.496063,0.740157][24.1231,-2.98938,0][-1.88695,0.800882,0.560732][-0.968504,0.0708661,0.244094][24.1179,-2.96495,0][0.91092,0.741148,1.75509][0.811024,0.590551,0.015748][23.9431,-2.89031,0][0.560732,0.800882,1.88695][0.244094,0.0708661,0.968504][23.965,-2.88207,0][1.04104,0.452252,2.55418][0.401575,-0.913386,-0.102362][23.9349,-2.84036,0][-1.75509,0.741148,0.91092][-0.015748,0.590551,0.811024][24.1097,-2.94307,0][-1.88695,0.800882,0.560732][-0.968504,0.0708661,0.244094][24.1179,-2.96495,0][-2.55418,0.452252,1.04104][0.102362,-0.913386,0.401575][24.1596,-2.93494,0][0.169938,0.741148,1.97008][0.740157,0.496063,0.464567][23.9894,-2.87687,0][-0.192792,0.803838,1.82108][0.582677,0.480315,-0.661417][24.012,-2.88618,0][-0.0156461,0.452252,2.75814][0.511811,-0.858268,0.0708661][24.001,-2.82762,0][-1.14647,0.76819,1.53286][-0.228346,0.976378,-0.023622][24.0717,-2.9042,0][-1.42402,0.803836,1.15137][-0.346457,0.464567,-0.811024][24.089,-2.92804,0][-1.96136,0.452252,1.93924][0.314961,-0.818898,0.480315][24.1226,-2.8788,0][-0.596916,0.741148,1.88515][0.480315,0.606299,0.637795][24.0373,-2.88218,0][-1.14647,0.76819,1.53286][-0.228346,0.976378,-0.023622][24.0717,-2.9042,0][-1.06995,0.452252,2.5422][-0.96063,0.181102,0.220472][24.0669,-2.84111,0][0.192792,0.803838,-1.82108][-0.582677,0.480315,0.661417][23.988,-3.11382,0][-0.169938,0.741148,-1.97008][-0.740157,0.496063,-0.464567][24.0106,-3.12313,0][-0.560732,0.800884,-1.88695][-0.244094,0.0708661,-0.968504][24.035,-3.11793,0][1.88515,0.741148,0.596916][0.637795,0.606299,-0.480315][23.8822,-2.96269,0][1.53286,0.76819,1.14647][0.992126,-0.0629921,0.133858][23.9042,-2.92835,0][2.5422,0.452252,1.06995][0.370079,-0.653543,-0.661417][23.8411,-2.93313,0][-1.97008,0.741148,0.169938][-0.464567,0.496063,0.740157][24.1231,-2.98938,0][-1.82108,0.803838,-0.192792][0.661417,0.480315,0.582677][24.1138,-3.01205,0][-2.75814,0.452252,-0.015646][-0.0708661,-0.858268,0.511811][24.1724,-3.00098,0][1.97008,0.741148,-0.169938][0.464567,0.496063,-0.740157][23.8769,-3.01062,0][1.82108,0.803838,0.192792][-0.661417,0.480315,-0.582677][23.8862,-2.98795,0][2.75814,0.452252,0.015646][0.0708661,-0.858268,-0.511811][23.8276,-2.99902,0][1.75509,0.741148,-0.91092][0.015748,0.590551,-0.811024][23.8903,-3.05693,0][1.88695,0.800884,-0.560732][0.968504,0.0708661,-0.244094][23.8821,-3.03505,0][2.55418,0.452252,-1.04104][-0.102362,-0.913386,-0.401575][23.8404,-3.06506,0][-0.91092,0.741148,-1.75509][-0.811024,0.590551,-0.015748][24.0569,-3.10969,0][-0.560732,0.800884,-1.88695][-0.244094,0.0708661,-0.968504][24.035,-3.11793,0][-1.04104,0.452252,-2.55418][-0.401575,-0.913386,0.102362][24.0651,-3.15964,0][1.88515,0.741148,0.596916][0.637795,0.606299,-0.480315][23.8822,-2.96269,0][1.82108,0.803838,0.192792][-0.661417,0.480315,-0.582677][23.8862,-2.98795,0][1.15137,0.803838,1.42402][0.023622,0.488189,-0.874016][23.928,-2.911,0][1.53286,0.76819,1.14647][0.992126,-0.0629921,0.133858][23.9042,-2.92835,0][1.15137,0.803838,1.42402][0.023622,0.488189,-0.874016][23.928,-2.911,0][1.93924,0.452252,1.96136][0.480315,-0.818898,-0.314961][23.8788,-2.87741,0][-1.88515,0.741148,-0.596916][-0.637795,0.606299,0.480315][24.1178,-3.03731,0][-1.53286,0.76819,-1.14647][-0.992126,-0.0629921,-0.133858][24.0958,-3.07165,0][-2.5422,0.452252,-1.06995][-0.370079,-0.653543,0.661417][24.1589,-3.06687,0][1.14647,0.76819,-1.53286][0.133858,-0.0629921,-0.992126][23.9283,-3.0958,0][1.42402,0.803838,-1.15137][-0.874016,0.488189,-0.023622][23.911,-3.07196,0][1.96136,0.452252,-1.93924][-0.314961,-0.818898,-0.480315][23.8774,-3.1212,0][-0.169938,0.741148,-1.97008][-0.740157,0.496063,-0.464567][24.0106,-3.12313,0][0.192792,0.803838,-1.82108][-0.582677,0.480315,0.661417][23.988,-3.11382,0][0.0156459,0.452252,-2.75814][-0.511811,-0.858268,-0.0708661][23.999,-3.17238,0][0.596916,0.741148,-1.88515][-0.480315,0.606299,-0.637795][23.9627,-3.11782,0][1.14647,0.76819,-1.53286][0.133858,-0.0629921,-0.992126][23.9283,-3.0958,0][1.06995,0.452252,-2.5422][-0.661417,-0.653543,-0.370079][23.9331,-3.15889,0][0.91092,0.741148,1.75509][0.811024,0.590551,0.015748][23.9431,-2.89031,0][1.15137,0.803838,1.42402][0.023622,0.488189,-0.874016][23.928,-2.911,0][-0.192792,0.803838,1.82108][0.582677,0.480315,-0.661417][24.012,-2.88618,0][-0.596916,0.741148,1.88515][0.480315,0.606299,0.637795][24.0373,-2.88218,0][-0.192792,0.803838,1.82108][0.582677,0.480315,-0.661417][24.012,-2.88618,0][-1.42402,0.803836,1.15137][-0.346457,0.464567,-0.811024][24.089,-2.92804,0][-1.88515,0.741148,-0.596916][-0.637795,0.606299,0.480315][24.1178,-3.03731,0][-1.82108,0.803838,-0.192792][0.661417,0.480315,0.582677][24.1138,-3.01205,0][-1.15137,0.803838,-1.42402][-0.023622,0.488189,0.874016][24.072,-3.089,0][-1.53286,0.76819,-1.14647][-0.992126,-0.0629921,-0.133858][24.0958,-3.07165,0][-1.15137,0.803838,-1.42402][-0.023622,0.488189,0.874016][24.072,-3.089,0][-1.93924,0.452252,-1.96136][-0.480315,-0.818898,0.314961][24.1212,-3.12259,0][-1.75509,0.741148,0.91092][-0.015748,0.590551,0.811024][24.1097,-2.94307,0][-1.42402,0.803836,1.15137][-0.346457,0.464567,-0.811024][24.089,-2.92804,0][-1.82108,0.803838,-0.192792][0.661417,0.480315,0.582677][24.1138,-3.01205,0][1.75509,0.741148,-0.91092][0.015748,0.590551,-0.811024][23.8903,-3.05693,0][1.42402,0.803838,-1.15137][-0.874016,0.488189,-0.023622][23.911,-3.07196,0][1.82108,0.803838,0.192792][-0.661417,0.480315,-0.582677][23.8862,-2.98795,0][0.596916,0.741148,-1.88515][-0.480315,0.606299,-0.637795][23.9627,-3.11782,0][0.192792,0.803838,-1.82108][-0.582677,0.480315,0.661417][23.988,-3.11382,0][1.42402,0.803838,-1.15137][-0.874016,0.488189,-0.023622][23.911,-3.07196,0][-0.91092,0.741148,-1.75509][-0.811024,0.590551,-0.015748][24.0569,-3.10969,0][-1.15137,0.803838,-1.42402][-0.023622,0.488189,0.874016][24.072,-3.089,0][0.192792,0.803838,-1.82108][-0.582677,0.480315,0.661417][23.988,-3.11382,0][-1.42402,0.803836,1.15137][-0.346457,0.464567,-0.811024][24.089,-2.92804,0][-1.14647,0.76819,1.53286][-0.228346,0.976378,-0.023622][24.0717,-2.9042,0][-0.596916,0.741148,1.88515][0.480315,0.606299,0.637795][24.0373,-2.88218,0][1.15137,0.803838,1.42402][0.023622,0.488189,-0.874016][23.928,-2.911,0][1.53286,0.76819,1.14647][0.992126,-0.0629921,0.133858][23.9042,-2.92835,0][1.88515,0.741148,0.596916][0.637795,0.606299,-0.480315][23.8822,-2.96269,0][-1.15137,0.803838,-1.42402][-0.023622,0.488189,0.874016][24.072,-3.089,0][-1.53286,0.76819,-1.14647][-0.992126,-0.0629921,-0.133858][24.0958,-3.07165,0][-1.88515,0.741148,-0.596916][-0.637795,0.606299,0.480315][24.1178,-3.03731,0][1.42402,0.803838,-1.15137][-0.874016,0.488189,-0.023622][23.911,-3.07196,0][1.14647,0.76819,-1.53286][0.133858,-0.0629921,-0.992126][23.9283,-3.0958,0][0.596916,0.741148,-1.88515][-0.480315,0.606299,-0.637795][23.9627,-3.11782,0][0.192792,0.803838,-1.82108][-0.582677,0.480315,0.661417][23.988,-3.11382,0][-0.560732,0.800884,-1.88695][-0.244094,0.0708661,-0.968504][24.035,-3.11793,0][-0.91092,0.741148,-1.75509][-0.811024,0.590551,-0.015748][24.0569,-3.10969,0][-1.82108,0.803838,-0.192792][0.661417,0.480315,0.582677][24.1138,-3.01205,0][-1.88695,0.800882,0.560732][-0.968504,0.0708661,0.244094][24.1179,-2.96495,0][-1.75509,0.741148,0.91092][-0.015748,0.590551,0.811024][24.1097,-2.94307,0][1.82108,0.803838,0.192792][-0.661417,0.480315,-0.582677][23.8862,-2.98795,0][1.88695,0.800884,-0.560732][0.968504,0.0708661,-0.244094][23.8821,-3.03505,0][1.75509,0.741148,-0.91092][0.015748,0.590551,-0.811024][23.8903,-3.05693,0][-0.192792,0.803838,1.82108][0.582677,0.480315,-0.661417][24.012,-2.88618,0][0.560732,0.800882,1.88695][0.244094,0.0708661,0.968504][23.965,-2.88207,0][0.91092,0.741148,1.75509][0.811024,0.590551,0.015748][23.9431,-2.89031,0][-0.604648,0.573952,-1.90388][0.897638,0.362205,-0.259843][24.0378,-3.11899,0][-0.912052,0.559464,-1.77781][-0.354331,0.889764,-0.283465][24.057,-3.11111,0][-0.661968,0.31995,-1.58821][0.173228,0.173228,0.968504][24.0414,-3.09926,0][-0.204058,0.604032,1.9579][0.76378,-0.15748,0.629921][23.9872,-2.96225,0][-0.596916,0.741148,1.88515][0.480315,0.606299,0.637795][23.9627,-2.95368,0][-0.37261,-0.114777,1.81924][-0.551181,-0.322835,-0.771654][23.9767,-3.00717,0][1.24015,0.604036,1.52873][0.992126,-0.125984,-0.0551181][24.0775,-2.96225,0][0.91092,0.741148,1.75509][0.811024,0.590551,0.015748][24.0569,-2.95368,0][1.02292,-0.114777,1.54988][-0.937008,-0.322835,-0.15748][24.0639,-3.00717,0][-0.905006,0.604766,1.63729][0.393701,-0.716535,0.574803][23.9434,-2.9622,0][-1.14647,0.76819,1.53286][-0.228346,0.976378,-0.023622][23.9283,-2.95199,0][-1.04044,-0.114777,1.53817][-0.826772,-0.559055,-0.0629921][23.935,-3.00717,0][0.517806,0.604766,1.79767][-0.251969,-0.685039,-0.677165][24.0324,-2.9622,0][0.169938,0.741148,1.97008][0.740157,0.496063,0.464567][24.0106,-2.95368,0][0.351948,-0.114777,1.82335][-0.354331,-0.519685,-0.779528][24.022,-3.00717,0][1.53286,0.76819,1.14647][0.992126,-0.0629921,0.133858][24.0958,-2.95199,0][1.13406,0.605334,1.37902][0.244094,-0.944882,-0.212598][24.0709,-2.96217,0][1.53817,-0.114777,1.04044][-0.708661,-0.590551,0.385827][24.0961,-3.00717,0][-0.204058,0.604032,1.9579][0.76378,-0.15748,0.629921][23.9872,-2.96225,0][-0.192792,0.803838,1.82108][0.582677,0.480315,-0.661417][23.988,-2.94976,0][-0.596916,0.741148,1.88515][0.480315,0.606299,0.637795][23.9627,-2.95368,0][0.517806,0.604766,1.79767][-0.251969,-0.685039,-0.677165][24.0324,-2.9622,0][0.560732,0.800882,1.88695][0.244094,0.0708661,0.968504][24.035,-2.94994,0][0.169938,0.741148,1.97008][0.740157,0.496063,0.464567][24.0106,-2.95368,0][0.169938,0.741148,1.97008][0.740157,0.496063,0.464567][24.0106,-2.95368,0][-0.173202,0.605332,1.77702][0.299213,-0.952756,0.00787402][23.9892,-2.96217,0][0.351948,-0.114777,1.82335][-0.354331,-0.519685,-0.779528][24.022,-3.00717,0][-1.52873,0.604032,1.24015][0.0551181,-0.125984,0.992126][23.9045,-2.96225,0][-1.42402,0.803836,1.15137][-0.346457,0.464567,-0.811024][23.911,-2.94976,0][-1.75509,0.741148,0.91092][-0.015748,0.590551,0.811024][23.8903,-2.95368,0][1.82108,0.803838,0.192792][-0.661417,0.480315,-0.582677][24.1138,-2.94976,0][1.9579,0.604036,0.204056][0.629921,-0.15748,-0.76378][24.1224,-2.96225,0][2.75814,0.452252,0.015646][0.0708661,-0.858268,-0.511811][24.1724,-2.97173,0][1.15137,0.803838,1.42402][0.023622,0.488189,-0.874016][24.072,-2.94976,0][1.24015,0.604036,1.52873][0.992126,-0.125984,-0.0551181][24.0775,-2.96225,0][1.93924,0.452252,1.96136][0.480315,-0.818898,-0.314961][24.1212,-2.97173,0][1.88695,0.800884,-0.560732][0.968504,0.0708661,-0.244094][24.1179,-2.94994,0][1.79767,0.604768,-0.517806][-0.677165,-0.685039,0.251969][24.1124,-2.9622,0][2.55418,0.452252,-1.04104][-0.102362,-0.913386,-0.401575][24.1596,-2.97173,0][-1.77702,0.605332,-0.173204][-0.00787402,-0.952756,0.299213][23.8889,-2.96217,0][-1.9579,0.604032,-0.204056][-0.629921,-0.15748,0.76378][23.8776,-2.96225,0][-1.81924,-0.114779,-0.37261][0.771654,-0.322835,-0.551181][23.8863,-3.00717,0][-1.37902,0.605334,1.13406][0.212598,-0.944882,0.244094][23.9138,-2.96217,0][-1.52873,0.604032,1.24015][0.0551181,-0.125984,0.992126][23.9045,-2.96225,0][-1.54988,-0.114777,1.02292][0.15748,-0.322835,-0.937008][23.9031,-3.00717,0][0.00496988,-0.32794,-1.61913][0.212598,0.220472,0.952756][24.0003,-3.0205,0][-0.0813122,-0.803838,-1.98976][-0.488189,-0.771654,0.401575][23.9949,-3.05024,0][0.424316,-0.502026,-1.99482][0.897638,-0.125984,0.417323][24.0265,-3.03138,0][0.00496988,-0.32794,-1.61913][0.212598,0.220472,0.952756][24.0003,-3.0205,0][-0.417118,-0.392982,-2.0243][-0.850394,-0.511811,0.11811][23.9739,-3.02456,0][-0.0813122,-0.803838,-1.98976][-0.488189,-0.771654,0.401575][23.9949,-3.05024,0][0.875016,0.040501,-1.80306][-0.023622,-0.968504,-0.244094][24.0547,-2.99747,0][1.05732,0.377282,-1.71638][0.732283,0.645669,0.212598][24.0661,-2.97642,0][0.674406,0.31995,-1.58355][-0.653543,0.0314961,0.755906][24.0422,-2.98,0][-1.04395,0.262736,-1.72372][-0.968504,0.23622,0.0708661][23.9348,-2.98358,0][-0.807538,0.033617,-1.83064][0.00787402,-0.913386,0.409449][23.9495,-2.9979,0][-0.661968,0.31995,-1.58821][0.173228,0.173228,0.968504][23.9586,-2.98,0][-0.912052,0.559464,-1.77781][-0.354331,0.889764,-0.283465][23.943,-2.96503,0][-1.04395,0.262736,-1.72372][-0.968504,0.23622,0.0708661][23.9348,-2.98358,0][-0.661968,0.31995,-1.58821][0.173228,0.173228,0.968504][23.9586,-2.98,0][1.05732,0.377282,-1.71638][0.732283,0.645669,0.212598][24.0661,-2.97642,0][0.778852,0.616658,-1.83288][0.425197,0.858268,0.275591][24.0487,-2.96146,0][0.674406,0.31995,-1.58355][-0.653543,0.0314961,0.755906][24.0422,-2.98,0][0.00496988,-0.32794,-1.61913][0.212598,0.220472,0.952756][24.0003,-3.0205,0][0.0592538,0.558308,-1.99651][0.527559,0.614173,0.590551][24.0037,-2.96511,0][-0.20344,0.286186,-2.09888][-0.952756,0.283465,-0.102362][23.9873,-2.98211,0][-0.517806,0.604768,-1.79767][0.251969,-0.685039,0.677165][23.9676,-2.9622,0][0.192792,0.803838,-1.82108][-0.582677,0.480315,0.661417][24.012,-2.94976,0][-1.15137,0.803838,-1.42402][-0.023622,0.488189,0.874016][23.928,-2.94976,0][0.596916,0.741148,-1.88515][-0.480315,0.606299,-0.637795][24.0373,-2.95368,0][0.173204,0.605334,-1.77702][-0.299213,-0.952756,-0.00787402][24.0108,-2.96217,0][0.37261,-0.114777,-1.81925][0.551181,-0.322835,0.771654][24.0233,-3.00717,0][0.192792,0.803838,-1.82108][-0.582677,0.480315,0.661417][24.012,-2.94976,0][0.173204,0.605334,-1.77702][-0.299213,-0.952756,-0.00787402][24.0108,-2.96217,0][0.905004,0.604768,-1.63729][-0.598425,-0.787402,-0.165354][24.0566,-2.9622,0][1.75509,0.741148,-0.91092][0.015748,0.590551,-0.811024][24.1097,-2.95368,0][1.37902,0.605334,-1.13406][-0.212598,-0.944882,-0.244094][24.0862,-2.96217,0][1.54988,-0.114777,-1.02292][-0.15748,-0.322835,0.937008][24.0969,-3.00717,0][-1.15137,0.803838,-1.42402][-0.023622,0.488189,0.874016][23.928,-2.94976,0][-1.13406,0.605334,-1.37902][-0.244094,-0.944882,0.212598][23.9291,-2.96217,0][-0.517806,0.604768,-1.79767][0.251969,-0.685039,0.677165][23.9676,-2.9622,0][0.192792,0.803838,-1.82108][-0.582677,0.480315,0.661417][24.012,-2.94976,0][-0.517806,0.604768,-1.79767][0.251969,-0.685039,0.677165][23.9676,-2.9622,0][0.173204,0.605334,-1.77702][-0.299213,-0.952756,-0.00787402][24.0108,-2.96217,0][0.173204,0.605334,-1.77702][-0.299213,-0.952756,-0.00787402][24.0108,-2.96217,0][-0.517806,0.604768,-1.79767][0.251969,-0.685039,0.677165][23.9676,-2.9622,0][-0.351948,-0.114777,-1.82335][0.354331,-0.519685,0.779528][23.978,-3.00717,0][-1.15137,0.803838,-1.42402][-0.023622,0.488189,0.874016][23.928,-2.94976,0][-1.63729,0.604766,-0.905004][-0.165354,-0.787402,0.598425][23.8977,-2.9622,0][-1.13406,0.605334,-1.37902][-0.244094,-0.944882,0.212598][23.9291,-2.96217,0][-1.13406,0.605334,-1.37902][-0.244094,-0.944882,0.212598][23.9291,-2.96217,0][-1.63729,0.604766,-0.905004][-0.165354,-0.787402,0.598425][23.8977,-2.9622,0][-1.53817,-0.114777,-1.04044][0.708661,-0.590551,-0.385827][23.9039,-3.00717,0][-1.52873,0.604032,1.24015][0.0551181,-0.125984,0.992126][24.0775,-2.96225,0][-1.75509,0.741148,0.91092][-0.015748,0.590551,0.811024][24.0569,-2.95368,0][-1.54988,-0.114777,1.02292][0.15748,-0.322835,-0.937008][24.0639,-3.00717,0][-1.79767,0.604766,0.517806][0.677165,-0.685039,-0.251969][24.0324,-2.9622,0][-1.97008,0.741148,0.169938][-0.464567,0.496063,0.740157][24.0106,-2.95368,0][-1.82335,-0.114779,0.351948][0.779528,-0.519685,-0.354331][24.022,-3.00717,0][-1.14647,0.76819,1.53286][-0.228346,0.976378,-0.023622][24.0958,-2.95199,0][-1.37902,0.605334,1.13406][0.212598,-0.944882,0.244094][24.0709,-2.96217,0][-1.04044,-0.114777,1.53817][-0.826772,-0.559055,-0.0629921][24.0961,-3.00717,0][-1.9579,0.604032,-0.204056][-0.629921,-0.15748,0.76378][23.9872,-2.96225,0][-1.88515,0.741148,-0.596916][-0.637795,0.606299,0.480315][23.9627,-2.95368,0][-1.81924,-0.114779,-0.37261][0.771654,-0.322835,-0.551181][23.9767,-3.00717,0][-1.63729,0.604766,-0.905004][-0.165354,-0.787402,0.598425][23.9434,-2.9622,0][-1.53286,0.76819,-1.14647][-0.992126,-0.0629921,-0.133858][23.9283,-2.95199,0][-1.53817,-0.114777,-1.04044][0.708661,-0.590551,-0.385827][23.935,-3.00717,0][-1.79767,0.604766,0.517806][0.677165,-0.685039,-0.251969][24.0324,-2.9622,0][-1.88695,0.800882,0.560732][-0.968504,0.0708661,0.244094][24.035,-2.94994,0][-1.97008,0.741148,0.169938][-0.464567,0.496063,0.740157][24.0106,-2.95368,0][-1.9579,0.604032,-0.204056][-0.629921,-0.15748,0.76378][23.9872,-2.96225,0][-1.82108,0.803838,-0.192792][0.661417,0.480315,0.582677][23.988,-2.94976,0][-1.88515,0.741148,-0.596916][-0.637795,0.606299,0.480315][23.9627,-2.95368,0][-1.04395,0.262736,-1.72372][-0.968504,0.23622,0.0708661][23.8923,-2.98358,0][-0.890128,0.370252,-1.99454][-0.677165,-0.0787402,-0.732283][23.8753,-2.97686,0][-0.807538,0.033617,-1.83064][0.00787402,-0.913386,0.409449][23.8856,-2.9979,0][-1.97008,0.741148,0.169938][-0.464567,0.496063,0.740157][24.0106,-2.95368,0][-1.77702,0.605332,-0.173204][-0.00787402,-0.952756,0.299213][23.9892,-2.96217,0][-1.82335,-0.114779,0.351948][0.779528,-0.519685,-0.354331][24.022,-3.00717,0][-1.24015,0.604032,-1.52873][-0.992126,-0.125984,0.0551181][23.9045,-2.96225,0][-1.15137,0.803838,-1.42402][-0.023622,0.488189,0.874016][23.911,-2.94976,0][-0.91092,0.741148,-1.75509][-0.811024,0.590551,-0.015748][23.8903,-2.95368,0][-0.912052,0.559464,-1.77781][-0.354331,0.889764,-0.283465][23.8889,-2.96503,0][-0.890128,0.370252,-1.99454][-0.677165,-0.0787402,-0.732283][23.8753,-2.97686,0][-1.04395,0.262736,-1.72372][-0.968504,0.23622,0.0708661][23.8923,-2.98358,0][-0.192792,0.803838,1.82108][0.582677,0.480315,-0.661417][24.1138,-2.94976,0][-0.204058,0.604032,1.9579][0.76378,-0.15748,0.629921][24.1224,-2.96225,0][-0.0156461,0.452252,2.75814][0.511811,-0.858268,0.0708661][24.1724,-2.97173,0][0.560732,0.800882,1.88695][0.244094,0.0708661,0.968504][24.1179,-2.94994,0][0.517806,0.604766,1.79767][-0.251969,-0.685039,-0.677165][24.1124,-2.9622,0][1.04104,0.452252,2.55418][0.401575,-0.913386,-0.102362][24.1596,-2.97173,0][-1.42402,0.803836,1.15137][-0.346457,0.464567,-0.811024][24.072,-2.94976,0][-1.52873,0.604032,1.24015][0.0551181,-0.125984,0.992126][24.0775,-2.96225,0][-1.96136,0.452252,1.93924][0.314961,-0.818898,0.480315][24.1212,-2.97173,0][-1.13406,0.605334,-1.37902][-0.244094,-0.944882,0.212598][23.9138,-2.96217,0][-1.24015,0.604032,-1.52873][-0.992126,-0.125984,0.0551181][23.9045,-2.96225,0][-1.02292,-0.114777,-1.54988][0.937008,-0.322835,0.15748][23.9031,-3.00717,0][0.173204,0.605334,-1.77702][-0.299213,-0.952756,-0.00787402][23.8889,-2.96217,0][0.204056,0.604036,-1.9579][-0.76378,-0.15748,-0.629921][23.8776,-2.96225,0][0.37261,-0.114777,-1.81925][0.551181,-0.322835,0.771654][23.8863,-3.00717,0][0.527162,0.433012,-1.93814][-0.755906,-0.0551181,-0.653543][23.8789,-2.97294,0][0.58981,0.140771,-1.97763][-0.19685,-0.629921,-0.748031][23.8764,-2.9912,0][0.674406,0.31995,-1.58355][-0.653543,0.0314961,0.755906][23.901,-2.98,0][0.00496988,-0.32794,-1.61913][0.212598,0.220472,0.952756][23.8988,-3.0205,0][-0.20344,0.286186,-2.09888][-0.952756,0.283465,-0.102362][23.8688,-2.98211,0][-0.417118,-0.392982,-2.0243][-0.850394,-0.511811,0.11811][23.8735,-3.02456,0][0.527162,0.433012,-1.93814][-0.755906,-0.0551181,-0.653543][23.8789,-2.97294,0][0.674406,0.31995,-1.58355][-0.653543,0.0314961,0.755906][23.901,-2.98,0][0.778852,0.616658,-1.83288][0.425197,0.858268,0.275591][23.8854,-2.96146,0][1.79767,0.604768,-0.517806][-0.677165,-0.685039,0.251969][23.9676,-2.9622,0][1.82108,0.803838,0.192792][-0.661417,0.480315,-0.582677][24.012,-2.94976,0][1.42402,0.803838,-1.15137][-0.874016,0.488189,-0.023622][23.928,-2.94976,0][1.42402,0.803838,-1.15137][-0.874016,0.488189,-0.023622][23.928,-2.94976,0][1.37902,0.605334,-1.13406][-0.212598,-0.944882,-0.244094][23.9291,-2.96217,0][1.79767,0.604768,-0.517806][-0.677165,-0.685039,0.251969][23.9676,-2.9622,0][1.42402,0.803838,-1.15137][-0.874016,0.488189,-0.023622][23.928,-2.94976,0][0.905004,0.604768,-1.63729][-0.598425,-0.787402,-0.165354][23.8977,-2.9622,0][1.37902,0.605334,-1.13406][-0.212598,-0.944882,-0.244094][23.9291,-2.96217,0][1.37902,0.605334,-1.13406][-0.212598,-0.944882,-0.244094][23.9291,-2.96217,0][0.905004,0.604768,-1.63729][-0.598425,-0.787402,-0.165354][23.8977,-2.9622,0][1.04044,-0.114777,-1.53817][0.385827,-0.590551,0.708661][23.9039,-3.00717,0][1.88515,0.741148,0.596916][0.637795,0.606299,-0.480315][24.0373,-2.95368,0][1.77702,0.605334,0.173202][0.00787402,-0.952756,-0.299213][24.0108,-2.96217,0][1.81925,-0.114777,0.37261][-0.771654,-0.322835,0.551181][24.0233,-3.00717,0][1.82108,0.803838,0.192792][-0.661417,0.480315,-0.582677][24.012,-2.94976,0][1.77702,0.605334,0.173202][0.00787402,-0.952756,-0.299213][24.0108,-2.96217,0][1.63729,0.604766,0.905004][0.165354,-0.787402,-0.598425][24.0566,-2.9622,0][1.82108,0.803838,0.192792][-0.661417,0.480315,-0.582677][24.012,-2.94976,0][1.79767,0.604768,-0.517806][-0.677165,-0.685039,0.251969][23.9676,-2.9622,0][1.77702,0.605334,0.173202][0.00787402,-0.952756,-0.299213][24.0108,-2.96217,0][1.77702,0.605334,0.173202][0.00787402,-0.952756,-0.299213][24.0108,-2.96217,0][1.79767,0.604768,-0.517806][-0.677165,-0.685039,0.251969][23.9676,-2.9622,0][1.82335,-0.114777,-0.351948][-0.779528,-0.519685,0.354331][23.978,-3.00717,0][0.91092,0.741148,1.75509][0.811024,0.590551,0.015748][24.1097,-2.95368,0][1.13406,0.605334,1.37902][0.244094,-0.944882,-0.212598][24.0862,-2.96217,0][1.02292,-0.114777,1.54988][-0.937008,-0.322835,-0.15748][24.0969,-3.00717,0][0.424316,-0.502026,-1.99482][0.897638,-0.125984,0.417323][24.0265,-3.12468,0][-0.0813122,-0.803838,-1.98976][-0.488189,-0.771654,0.401575][23.9949,-3.12436,0][0.00729988,-0.584432,-2.21592][0.133858,-0.606299,-0.787402][24.0005,-3.1385,0][-0.173202,0.605332,1.77702][0.299213,-0.952756,0.00787402][23.9892,-2.88894,0][-0.596916,0.741148,1.88515][0.480315,0.606299,0.637795][23.9627,-2.88218,0][-0.905006,0.604766,1.63729][0.393701,-0.716535,0.574803][23.9434,-2.89767,0][1.13406,0.605334,1.37902][0.244094,-0.944882,-0.212598][24.0709,-2.91381,0][0.91092,0.741148,1.75509][0.811024,0.590551,0.015748][24.0569,-2.89031,0][0.517806,0.604766,1.79767][-0.251969,-0.685039,-0.677165][24.0324,-2.88765,0][-1.37902,0.605334,1.13406][0.212598,-0.944882,0.244094][23.9138,-2.92912,0][-1.75509,0.741148,0.91092][-0.015748,0.590551,0.811024][23.8903,-2.94307,0][-1.79767,0.604766,0.517806][0.677165,-0.685039,-0.251969][23.8876,-2.96764,0][1.77702,0.605334,0.173202][0.00787402,-0.952756,-0.299213][24.1111,-2.98917,0][1.88515,0.741148,0.596916][0.637795,0.606299,-0.480315][24.1178,-2.96269,0][1.63729,0.604766,0.905004][0.165354,-0.787402,-0.598425][24.1023,-2.94344,0][-1.77702,0.605332,-0.173204][-0.00787402,-0.952756,0.299213][23.8889,-3.01083,0][-1.88515,0.741148,-0.596916][-0.637795,0.606299,0.480315][23.8822,-3.03731,0][-1.63729,0.604766,-0.905004][-0.165354,-0.787402,0.598425][23.8977,-3.05656,0][1.37902,0.605334,-1.13406][-0.212598,-0.944882,-0.244094][24.0862,-3.07088,0][1.75509,0.741148,-0.91092][0.015748,0.590551,-0.811024][24.1097,-3.05693,0][1.79767,0.604768,-0.517806][-0.677165,-0.685039,0.251969][24.1124,-3.03236,0][-1.13406,0.605334,-1.37902][-0.244094,-0.944882,0.212598][23.9291,-3.08619,0][-0.91092,0.741148,-1.75509][-0.811024,0.590551,-0.015748][23.9431,-3.10969,0][-0.517806,0.604768,-1.79767][0.251969,-0.685039,0.677165][23.9676,-3.11235,0][0.173204,0.605334,-1.77702][-0.299213,-0.952756,-0.00787402][24.0108,-3.11106,0][0.596916,0.741148,-1.88515][-0.480315,0.606299,-0.637795][24.0373,-3.11782,0][0.905004,0.604768,-1.63729][-0.598425,-0.787402,-0.165354][24.0566,-3.10233,0][1.53286,0.76819,1.14647][0.992126,-0.0629921,0.133858][24.0958,-2.92835,0][1.63729,0.604766,0.905004][0.165354,-0.787402,-0.598425][24.1023,-2.94344,0][2.5422,0.452252,1.06995][0.370079,-0.653543,-0.661417][24.1589,-2.93313,0][-1.77702,0.605332,-0.173204][-0.00787402,-0.952756,0.299213][23.8889,-3.01083,0][-1.97008,0.741148,0.169938][-0.464567,0.496063,0.740157][23.8769,-2.98938,0][-1.9579,0.604032,-0.204056][-0.629921,-0.15748,0.76378][23.8776,-3.01275,0][1.14647,0.76819,-1.53286][0.133858,-0.0629921,-0.992126][24.0717,-3.0958,0][0.905004,0.604768,-1.63729][-0.598425,-0.787402,-0.165354][24.0566,-3.10233,0][1.06995,0.452252,-2.5422][-0.661417,-0.653543,-0.370079][24.0669,-3.15889,0][-1.37902,0.605334,1.13406][0.212598,-0.944882,0.244094][23.9138,-2.92912,0][-1.14647,0.76819,1.53286][-0.228346,0.976378,-0.023622][23.9283,-2.9042,0][-1.52873,0.604032,1.24015][0.0551181,-0.125984,0.992126][23.9045,-2.92249,0][-1.13406,0.605334,-1.37902][-0.244094,-0.944882,0.212598][23.9291,-3.08619,0][-1.53286,0.76819,-1.14647][-0.992126,-0.0629921,-0.133858][23.9042,-3.07165,0][-1.24015,0.604032,-1.52873][-0.992126,-0.125984,0.0551181][23.9225,-3.09555,0][-0.173202,0.605332,1.77702][0.299213,-0.952756,0.00787402][23.9892,-2.88894,0][0.169938,0.741148,1.97008][0.740157,0.496063,0.464567][24.0106,-2.87687,0][-0.204058,0.604032,1.9579][0.76378,-0.15748,0.629921][23.9872,-2.87763,0][0.173204,0.605334,-1.77702][-0.299213,-0.952756,-0.00787402][24.0108,-3.11106,0][-0.169938,0.741148,-1.97008][-0.740157,0.496063,-0.464567][23.9894,-3.12313,0][0.204056,0.604036,-1.9579][-0.76378,-0.15748,-0.629921][24.0128,-3.12237,0][-1.14647,0.76819,1.53286][-0.228346,0.976378,-0.023622][23.9283,-2.9042,0][-0.905006,0.604766,1.63729][0.393701,-0.716535,0.574803][23.9434,-2.89767,0][-1.06995,0.452252,2.5422][-0.96063,0.181102,0.220472][23.9331,-2.84111,0][1.13406,0.605334,1.37902][0.244094,-0.944882,-0.212598][24.0709,-2.91381,0][1.53286,0.76819,1.14647][0.992126,-0.0629921,0.133858][24.0958,-2.92835,0][1.24015,0.604036,1.52873][0.992126,-0.125984,-0.0551181][24.0775,-2.90445,0][1.37902,0.605334,-1.13406][-0.212598,-0.944882,-0.244094][24.0862,-3.07088,0][1.14647,0.76819,-1.53286][0.133858,-0.0629921,-0.992126][24.0717,-3.0958,0][1.52873,0.604036,-1.24015][-0.0551181,-0.125984,-0.992126][24.0955,-3.07751,0][1.77702,0.605334,0.173202][0.00787402,-0.952756,-0.299213][24.1111,-2.98917,0][1.97008,0.741148,-0.169938][0.464567,0.496063,-0.740157][24.1231,-3.01062,0][1.9579,0.604036,0.204056][0.629921,-0.15748,-0.76378][24.1224,-2.98725,0][-1.53286,0.76819,-1.14647][-0.992126,-0.0629921,-0.133858][23.9042,-3.07165,0][-1.63729,0.604766,-0.905004][-0.165354,-0.787402,0.598425][23.8977,-3.05656,0][-2.5422,0.452252,-1.06995][-0.370079,-0.653543,0.661417][23.8411,-3.06687,0][-1.63729,0.604766,-0.905004][-0.165354,-0.787402,0.598425][23.8977,-3.05656,0][-1.88515,0.741148,-0.596916][-0.637795,0.606299,0.480315][23.8822,-3.03731,0][-2.5422,0.452252,-1.06995][-0.370079,-0.653543,0.661417][23.8411,-3.06687,0][-0.517806,0.604768,-1.79767][0.251969,-0.685039,0.677165][23.9676,-3.11235,0][-0.91092,0.741148,-1.75509][-0.811024,0.590551,-0.015748][23.9431,-3.10969,0][-1.04104,0.452252,-2.55418][-0.401575,-0.913386,0.102362][23.9349,-3.15964,0][-1.24015,0.604032,-1.52873][-0.992126,-0.125984,0.0551181][23.9225,-3.09555,0][-1.53286,0.76819,-1.14647][-0.992126,-0.0629921,-0.133858][23.9042,-3.07165,0][-1.93924,0.452252,-1.96136][-0.480315,-0.818898,0.314961][23.8788,-3.12259,0][-1.79767,0.604766,0.517806][0.677165,-0.685039,-0.251969][23.8876,-2.96764,0][-1.75509,0.741148,0.91092][-0.015748,0.590551,0.811024][23.8903,-2.94307,0][-2.55418,0.452252,1.04104][0.102362,-0.913386,0.401575][23.8404,-2.93494,0][-1.9579,0.604032,-0.204056][-0.629921,-0.15748,0.76378][23.8776,-3.01275,0][-1.97008,0.741148,0.169938][-0.464567,0.496063,0.740157][23.8769,-2.98938,0][-2.75814,0.452252,-0.015646][-0.0708661,-0.858268,0.511811][23.8276,-3.00098,0][0.204056,0.604036,-1.9579][-0.76378,-0.15748,-0.629921][24.0128,-3.12237,0][-0.169938,0.741148,-1.97008][-0.740157,0.496063,-0.464567][23.9894,-3.12313,0][0.0156459,0.452252,-2.75814][-0.511811,-0.858268,-0.0708661][24.001,-3.17238,0][0.905004,0.604768,-1.63729][-0.598425,-0.787402,-0.165354][24.0566,-3.10233,0][0.596916,0.741148,-1.88515][-0.480315,0.606299,-0.637795][24.0373,-3.11782,0][1.06995,0.452252,-2.5422][-0.661417,-0.653543,-0.370079][24.0669,-3.15889,0][-1.52873,0.604032,1.24015][0.0551181,-0.125984,0.992126][23.9045,-2.92249,0][-1.14647,0.76819,1.53286][-0.228346,0.976378,-0.023622][23.9283,-2.9042,0][-1.96136,0.452252,1.93924][0.314961,-0.818898,0.480315][23.8774,-2.8788,0][-0.905006,0.604766,1.63729][0.393701,-0.716535,0.574803][23.9434,-2.89767,0][-0.596916,0.741148,1.88515][0.480315,0.606299,0.637795][23.9627,-2.88218,0][-1.06995,0.452252,2.5422][-0.96063,0.181102,0.220472][23.9331,-2.84111,0][1.52873,0.604036,-1.24015][-0.0551181,-0.125984,-0.992126][24.0955,-3.07751,0][1.14647,0.76819,-1.53286][0.133858,-0.0629921,-0.992126][24.0717,-3.0958,0][1.96136,0.452252,-1.93924][-0.314961,-0.818898,-0.480315][24.1226,-3.1212,0][1.79767,0.604768,-0.517806][-0.677165,-0.685039,0.251969][24.1124,-3.03236,0][1.75509,0.741148,-0.91092][0.015748,0.590551,-0.811024][24.1097,-3.05693,0][2.55418,0.452252,-1.04104][-0.102362,-0.913386,-0.401575][24.1596,-3.06506,0][0.517806,0.604766,1.79767][-0.251969,-0.685039,-0.677165][24.0324,-2.88765,0][0.91092,0.741148,1.75509][0.811024,0.590551,0.015748][24.0569,-2.89031,0][1.04104,0.452252,2.55418][0.401575,-0.913386,-0.102362][24.0651,-2.84036,0][-0.204058,0.604032,1.9579][0.76378,-0.15748,0.629921][23.9872,-2.87763,0][0.169938,0.741148,1.97008][0.740157,0.496063,0.464567][24.0106,-2.87687,0][-0.0156461,0.452252,2.75814][0.511811,-0.858268,0.0708661][23.999,-2.82762,0][1.24015,0.604036,1.52873][0.992126,-0.125984,-0.0551181][24.0775,-2.90445,0][1.53286,0.76819,1.14647][0.992126,-0.0629921,0.133858][24.0958,-2.92835,0][1.93924,0.452252,1.96136][0.480315,-0.818898,-0.314961][24.1212,-2.87741,0][1.63729,0.604766,0.905004][0.165354,-0.787402,-0.598425][24.1023,-2.94344,0][1.88515,0.741148,0.596916][0.637795,0.606299,-0.480315][24.1178,-2.96269,0][2.5422,0.452252,1.06995][0.370079,-0.653543,-0.661417][24.1589,-2.93313,0][1.9579,0.604036,0.204056][0.629921,-0.15748,-0.76378][24.1224,-2.98725,0][1.97008,0.741148,-0.169938][0.464567,0.496063,-0.740157][24.1231,-3.01062,0][2.75814,0.452252,0.015646][0.0708661,-0.858268,-0.511811][24.1724,-2.99902,0][0.875016,0.040501,-1.80306][-0.023622,-0.968504,-0.244094][24.0547,-3.11269,0][0.674406,0.31995,-1.58355][-0.653543,0.0314961,0.755906][24.0422,-3.09897,0][0.58981,0.140771,-1.97763][-0.19685,-0.629921,-0.748031][24.0369,-3.1236,0][-0.807538,0.033617,-1.83064][0.00787402,-0.913386,0.409449][23.9495,-3.11442,0][-0.548288,0.160215,-1.98418][0.606299,-0.110236,-0.787402][23.9657,-3.12401,0][-0.661968,0.31995,-1.58821][0.173228,0.173228,0.968504][23.9586,-3.09926,0][0.905004,0.604768,-1.63729][-0.598425,-0.787402,-0.165354][24.0566,-3.10233,0][1.42402,0.803838,-1.15137][-0.874016,0.488189,-0.023622][24.089,-3.07196,0][0.192792,0.803838,-1.82108][-0.582677,0.480315,0.661417][24.012,-3.11382,0][-1.63729,0.604766,-0.905004][-0.165354,-0.787402,0.598425][23.8977,-3.05656,0][-1.15137,0.803838,-1.42402][-0.023622,0.488189,0.874016][23.928,-3.089,0][-1.82108,0.803838,-0.192792][0.661417,0.480315,0.582677][23.8862,-3.01205,0][1.63729,0.604766,0.905004][0.165354,-0.787402,-0.598425][24.1023,-2.94344,0][1.15137,0.803838,1.42402][0.023622,0.488189,-0.874016][24.072,-2.911,0][1.82108,0.803838,0.192792][-0.661417,0.480315,-0.582677][24.1138,-2.98795,0][-0.905006,0.604766,1.63729][0.393701,-0.716535,0.574803][23.9434,-2.89767,0][-1.42402,0.803836,1.15137][-0.346457,0.464567,-0.811024][23.911,-2.92804,0][-0.192792,0.803838,1.82108][0.582677,0.480315,-0.661417][23.988,-2.88618,0][-0.0813122,-0.803838,-1.98976][-0.488189,-0.771654,0.401575][24.0051,-3.05024,0][-0.417118,-0.392982,-2.0243][-0.850394,-0.511811,0.11811][24.0261,-3.02456,0][0.00729988,-0.584432,-2.21592][0.133858,-0.606299,-0.787402][23.9995,-3.03653,0][0.424316,-0.502026,-1.99482][0.897638,-0.125984,0.417323][23.9735,-3.03138,0][0.00729988,-0.584432,-2.21592][0.133858,-0.606299,-0.787402][23.9995,-3.03653,0][0.21215,0.022107,-2.1712][0.748031,0.322835,-0.574803][23.9867,-2.99862,0][0.21215,0.022107,-2.1712][0.748031,0.322835,-0.574803][23.9867,-2.99862,0][0.00729988,-0.584432,-2.21592][0.133858,-0.606299,-0.787402][23.9995,-3.03653,0][-0.20344,0.286186,-2.09888][-0.952756,0.283465,-0.102362][24.0127,-2.98211,0][0.905398,0.370252,-1.98827][0.748031,0.0944882,-0.661417][23.9434,-2.97686,0][0.875016,0.040501,-1.80306][-0.023622,-0.968504,-0.244094][23.9453,-2.99747,0][0.58981,0.140771,-1.97763][-0.19685,-0.629921,-0.748031][23.9631,-2.9912,0][-0.890128,0.370252,-1.99454][-0.677165,-0.0787402,-0.732283][24.0556,-2.97686,0][-0.548288,0.160215,-1.98418][0.606299,-0.110236,-0.787402][24.0343,-2.98999,0][-0.807538,0.033617,-1.83064][0.00787402,-0.913386,0.409449][24.0505,-2.9979,0][-0.20344,0.286186,-2.09888][-0.952756,0.283465,-0.102362][24.0127,-2.98211,0][0.00729988,-0.584432,-2.21592][0.133858,-0.606299,-0.787402][23.9995,-3.03653,0][-0.417118,-0.392982,-2.0243][-0.850394,-0.511811,0.11811][24.0261,-3.02456,0][-1.24015,0.604032,-1.52873][-0.992126,-0.125984,0.0551181][24.0775,-2.96225,0][-0.91092,0.741148,-1.75509][-0.811024,0.590551,-0.015748][24.0569,-2.95368,0][-1.02292,-0.114777,-1.54988][0.937008,-0.322835,0.15748][24.0639,-3.00717,0][0.204056,0.604036,-1.9579][-0.76378,-0.15748,-0.629921][23.9872,-2.96225,0][0.596916,0.741148,-1.88515][-0.480315,0.606299,-0.637795][23.9627,-2.95368,0][0.37261,-0.114777,-1.81925][0.551181,-0.322835,0.771654][23.9767,-3.00717,0][0.0592538,0.558308,-1.99651][0.527559,0.614173,0.590551][23.9963,-2.96511,0][0.21215,0.022107,-2.1712][0.748031,0.322835,-0.574803][23.9867,-2.99862,0][-0.20344,0.286186,-2.09888][-0.952756,0.283465,-0.102362][24.0127,-2.98211,0][0.905004,0.604768,-1.63729][-0.598425,-0.787402,-0.165354][23.9434,-2.9622,0][1.14647,0.76819,-1.53286][0.133858,-0.0629921,-0.992126][23.9283,-2.95199,0][1.04044,-0.114777,-1.53817][0.385827,-0.590551,0.708661][23.935,-3.00717,0][-0.517806,0.604768,-1.79767][0.251969,-0.685039,0.677165][24.0324,-2.9622,0][-0.169938,0.741148,-1.97008][-0.740157,0.496063,-0.464567][24.0106,-2.95368,0][-0.351948,-0.114777,-1.82335][0.354331,-0.519685,0.779528][24.022,-3.00717,0][0.58981,0.140771,-1.97763][-0.19685,-0.629921,-0.748031][23.9631,-2.9912,0][0.527162,0.433012,-1.93814][-0.755906,-0.0551181,-0.653543][23.9671,-2.97294,0][0.905398,0.370252,-1.98827][0.748031,0.0944882,-0.661417][23.9434,-2.97686,0][-1.53286,0.76819,-1.14647][-0.992126,-0.0629921,-0.133858][24.0958,-2.95199,0][-1.13406,0.605334,-1.37902][-0.244094,-0.944882,0.212598][24.0709,-2.96217,0][-1.53817,-0.114777,-1.04044][0.708661,-0.590551,-0.385827][24.0961,-3.00717,0][1.52873,0.604036,-1.24015][-0.0551181,-0.125984,-0.992126][23.9045,-2.96225,0][1.42402,0.803838,-1.15137][-0.874016,0.488189,-0.023622][23.911,-2.94976,0][1.75509,0.741148,-0.91092][0.015748,0.590551,-0.811024][23.8903,-2.95368,0][-0.548288,0.160215,-1.98418][0.606299,-0.110236,-0.787402][24.0343,-2.98999,0][-0.890128,0.370252,-1.99454][-0.677165,-0.0787402,-0.732283][24.0556,-2.97686,0][-0.604648,0.573952,-1.90388][0.897638,0.362205,-0.259843][24.0378,-2.96413,0][0.204056,0.604036,-1.9579][-0.76378,-0.15748,-0.629921][23.9872,-2.96225,0][0.192792,0.803838,-1.82108][-0.582677,0.480315,0.661417][23.988,-2.94976,0][0.596916,0.741148,-1.88515][-0.480315,0.606299,-0.637795][23.9627,-2.95368,0][-0.517806,0.604768,-1.79767][0.251969,-0.685039,0.677165][24.0324,-2.9622,0][-0.560732,0.800884,-1.88695][-0.244094,0.0708661,-0.968504][24.035,-2.94994,0][-0.169938,0.741148,-1.97008][-0.740157,0.496063,-0.464567][24.0106,-2.95368,0][-0.169938,0.741148,-1.97008][-0.740157,0.496063,-0.464567][24.0106,-2.95368,0][0.173204,0.605334,-1.77702][-0.299213,-0.952756,-0.00787402][23.9892,-2.96217,0][-0.351948,-0.114777,-1.82335][0.354331,-0.519685,0.779528][24.022,-3.00717,0][0.527162,0.433012,-1.93814][-0.755906,-0.0551181,-0.653543][23.9671,-2.97294,0][0.778852,0.616658,-1.83288][0.425197,0.858268,0.275591][23.9513,-2.96146,0][0.905398,0.370252,-1.98827][0.748031,0.0944882,-0.661417][23.9434,-2.97686,0][-1.15137,0.803838,-1.42402][-0.023622,0.488189,0.874016][24.072,-2.94976,0][-1.24015,0.604032,-1.52873][-0.992126,-0.125984,0.0551181][24.0775,-2.96225,0][-1.93924,0.452252,-1.96136][-0.480315,-0.818898,0.314961][24.1212,-2.97173,0][-1.82108,0.803838,-0.192792][0.661417,0.480315,0.582677][24.1138,-2.94976,0][-1.9579,0.604032,-0.204056][-0.629921,-0.15748,0.76378][24.1224,-2.96225,0][-2.75814,0.452252,-0.015646][-0.0708661,-0.858268,0.511811][24.1724,-2.97173,0][-1.88695,0.800882,0.560732][-0.968504,0.0708661,0.244094][24.1179,-2.94994,0][-1.79767,0.604766,0.517806][0.677165,-0.685039,-0.251969][24.1124,-2.9622,0][-2.55418,0.452252,1.04104][0.102362,-0.913386,0.401575][24.1596,-2.97173,0][1.37902,0.605334,-1.13406][-0.212598,-0.944882,-0.244094][23.9138,-2.96217,0][1.52873,0.604036,-1.24015][-0.0551181,-0.125984,-0.992126][23.9045,-2.96225,0][1.54988,-0.114777,-1.02292][-0.15748,-0.322835,0.937008][23.9031,-3.00717,0][1.77702,0.605334,0.173202][0.00787402,-0.952756,-0.299213][23.8889,-2.96217,0][1.9579,0.604036,0.204056][0.629921,-0.15748,-0.76378][23.8776,-2.96225,0][1.81925,-0.114777,0.37261][-0.771654,-0.322835,0.551181][23.8863,-3.00717,0][0.517806,0.604766,1.79767][-0.251969,-0.685039,-0.677165][23.9676,-2.9622,0][-0.192792,0.803838,1.82108][0.582677,0.480315,-0.661417][24.012,-2.94976,0][1.15137,0.803838,1.42402][0.023622,0.488189,-0.874016][23.928,-2.94976,0][-1.75509,0.741148,0.91092][-0.015748,0.590551,0.811024][24.1097,-2.95368,0][-1.37902,0.605334,1.13406][0.212598,-0.944882,0.244094][24.0862,-2.96217,0][-1.54988,-0.114777,1.02292][0.15748,-0.322835,-0.937008][24.0969,-3.00717,0][1.15137,0.803838,1.42402][0.023622,0.488189,-0.874016][23.928,-2.94976,0][1.13406,0.605334,1.37902][0.244094,-0.944882,-0.212598][23.9291,-2.96217,0][0.517806,0.604766,1.79767][-0.251969,-0.685039,-0.677165][23.9676,-2.9622,0][-0.596916,0.741148,1.88515][0.480315,0.606299,0.637795][24.0373,-2.95368,0][-0.173202,0.605332,1.77702][0.299213,-0.952756,0.00787402][24.0108,-2.96217,0][-0.37261,-0.114777,1.81924][-0.551181,-0.322835,-0.771654][24.0233,-3.00717,0][-0.192792,0.803838,1.82108][0.582677,0.480315,-0.661417][24.012,-2.94976,0][-0.173202,0.605332,1.77702][0.299213,-0.952756,0.00787402][24.0108,-2.96217,0][-0.905006,0.604766,1.63729][0.393701,-0.716535,0.574803][24.0566,-2.9622,0][1.15137,0.803838,1.42402][0.023622,0.488189,-0.874016][23.928,-2.94976,0][1.63729,0.604766,0.905004][0.165354,-0.787402,-0.598425][23.8977,-2.9622,0][1.13406,0.605334,1.37902][0.244094,-0.944882,-0.212598][23.9291,-2.96217,0][1.13406,0.605334,1.37902][0.244094,-0.944882,-0.212598][23.9291,-2.96217,0][1.63729,0.604766,0.905004][0.165354,-0.787402,-0.598425][23.8977,-2.9622,0][1.53817,-0.114777,1.04044][-0.708661,-0.590551,0.385827][23.9039,-3.00717,0][-0.192792,0.803838,1.82108][0.582677,0.480315,-0.661417][24.012,-2.94976,0][0.517806,0.604766,1.79767][-0.251969,-0.685039,-0.677165][23.9676,-2.9622,0][-0.173202,0.605332,1.77702][0.299213,-0.952756,0.00787402][24.0108,-2.96217,0][-0.173202,0.605332,1.77702][0.299213,-0.952756,0.00787402][24.0108,-2.96217,0][0.517806,0.604766,1.79767][-0.251969,-0.685039,-0.677165][23.9676,-2.9622,0][0.351948,-0.114777,1.82335][-0.354331,-0.519685,-0.779528][23.978,-3.00717,0]