version 1.01
300
[0.26074,-1.01858,0.705261][0.287724,-0.639236,0.713733][0.402668,0.751464,0][-1.6392e-17,-1.02665,0.750525][0.00925002,-0.647999,0.761443][0.418482,0.754425,0][0.248029,-1.01728,0.669997][-0.176724,-0.774579,-0.606586][0.403014,0.750453,0][-1.61842e-17,-1.02495,0.713057][0.00827633,-0.768736,-0.638717][0.418482,0.753348,0][0.248029,-1.01728,0.669997][-0.176724,-0.774579,-0.606586][0.403014,0.750453,0][-1.6392e-17,-1.02665,0.750525][0.00925002,-0.647999,0.761443][0.418482,0.754425,0][0.490019,-0.790497,-0.57494][0.54283,-0.404578,-0.736086][0.388762,0.667735,0][0.627116,-0.833624,-0.35723][-0.509725,-0.847605,0.1451][0.379321,0.681332,0][0.465452,-0.799837,-0.546882][-0.378277,-0.875842,0.298943][0.389417,0.668562,0][0.627116,-0.833624,-0.35723][-0.509725,-0.847605,0.1451][0.379321,0.681332,0][0.490019,-0.790497,-0.57494][0.54283,-0.404578,-0.736086][0.388762,0.667735,0][0.660204,-0.826072,-0.375271][0.732699,-0.444499,-0.515059][0.37844,0.680795,0][0.260733,-0.767278,-0.705264][0.287724,-0.378288,-0.880191][0.402668,0.659212,0][0.490019,-0.790497,-0.57494][0.54283,-0.404578,-0.736086][0.388762,0.667735,0][0.465452,-0.799837,-0.546882][-0.378277,-0.875842,0.298943][0.389417,0.668562,0][0.660204,-0.826072,-0.375271][0.732699,-0.444499,-0.515059][0.37844,0.680795,0][0.713149,-0.875071,-0.124575][-0.57983,-0.813526,-0.0437949][0.373949,0.696999,0][0.627116,-0.833624,-0.35723][-0.509725,-0.847605,0.1451][0.379321,0.681332,0][0.260733,-0.767278,-0.705264][0.287724,-0.378288,-0.880191][0.402668,0.659212,0][0.465452,-0.799837,-0.546882][-0.378277,-0.875842,0.298943][0.389417,0.668562,0][0.247658,-0.777785,-0.670664][-0.203014,-0.894342,0.399232][0.403017,0.660227,0][0.660204,-0.826072,-0.375271][0.732699,-0.444499,-0.515059][0.37844,0.680795,0][0.75076,-0.86971,-0.130338][0.834936,-0.493183,-0.243401][0.372948,0.696814,0][0.713149,-0.875071,-0.124575][-0.57983,-0.813526,-0.0437949][0.373949,0.696999,0][1.63594e-17,-0.759214,-0.750525][-0.000486843,-0.368551,-0.929849][0.418482,0.656251,0][0.260733,-0.767278,-0.705264][0.287724,-0.378288,-0.880191][0.402668,0.659212,0][0.247658,-0.777785,-0.670664][-0.203014,-0.894342,0.399232][0.403017,0.660227,0][0.75076,-0.86971,-0.130338][0.834936,-0.493183,-0.243401][0.372948,0.696814,0][0.71317,-0.919181,0.123024][-0.57983,-0.7775,-0.245348][0.373947,0.713672,0][0.713149,-0.875071,-0.124575][-0.57983,-0.813526,-0.0437949][0.373949,0.696999,0][1.63594e-17,-0.759214,-0.750525][-0.000486843,-0.368551,-0.929849][0.418482,0.656251,0][0.247658,-0.777785,-0.670664][-0.203014,-0.894342,0.399232][0.403017,0.660227,0][1.5023e-17,-0.770127,-0.713652][-0.00243422,-0.900184,0.434285][0.418482,0.657332,0][0.75076,-0.86971,-0.130338][0.834936,-0.493183,-0.243401][0.372948,0.696814,0][0.750764,-0.91615,0.130317][0.83591,-0.545762,0.0467579][0.372948,0.713862,0][0.71317,-0.919181,0.123024][-0.57983,-0.7775,-0.245348][0.373947,0.713672,0][-0.247658,-0.777785,-0.670664][0.20204,-0.894342,0.399232][0.433947,0.660227,0][1.63594e-17,-0.759214,-0.750525][-0.000486843,-0.368551,-0.929849][0.418482,0.656251,0][1.5023e-17,-0.770127,-0.713652][-0.00243422,-0.900184,0.434285][0.418482,0.657332,0][0.750764,-0.91615,0.130317][0.83591,-0.545762,0.0467579][0.372948,0.713862,0][0.627168,-0.960633,0.355705][-0.509725,-0.743421,-0.433269][0.379317,0.72934,0][0.71317,-0.919181,0.123024][-0.57983,-0.7775,-0.245348][0.373947,0.713672,0][1.63594e-17,-0.759214,-0.750525][-0.000486843,-0.368551,-0.929849][0.418482,0.656251,0][-0.247658,-0.777785,-0.670664][0.20204,-0.894342,0.399232][0.433947,0.660227,0][-0.260733,-0.767278,-0.705264][-0.289672,-0.377315,-0.879218][0.434296,0.659212,0][0.750764,-0.91615,0.130317][0.83591,-0.545762,0.0467579][0.372948,0.713862,0][0.660214,-0.959789,0.375254][0.736594,-0.59542,0.320364][0.37844,0.729881,0][0.627168,-0.960633,0.355705][-0.509725,-0.743421,-0.433269][0.379317,0.72934,0][-0.465452,-0.799837,-0.546882][0.379251,-0.875842,0.297969][0.447548,0.668562,0][-0.260733,-0.767278,-0.705264][-0.289672,-0.377315,-0.879218][0.434296,0.659212,0][-0.247658,-0.777785,-0.670664][0.20204,-0.894342,0.399232][0.433947,0.660227,0][0.660214,-0.959789,0.375254][0.736594,-0.59542,0.320364][0.37844,0.729881,0][0.465511,-0.994427,0.545397][-0.379251,-0.715184,-0.587112][0.389412,0.742115,0][0.627168,-0.960633,0.355705][-0.509725,-0.743421,-0.433269][0.379317,0.72934,0][-0.260733,-0.767278,-0.705264][-0.289672,-0.377315,-0.879218][0.434296,0.659212,0][-0.465452,-0.799837,-0.546882][0.379251,-0.875842,0.297969][0.447548,0.668562,0][-0.490019,-0.790497,-0.57494][-0.543804,-0.403604,-0.735112][0.448203,0.667735,0][0.660214,-0.959789,0.375254][0.736594,-0.59542,0.320364][0.37844,0.729881,0][0.49003,-0.995365,0.574931][0.546725,-0.636315,0.544312][0.388762,0.74294,0][0.465511,-0.994427,0.545397][-0.379251,-0.715184,-0.587112][0.389412,0.742115,0][0.26074,-1.01858,0.705261][0.287724,-0.639236,0.713733][0.402668,0.751464,0][0.465511,-0.994427,0.545397][-0.379251,-0.715184,-0.587112][0.389412,0.742115,0][0.49003,-0.995365,0.574931][0.546725,-0.636315,0.544312][0.388762,0.74294,0][0.465511,-0.994427,0.545397][-0.379251,-0.715184,-0.587112][0.389412,0.742115,0][0.26074,-1.01858,0.705261][0.287724,-0.639236,0.713733][0.402668,0.751464,0][0.248029,-1.01728,0.669997][-0.176724,-0.774579,-0.606586][0.403014,0.750453,0][-0.627116,-0.833624,-0.35723][0.508751,-0.848579,0.1451][0.457643,0.681332,0][-0.490019,-0.790497,-0.57494][-0.543804,-0.403604,-0.735112][0.448203,0.667735,0][-0.465452,-0.799837,-0.546882][0.379251,-0.875842,0.297969][0.447548,0.668562,0][-0.490019,-0.790497,-0.57494][-0.543804,-0.403604,-0.735112][0.448203,0.667735,0][-0.627116,-0.833624,-0.35723][0.508751,-0.848579,0.1451][0.457643,0.681332,0][-0.660204,-0.826072,-0.375271][-0.733672,-0.443525,-0.515059][0.458525,0.680795,0][-0.713149,-0.875071,-0.124575][0.578856,-0.8145,-0.0437949][0.463016,0.696999,0][-0.660204,-0.826072,-0.375271][-0.733672,-0.443525,-0.515059][0.458525,0.680795,0][-0.627116,-0.833624,-0.35723][0.508751,-0.848579,0.1451][0.457643,0.681332,0][-0.660204,-0.826072,-0.375271][-0.733672,-0.443525,-0.515059][0.458525,0.680795,0][-0.713149,-0.875071,-0.124575][0.578856,-0.8145,-0.0437949][0.463016,0.696999,0][-0.75076,-0.86971,-0.130338][-0.83591,-0.493183,-0.243401][0.464017,0.696814,0][-0.71317,-0.919181,0.123024][0.578856,-0.7775,-0.245348][0.463017,0.713672,0][-0.75076,-0.86971,-0.130338][-0.83591,-0.493183,-0.243401][0.464017,0.696814,0][-0.713149,-0.875071,-0.124575][0.578856,-0.8145,-0.0437949][0.463016,0.696999,0][-0.75076,-0.86971,-0.130338][-0.83591,-0.493183,-0.243401][0.464017,0.696814,0][-0.71317,-0.919181,0.123024][0.578856,-0.7775,-0.245348][0.463017,0.713672,0][-0.750764,-0.91615,0.130317][-0.836883,-0.545762,0.0467579][0.464017,0.713862,0][-0.627168,-0.960633,0.355705][0.508751,-0.743421,-0.434243][0.457647,0.72934,0][-0.750764,-0.91615,0.130317][-0.836883,-0.545762,0.0467579][0.464017,0.713862,0][-0.71317,-0.919181,0.123024][0.578856,-0.7775,-0.245348][0.463017,0.713672,0][-0.750764,-0.91615,0.130317][-0.836883,-0.545762,0.0467579][0.464017,0.713862,0][-0.627168,-0.960633,0.355705][0.508751,-0.743421,-0.434243][0.457647,0.72934,0][-0.660214,-0.959789,0.375254][-0.737567,-0.59542,0.31939][0.458525,0.729881,0][-0.465511,-0.994427,0.545397][0.377303,-0.715184,-0.588085][0.447552,0.742115,0][-0.660214,-0.959789,0.375254][-0.737567,-0.59542,0.31939][0.458525,0.729881,0][-0.627168,-0.960633,0.355705][0.508751,-0.743421,-0.434243][0.457647,0.72934,0][-0.660214,-0.959789,0.375254][-0.737567,-0.59542,0.31939][0.458525,0.729881,0][-0.465511,-0.994427,0.545397][0.377303,-0.715184,-0.588085][0.447552,0.742115,0][-0.49003,-0.995365,0.574931][-0.548672,-0.635341,0.543338][0.448203,0.74294,0][-0.465511,-0.994427,0.545397][0.377303,-0.715184,-0.588085][0.447552,0.742115,0][-0.26074,-1.01858,0.705261][-0.292593,-0.662605,0.689391][0.434296,0.751464,0][-0.49003,-0.995365,0.574931][-0.548672,-0.635341,0.543338][0.448203,0.74294,0][-0.26074,-1.01858,0.705261][-0.292593,-0.662605,0.689391][0.434296,0.751464,0][-0.465511,-0.994427,0.545397][0.377303,-0.715184,-0.588085][0.447552,0.742115,0][-0.247697,-1.01648,0.669215][0.201066,-0.697657,-0.688375][0.43395,0.750453,0][-0.247697,-1.01648,0.669215][0.201066,-0.697657,-0.688375][0.43395,0.750453,0][-1.6392e-17,-1.02665,0.750525][0.00925002,-0.647999,0.761443][0.418482,0.754425,0][-0.26074,-1.01858,0.705261][-0.292593,-0.662605,0.689391][0.434296,0.751464,0][-1.6392e-17,-1.02665,0.750525][0.00925002,-0.647999,0.761443][0.418482,0.754425,0][-0.247697,-1.01648,0.669215][0.201066,-0.697657,-0.688375][0.43395,0.750453,0][-1.61842e-17,-1.02495,0.713057][0.00827633,-0.768736,-0.638717][0.418482,0.753348,0][-0.067892,0.882363,0.303191][-0.102724,0.97903,0.177232][0.270303,0.268619,0][-0.224063,0.860342,0.3341][-0.102724,0.97903,0.177232][0.396349,0.255589,0][-0.067892,0.876228,0.336984][-0.102724,0.97903,0.177232][0.270303,0.268619,0][-0.224063,0.860342,0.3341][-0.102724,0.97903,0.177232][0.396349,0.255589,0][-0.067892,0.882363,0.303191][-0.102724,0.97903,0.177232][0.270303,0.268619,0][-0.224063,0.866478,0.300307][-0.102724,0.97903,0.177232][0.396349,0.255589,0][0.067892,0.882363,0.303191][0.102724,0.97903,0.177232][0.160711,0.268619,0][0.224063,0.860342,0.3341][0.102724,0.97903,0.177232][0.034665,0.255589,0][0.224063,0.866478,0.300307][0.102724,0.97903,0.177232][0.034665,0.255589,0][0.224063,0.860342,0.3341][0.102724,0.97903,0.177232][0.034665,0.255589,0][0.067892,0.882363,0.303191][0.102724,0.97903,0.177232][0.160711,0.268619,0][0.067892,0.876228,0.336984][0.102724,0.97903,0.177232][0.160711,0.268619,0][1.98907e-16,0.731396,0.26007][0.000486843,0.983899,0.178206][0.717945,0.015252,0][0.02826,0.722652,0.30823][0.000486843,0.983899,0.178206][0.665834,0.10551,0][0.02826,0.728481,0.276123][0.000486843,0.983899,0.178206][0.665834,0.045338,0][0.02826,0.722652,0.30823][0.000486843,0.983899,0.178206][0.665834,0.10551,0][1.98907e-16,0.731396,0.26007][0.000486843,0.983899,0.178206][0.717945,0.015252,0][1.97479e-16,0.719737,0.324284][0.000486843,0.983899,0.178206][0.717945,0.135596,0][1.98907e-16,0.731396,0.26007][0.000486843,0.983899,0.178206][0.717945,0.015252,0][-0.02826,0.722652,0.30823][0.000486843,0.983899,0.178206][0.770056,0.10551,0][1.97479e-16,0.719737,0.324284][0.000486843,0.983899,0.178206][0.717945,0.135596,0][-0.02826,0.722652,0.30823][0.000486843,0.983899,0.178206][0.770056,0.10551,0][1.98907e-16,0.731396,0.26007][0.000486843,0.983899,0.178206][0.717945,0.015252,0][-0.02826,0.728481,0.276123][0.000486843,0.983899,0.178206][0.770056,0.045338,0][0.224063,0.860342,0.3341][0.0598817,0.427924,0.901654][0.034665,0.255589,0][0.067892,0.876228,0.336984][0.0598817,0.427924,0.901654][0.160711,0.268619,0][2.04419e-16,0.776412,0.388836][0.0598817,0.427924,0.901654][0.215507,0.196829,0][0.067892,0.882363,0.303191][0.0598817,0.717109,-0.694217][0.160711,0.268619,0][0.224063,0.866478,0.300307][0.0598817,0.717109,-0.694217][0.034665,0.255589,0][2.08183e-16,0.807146,0.21956][0.0598817,0.717109,-0.694217][0.215507,0.196829,0][-0.224063,0.866478,0.300307][-0.0598817,0.717109,-0.694217][0.396349,0.255589,0][-0.067892,0.882363,0.303191][-0.0598817,0.717109,-0.694217][0.270303,0.268619,0][2.08183e-16,0.807146,0.21956][-0.0598817,0.717109,-0.694217][0.215507,0.196829,0][-0.067892,0.876228,0.336984][-0.0598817,0.427924,0.901654][0.270303,0.268619,0][-0.224063,0.860342,0.3341][-0.0598817,0.427924,0.901654][0.396349,0.255589,0][2.04419e-16,0.776412,0.388836][-0.0598817,0.427924,0.901654][0.215507,0.196829,0][2.35065e-16,1.02665,0.329388][0.906989,0.413319,0.0749948][0.215507,0.386978,0][0.067892,0.876228,0.336984][0.906989,0.413319,0.0749948][0.160711,0.268619,0][0.067892,0.882363,0.303191][0.906989,0.413319,0.0749948][0.160711,0.268619,0][0.067892,0.876228,0.336984][0.906989,0.413319,0.0749948][0.160711,0.268619,0][2.35065e-16,1.02665,0.329388][0.906989,0.413319,0.0749948][0.215507,0.386978,0][2.34313e-16,1.02051,0.363181][0.906989,0.413319,0.0749948][0.215507,0.386978,0][2.35065e-16,1.02665,0.329388][-0.906989,0.413319,0.0749948][0.215507,0.386978,0][-0.067892,0.876228,0.336984][-0.906989,0.413319,0.0749948][0.270303,0.268619,0][2.34313e-16,1.02051,0.363181][-0.906989,0.413319,0.0749948][0.215507,0.386978,0][-0.067892,0.876228,0.336984][-0.906989,0.413319,0.0749948][0.270303,0.268619,0][2.35065e-16,1.02665,0.329388][-0.906989,0.413319,0.0749948][0.215507,0.386978,0][-0.067892,0.882363,0.303191][-0.906989,0.413319,0.0749948][0.270303,0.268619,0][-0.284866,0.255917,0.037654][-0.525304,0.833951,-0.170374][0.635318,0.936656,0][-0.660204,-0.826072,-0.375271][-0.733672,-0.443525,-0.515059][0.635318,0.434788,0][-0.75076,-0.86971,-0.130338][-0.83591,-0.493183,-0.243401][0.687844,0.434788,0][-0.284866,0.255917,0.037654][-0.525304,0.833951,-0.170374][0.635318,0.936656,0][-0.75076,-0.86971,-0.130338][-0.83591,-0.493183,-0.243401][0.687844,0.434788,0][-0.32395,0.238184,0.143525][-0.59833,0.800846,0.0243631][0.687844,0.936656,0][-0.211429,0.270373,-0.048648][-0.388988,0.860241,-0.328111][0.582792,0.936656,0][-0.490019,-0.790497,-0.57494][-0.543804,-0.403604,-0.735112][0.582792,0.434788,0][-0.660204,-0.826072,-0.375271][-0.733672,-0.443525,-0.515059][0.635318,0.434788,0][-0.211429,0.270373,-0.048648][-0.388988,0.860241,-0.328111][0.582792,0.936656,0][-0.660204,-0.826072,-0.375271][-0.733672,-0.443525,-0.515059][0.635318,0.434788,0][-0.284866,0.255917,0.037654][-0.525304,0.833951,-0.170374][0.635318,0.936656,0][-0.260733,-0.767278,-0.705264][-0.289672,-0.377315,-0.879218][0.530266,0.434788,0][-0.211429,0.270373,-0.048648][-0.388988,0.860241,-0.328111][0.582792,0.936656,0][-0.112497,0.279807,-0.104975][-0.205935,0.888477,-0.409901][0.530266,0.936656,0][-0.211429,0.270373,-0.048648][-0.388988,0.860241,-0.328111][0.582792,0.936656,0][-0.260733,-0.767278,-0.705264][-0.289672,-0.377315,-0.879218][0.530266,0.434788,0][-0.490019,-0.790497,-0.57494][-0.543804,-0.403604,-0.735112][0.582792,0.434788,0][1.63594e-17,-0.759214,-0.750525][-0.000486843,-0.368551,-0.929849][0.47774,0.434788,0][-0.112497,0.279807,-0.104975][-0.205935,0.888477,-0.409901][0.530266,0.936656,0][1.44004e-16,0.283084,-0.124536][0.00438159,0.895293,-0.445927][0.47774,0.936656,0][-0.112497,0.279807,-0.104975][-0.205935,0.888477,-0.409901][0.530266,0.936656,0][1.63594e-17,-0.759214,-0.750525][-0.000486843,-0.368551,-0.929849][0.47774,0.434788,0][-0.260733,-0.767278,-0.705264][-0.289672,-0.377315,-0.879218][0.530266,0.434788,0][0.112497,0.279807,-0.104975][0.204961,0.878741,-0.431322][0.425214,0.936656,0][1.63594e-17,-0.759214,-0.750525][-0.000486843,-0.368551,-0.929849][0.47774,0.434788,0][1.44004e-16,0.283084,-0.124536][0.00438159,0.895293,-0.445927][0.47774,0.936656,0][1.63594e-17,-0.759214,-0.750525][-0.000486843,-0.368551,-0.929849][0.47774,0.434788,0][0.112497,0.279807,-0.104975][0.204961,0.878741,-0.431322][0.425214,0.936656,0][0.260733,-0.767278,-0.705264][0.287724,-0.378288,-0.880191][0.425214,0.434788,0][0.211429,0.270373,-0.048648][0.38704,0.861214,-0.328111][0.372688,0.936656,0][0.260733,-0.767278,-0.705264][0.287724,-0.378288,-0.880191][0.425214,0.434788,0][0.112497,0.279807,-0.104975][0.204961,0.878741,-0.431322][0.425214,0.936656,0][0.260733,-0.767278,-0.705264][0.287724,-0.378288,-0.880191][0.425214,0.434788,0][0.211429,0.270373,-0.048648][0.38704,0.861214,-0.328111][0.372688,0.936656,0][0.490019,-0.790497,-0.57494][0.54283,-0.404578,-0.736086][0.372688,0.434788,0][0.211429,0.270373,-0.048648][0.38704,0.861214,-0.328111][0.372688,0.936656,0][0.660204,-0.826072,-0.375271][0.732699,-0.444499,-0.515059][0.320162,0.434788,0][0.490019,-0.790497,-0.57494][0.54283,-0.404578,-0.736086][0.372688,0.434788,0][0.660204,-0.826072,-0.375271][0.732699,-0.444499,-0.515059][0.320162,0.434788,0][0.211429,0.270373,-0.048648][0.38704,0.861214,-0.328111][0.372688,0.936656,0][0.284866,0.255917,0.037654][0.523356,0.834925,-0.170374][0.320162,0.936656,0][0.284866,0.255917,0.037654][0.523356,0.834925,-0.170374][0.320162,0.936656,0][0.75076,-0.86971,-0.130338][0.834936,-0.493183,-0.243401][0.267636,0.434788,0][0.660204,-0.826072,-0.375271][0.732699,-0.444499,-0.515059][0.320162,0.434788,0][0.75076,-0.86971,-0.130338][0.834936,-0.493183,-0.243401][0.267636,0.434788,0][0.284866,0.255917,0.037654][0.523356,0.834925,-0.170374][0.320162,0.936656,0][0.32395,0.238184,0.143525][0.596383,0.801819,0.0243631][0.267636,0.936656,0][-0.11252,0.177677,0.50476][-0.210803,0.687898,0.694259][0.897949,0.936656,0][-0.26074,-1.01858,0.705261][-0.292593,-0.662605,0.689391][0.897949,0.434788,0][-1.6392e-17,-1.02665,0.750525][0.00925002,-0.647999,0.761443][0.950475,0.434788,0][-1.6392e-17,-1.02665,0.750525][0.00925002,-0.647999,0.761443][0.950475,0.434788,0][1.30694e-16,0.174398,0.52433][-0.00146053,0.682056,0.731259][0.950475,0.936656,0][-0.11252,0.177677,0.50476][-0.210803,0.687898,0.694259][0.897949,0.936656,0][-0.211465,0.187115,0.448412][-0.393856,0.705424,0.589101][0.845423,0.936656,0][-0.49003,-0.995365,0.574931][-0.548672,-0.635341,0.543338][0.845423,0.434788,0][-0.26074,-1.01858,0.705261][-0.292593,-0.662605,0.689391][0.897949,0.434788,0][-0.26074,-1.01858,0.705261][-0.292593,-0.662605,0.689391][0.897949,0.434788,0][-0.11252,0.177677,0.50476][-0.210803,0.687898,0.694259][0.897949,0.936656,0][-0.211465,0.187115,0.448412][-0.393856,0.705424,0.589101][0.845423,0.936656,0][-0.660214,-0.959789,0.375254][-0.737567,-0.59542,0.31939][0.792897,0.434788,0][-0.211465,0.187115,0.448412][-0.393856,0.705424,0.589101][0.845423,0.936656,0][-0.284897,0.201575,0.362087][-0.529198,0.732688,0.428443][0.792897,0.936656,0][-0.211465,0.187115,0.448412][-0.393856,0.705424,0.589101][0.845423,0.936656,0][-0.660214,-0.959789,0.375254][-0.737567,-0.59542,0.31939][0.792897,0.434788,0][-0.49003,-0.995365,0.574931][-0.548672,-0.635341,0.543338][0.845423,0.434788,0][-0.750764,-0.91615,0.130317][-0.836883,-0.545762,0.0467579][0.74037,0.434788,0][-0.284897,0.201575,0.362087][-0.529198,0.732688,0.428443][0.792897,0.936656,0][-0.323962,0.219311,0.2562][-0.600278,0.765793,0.231758][0.74037,0.936656,0][-0.284897,0.201575,0.362087][-0.529198,0.732688,0.428443][0.792897,0.936656,0][-0.750764,-0.91615,0.130317][-0.836883,-0.545762,0.0467579][0.74037,0.434788,0][-0.660214,-0.959789,0.375254][-0.737567,-0.59542,0.31939][0.792897,0.434788,0][-0.32395,0.238184,0.143525][-0.59833,0.800846,0.0243631][0.687844,0.936656,0][-0.75076,-0.86971,-0.130338][-0.83591,-0.493183,-0.243401][0.687844,0.434788,0][-0.750764,-0.91615,0.130317][-0.836883,-0.545762,0.0467579][0.74037,0.434788,0][-0.32395,0.238184,0.143525][-0.59833,0.800846,0.0243631][0.687844,0.936656,0][-0.750764,-0.91615,0.130317][-0.836883,-0.545762,0.0467579][0.74037,0.434788,0][-0.323962,0.219311,0.2562][-0.600278,0.765793,0.231758][0.74037,0.936656,0][0.32395,0.238184,0.143525][0.596383,0.801819,0.0243631][0.267636,0.936656,0][0.750764,-0.91615,0.130317][0.83591,-0.545762,0.0467579][0.21511,0.434788,0][0.75076,-0.86971,-0.130338][0.834936,-0.493183,-0.243401][0.267636,0.434788,0][0.750764,-0.91615,0.130317][0.83591,-0.545762,0.0467579][0.21511,0.434788,0][0.32395,0.238184,0.143525][0.596383,0.801819,0.0243631][0.267636,0.936656,0][0.323962,0.219311,0.2562][0.59833,0.766767,0.231758][0.21511,0.936656,0][0.284897,0.201575,0.362087][0.527251,0.733661,0.428443][0.162584,0.936656,0][0.750764,-0.91615,0.130317][0.83591,-0.545762,0.0467579][0.21511,0.434788,0][0.323962,0.219311,0.2562][0.59833,0.766767,0.231758][0.21511,0.936656,0][0.750764,-0.91615,0.130317][0.83591,-0.545762,0.0467579][0.21511,0.434788,0][0.284897,0.201575,0.362087][0.527251,0.733661,0.428443][0.162584,0.936656,0][0.660214,-0.959789,0.375254][0.736594,-0.59542,0.320364][0.162584,0.434788,0][0.660214,-0.959789,0.375254][0.736594,-0.59542,0.320364][0.162584,0.434788,0][0.284897,0.201575,0.362087][0.527251,0.733661,0.428443][0.162584,0.936656,0][0.211465,0.187115,0.448412][0.391909,0.706398,0.590075][0.110058,0.936656,0][0.660214,-0.959789,0.375254][0.736594,-0.59542,0.320364][0.162584,0.434788,0][0.211465,0.187115,0.448412][0.391909,0.706398,0.590075][0.110058,0.936656,0][0.49003,-0.995365,0.574931][0.546725,-0.636315,0.544312][0.110058,0.434788,0][0.26074,-1.01858,0.705261][0.287724,-0.639236,0.713733][0.057532,0.434788,0][0.211465,0.187115,0.448412][0.391909,0.706398,0.590075][0.110058,0.936656,0][0.11252,0.177677,0.50476][0.207882,0.688872,0.695233][0.057532,0.936656,0][0.211465,0.187115,0.448412][0.391909,0.706398,0.590075][0.110058,0.936656,0][0.26074,-1.01858,0.705261][0.287724,-0.639236,0.713733][0.057532,0.434788,0][0.49003,-0.995365,0.574931][0.546725,-0.636315,0.544312][0.110058,0.434788,0][-1.6392e-17,-1.02665,0.750525][0.00925002,-0.647999,0.761443][0.005006,0.434788,0][0.11252,0.177677,0.50476][0.207882,0.688872,0.695233][0.057532,0.936656,0][1.30694e-16,0.174398,0.52433][-0.00146053,0.682056,0.731259][0.005006,0.936656,0][0.11252,0.177677,0.50476][0.207882,0.688872,0.695233][0.057532,0.936656,0][-1.6392e-17,-1.02665,0.750525][0.00925002,-0.647999,0.761443][0.005006,0.434788,0][0.26074,-1.01858,0.705261][0.287724,-0.639236,0.713733][0.057532,0.434788,0][0.008996,0.558071,0.223206][0.996568,0.083239,2.09442e-05][0.585919,0.337151,0][-0.008996,0.544265,0.234742][-0.536988,-0.149472,0.829602][0.556543,0.307776,0][0.008996,0.544265,0.234742][0.536988,-0.149472,0.829602][0.585919,0.307776,0][-0.008996,0.544265,0.234742][-0.536988,-0.149472,0.829602][0.556543,0.307776,0][0.008996,0.558071,0.223206][0.996568,0.083239,2.09442e-05][0.585919,0.337151,0][-0.008996,0.558071,0.223206][-0.996568,0.083239,2.09442e-05][0.556543,0.337151,0][0.023418,0.541866,0.247952][-0.216645,-0.173814,0.961049][0.585919,0.307776,0][0.020466,0.557222,0.227881][-0.693751,0.207871,-0.689349][0.556543,0.337151,0][0.010696,0.544139,0.235435][-0.97612,-0.0374981,0.213258][0.556543,0.307776,0][0.020466,0.557222,0.227881][-0.693751,0.207871,-0.689349][0.556543,0.337151,0][0.023418,0.541866,0.247952][-0.216645,-0.173814,0.961049][0.585919,0.307776,0][0.033188,0.554949,0.240398][0.715172,-0.0443139,0.69718][0.585919,0.337151,0][0.037939,0.5529,0.251684][0.0150921,0.258502,-0.965876][0.556543,0.337151,0][0.024123,0.538348,0.267328][-0.843699,-0.0949456,0.528733][0.585919,0.307776,0][0.037939,0.549686,0.269386][0.0150921,-0.0978666,0.995128][0.585919,0.337151,0][0.024123,0.538348,0.267328][-0.843699,-0.0949456,0.528733][0.585919,0.307776,0][0.037939,0.5529,0.251684][0.0150921,0.258502,-0.965876][0.556543,0.337151,0][0.024123,0.541562,0.249626][-0.843699,0.0968706,-0.528691][0.556543,0.307776,0][0.033188,0.547637,0.280672][0.715172,0.203976,-0.668901][0.556543,0.337151,0][0.010696,0.535772,0.281518][-0.97612,0.0394231,-0.212243][0.585919,0.307776,0][0.020466,0.545364,0.293189][-0.693751,-0.047235,0.718601][0.585919,0.337151,0][0.010696,0.535772,0.281518][-0.97612,0.0394231,-0.212243][0.585919,0.307776,0][0.033188,0.547637,0.280672][0.715172,0.203976,-0.668901][0.556543,0.337151,0][0.023418,0.538045,0.269001][-0.216645,0.175739,-0.960034][0.556543,0.307776,0][-0.008996,0.535646,0.282211][-0.536988,0.151397,-0.82956][0.585919,0.307776,0][-0.008996,0.544516,0.297864][-0.996568,0.0773969,0.0292315][0.585919,0.337151,0][0.008996,0.535646,0.282211][0.536988,0.151397,-0.82956][0.556543,0.307776,0][0.008996,0.535646,0.282211][0.536988,0.151397,-0.82956][0.556543,0.307776,0][-0.008996,0.544516,0.297864][-0.996568,0.0773969,0.0292315][0.585919,0.337151,0][0.008996,0.544516,0.297864][0.996568,0.0773969,0.0292315][0.556543,0.337151,0][-0.033188,0.547637,0.280672][-0.715172,0.203976,-0.668901][0.585919,0.337151,0][-0.020466,0.545364,0.293189][0.693751,-0.047235,0.718601][0.556543,0.337151,0][-0.010696,0.535772,0.281518][0.97612,0.0394231,-0.212243][0.556543,0.307776,0][-0.010696,0.535772,0.281518][0.97612,0.0394231,-0.212243][0.556543,0.307776,0][-0.023418,0.538045,0.269001][0.216645,0.175739,-0.960034][0.585919,0.307776,0][-0.033188,0.547637,0.280672][-0.715172,0.203976,-0.668901][0.585919,0.337151,0][-0.037939,0.5529,0.251684][-0.0150921,0.258502,-0.965876][0.585919,0.337151,0][-0.024123,0.538348,0.267328][0.843699,-0.0949456,0.528733][0.556543,0.307776,0][-0.024123,0.541562,0.249626][0.843699,0.0968706,-0.528691][0.585919,0.307776,0][-0.024123,0.538348,0.267328][0.843699,-0.0949456,0.528733][0.556543,0.307776,0][-0.037939,0.5529,0.251684][-0.0150921,0.258502,-0.965876][0.585919,0.337151,0][-0.037939,0.549686,0.269386][-0.0150921,-0.0978666,0.995128][0.556543,0.337151,0][-0.023418,0.541866,0.247952][0.216645,-0.173814,0.961049][0.556543,0.307776,0][-0.010696,0.544139,0.235435][0.97612,-0.0374981,0.213258][0.585919,0.307776,0][-0.020466,0.557222,0.227881][0.693751,0.207871,-0.689349][0.585919,0.337151,0][-0.023418,0.541866,0.247952][0.216645,-0.173814,0.961049][0.556543,0.307776,0][-0.020466,0.557222,0.227881][0.693751,0.207871,-0.689349][0.585919,0.337151,0][-0.033188,0.554949,0.240398][-0.715172,-0.0443139,0.69718][0.556543,0.337151,0][2.35065e-16,1.02665,0.329388][0.518488,0.383134,-0.765296][0.215507,0.386978,0][0.067892,0.882363,0.303191][0.518488,0.383134,-0.765296][0.160711,0.268619,0][2.08183e-16,0.807146,0.21956][0.518488,0.383134,-0.765296][0.215507,0.196829,0][-0.067892,0.882363,0.303191][-0.518488,0.383134,-0.765296][0.270303,0.268619,0][2.35065e-16,1.02665,0.329388][-0.518488,0.383134,-0.765296][0.215507,0.386978,0][2.08183e-16,0.807146,0.21956][-0.518488,0.383134,-0.765296][0.215507,0.196829,0][2.34313e-16,1.02051,0.363181][-0.518488,0.0890811,0.851023][0.215507,0.386978,0][-0.067892,0.876228,0.336984][-0.518488,0.0890811,0.851023][0.270303,0.268619,0][2.04419e-16,0.776412,0.388836][-0.518488,0.0890811,0.851023][0.215507,0.196829,0][0.067892,0.876228,0.336984][0.518488,0.0890811,0.851023][0.160711,0.268619,0][2.34313e-16,1.02051,0.363181][0.518488,0.0890811,0.851023][0.215507,0.386978,0][2.04419e-16,0.776412,0.388836][0.518488,0.0890811,0.851023][0.215507,0.196829,0][-0.109852,0.761418,0.281232][-0.98391,0.176713,0.0321526][0.304169,0.169408,0][-0.138478,0.601178,0.287046][-0.98391,0.176713,0.0321526][0.327274,0.042996,0][-0.109852,0.755283,0.315025][-0.98391,0.176713,0.0321526][0.304169,0.169408,0][-0.138478,0.601178,0.287046][-0.98391,0.176713,0.0321526][0.327274,0.042996,0][-0.109852,0.761418,0.281232][-0.98391,0.176713,0.0321526][0.304169,0.169408,0][-0.138478,0.607313,0.253253][-0.98391,0.176713,0.0321526][0.327274,0.042996,0][0.109852,0.761418,0.281232][0.98391,0.176713,0.0321526][0.126845,0.169408,0][0.138478,0.601178,0.287046][0.98391,0.176713,0.0321526][0.103741,0.042996,0][0.138478,0.607313,0.253253][0.98391,0.176713,0.0321526][0.103741,0.042996,0][0.138478,0.601178,0.287046][0.98391,0.176713,0.0321526][0.103741,0.042996,0][0.109852,0.761418,0.281232][0.98391,0.176713,0.0321526][0.126845,0.169408,0][0.109852,0.755283,0.315025][0.98391,0.176713,0.0321526][0.126845,0.169408,0][0.023418,0.541866,0.247952][-0.216645,-0.173814,0.961049][0.556543,0.2784,0][0.225844,0.240288,-0.012538][0.693751,-0.207893,0.689391][0.527167,0.2784,0][0.235614,0.253371,-0.020093][0.97612,0.0374757,-0.213216][0.527167,0.249025,0][0.023418,0.541866,0.247952][-0.216645,-0.173814,0.961049][0.556543,0.2784,0][0.235614,0.253371,-0.020093][0.97612,0.0374757,-0.213216][0.527167,0.249025,0][0.033188,0.554949,0.240398][0.715172,-0.0443139,0.69718][0.556543,0.249025,0][0.010696,0.544139,0.235435][-0.97612,-0.0374981,0.213258][0.556543,0.307776,0][0.225844,0.240288,-0.012538][0.693751,-0.207893,0.689391][0.527167,0.2784,0][0.023418,0.541866,0.247952][-0.216645,-0.173814,0.961049][0.556543,0.2784,0][0.225844,0.240288,-0.012538][0.693751,-0.207893,0.689391][0.527167,0.2784,0][0.010696,0.544139,0.235435][-0.97612,-0.0374981,0.213258][0.556543,0.307776,0][0.213123,0.242561,-0.025055][-0.715172,0.0442915,-0.697138][0.527167,0.307776,0][0.010696,0.544139,0.235435][-0.97612,-0.0374981,0.213258][0.556543,0.307776,0][0.222893,0.255644,-0.03261][0.216645,0.173792,-0.961007][0.527167,0.337151,0][0.213123,0.242561,-0.025055][-0.715172,0.0442915,-0.697138][0.527167,0.307776,0][0.222893,0.255644,-0.03261][0.216645,0.173792,-0.961007][0.527167,0.337151,0][0.010696,0.544139,0.235435][-0.97612,-0.0374981,0.213258][0.556543,0.307776,0][0.020466,0.557222,0.227881][-0.693751,0.207871,-0.689349][0.556543,0.337151,0][0.020466,0.557222,0.227881][-0.693751,0.207871,-0.689349][0.556543,0.337151,0][0.235614,0.253371,-0.020093][0.97612,0.0374757,-0.213216][0.527167,0.366527,0][0.222893,0.255644,-0.03261][0.216645,0.173792,-0.961007][0.527167,0.337151,0][0.235614,0.253371,-0.020093][0.97612,0.0374757,-0.213216][0.527167,0.366527,0][0.020466,0.557222,0.227881][-0.693751,0.207871,-0.689349][0.556543,0.337151,0][0.033188,0.554949,0.240398][0.715172,-0.0443139,0.69718][0.556543,0.366527,0][-0.008996,0.535646,0.282211][-0.536988,0.151397,-0.82956][0.556543,0.2784,0][-0.008996,0.146766,0.50256][-0.996568,-0.0774192,-0.0291896][0.527167,0.2784,0][-0.008996,0.155635,0.518213][-0.536988,-0.151419,0.829602][0.527167,0.249025,0][-0.008996,0.155635,0.518213][-0.536988,-0.151419,0.829602][0.527167,0.249025,0][-0.008996,0.544516,0.297864][-0.996568,0.0773969,0.0292315][0.556543,0.249025,0][-0.008996,0.535646,0.282211][-0.536988,0.151397,-0.82956][0.556543,0.2784,0][0.008996,0.535646,0.282211][0.536988,0.151397,-0.82956][0.556543,0.307776,0][-0.008996,0.146766,0.50256][-0.996568,-0.0774192,-0.0291896][0.527167,0.2784,0][-0.008996,0.535646,0.282211][-0.536988,0.151397,-0.82956][0.556543,0.2784,0][-0.008996,0.146766,0.50256][-0.996568,-0.0774192,-0.0291896][0.527167,0.2784,0][0.008996,0.535646,0.282211][0.536988,0.151397,-0.82956][0.556543,0.307776,0][0.008996,0.146766,0.50256][0.996568,-0.0774192,-0.0291896][0.527167,0.307776,0][0.008996,0.535646,0.282211][0.536988,0.151397,-0.82956][0.556543,0.307776,0][0.008996,0.155635,0.518213][0.536988,-0.151419,0.829602][0.527167,0.337151,0][0.008996,0.146766,0.50256][0.996568,-0.0774192,-0.0291896][0.527167,0.307776,0][0.008996,0.155635,0.518213][0.536988,-0.151419,0.829602][0.527167,0.337151,0][0.008996,0.535646,0.282211][0.536988,0.151397,-0.82956][0.556543,0.307776,0][0.008996,0.544516,0.297864][0.996568,0.0773969,0.0292315][0.556543,0.337151,0][0.008996,0.155635,0.518213][0.536988,-0.151419,0.829602][0.527167,0.337151,0][0.008996,0.544516,0.297864][0.996568,0.0773969,0.0292315][0.556543,0.337151,0][-0.008996,0.544516,0.297864][-0.996568,0.0773969,0.0292315][0.556543,0.366527,0][-0.008996,0.544516,0.297864][-0.996568,0.0773969,0.0292315][0.556543,0.366527,0][-0.008996,0.155635,0.518213][-0.536988,-0.151419,0.829602][0.527167,0.366527,0][0.008996,0.155635,0.518213][0.536988,-0.151419,0.829602][0.527167,0.337151,0][-0.02826,0.722652,0.30823][-0.483435,0.10466,0.869523][0.931445,0.336645,0][-0.089064,0.492161,0.302061][-0.483435,0.10466,0.869523][0.931445,0.174868,0][1.68484e-16,0.482975,0.352654][-0.483435,0.10466,0.869523][0.985371,0.174868,0][1.68484e-16,0.482975,0.352654][-0.483435,0.10466,0.869523][0.985371,0.174868,0][1.97479e-16,0.719737,0.324284][-0.483435,0.10466,0.869523][0.985371,0.336645,0][-0.02826,0.722652,0.30823][-0.483435,0.10466,0.869523][0.931445,0.336645,0][-0.02826,0.728481,0.276123][-0.966384,0.253634,0.0457842][0.877519,0.336645,0][-0.089064,0.510532,0.200873][-0.966384,0.253634,0.0457842][0.877519,0.174868,0][-0.089064,0.492161,0.302061][-0.966384,0.253634,0.0457842][0.931445,0.174868,0][-0.02826,0.728481,0.276123][-0.966384,0.253634,0.0457842][0.877519,0.336645,0][-0.089064,0.492161,0.302061][-0.966384,0.253634,0.0457842][0.931445,0.174868,0][-0.02826,0.722652,0.30823][-0.966384,0.253634,0.0457842][0.931445,0.336645,0][1.72983e-16,0.519718,0.150279][-0.483435,0.403582,-0.776981][0.823593,0.174868,0][-0.02826,0.728481,0.276123][-0.483435,0.403582,-0.776981][0.877519,0.336645,0][1.98907e-16,0.731396,0.26007][-0.483435,0.403582,-0.776981][0.823593,0.336645,0][-0.02826,0.728481,0.276123][-0.483435,0.403582,-0.776981][0.877519,0.336645,0][1.72983e-16,0.519718,0.150279][-0.483435,0.403582,-0.776981][0.823593,0.174868,0][-0.089064,0.510532,0.200873][-0.483435,0.403582,-0.776981][0.877519,0.174868,0][0.02826,0.728481,0.276123][0.483435,0.403582,-0.776981][0.769667,0.336645,0][1.72983e-16,0.519718,0.150279][0.483435,0.403582,-0.776981][0.823593,0.174868,0][1.98907e-16,0.731396,0.26007][0.483435,0.403582,-0.776981][0.823593,0.336645,0][1.72983e-16,0.519718,0.150279][0.483435,0.403582,-0.776981][0.823593,0.174868,0][0.02826,0.728481,0.276123][0.483435,0.403582,-0.776981][0.769667,0.336645,0][0.089064,0.510532,0.200873][0.483435,0.403582,-0.776981][0.769667,0.174868,0][0.02826,0.728481,0.276123][0.966384,0.253634,0.0457842][0.769667,0.336645,0][0.089064,0.492161,0.302061][0.966384,0.253634,0.0457842][0.715741,0.174868,0][0.089064,0.510532,0.200873][0.966384,0.253634,0.0457842][0.769667,0.174868,0][0.089064,0.492161,0.302061][0.966384,0.253634,0.0457842][0.715741,0.174868,0][0.02826,0.728481,0.276123][0.966384,0.253634,0.0457842][0.769667,0.336645,0][0.02826,0.722652,0.30823][0.966384,0.253634,0.0457842][0.715741,0.336645,0][1.68484e-16,0.482975,0.352654][0.483435,0.10466,0.869523][0.661815,0.174868,0][0.02826,0.722652,0.30823][0.483435,0.10466,0.869523][0.715741,0.336645,0][1.97479e-16,0.719737,0.324284][0.483435,0.10466,0.869523][0.661815,0.336645,0][0.02826,0.722652,0.30823][0.483435,0.10466,0.869523][0.715741,0.336645,0][1.68484e-16,0.482975,0.352654][0.483435,0.10466,0.869523][0.661815,0.174868,0][0.089064,0.492161,0.302061][0.483435,0.10466,0.869523][0.715741,0.174868,0][-0.310397,0.203823,0.188305][0.0150921,0.0978443,-0.995086][0.527167,0.2784,0][-0.037939,0.5529,0.251684][-0.0150921,0.258502,-0.965876][0.556543,0.249025,0][-0.024123,0.541562,0.249626][0.843699,0.0968706,-0.528691][0.556543,0.2784,0][-0.037939,0.5529,0.251684][-0.0150921,0.258502,-0.965876][0.556543,0.249025,0][-0.310397,0.203823,0.188305][0.0150921,0.0978443,-0.995086][0.527167,0.2784,0][-0.324213,0.21516,0.190363][-0.843699,0.0949232,-0.528691][0.527167,0.249025,0][-0.024123,0.541562,0.249626][0.843699,0.0968706,-0.528691][0.556543,0.2784,0][-0.310397,0.200609,0.206007][0.0150921,-0.258525,0.965918][0.527167,0.307776,0][-0.310397,0.203823,0.188305][0.0150921,0.0978443,-0.995086][0.527167,0.2784,0][-0.310397,0.200609,0.206007][0.0150921,-0.258525,0.965918][0.527167,0.307776,0][-0.024123,0.541562,0.249626][0.843699,0.0968706,-0.528691][0.556543,0.2784,0][-0.024123,0.538348,0.267328][0.843699,-0.0949456,0.528733][0.556543,0.307776,0][-0.037939,0.549686,0.269386][-0.0150921,-0.0978666,0.995128][0.556543,0.337151,0][-0.310397,0.200609,0.206007][0.0150921,-0.258525,0.965918][0.527167,0.307776,0][-0.024123,0.538348,0.267328][0.843699,-0.0949456,0.528733][0.556543,0.307776,0][-0.037939,0.549686,0.269386][-0.0150921,-0.0978666,0.995128][0.556543,0.337151,0][-0.324213,0.211946,0.208065][-0.843699,-0.096893,0.528733][0.527167,0.337151,0][-0.310397,0.200609,0.206007][0.0150921,-0.258525,0.965918][0.527167,0.307776,0][-0.037939,0.5529,0.251684][-0.0150921,0.258502,-0.965876][0.556543,0.366527,0][-0.324213,0.211946,0.208065][-0.843699,-0.096893,0.528733][0.527167,0.337151,0][-0.037939,0.549686,0.269386][-0.0150921,-0.0978666,0.995128][0.556543,0.337151,0][-0.037939,0.5529,0.251684][-0.0150921,0.258502,-0.965876][0.556543,0.366527,0][-0.324213,0.21516,0.190363][-0.843699,0.0949232,-0.528691][0.527167,0.366527,0][-0.324213,0.211946,0.208065][-0.843699,-0.096893,0.528733][0.527167,0.337151,0][0.109852,0.761418,0.281232][0.55062,0.246818,-0.797428][0.126845,0.169408,0][0.138478,0.607313,0.253253][0.55062,0.246818,-0.797428][0.103741,0.042996,0][2.08183e-16,0.807146,0.21956][0.55062,0.246818,-0.797428][0.215507,0.196829,0][-0.138478,0.607313,0.253253][-0.55062,0.246818,-0.797428][0.327274,0.042996,0][-0.109852,0.761418,0.281232][-0.55062,0.246818,-0.797428][0.304169,0.169408,0][2.08183e-16,0.807146,0.21956][-0.55062,0.246818,-0.797428][0.215507,0.196829,0][0.138478,0.601178,0.287046][0.55062,-0.0491823,0.833496][0.103741,0.042996,0][0.109852,0.755283,0.315025][0.55062,-0.0491823,0.833496][0.126845,0.169408,0][2.04419e-16,0.776412,0.388836][0.55062,-0.0491823,0.833496][0.215507,0.196829,0][-0.109852,0.755283,0.315025][-0.55062,-0.0491823,0.833496][0.304169,0.169408,0][-0.138478,0.601178,0.287046][-0.55062,-0.0491823,0.833496][0.327274,0.042996,0][2.04419e-16,0.776412,0.388836][-0.55062,-0.0491823,0.833496][0.215507,0.196829,0][-0.008996,0.271471,-0.119784][-0.536988,0.14945,-0.82956][0.527167,0.337151,0][0.008996,0.271471,-0.119784][0.536988,0.14945,-0.82956][0.497792,0.337151,0][0.008996,0.257665,-0.108248][0.996568,-0.0832614,2.09442e-05][0.497792,0.307776,0][-0.008996,0.271471,-0.119784][-0.536988,0.14945,-0.82956][0.527167,0.337151,0][0.008996,0.257665,-0.108248][0.996568,-0.0832614,2.09442e-05][0.497792,0.307776,0][-0.008996,0.257665,-0.108248][-0.996568,-0.0832614,2.09442e-05][0.527167,0.307776,0][0.225844,0.240288,-0.012538][0.693751,-0.207893,0.689391][0.497792,0.307776,0][0.213123,0.242561,-0.025055][-0.715172,0.0442915,-0.697138][0.527167,0.307776,0][0.222893,0.255644,-0.03261][0.216645,0.173792,-0.961007][0.527167,0.337151,0][0.225844,0.240288,-0.012538][0.693751,-0.207893,0.689391][0.497792,0.307776,0][0.222893,0.255644,-0.03261][0.216645,0.173792,-0.961007][0.527167,0.337151,0][0.235614,0.253371,-0.020093][0.97612,0.0374757,-0.213216][0.497792,0.337151,0][0.324213,0.21516,0.190364][0.843699,0.0949232,-0.528691][0.527167,0.337151,0][0.310397,0.200609,0.206007][-0.0150921,-0.258525,0.965918][0.497792,0.307776,0][0.310397,0.203822,0.188305][-0.0150921,0.0978443,-0.995086][0.527167,0.307776,0][0.310397,0.200609,0.206007][-0.0150921,-0.258525,0.965918][0.497792,0.307776,0][0.324213,0.21516,0.190364][0.843699,0.0949232,-0.528691][0.527167,0.337151,0][0.324213,0.211946,0.208065][0.843699,-0.096893,0.528733][0.497792,0.337151,0][0.235614,0.173735,0.418522][0.97612,-0.0394455,0.212285][0.527167,0.337151,0][0.222893,0.171463,0.431039][0.216645,-0.175762,0.960075][0.497792,0.337151,0][0.213123,0.16187,0.419368][-0.715172,-0.203998,0.668943][0.497792,0.307776,0][0.213123,0.16187,0.419368][-0.715172,-0.203998,0.668943][0.497792,0.307776,0][0.225844,0.164143,0.40685][0.693751,0.0472126,-0.718559][0.527167,0.307776,0][0.235614,0.173735,0.418522][0.97612,-0.0394455,0.212285][0.527167,0.337151,0][0.008996,0.146766,0.50256][0.996568,-0.0774192,-0.0291896][0.527167,0.307776,0][0.008996,0.155635,0.518213][0.536988,-0.151419,0.829602][0.527167,0.337151,0][-0.008996,0.146766,0.50256][-0.996568,-0.0774192,-0.0291896][0.497792,0.307776,0][-0.008996,0.146766,0.50256][-0.996568,-0.0774192,-0.0291896][0.497792,0.307776,0][0.008996,0.155635,0.518213][0.536988,-0.151419,0.829602][0.527167,0.337151,0][-0.008996,0.155635,0.518213][-0.536988,-0.151419,0.829602][0.497792,0.337151,0][-0.235614,0.173735,0.418522][-0.97612,-0.0394455,0.212285][0.497792,0.337151,0][-0.213123,0.16187,0.419367][0.715172,-0.203998,0.668943][0.527167,0.307776,0][-0.222893,0.171463,0.431039][-0.216645,-0.175762,0.960075][0.527167,0.337151,0][-0.213123,0.16187,0.419367][0.715172,-0.203998,0.668943][0.527167,0.307776,0][-0.235614,0.173735,0.418522][-0.97612,-0.0394455,0.212285][0.497792,0.337151,0][-0.225844,0.164143,0.40685][-0.693751,0.0472126,-0.718559][0.497792,0.307776,0][-0.324213,0.21516,0.190363][-0.843699,0.0949232,-0.528691][0.497792,0.337151,0][-0.310397,0.200609,0.206007][0.0150921,-0.258525,0.965918][0.527167,0.307776,0][-0.324213,0.211946,0.208065][-0.843699,-0.096893,0.528733][0.527167,0.337151,0][-0.310397,0.200609,0.206007][0.0150921,-0.258525,0.965918][0.527167,0.307776,0][-0.324213,0.21516,0.190363][-0.843699,0.0949232,-0.528691][0.497792,0.337151,0][-0.310397,0.203823,0.188305][0.0150921,0.0978443,-0.995086][0.497792,0.307776,0][-0.225844,0.240288,-0.012539][-0.693751,-0.207893,0.689391][0.527167,0.307776,0][-0.222892,0.255644,-0.03261][-0.216645,0.173792,-0.961007][0.497792,0.337151,0][-0.213122,0.242561,-0.025056][0.715172,0.0442915,-0.697138][0.497792,0.307776,0][-0.222892,0.255644,-0.03261][-0.216645,0.173792,-0.961007][0.497792,0.337151,0][-0.225844,0.240288,-0.012539][-0.693751,-0.207893,0.689391][0.527167,0.307776,0][-0.235614,0.253371,-0.020093][-0.97612,0.0374757,-0.213216][0.527167,0.337151,0][-0.211429,0.270373,-0.048648][-0.388988,0.860241,-0.328111][0.351876,0.667735,0][-0.257684,0.248597,0.052178][0.762883,0.404555,0.50439][0.361078,0.68147,0][-0.191247,0.261632,-0.025887][0.56912,0.364634,0.737101][0.351046,0.668774,0][-0.112497,0.279807,-0.104975][-0.205935,0.888477,-0.409901][0.337969,0.659212,0][-0.211429,0.270373,-0.048648][-0.388988,0.860241,-0.328111][0.351876,0.667735,0][-0.191247,0.261632,-0.025887][0.56912,0.364634,0.737101][0.351046,0.668774,0][-0.191247,0.261632,-0.025887][0.56912,0.364634,0.737101][0.351046,0.668774,0][-0.102215,0.272376,-0.077735][0.270198,0.464924,0.843233][0.337528,0.660487,0][-0.112497,0.279807,-0.104975][-0.205935,0.888477,-0.409901][0.337969,0.659212,0][-0.257684,0.248597,0.052178][0.762883,0.404555,0.50439][0.361078,0.68147,0][-0.211429,0.270373,-0.048648][-0.388988,0.860241,-0.328111][0.351876,0.667735,0][-0.284866,0.255917,0.037654][-0.525304,0.833951,-0.170374][0.362197,0.680795,0][-0.284866,0.255917,0.037654][-0.525304,0.833951,-0.170374][0.362197,0.680795,0][-0.293051,0.232606,0.147954][0.864146,0.45324,0.2191][0.366415,0.697042,0][-0.257684,0.248597,0.052178][0.762883,0.404555,0.50439][0.361078,0.68147,0][-0.284866,0.255917,0.037654][-0.525304,0.833951,-0.170374][0.362197,0.680795,0][-0.32395,0.238184,0.143525][-0.59833,0.800846,0.0243631][0.36769,0.696814,0][-0.293051,0.232606,0.147954][0.864146,0.45324,0.2191][0.366415,0.697042,0][-0.32395,0.238184,0.143525][-0.59833,0.800846,0.0243631][0.36769,0.696814,0][-0.293076,0.215585,0.249893][0.859278,0.504845,-0.080795][0.366414,0.713612,0][-0.293051,0.232606,0.147954][0.864146,0.45324,0.2191][0.366415,0.697042,0][-0.32395,0.238184,0.143525][-0.59833,0.800846,0.0243631][0.36769,0.696814,0][-0.323962,0.219311,0.2562][-0.600278,0.765793,0.231758][0.36769,0.713862,0][-0.293076,0.215585,0.249893][0.859278,0.504845,-0.080795][0.366414,0.713612,0][-0.323962,0.219311,0.2562][-0.600278,0.765793,0.231758][0.36769,0.713862,0][-0.257747,0.199587,0.345701][0.752173,0.552556,-0.360243][0.361074,0.729182,0][-0.293076,0.215585,0.249893][0.859278,0.504845,-0.080795][0.366414,0.713612,0][-0.323962,0.219311,0.2562][-0.600278,0.765793,0.231758][0.36769,0.713862,0][-0.284897,0.201575,0.362087][-0.529198,0.732688,0.428443][0.362197,0.729881,0][-0.257747,0.199587,0.345701][0.752173,0.552556,-0.360243][0.361074,0.729182,0][-0.284897,0.201575,0.362087][-0.529198,0.732688,0.428443][0.362197,0.729881,0][-0.191319,0.186544,0.423815][0.555488,0.590529,-0.585164][0.351041,0.741873,0][-0.257747,0.199587,0.345701][0.752173,0.552556,-0.360243][0.361074,0.729182,0][-0.284897,0.201575,0.362087][-0.529198,0.732688,0.428443][0.362197,0.729881,0][-0.211465,0.187115,0.448412][-0.393856,0.705424,0.589101][0.351876,0.74294,0][-0.191319,0.186544,0.423815][0.555488,0.590529,-0.585164][0.351041,0.741873,0][-0.211465,0.187115,0.448412][-0.393856,0.705424,0.589101][0.351876,0.74294,0][-0.101803,0.17803,0.474805][0.29454,0.615845,-0.731217][0.337524,0.750157,0][-0.191319,0.186544,0.423815][0.555488,0.590529,-0.585164][0.351041,0.741873,0][-0.101803,0.17803,0.474805][0.29454,0.615845,-0.731217][0.337524,0.750157,0][-0.211465,0.187115,0.448412][-0.393856,0.705424,0.589101][0.351876,0.74294,0][-0.11252,0.177677,0.50476][-0.210803,0.687898,0.694259][0.337969,0.751464,0][-0.11252,0.177677,0.50476][-0.210803,0.687898,0.694259][0.337969,0.751464,0][1.30777e-16,0.175073,0.492515][-0.000486843,0.623635,-0.781849][0.322155,0.753034,0][-0.101803,0.17803,0.474805][0.29454,0.615845,-0.731217][0.337524,0.750157,0][1.30777e-16,0.175073,0.492515][-0.000486843,0.623635,-0.781849][0.322155,0.753034,0][-0.11252,0.177677,0.50476][-0.210803,0.687898,0.694259][0.337969,0.751464,0][1.30694e-16,0.174398,0.52433][-0.00146053,0.682056,0.731259][0.322155,0.754425,0][0.11252,0.177677,0.50476][0.207882,0.688872,0.695233][0.306341,0.751464,0][1.30777e-16,0.175073,0.492515][-0.000486843,0.623635,-0.781849][0.322155,0.753034,0][1.30694e-16,0.174398,0.52433][-0.00146053,0.682056,0.731259][0.322155,0.754425,0][1.30777e-16,0.175073,0.492515][-0.000486843,0.623635,-0.781849][0.322155,0.753034,0][0.11252,0.177677,0.50476][0.207882,0.688872,0.695233][0.306341,0.751464,0][0.101803,0.17803,0.474805][-0.297461,0.614872,-0.730244][0.306785,0.750157,0][0.211465,0.187115,0.448412][0.391909,0.706398,0.590075][0.292434,0.74294,0][0.101803,0.17803,0.474805][-0.297461,0.614872,-0.730244][0.306785,0.750157,0][0.11252,0.177677,0.50476][0.207882,0.688872,0.695233][0.306341,0.751464,0][0.101803,0.17803,0.474805][-0.297461,0.614872,-0.730244][0.306785,0.750157,0][0.211465,0.187115,0.448412][0.391909,0.706398,0.590075][0.292434,0.74294,0][0.191319,0.186544,0.423814][-0.558409,0.589556,-0.584191][0.293269,0.741873,0][0.284897,0.201575,0.362087][0.527251,0.733661,0.428443][0.282112,0.729881,0][0.191319,0.186544,0.423814][-0.558409,0.589556,-0.584191][0.293269,0.741873,0][0.211465,0.187115,0.448412][0.391909,0.706398,0.590075][0.292434,0.74294,0][0.191319,0.186544,0.423814][-0.558409,0.589556,-0.584191][0.293269,0.741873,0][0.284897,0.201575,0.362087][0.527251,0.733661,0.428443][0.282112,0.729881,0][0.257747,0.199587,0.345701][-0.753146,0.550608,-0.359269][0.283236,0.729182,0][0.323962,0.219311,0.2562][0.59833,0.766767,0.231758][0.27662,0.713862,0][0.257747,0.199587,0.345701][-0.753146,0.550608,-0.359269][0.283236,0.729182,0][0.284897,0.201575,0.362087][0.527251,0.733661,0.428443][0.282112,0.729881,0][0.257747,0.199587,0.345701][-0.753146,0.550608,-0.359269][0.283236,0.729182,0][0.323962,0.219311,0.2562][0.59833,0.766767,0.231758][0.27662,0.713862,0][0.293076,0.215585,0.249893][-0.860252,0.502898,-0.080795][0.277896,0.713612,0][0.32395,0.238184,0.143525][0.596383,0.801819,0.0243631][0.27662,0.696814,0][0.293076,0.215585,0.249893][-0.860252,0.502898,-0.080795][0.277896,0.713612,0][0.323962,0.219311,0.2562][0.59833,0.766767,0.231758][0.27662,0.713862,0][0.293076,0.215585,0.249893][-0.860252,0.502898,-0.080795][0.277896,0.713612,0][0.32395,0.238184,0.143525][0.596383,0.801819,0.0243631][0.27662,0.696814,0][0.293051,0.232606,0.147954][-0.86512,0.451292,0.218127][0.277895,0.697042,0][0.284866,0.255917,0.037654][0.523356,0.834925,-0.170374][0.282112,0.680795,0][0.293051,0.232606,0.147954][-0.86512,0.451292,0.218127][0.277895,0.697042,0][0.32395,0.238184,0.143525][0.596383,0.801819,0.0243631][0.27662,0.696814,0][0.293051,0.232606,0.147954][-0.86512,0.451292,0.218127][0.277895,0.697042,0][0.284866,0.255917,0.037654][0.523356,0.834925,-0.170374][0.282112,0.680795,0][0.257684,0.248598,0.052179][-0.76483,0.403582,0.502443][0.283232,0.68147,0][0.211429,0.270373,-0.048648][0.38704,0.861214,-0.328111][0.292434,0.667735,0][0.257684,0.248598,0.052179][-0.76483,0.403582,0.502443][0.283232,0.68147,0][0.284866,0.255917,0.037654][0.523356,0.834925,-0.170374][0.282112,0.680795,0][0.257684,0.248598,0.052179][-0.76483,0.403582,0.502443][0.283232,0.68147,0][0.211429,0.270373,-0.048648][0.38704,0.861214,-0.328111][0.292434,0.667735,0][0.191247,0.261632,-0.025887][-0.571067,0.363661,0.736128][0.293264,0.668774,0][0.112497,0.279807,-0.104975][0.204961,0.878741,-0.431322][0.306341,0.659212,0][0.191247,0.261632,-0.025887][-0.571067,0.363661,0.736128][0.293264,0.668774,0][0.211429,0.270373,-0.048648][0.38704,0.861214,-0.328111][0.292434,0.667735,0][0.191247,0.261632,-0.025887][-0.571067,0.363661,0.736128][0.293264,0.668774,0][0.112497,0.279807,-0.104975][0.204961,0.878741,-0.431322][0.306341,0.659212,0][0.101756,0.270139,-0.076835][-0.307198,0.337371,0.88997][0.306782,0.660487,0][1.44004e-16,0.283084,-0.124536][0.00438159,0.895293,-0.445927][0.322155,0.656251,0][0.101756,0.270139,-0.076835][-0.307198,0.337371,0.88997][0.306782,0.660487,0][0.112497,0.279807,-0.104975][0.204961,0.878741,-0.431322][0.306341,0.659212,0][0.101756,0.270139,-0.076835][-0.307198,0.337371,0.88997][0.306782,0.660487,0][1.44004e-16,0.283084,-0.124536][0.00438159,0.895293,-0.445927][0.322155,0.656251,0][1.43056e-16,0.275345,-0.095507][0.00438159,0.457134,0.88997][0.322155,0.657609,0][-0.102215,0.272376,-0.077735][0.270198,0.464924,0.843233][0.337528,0.660487,0][1.44004e-16,0.283084,-0.124536][0.00438159,0.895293,-0.445927][0.322155,0.656251,0][-0.112497,0.279807,-0.104975][-0.205935,0.888477,-0.409901][0.337969,0.659212,0][1.44004e-16,0.283084,-0.124536][0.00438159,0.895293,-0.445927][0.322155,0.656251,0][-0.102215,0.272376,-0.077735][0.270198,0.464924,0.843233][0.337528,0.660487,0][1.43056e-16,0.275345,-0.095507][0.00438159,0.457134,0.88997][0.322155,0.657609,0][0.037939,0.549686,0.269386][0.0150921,-0.0978666,0.995128][0.556543,0.249025,0][0.310397,0.200609,0.206007][-0.0150921,-0.258525,0.965918][0.527167,0.2784,0][0.324213,0.211946,0.208065][0.843699,-0.096893,0.528733][0.527167,0.249025,0][0.310397,0.200609,0.206007][-0.0150921,-0.258525,0.965918][0.527167,0.2784,0][0.037939,0.549686,0.269386][0.0150921,-0.0978666,0.995128][0.556543,0.249025,0][0.024123,0.538348,0.267328][-0.843699,-0.0949456,0.528733][0.556543,0.2784,0][0.024123,0.541562,0.249626][-0.843699,0.0968706,-0.528691][0.556543,0.307776,0][0.310397,0.200609,0.206007][-0.0150921,-0.258525,0.965918][0.527167,0.2784,0][0.024123,0.538348,0.267328][-0.843699,-0.0949456,0.528733][0.556543,0.2784,0][0.024123,0.541562,0.249626][-0.843699,0.0968706,-0.528691][0.556543,0.307776,0][0.310397,0.203822,0.188305][-0.0150921,0.0978443,-0.995086][0.527167,0.307776,0][0.310397,0.200609,0.206007][-0.0150921,-0.258525,0.965918][0.527167,0.2784,0][0.310397,0.203822,0.188305][-0.0150921,0.0978443,-0.995086][0.527167,0.307776,0][0.024123,0.541562,0.249626][-0.843699,0.0968706,-0.528691][0.556543,0.307776,0][0.037939,0.5529,0.251684][0.0150921,0.258502,-0.965876][0.556543,0.337151,0][0.037939,0.5529,0.251684][0.0150921,0.258502,-0.965876][0.556543,0.337151,0][0.324213,0.21516,0.190364][0.843699,0.0949232,-0.528691][0.527167,0.337151,0][0.310397,0.203822,0.188305][-0.0150921,0.0978443,-0.995086][0.527167,0.307776,0][0.037939,0.549686,0.269386][0.0150921,-0.0978666,0.995128][0.556543,0.366527,0][0.324213,0.21516,0.190364][0.843699,0.0949232,-0.528691][0.527167,0.337151,0][0.037939,0.5529,0.251684][0.0150921,0.258502,-0.965876][0.556543,0.337151,0][0.324213,0.21516,0.190364][0.843699,0.0949232,-0.528691][0.527167,0.337151,0][0.037939,0.549686,0.269386][0.0150921,-0.0978666,0.995128][0.556543,0.366527,0][0.324213,0.211946,0.208065][0.843699,-0.096893,0.528733][0.527167,0.366527,0][-0.023418,0.538045,0.269001][0.216645,0.175739,-0.960034][0.556543,0.2784,0][-0.225844,0.164143,0.40685][-0.693751,0.0472126,-0.718559][0.527167,0.2784,0][-0.235614,0.173735,0.418522][-0.97612,-0.0394455,0.212285][0.527167,0.249025,0][-0.235614,0.173735,0.418522][-0.97612,-0.0394455,0.212285][0.527167,0.249025,0][-0.033188,0.547637,0.280672][-0.715172,0.203976,-0.668901][0.556543,0.249025,0][-0.023418,0.538045,0.269001][0.216645,0.175739,-0.960034][0.556543,0.2784,0][-0.023418,0.538045,0.269001][0.216645,0.175739,-0.960034][0.556543,0.2784,0][-0.213123,0.16187,0.419367][0.715172,-0.203998,0.668943][0.527167,0.307776,0][-0.225844,0.164143,0.40685][-0.693751,0.0472126,-0.718559][0.527167,0.2784,0][-0.213123,0.16187,0.419367][0.715172,-0.203998,0.668943][0.527167,0.307776,0][-0.023418,0.538045,0.269001][0.216645,0.175739,-0.960034][0.556543,0.2784,0][-0.010696,0.535772,0.281518][0.97612,0.0394231,-0.212243][0.556543,0.307776,0][-0.010696,0.535772,0.281518][0.97612,0.0394231,-0.212243][0.556543,0.307776,0][-0.222893,0.171463,0.431039][-0.216645,-0.175762,0.960075][0.527167,0.337151,0][-0.213123,0.16187,0.419367][0.715172,-0.203998,0.668943][0.527167,0.307776,0][-0.222893,0.171463,0.431039][-0.216645,-0.175762,0.960075][0.527167,0.337151,0][-0.010696,0.535772,0.281518][0.97612,0.0394231,-0.212243][0.556543,0.307776,0][-0.020466,0.545364,0.293189][0.693751,-0.047235,0.718601][0.556543,0.337151,0][-0.222893,0.171463,0.431039][-0.216645,-0.175762,0.960075][0.527167,0.337151,0][-0.020466,0.545364,0.293189][0.693751,-0.047235,0.718601][0.556543,0.337151,0][-0.033188,0.547637,0.280672][-0.715172,0.203976,-0.668901][0.556543,0.366527,0][-0.033188,0.547637,0.280672][-0.715172,0.203976,-0.668901][0.556543,0.366527,0][-0.235614,0.173735,0.418522][-0.97612,-0.0394455,0.212285][0.527167,0.366527,0][-0.222893,0.171463,0.431039][-0.216645,-0.175762,0.960075][0.527167,0.337151,0][0.010696,0.535772,0.281518][-0.97612,0.0394231,-0.212243][0.556543,0.2784,0][0.213123,0.16187,0.419368][-0.715172,-0.203998,0.668943][0.527167,0.2784,0][0.222893,0.171463,0.431039][0.216645,-0.175762,0.960075][0.527167,0.249025,0][0.222893,0.171463,0.431039][0.216645,-0.175762,0.960075][0.527167,0.249025,0][0.020466,0.545364,0.293189][-0.693751,-0.047235,0.718601][0.556543,0.249025,0][0.010696,0.535772,0.281518][-0.97612,0.0394231,-0.212243][0.556543,0.2784,0][0.023418,0.538045,0.269001][-0.216645,0.175739,-0.960034][0.556543,0.307776,0][0.213123,0.16187,0.419368][-0.715172,-0.203998,0.668943][0.527167,0.2784,0][0.010696,0.535772,0.281518][-0.97612,0.0394231,-0.212243][0.556543,0.2784,0][0.213123,0.16187,0.419368][-0.715172,-0.203998,0.668943][0.527167,0.2784,0][0.023418,0.538045,0.269001][-0.216645,0.175739,-0.960034][0.556543,0.307776,0][0.225844,0.164143,0.40685][0.693751,0.0472126,-0.718559][0.527167,0.307776,0][0.023418,0.538045,0.269001][-0.216645,0.175739,-0.960034][0.556543,0.307776,0][0.235614,0.173735,0.418522][0.97612,-0.0394455,0.212285][0.527167,0.337151,0][0.225844,0.164143,0.40685][0.693751,0.0472126,-0.718559][0.527167,0.307776,0][0.235614,0.173735,0.418522][0.97612,-0.0394455,0.212285][0.527167,0.337151,0][0.023418,0.538045,0.269001][-0.216645,0.175739,-0.960034][0.556543,0.307776,0][0.033188,0.547637,0.280672][0.715172,0.203976,-0.668901][0.556543,0.337151,0][0.033188,0.547637,0.280672][0.715172,0.203976,-0.668901][0.556543,0.337151,0][0.222893,0.171463,0.431039][0.216645,-0.175762,0.960075][0.527167,0.366527,0][0.235614,0.173735,0.418522][0.97612,-0.0394455,0.212285][0.527167,0.337151,0][0.222893,0.171463,0.431039][0.216645,-0.175762,0.960075][0.527167,0.366527,0][0.033188,0.547637,0.280672][0.715172,0.203976,-0.668901][0.556543,0.337151,0][0.020466,0.545364,0.293189][-0.693751,-0.047235,0.718601][0.556543,0.366527,0][0.008996,0.544265,0.234742][0.536988,-0.149472,0.829602][0.556543,0.2784,0][0.008996,0.257665,-0.108248][0.996568,-0.0832614,2.09442e-05][0.527167,0.2784,0][0.008996,0.271471,-0.119784][0.536988,0.14945,-0.82956][0.527167,0.249025,0][0.008996,0.544265,0.234742][0.536988,-0.149472,0.829602][0.556543,0.2784,0][0.008996,0.271471,-0.119784][0.536988,0.14945,-0.82956][0.527167,0.249025,0][0.008996,0.558071,0.223206][0.996568,0.083239,2.09442e-05][0.556543,0.249025,0][0.008996,0.257665,-0.108248][0.996568,-0.0832614,2.09442e-05][0.527167,0.2784,0][0.008996,0.544265,0.234742][0.536988,-0.149472,0.829602][0.556543,0.2784,0][-0.008996,0.544265,0.234742][-0.536988,-0.149472,0.829602][0.556543,0.307776,0][-0.008996,0.544265,0.234742][-0.536988,-0.149472,0.829602][0.556543,0.307776,0][-0.008996,0.257665,-0.108248][-0.996568,-0.0832614,2.09442e-05][0.527167,0.307776,0][0.008996,0.257665,-0.108248][0.996568,-0.0832614,2.09442e-05][0.527167,0.2784,0][-0.008996,0.544265,0.234742][-0.536988,-0.149472,0.829602][0.556543,0.307776,0][-0.008996,0.271471,-0.119784][-0.536988,0.14945,-0.82956][0.527167,0.337151,0][-0.008996,0.257665,-0.108248][-0.996568,-0.0832614,2.09442e-05][0.527167,0.307776,0][-0.008996,0.271471,-0.119784][-0.536988,0.14945,-0.82956][0.527167,0.337151,0][-0.008996,0.544265,0.234742][-0.536988,-0.149472,0.829602][0.556543,0.307776,0][-0.008996,0.558071,0.223206][-0.996568,0.083239,2.09442e-05][0.556543,0.337151,0][-0.008996,0.271471,-0.119784][-0.536988,0.14945,-0.82956][0.527167,0.337151,0][-0.008996,0.558071,0.223206][-0.996568,0.083239,2.09442e-05][0.556543,0.337151,0][0.008996,0.558071,0.223206][0.996568,0.083239,2.09442e-05][0.556543,0.366527,0][0.008996,0.558071,0.223206][0.996568,0.083239,2.09442e-05][0.556543,0.366527,0][0.008996,0.271471,-0.119784][0.536988,0.14945,-0.82956][0.527167,0.366527,0][-0.008996,0.271471,-0.119784][-0.536988,0.14945,-0.82956][0.527167,0.337151,0][-0.109852,0.761418,0.281232][-0.388014,-0.261446,-0.884086][0.304169,0.169408,0][-0.224063,0.866478,0.300307][-0.388014,-0.261446,-0.884086][0.396349,0.255589,0][2.08183e-16,0.807146,0.21956][-0.388014,-0.261446,-0.884086][0.215507,0.196829,0][0.224063,0.866478,0.300307][0.388014,-0.261446,-0.884086][0.034665,0.255589,0][0.109852,0.761418,0.281232][0.388014,-0.261446,-0.884086][0.126845,0.169408,0][2.08183e-16,0.807146,0.21956][0.388014,-0.261446,-0.884086][0.215507,0.196829,0][-0.224063,0.860342,0.3341][-0.388014,-0.555499,0.736128][0.396349,0.255589,0][-0.109852,0.755283,0.315025][-0.388014,-0.555499,0.736128][0.304169,0.169408,0][2.04419e-16,0.776412,0.388836][-0.388014,-0.555499,0.736128][0.215507,0.196829,0][0.109852,0.755283,0.315025][0.388014,-0.555499,0.736128][0.126845,0.169408,0][0.224063,0.860342,0.3341][0.388014,-0.555499,0.736128][0.034665,0.255589,0][2.04419e-16,0.776412,0.388836][0.388014,-0.555499,0.736128][0.215507,0.196829,0][-0.138478,0.601178,0.287046][0.295514,-0.643131,0.705943][0.327274,0.042996,0][1.92678e-16,0.680535,0.301454][0.295514,-0.643131,0.705943][0.215507,0.108092,0][2.04419e-16,0.776412,0.388836][0.295514,-0.643131,0.705943][0.215507,0.196829,0][1.93429e-16,0.68667,0.267661][0.295514,-0.353946,-0.887007][0.215507,0.108092,0][-0.138478,0.607313,0.253253][0.295514,-0.353946,-0.887007][0.327274,0.042996,0][2.08183e-16,0.807146,0.21956][0.295514,-0.353946,-0.887007][0.215507,0.196829,0][0.138478,0.607313,0.253253][-0.295514,-0.353946,-0.887007][0.103741,0.042996,0][1.93429e-16,0.68667,0.267661][-0.295514,-0.353946,-0.887007][0.215507,0.108092,0][2.08183e-16,0.807146,0.21956][-0.295514,-0.353946,-0.887007][0.215507,0.196829,0][1.92678e-16,0.680535,0.301454][-0.295514,-0.643131,0.705943][0.215507,0.108092,0][0.138478,0.601178,0.287046][-0.295514,-0.643131,0.705943][0.103741,0.042996,0][2.04419e-16,0.776412,0.388836][-0.295514,-0.643131,0.705943][0.215507,0.196829,0][-0.010696,0.544139,0.235435][0.97612,-0.0374981,0.213258][0.556543,0.2784,0][-0.213122,0.242561,-0.025056][0.715172,0.0442915,-0.697138][0.527167,0.2784,0][-0.222892,0.255644,-0.03261][-0.216645,0.173792,-0.961007][0.527167,0.249025,0][-0.010696,0.544139,0.235435][0.97612,-0.0374981,0.213258][0.556543,0.2784,0][-0.222892,0.255644,-0.03261][-0.216645,0.173792,-0.961007][0.527167,0.249025,0][-0.020466,0.557222,0.227881][0.693751,0.207871,-0.689349][0.556543,0.249025,0][-0.010696,0.544139,0.235435][0.97612,-0.0374981,0.213258][0.556543,0.2784,0][-0.225844,0.240288,-0.012539][-0.693751,-0.207893,0.689391][0.527167,0.307776,0][-0.213122,0.242561,-0.025056][0.715172,0.0442915,-0.697138][0.527167,0.2784,0][-0.225844,0.240288,-0.012539][-0.693751,-0.207893,0.689391][0.527167,0.307776,0][-0.010696,0.544139,0.235435][0.97612,-0.0374981,0.213258][0.556543,0.2784,0][-0.023418,0.541866,0.247952][0.216645,-0.173814,0.961049][0.556543,0.307776,0][-0.023418,0.541866,0.247952][0.216645,-0.173814,0.961049][0.556543,0.307776,0][-0.235614,0.253371,-0.020093][-0.97612,0.0374757,-0.213216][0.527167,0.337151,0][-0.225844,0.240288,-0.012539][-0.693751,-0.207893,0.689391][0.527167,0.307776,0][-0.235614,0.253371,-0.020093][-0.97612,0.0374757,-0.213216][0.527167,0.337151,0][-0.023418,0.541866,0.247952][0.216645,-0.173814,0.961049][0.556543,0.307776,0][-0.033188,0.554949,0.240398][-0.715172,-0.0443139,0.69718][0.556543,0.337151,0][-0.020466,0.557222,0.227881][0.693751,0.207871,-0.689349][0.556543,0.366527,0][-0.235614,0.253371,-0.020093][-0.97612,0.0374757,-0.213216][0.527167,0.337151,0][-0.033188,0.554949,0.240398][-0.715172,-0.0443139,0.69718][0.556543,0.337151,0][-0.235614,0.253371,-0.020093][-0.97612,0.0374757,-0.213216][0.527167,0.337151,0][-0.020466,0.557222,0.227881][0.693751,0.207871,-0.689349][0.556543,0.366527,0][-0.222892,0.255644,-0.03261][-0.216645,0.173792,-0.961007][0.527167,0.366527,0][1.30777e-16,0.175073,0.492515][-0.000486843,0.623635,-0.781849][0.950475,0.930916,0][-1.61842e-17,-1.02495,0.713057][0.00827633,-0.768736,-0.638717][0.950475,0.466596,0][-0.101803,0.17803,0.474805][0.29454,0.615845,-0.731217][0.897949,0.930914,0][-0.101803,0.17803,0.474805][0.29454,0.615845,-0.731217][0.897949,0.930914,0][-1.61842e-17,-1.02495,0.713057][0.00827633,-0.768736,-0.638717][0.950475,0.466596,0][-0.247697,-1.01648,0.669215][0.201066,-0.697657,-0.688375][0.897949,0.466601,0][-0.247697,-1.01648,0.669215][0.201066,-0.697657,-0.688375][0.897949,0.466601,0][-0.191319,0.186544,0.423815][0.555488,0.590529,-0.585164][0.845423,0.930908,0][-0.101803,0.17803,0.474805][0.29454,0.615845,-0.731217][0.897949,0.930914,0][-0.191319,0.186544,0.423815][0.555488,0.590529,-0.585164][0.845423,0.930908,0][-0.247697,-1.01648,0.669215][0.201066,-0.697657,-0.688375][0.897949,0.466601,0][-0.465511,-0.994427,0.545397][0.377303,-0.715184,-0.588085][0.845423,0.466616,0][0.101803,0.17803,0.474805][-0.297461,0.614872,-0.730244][0.057532,0.930914,0][-1.61842e-17,-1.02495,0.713057][0.00827633,-0.768736,-0.638717][0.005006,0.466596,0][1.30777e-16,0.175073,0.492515][-0.000486843,0.623635,-0.781849][0.005006,0.930916,0][-1.61842e-17,-1.02495,0.713057][0.00827633,-0.768736,-0.638717][0.005006,0.466596,0][0.101803,0.17803,0.474805][-0.297461,0.614872,-0.730244][0.057532,0.930914,0][0.248029,-1.01728,0.669997][-0.176724,-0.774579,-0.606586][0.057532,0.466601,0][-0.627168,-0.960633,0.355705][0.508751,-0.743421,-0.434243][0.792897,0.466639,0][-0.257747,0.199587,0.345701][0.752173,0.552556,-0.360243][0.792897,0.930897,0][-0.191319,0.186544,0.423815][0.555488,0.590529,-0.585164][0.845423,0.930908,0][-0.627168,-0.960633,0.355705][0.508751,-0.743421,-0.434243][0.792897,0.466639,0][-0.191319,0.186544,0.423815][0.555488,0.590529,-0.585164][0.845423,0.930908,0][-0.465511,-0.994427,0.545397][0.377303,-0.715184,-0.588085][0.845423,0.466616,0][-0.257747,0.199587,0.345701][0.752173,0.552556,-0.360243][0.792897,0.930897,0][-0.71317,-0.919181,0.123024][0.578856,-0.7775,-0.245348][0.74037,0.466666,0][-0.293076,0.215585,0.249893][0.859278,0.504845,-0.080795][0.74037,0.930885,0][-0.71317,-0.919181,0.123024][0.578856,-0.7775,-0.245348][0.74037,0.466666,0][-0.257747,0.199587,0.345701][0.752173,0.552556,-0.360243][0.792897,0.930897,0][-0.627168,-0.960633,0.355705][0.508751,-0.743421,-0.434243][0.792897,0.466639,0][-0.293076,0.215585,0.249893][0.859278,0.504845,-0.080795][0.74037,0.930885,0][-0.71317,-0.919181,0.123024][0.578856,-0.7775,-0.245348][0.74037,0.466666,0][-0.293051,0.232606,0.147954][0.864146,0.45324,0.2191][0.687844,0.930872,0][-0.713149,-0.875071,-0.124575][0.578856,-0.8145,-0.0437949][0.687844,0.466695,0][-0.293051,0.232606,0.147954][0.864146,0.45324,0.2191][0.687844,0.930872,0][-0.71317,-0.919181,0.123024][0.578856,-0.7775,-0.245348][0.74037,0.466666,0][-0.293051,0.232606,0.147954][0.864146,0.45324,0.2191][0.687844,0.930872,0][-0.713149,-0.875071,-0.124575][0.578856,-0.8145,-0.0437949][0.687844,0.466695,0][-0.257684,0.248597,0.052178][0.762883,0.404555,0.50439][0.635318,0.930859,0][-0.627116,-0.833624,-0.35723][0.508751,-0.848579,0.1451][0.635318,0.466723,0][-0.257684,0.248597,0.052178][0.762883,0.404555,0.50439][0.635318,0.930859,0][-0.713149,-0.875071,-0.124575][0.578856,-0.8145,-0.0437949][0.687844,0.466695,0][0.257684,0.248598,0.052179][-0.76483,0.403582,0.502443][0.320162,0.930859,0][0.627116,-0.833624,-0.35723][-0.509725,-0.847605,0.1451][0.320162,0.466723,0][0.713149,-0.875071,-0.124575][-0.57983,-0.813526,-0.0437949][0.267636,0.466695,0][0.257684,0.248598,0.052179][-0.76483,0.403582,0.502443][0.320162,0.930859,0][0.713149,-0.875071,-0.124575][-0.57983,-0.813526,-0.0437949][0.267636,0.466695,0][0.293051,0.232606,0.147954][-0.86512,0.451292,0.218127][0.267636,0.930872,0][0.293051,0.232606,0.147954][-0.86512,0.451292,0.218127][0.267636,0.930872,0][0.71317,-0.919181,0.123024][-0.57983,-0.7775,-0.245348][0.21511,0.466666,0][0.293076,0.215585,0.249893][-0.860252,0.502898,-0.080795][0.21511,0.930885,0][0.71317,-0.919181,0.123024][-0.57983,-0.7775,-0.245348][0.21511,0.466666,0][0.293051,0.232606,0.147954][-0.86512,0.451292,0.218127][0.267636,0.930872,0][0.713149,-0.875071,-0.124575][-0.57983,-0.813526,-0.0437949][0.267636,0.466695,0][0.71317,-0.919181,0.123024][-0.57983,-0.7775,-0.245348][0.21511,0.466666,0][0.257747,0.199587,0.345701][-0.753146,0.550608,-0.359269][0.162584,0.930897,0][0.293076,0.215585,0.249893][-0.860252,0.502898,-0.080795][0.21511,0.930885,0][0.257747,0.199587,0.345701][-0.753146,0.550608,-0.359269][0.162584,0.930897,0][0.71317,-0.919181,0.123024][-0.57983,-0.7775,-0.245348][0.21511,0.466666,0][0.627168,-0.960633,0.355705][-0.509725,-0.743421,-0.433269][0.162584,0.466639,0][0.627168,-0.960633,0.355705][-0.509725,-0.743421,-0.433269][0.162584,0.466639,0][0.191319,0.186544,0.423814][-0.558409,0.589556,-0.584191][0.110058,0.930908,0][0.257747,0.199587,0.345701][-0.753146,0.550608,-0.359269][0.162584,0.930897,0][0.191319,0.186544,0.423814][-0.558409,0.589556,-0.584191][0.110058,0.930908,0][0.627168,-0.960633,0.355705][-0.509725,-0.743421,-0.433269][0.162584,0.466639,0][0.465511,-0.994427,0.545397][-0.379251,-0.715184,-0.587112][0.110058,0.466616,0][0.248029,-1.01728,0.669997][-0.176724,-0.774579,-0.606586][0.057532,0.466601,0][0.101803,0.17803,0.474805][-0.297461,0.614872,-0.730244][0.057532,0.930914,0][0.191319,0.186544,0.423814][-0.558409,0.589556,-0.584191][0.110058,0.930908,0][0.191319,0.186544,0.423814][-0.558409,0.589556,-0.584191][0.110058,0.930908,0][0.465511,-0.994427,0.545397][-0.379251,-0.715184,-0.587112][0.110058,0.466616,0][0.248029,-1.01728,0.669997][-0.176724,-0.774579,-0.606586][0.057532,0.466601,0][-0.191247,0.261632,-0.025887][0.56912,0.364634,0.737101][0.582792,0.930849,0][-0.627116,-0.833624,-0.35723][0.508751,-0.848579,0.1451][0.635318,0.466723,0][-0.465452,-0.799837,-0.546882][0.379251,-0.875842,0.297969][0.582792,0.466746,0][-0.627116,-0.833624,-0.35723][0.508751,-0.848579,0.1451][0.635318,0.466723,0][-0.191247,0.261632,-0.025887][0.56912,0.364634,0.737101][0.582792,0.930849,0][-0.257684,0.248597,0.052178][0.762883,0.404555,0.50439][0.635318,0.930859,0][-0.191247,0.261632,-0.025887][0.56912,0.364634,0.737101][0.582792,0.930849,0][-0.465452,-0.799837,-0.546882][0.379251,-0.875842,0.297969][0.582792,0.466746,0][-0.247658,-0.777785,-0.670664][0.20204,-0.894342,0.399232][0.530266,0.46676,0][-0.247658,-0.777785,-0.670664][0.20204,-0.894342,0.399232][0.530266,0.46676,0][-0.102215,0.272376,-0.077735][0.270198,0.464924,0.843233][0.530266,0.930842,0][-0.191247,0.261632,-0.025887][0.56912,0.364634,0.737101][0.582792,0.930849,0][0.247658,-0.777785,-0.670664][-0.203014,-0.894342,0.399232][0.425214,0.46676,0][0.101756,0.270139,-0.076835][-0.307198,0.337371,0.88997][0.425214,0.930842,0][1.5023e-17,-0.770127,-0.713652][-0.00243422,-0.900184,0.434285][0.47774,0.466766,0][1.5023e-17,-0.770127,-0.713652][-0.00243422,-0.900184,0.434285][0.47774,0.466766,0][0.101756,0.270139,-0.076835][-0.307198,0.337371,0.88997][0.425214,0.930842,0][1.43056e-16,0.275345,-0.095507][0.00438159,0.457134,0.88997][0.47774,0.93084,0][0.247658,-0.777785,-0.670664][-0.203014,-0.894342,0.399232][0.425214,0.46676,0][0.191247,0.261632,-0.025887][-0.571067,0.363661,0.736128][0.372688,0.930849,0][0.101756,0.270139,-0.076835][-0.307198,0.337371,0.88997][0.425214,0.930842,0][0.191247,0.261632,-0.025887][-0.571067,0.363661,0.736128][0.372688,0.930849,0][0.247658,-0.777785,-0.670664][-0.203014,-0.894342,0.399232][0.425214,0.46676,0][0.465452,-0.799837,-0.546882][-0.378277,-0.875842,0.298943][0.372688,0.466746,0][0.191247,0.261632,-0.025887][-0.571067,0.363661,0.736128][0.372688,0.930849,0][0.627116,-0.833624,-0.35723][-0.509725,-0.847605,0.1451][0.320162,0.466723,0][0.257684,0.248598,0.052179][-0.76483,0.403582,0.502443][0.320162,0.930859,0][0.627116,-0.833624,-0.35723][-0.509725,-0.847605,0.1451][0.320162,0.466723,0][0.191247,0.261632,-0.025887][-0.571067,0.363661,0.736128][0.372688,0.930849,0][0.465452,-0.799837,-0.546882][-0.378277,-0.875842,0.298943][0.372688,0.466746,0][1.5023e-17,-0.770127,-0.713652][-0.00243422,-0.900184,0.434285][0.47774,0.466766,0][-0.102215,0.272376,-0.077735][0.270198,0.464924,0.843233][0.530266,0.930842,0][-0.247658,-0.777785,-0.670664][0.20204,-0.894342,0.399232][0.530266,0.46676,0][-0.102215,0.272376,-0.077735][0.270198,0.464924,0.843233][0.530266,0.930842,0][1.5023e-17,-0.770127,-0.713652][-0.00243422,-0.900184,0.434285][0.47774,0.466766,0][1.43056e-16,0.275345,-0.095507][0.00438159,0.457134,0.88997][0.47774,0.93084,0][1.72983e-16,0.519718,0.150279][0.000486843,-0.983921,-0.178164][0.843304,0.015252,0][1.68484e-16,0.482975,0.352654][0.000486843,-0.983921,-0.178164][0.843304,0.135596,0][-0.089064,0.510532,0.200873][0.000486843,-0.983921,-0.178164][0.895414,0.045338,0][-0.089064,0.510532,0.200873][0.000486843,-0.983921,-0.178164][0.895414,0.045338,0][1.68484e-16,0.482975,0.352654][0.000486843,-0.983921,-0.178164][0.843304,0.135596,0][-0.089064,0.492161,0.302061][0.000486843,-0.983921,-0.178164][0.895414,0.10551,0][0.089064,0.510532,0.200873][0.000486843,-0.983921,-0.178164][0.791193,0.045338,0][1.68484e-16,0.482975,0.352654][0.000486843,-0.983921,-0.178164][0.843304,0.135596,0][1.72983e-16,0.519718,0.150279][0.000486843,-0.983921,-0.178164][0.843304,0.015252,0][1.68484e-16,0.482975,0.352654][0.000486843,-0.983921,-0.178164][0.843304,0.135596,0][0.089064,0.510532,0.200873][0.000486843,-0.983921,-0.178164][0.791193,0.045338,0][0.089064,0.492161,0.302061][0.000486843,-0.983921,-0.178164][0.791193,0.10551,0][0.224063,0.866478,0.300307][0.683041,-0.719078,-0.130453][0.034665,0.255589,0][0.109852,0.755283,0.315025][0.683041,-0.719078,-0.130453][0.126845,0.169408,0][0.109852,0.761418,0.281232][0.683041,-0.719078,-0.130453][0.126845,0.169408,0][0.109852,0.755283,0.315025][0.683041,-0.719078,-0.130453][0.126845,0.169408,0][0.224063,0.866478,0.300307][0.683041,-0.719078,-0.130453][0.034665,0.255589,0][0.224063,0.860342,0.3341][0.683041,-0.719078,-0.130453][0.034665,0.255589,0][-0.224063,0.866478,0.300307][-0.683041,-0.719078,-0.130453][0.396349,0.255589,0][-0.109852,0.755283,0.315025][-0.683041,-0.719078,-0.130453][0.304169,0.169408,0][-0.224063,0.860342,0.3341][-0.683041,-0.719078,-0.130453][0.396349,0.255589,0][-0.109852,0.755283,0.315025][-0.683041,-0.719078,-0.130453][0.304169,0.169408,0][-0.224063,0.866478,0.300307][-0.683041,-0.719078,-0.130453][0.396349,0.255589,0][-0.109852,0.761418,0.281232][-0.683041,-0.719078,-0.130453][0.304169,0.169408,0][1.93429e-16,0.68667,0.267661][-0.502909,-0.850526,-0.154795][0.215507,0.108092,0][0.138478,0.601178,0.287046][-0.502909,-0.850526,-0.154795][0.103741,0.042996,0][1.92678e-16,0.680535,0.301454][-0.502909,-0.850526,-0.154795][0.215507,0.108092,0][0.138478,0.601178,0.287046][-0.502909,-0.850526,-0.154795][0.103741,0.042996,0][1.93429e-16,0.68667,0.267661][-0.502909,-0.850526,-0.154795][0.215507,0.108092,0][0.138478,0.607313,0.253253][-0.502909,-0.850526,-0.154795][0.103741,0.042996,0][1.93429e-16,0.68667,0.267661][0.502909,-0.850526,-0.154795][0.215507,0.108092,0][-0.138478,0.601178,0.287046][0.502909,-0.850526,-0.154795][0.327274,0.042996,0][-0.138478,0.607313,0.253253][0.502909,-0.850526,-0.154795][0.327274,0.042996,0][-0.138478,0.601178,0.287046][0.502909,-0.850526,-0.154795][0.327274,0.042996,0][1.93429e-16,0.68667,0.267661][0.502909,-0.850526,-0.154795][0.215507,0.108092,0][1.92678e-16,0.680535,0.301454][0.502909,-0.850526,-0.154795][0.215507,0.108092,0]