version 1.00
60
[1,-12,0.999512][-1.22465e-16,-1,-1.22465e-16][-1.15278,4.98738,0][-1,-12,0.999512][-1.22465e-16,-1,-1.22465e-16][-2.45278,4.98738,0][1,-12,-1.00049][-1.22465e-16,-1,-1.22465e-16][-1.15278,3.68738,0][1,-12,-1.00049][-1.22465e-16,-1,-1.22465e-16][-1.15278,3.68738,0][-1,-12,0.999512][-1.22465e-16,-1,-1.22465e-16][-2.45278,4.98738,0][-1,-12,-1.00049][-1.22465e-16,-1,-1.22465e-16][-2.45278,3.68738,0][1,12,-1.00049][1.22465e-16,1,1.22465e-16][-1.15278,4.98738,0][-1,12,-1.00049][1.22465e-16,1,1.22465e-16][-2.45278,4.98738,0][1,12,0.999512][1.22465e-16,1,1.22465e-16][-1.15278,3.68738,0][1,12,0.999512][1.22465e-16,1,1.22465e-16][-1.15278,3.68738,0][-1,12,-1.00049][1.22465e-16,1,1.22465e-16][-2.45278,4.98738,0][-1,12,0.999512][1.22465e-16,1,1.22465e-16][-2.45278,3.68738,0][0.5,7.49996,-6.50048][1.22465e-16,1,1.22465e-16][0.891293,-1.611,0][-0.5,7.49996,-6.50048][1.22465e-16,1,1.22465e-16][0.241293,-1.611,0][0.5,7.49996,-5.00048][1.22465e-16,1,1.22465e-16][0.891293,-2.586,0][0.5,7.49996,-5.00048][1.22465e-16,1,1.22465e-16][0.891293,-2.586,0][-0.5,7.49996,-6.50048][1.22465e-16,1,1.22465e-16][0.241293,-1.611,0][-0.5,7.49996,-5.00048][1.22465e-16,1,1.22465e-16][0.241293,-2.586,0][-0.5,2.00272e-05,-6.50048][1.49976e-32,1.22465e-16,-1][-2.1021,-1.47434,0][0.5,2.00272e-05,-6.50048][1.49976e-32,1.22465e-16,-1][-2.7521,-1.47434,0][-0.5,-1.99998,-6.50048][1.49976e-32,1.22465e-16,-1][-2.1021,-2.77434,0][-0.5,-1.99998,-6.50048][1.49976e-32,1.22465e-16,-1][-2.1021,-2.77434,0][0.5,2.00272e-05,-6.50048][1.49976e-32,1.22465e-16,-1][-2.7521,-1.47434,0][0.5,-1.99998,-6.50048][1.49976e-32,1.22465e-16,-1][-2.7521,-2.77434,0][-0.5,7.49996,-6.50048][1.49976e-32,1.22465e-16,-1][0.891293,-1.611,0][0.5,7.49996,-6.50048][1.49976e-32,1.22465e-16,-1][0.241293,-1.611,0][-0.5,-4.00543e-05,-6.50048][1.49976e-32,1.22465e-16,-1][0.891293,-6.486,0][-0.5,-4.00543e-05,-6.50048][1.49976e-32,1.22465e-16,-1][0.891293,-6.486,0][0.5,7.49996,-6.50048][1.49976e-32,1.22465e-16,-1][0.241293,-1.611,0][0.5,-4.00543e-05,-6.50048][1.49976e-32,1.22465e-16,-1][0.241293,-6.486,0][0.5,4.5,6.50048][-1.49976e-32,-1.22465e-16,1][-1.86857,-0.407914,0][-0.5,4.5,6.50048][-1.49976e-32,-1.22465e-16,1][-2.51857,-0.407914,0][0.5,-2,6.50048][-1.49976e-32,-1.22465e-16,1][-1.86857,-4.63291,0][0.5,-2,6.50048][-1.49976e-32,-1.22465e-16,1][-1.86857,-4.63291,0][-0.5,4.5,6.50048][-1.49976e-32,-1.22465e-16,1][-2.51857,-0.407914,0][-0.5,-2,6.50048][-1.49976e-32,-1.22465e-16,1][-2.51857,-4.63291,0][0.5,-1.99998,6.49952][-1.49976e-32,-1.22465e-16,1][1.79428,0.794901,0][-0.5,-1.99998,6.49952][-1.49976e-32,-1.22465e-16,1][1.14428,0.794901,0][0.5,-3.99998,6.49952][-1.49976e-32,-1.22465e-16,1][1.79428,-0.505099,0][0.5,-3.99998,6.49952][-1.49976e-32,-1.22465e-16,1][1.79428,-0.505099,0][-0.5,-1.99998,6.49952][-1.49976e-32,-1.22465e-16,1][1.14428,0.794901,0][-0.5,-3.99998,6.49952][-1.49976e-32,-1.22465e-16,1][1.14428,-0.505099,0][0.5,4.5,5.00048][1.22465e-16,1,1.22465e-16][-1.86857,-0.407914,0][-0.5,4.5,5.00048][1.22465e-16,1,1.22465e-16][-2.51857,-0.407914,0][0.5,4.5,6.50048][1.22465e-16,1,1.22465e-16][-1.86857,-1.38291,0][0.5,4.5,6.50048][1.22465e-16,1,1.22465e-16][-1.86857,-1.38291,0][-0.5,4.5,5.00048][1.22465e-16,1,1.22465e-16][-2.51857,-0.407914,0][-0.5,4.5,6.50048][1.22465e-16,1,1.22465e-16][-2.51857,-1.38291,0][0.5,-3.99998,6.49952][-1.22465e-16,-1,-1.22465e-16][1.79428,0.794901,0][-0.5,-3.99998,6.49952][-1.22465e-16,-1,-1.22465e-16][1.14428,0.794901,0][0.5,-3.99998,0.999512][-1.22465e-16,-1,-1.22465e-16][1.79428,-2.7801,0][0.5,-3.99998,0.999512][-1.22465e-16,-1,-1.22465e-16][1.79428,-2.7801,0][-0.5,-3.99998,6.49952][-1.22465e-16,-1,-1.22465e-16][1.14428,0.794901,0][-0.5,-3.99998,0.999512][-1.22465e-16,-1,-1.22465e-16][1.14428,-2.7801,0][0.5,-1.99998,-1.00049][-1.22465e-16,-1,-1.22465e-16][-2.1021,-1.47434,0][-0.5,-1.99998,-1.00049][-1.22465e-16,-1,-1.22465e-16][-2.7521,-1.47434,0][0.5,-1.99998,-6.50048][-1.22465e-16,-1,-1.22465e-16][-2.1021,-5.04934,0][0.5,-1.99998,-6.50048][-1.22465e-16,-1,-1.22465e-16][-2.1021,-5.04934,0][-0.5,-1.99998,-1.00049][-1.22465e-16,-1,-1.22465e-16][-2.7521,-1.47434,0][-0.5,-1.99998,-6.50048][-1.22465e-16,-1,-1.22465e-16][-2.7521,-5.04934,0][0.5,-2,6.50048][-1.22465e-16,-1,-1.22465e-16][-1.86857,-0.407914,0][-0.5,-2,6.50048][-1.22465e-16,-1,-1.22465e-16][-2.51857,-0.407914,0][0.5,-2,5.00048][-1.22465e-16,-1,-1.22465e-16][-1.86857,-1.38291,0][0.5,-2,5.00048][-1.22465e-16,-1,-1.22465e-16][-1.86857,-1.38291,0][-0.5,-2,6.50048][-1.22465e-16,-1,-1.22465e-16][-2.51857,-0.407914,0][-0.5,-2,5.00048][-1.22465e-16,-1,-1.22465e-16][-2.51857,-1.38291,0][-1,12,0.999512][-1,1.22465e-16,0][-1.15278,4.98738,0][-1,12,-1.00049][-1,1.22465e-16,0][-2.45278,4.98738,0][-1,-12,0.999512][-1,1.22465e-16,0][-1.15278,-10.6126,0][-1,-12,0.999512][-1,1.22465e-16,0][-1.15278,-10.6126,0][-1,12,-1.00049][-1,1.22465e-16,0][-2.45278,4.98738,0][-1,-12,-1.00049][-1,1.22465e-16,0][-2.45278,-10.6126,0][-1,12,-1.00049][1.49976e-32,1.22465e-16,-1][-1.15278,4.98738,0][1,12,-1.00049][1.49976e-32,1.22465e-16,-1][-2.45278,4.98738,0][-1,-12,-1.00049][1.49976e-32,1.22465e-16,-1][-1.15278,-10.6126,0][-1,-12,-1.00049][1.49976e-32,1.22465e-16,-1][-1.15278,-10.6126,0][1,12,-1.00049][1.49976e-32,1.22465e-16,-1][-2.45278,4.98738,0][1,-12,-1.00049][1.49976e-32,1.22465e-16,-1][-2.45278,-10.6126,0][1,12,-1.00049][1,-1.22465e-16,0][-1.15278,4.98738,0][1,12,0.999512][1,-1.22465e-16,0][-2.45278,4.98738,0][1,-12,-1.00049][1,-1.22465e-16,0][-1.15278,-10.6126,0][1,-12,-1.00049][1,-1.22465e-16,0][-1.15278,-10.6126,0][1,12,0.999512][1,-1.22465e-16,0][-2.45278,4.98738,0][1,-12,0.999512][1,-1.22465e-16,0][-2.45278,-10.6126,0][1,12,0.999512][-1.49976e-32,-1.22465e-16,1][-1.15278,4.98738,0][-1,12,0.999512][-1.49976e-32,-1.22465e-16,1][-2.45278,4.98738,0][1,-12,0.999512][-1.49976e-32,-1.22465e-16,1][-1.15278,-10.6126,0][1,-12,0.999512][-1.49976e-32,-1.22465e-16,1][-1.15278,-10.6126,0][-1,12,0.999512][-1.49976e-32,-1.22465e-16,1][-2.45278,4.98738,0][-1,-12,0.999512][-1.49976e-32,-1.22465e-16,1][-2.45278,-10.6126,0][-0.5,2.00272e-05,-1.00049][-1,1.22465e-16,0][0.822898,-1.47434,0][-0.5,2.00272e-05,-6.50048][-1,1.22465e-16,0][-2.7521,-1.47434,0][-0.5,-1.99998,-1.00049][-1,1.22465e-16,0][0.822898,-2.77434,0][-0.5,-1.99998,-1.00049][-1,1.22465e-16,0][0.822898,-2.77434,0][-0.5,2.00272e-05,-6.50048][-1,1.22465e-16,0][-2.7521,-1.47434,0][-0.5,-1.99998,-6.50048][-1,1.22465e-16,0][-2.7521,-2.77434,0][0.5,2.00272e-05,-6.50048][1,-1.22465e-16,0][0.822898,-1.47434,0][0.5,2.00272e-05,-1.00049][1,-1.22465e-16,0][-2.7521,-1.47434,0][0.5,-1.99998,-6.50048][1,-1.22465e-16,0][0.822898,-2.77434,0][0.5,-1.99998,-6.50048][1,-1.22465e-16,0][0.822898,-2.77434,0][0.5,2.00272e-05,-1.00049][1,-1.22465e-16,0][-2.7521,-1.47434,0][0.5,-1.99998,-1.00049][1,-1.22465e-16,0][-2.7521,-2.77434,0][-0.5,7.49996,-5.00048][-1,1.22465e-16,0][1.21629,-1.611,0][-0.5,7.49996,-6.50048][-1,1.22465e-16,0][0.241293,-1.611,0][-0.5,-4.00543e-05,-5.00048][-1,1.22465e-16,0][1.21629,-6.486,0][-0.5,-4.00543e-05,-5.00048][-1,1.22465e-16,0][1.21629,-6.486,0][-0.5,7.49996,-6.50048][-1,1.22465e-16,0][0.241293,-1.611,0][-0.5,-4.00543e-05,-6.50048][-1,1.22465e-16,0][0.241293,-6.486,0][0.5,7.49996,-6.50048][1,-1.22465e-16,0][1.21629,-1.611,0][0.5,7.49996,-5.00048][1,-1.22465e-16,0][0.241293,-1.611,0][0.5,-4.00543e-05,-6.50048][1,-1.22465e-16,0][1.21629,-6.486,0][0.5,-4.00543e-05,-6.50048][1,-1.22465e-16,0][1.21629,-6.486,0][0.5,7.49996,-5.00048][1,-1.22465e-16,0][0.241293,-1.611,0][0.5,-4.00543e-05,-5.00048][1,-1.22465e-16,0][0.241293,-6.486,0][-0.5,4.5,6.50048][-1,1.22465e-16,0][-1.54357,-0.407914,0][-0.5,4.5,5.00048][-1,1.22465e-16,0][-2.51857,-0.407914,0][-0.5,-2,6.50048][-1,1.22465e-16,0][-1.54357,-4.63291,0][-0.5,-2,6.50048][-1,1.22465e-16,0][-1.54357,-4.63291,0][-0.5,4.5,5.00048][-1,1.22465e-16,0][-2.51857,-0.407914,0][-0.5,-2,5.00048][-1,1.22465e-16,0][-2.51857,-4.63291,0][0.5,4.5,5.00048][1,-1.22465e-16,0][-1.54357,-0.407914,0][0.5,4.5,6.50048][1,-1.22465e-16,0][-2.51857,-0.407914,0][0.5,-2,5.00048][1,-1.22465e-16,0][-1.54357,-4.63291,0][0.5,-2,5.00048][1,-1.22465e-16,0][-1.54357,-4.63291,0][0.5,4.5,6.50048][1,-1.22465e-16,0][-2.51857,-0.407914,0][0.5,-2,6.50048][1,-1.22465e-16,0][-2.51857,-4.63291,0][-0.5,-1.99998,6.49952][-1,1.22465e-16,0][4.71928,0.794901,0][-0.5,-1.99998,0.999512][-1,1.22465e-16,0][1.14428,0.794901,0][-0.5,-3.99998,6.49952][-1,1.22465e-16,0][4.71928,-0.505099,0][-0.5,-3.99998,6.49952][-1,1.22465e-16,0][4.71928,-0.505099,0][-0.5,-1.99998,0.999512][-1,1.22465e-16,0][1.14428,0.794901,0][-0.5,-3.99998,0.999512][-1,1.22465e-16,0][1.14428,-0.505099,0][0.5,-1.99998,0.999512][1,-1.22465e-16,0][4.71928,0.794901,0][0.5,-1.99998,6.49952][1,-1.22465e-16,0][1.14428,0.794901,0][0.5,-3.99998,0.999512][1,-1.22465e-16,0][4.71928,-0.505099,0][0.5,-3.99998,0.999512][1,-1.22465e-16,0][4.71928,-0.505099,0][0.5,-1.99998,6.49952][1,-1.22465e-16,0][1.14428,0.794901,0][0.5,-3.99998,6.49952][1,-1.22465e-16,0][1.14428,-0.505099,0][0.5,-4.00543e-05,-5.00048][-1.22465e-16,-1,-1.22465e-16][0.891293,-1.611,0][-0.5,-4.00543e-05,-5.00048][-1.22465e-16,-1,-1.22465e-16][0.241293,-1.611,0][0.5,-4.00543e-05,-6.50048][-1.22465e-16,-1,-1.22465e-16][0.891293,-2.586,0][0.5,-4.00543e-05,-6.50048][-1.22465e-16,-1,-1.22465e-16][0.891293,-2.586,0][-0.5,-4.00543e-05,-5.00048][-1.22465e-16,-1,-1.22465e-16][0.241293,-1.611,0][-0.5,-4.00543e-05,-6.50048][-1.22465e-16,-1,-1.22465e-16][0.241293,-2.586,0][0.5,2.00272e-05,-6.50048][1.22465e-16,1,1.22465e-16][-2.1021,-1.47434,0][-0.5,2.00272e-05,-6.50048][1.22465e-16,1,1.22465e-16][-2.7521,-1.47434,0][0.5,2.00272e-05,-1.00049][1.22465e-16,1,1.22465e-16][-2.1021,-5.04934,0][0.5,2.00272e-05,-1.00049][1.22465e-16,1,1.22465e-16][-2.1021,-5.04934,0][-0.5,2.00272e-05,-6.50048][1.22465e-16,1,1.22465e-16][-2.7521,-1.47434,0][-0.5,2.00272e-05,-1.00049][1.22465e-16,1,1.22465e-16][-2.7521,-5.04934,0][0.5,2.00272e-05,-1.00049][-1.49976e-32,-1.22465e-16,1][-2.1021,-1.47434,0][-0.5,2.00272e-05,-1.00049][-1.49976e-32,-1.22465e-16,1][-2.7521,-1.47434,0][0.5,-1.99998,-1.00049][-1.49976e-32,-1.22465e-16,1][-2.1021,-2.77434,0][0.5,-1.99998,-1.00049][-1.49976e-32,-1.22465e-16,1][-2.1021,-2.77434,0][-0.5,2.00272e-05,-1.00049][-1.49976e-32,-1.22465e-16,1][-2.7521,-1.47434,0][-0.5,-1.99998,-1.00049][-1.49976e-32,-1.22465e-16,1][-2.7521,-2.77434,0][-0.5,-1.99998,0.999512][1.49976e-32,1.22465e-16,-1][1.79428,0.794901,0][0.5,-1.99998,0.999512][1.49976e-32,1.22465e-16,-1][1.14428,0.794901,0][-0.5,-3.99998,0.999512][1.49976e-32,1.22465e-16,-1][1.79428,-0.505099,0][-0.5,-3.99998,0.999512][1.49976e-32,1.22465e-16,-1][1.79428,-0.505099,0][0.5,-1.99998,0.999512][1.49976e-32,1.22465e-16,-1][1.14428,0.794901,0][0.5,-3.99998,0.999512][1.49976e-32,1.22465e-16,-1][1.14428,-0.505099,0][0.5,-1.99998,0.999512][1.22465e-16,1,1.22465e-16][1.79428,0.794901,0][-0.5,-1.99998,0.999512][1.22465e-16,1,1.22465e-16][1.14428,0.794901,0][0.5,-1.99998,6.49952][1.22465e-16,1,1.22465e-16][1.79428,-2.7801,0][0.5,-1.99998,6.49952][1.22465e-16,1,1.22465e-16][1.79428,-2.7801,0][-0.5,-1.99998,0.999512][1.22465e-16,1,1.22465e-16][1.14428,0.794901,0][-0.5,-1.99998,6.49952][1.22465e-16,1,1.22465e-16][1.14428,-2.7801,0][0.5,7.49996,-5.00048][-1.49976e-32,-1.22465e-16,1][0.891293,-1.611,0][-0.5,7.49996,-5.00048][-1.49976e-32,-1.22465e-16,1][0.241293,-1.611,0][0.5,-4.00543e-05,-5.00048][-1.49976e-32,-1.22465e-16,1][0.891293,-6.486,0][0.5,-4.00543e-05,-5.00048][-1.49976e-32,-1.22465e-16,1][0.891293,-6.486,0][-0.5,7.49996,-5.00048][-1.49976e-32,-1.22465e-16,1][0.241293,-1.611,0][-0.5,-4.00543e-05,-5.00048][-1.49976e-32,-1.22465e-16,1][0.241293,-6.486,0][-0.5,4.5,5.00048][1.49976e-32,1.22465e-16,-1][-1.86857,-0.407914,0][0.5,4.5,5.00048][1.49976e-32,1.22465e-16,-1][-2.51857,-0.407914,0][-0.5,-2,5.00048][1.49976e-32,1.22465e-16,-1][-1.86857,-4.63291,0][-0.5,-2,5.00048][1.49976e-32,1.22465e-16,-1][-1.86857,-4.63291,0][0.5,4.5,5.00048][1.49976e-32,1.22465e-16,-1][-2.51857,-0.407914,0][0.5,-2,5.00048][1.49976e-32,1.22465e-16,-1][-2.51857,-4.63291,0]